<?xml version="1.0" encoding="utf-8" standalone="no"?>
<!DOCTYPE svg PUBLIC "-//W3C//DTD SVG 1.1//EN"
  "http://www.w3.org/Graphics/SVG/1.1/DTD/svg11.dtd">
<svg xmlns:xlink="http://www.w3.org/1999/xlink" width="316.08pt" height="206.934098pt" viewBox="0 0 316.08 206.934098" xmlns="http://www.w3.org/2000/svg" version="1.1">
 <metadata>
  <rdf:RDF xmlns:dc="http://purl.org/dc/elements/1.1/" xmlns:cc="http://creativecommons.org/ns#" xmlns:rdf="http://www.w3.org/1999/02/22-rdf-syntax-ns#">
   <cc:Work>
    <dc:type rdf:resource="http://purl.org/dc/dcmitype/StillImage"/>
    <dc:date>2024-08-19T02:19:34.996681</dc:date>
    <dc:format>image/svg+xml</dc:format>
    <dc:creator>
     <cc:Agent>
      <dc:title>Matplotlib v3.7.2, https://matplotlib.org/</dc:title>
     </cc:Agent>
    </dc:creator>
   </cc:Work>
  </rdf:RDF>
 </metadata>
 <defs>
  <style type="text/css">*{stroke-linejoin: round; stroke-linecap: butt}</style>
 </defs>
 <g id="figure_1">
  <g id="patch_1">
   <path d="M 0 206.934098 
L 316.08 206.934098 
L 316.08 0 
L 0 0 
L 0 206.934098 
z
" style="fill: none"/>
  </g>
  <g id="axes_1">
   <g id="PathCollection_1">
    <path d="M 16.285286 194.970986 
L 17.72442 194.970986 
L 19.163554 194.970986 
L 20.602688 194.970986 
L 22.041822 194.970986 
L 23.480956 194.970986 
L 24.92009 194.970986 
L 26.359225 194.970986 
L 27.798359 194.970986 
L 29.237493 194.970986 
L 30.676627 194.970986 
L 32.115761 194.970986 
L 33.554895 194.970986 
L 34.99403 194.970986 
L 36.433164 194.970986 
L 37.872298 194.970986 
L 39.311432 194.970986 
L 40.750566 194.970986 
L 42.1897 194.970986 
L 43.628834 194.970986 
L 45.067969 194.970986 
L 46.507103 194.970986 
L 47.946237 194.970986 
L 49.385371 194.970986 
L 50.824505 194.970986 
L 52.263639 194.970986 
L 53.702774 194.970986 
L 55.141908 194.970986 
L 56.581042 194.970986 
L 58.020176 194.970986 
L 59.45931 194.970986 
L 60.898444 194.970986 
L 62.337579 194.970986 
L 63.776713 194.970986 
L 65.215847 194.970986 
L 66.654981 194.970986 
L 68.094115 194.970986 
L 69.533249 194.970986 
L 70.972383 194.970986 
L 72.411518 194.970986 
L 73.850652 194.970986 
L 75.289786 194.970986 
L 76.72892 194.970986 
L 78.168054 194.970986 
L 79.607188 194.970986 
L 81.046323 194.970986 
L 82.485457 194.970986 
L 83.924591 194.970986 
L 85.363725 194.970986 
L 86.802859 194.970986 
L 88.241993 194.970986 
L 89.681128 194.970986 
L 91.120262 194.970986 
L 92.559396 194.970986 
L 93.99853 194.970986 
L 95.437664 194.970986 
L 96.876798 194.970986 
L 98.315932 194.970986 
L 99.755067 194.970986 
L 101.194201 194.970986 
L 102.633335 194.970986 
L 104.072469 194.970986 
L 105.511603 194.970986 
L 106.950737 194.970986 
L 108.389872 194.970986 
L 109.829006 194.970986 
L 111.26814 194.970986 
L 112.707274 194.970986 
L 114.146408 194.970986 
L 115.585542 194.970986 
L 117.024677 194.970986 
L 118.463811 194.970986 
L 119.902945 194.970986 
L 121.342079 194.970986 
L 122.781213 194.970986 
L 124.220347 194.970986 
L 125.659481 194.970986 
L 127.098616 194.970986 
L 128.53775 194.970986 
L 129.976884 194.970986 
L 131.416018 194.970986 
L 132.855152 194.970986 
L 134.294286 194.970986 
L 135.733421 194.970986 
L 137.172555 194.970986 
L 138.611689 194.970986 
L 140.050823 194.970986 
L 141.489957 194.970986 
L 142.929091 194.970986 
L 144.368226 194.970986 
L 145.80736 194.970986 
L 147.246494 194.970986 
L 148.685628 194.970986 
L 150.124762 194.970986 
L 151.563896 194.970986 
L 153.00303 194.970986 
L 154.442165 194.970986 
L 155.881299 194.970986 
L 157.320433 194.970986 
L 158.759567 194.970986 
L 160.198701 194.970986 
L 161.637835 194.970986 
L 163.07697 194.970986 
L 164.516104 194.970986 
L 165.955238 194.970986 
L 167.394372 194.970986 
L 168.833506 194.970986 
L 170.27264 194.970986 
L 171.711774 194.970986 
L 173.150909 194.970986 
L 174.590043 194.970986 
L 176.029177 194.970986 
L 177.468311 194.970986 
L 178.907445 194.970986 
L 180.346579 194.970986 
L 181.785714 194.970986 
L 183.224848 194.970986 
L 184.663982 194.970986 
L 186.103116 194.970986 
L 187.54225 194.970986 
L 188.981384 194.970986 
L 190.420519 194.970986 
L 191.859653 194.970986 
L 192.113061 194.970986 
L 191.859653 194.498698 
L 191.649755 194.111738 
L 191.200549 193.25249 
L 190.772212 192.393243 
L 190.420519 191.654886 
L 190.362083 191.533995 
L 189.960404 190.674747 
L 189.577828 189.815499 
L 189.213642 188.956252 
L 188.981384 188.383131 
L 188.863205 188.097004 
L 188.522349 187.237756 
L 188.198524 186.378508 
L 187.891148 185.519261 
L 187.599673 184.660013 
L 187.54225 184.483069 
L 187.315482 183.800765 
L 187.044596 182.941517 
L 186.788667 182.08227 
L 186.547255 181.223022 
L 186.319944 180.363774 
L 186.106346 179.504526 
L 186.103116 179.490793 
L 185.898349 178.645279 
L 185.703731 177.786031 
L 185.522293 176.926783 
L 185.353731 176.067535 
L 185.197764 175.208288 
L 185.054133 174.34904 
L 184.9226 173.489792 
L 184.802945 172.630544 
L 184.694972 171.771297 
L 184.663982 171.496176 
L 184.595769 170.912049 
L 184.507083 170.052801 
L 184.430055 169.193553 
L 184.364558 168.334306 
L 184.31048 167.475058 
L 184.267731 166.61581 
L 184.236235 165.756562 
L 184.215934 164.897315 
L 184.20679 164.038067 
L 184.20878 163.178819 
L 184.221898 162.319571 
L 184.246156 161.460324 
L 184.281584 160.601076 
L 184.328228 159.741828 
L 184.386151 158.88258 
L 184.455436 158.023333 
L 184.536181 157.164085 
L 184.628503 156.304837 
L 184.663982 156.010949 
L 184.729755 155.445589 
L 184.840946 154.586342 
L 184.963682 153.727094 
L 185.098146 152.867846 
L 185.244541 152.008598 
L 185.403092 151.149351 
L 185.574041 150.290103 
L 185.757654 149.430855 
L 185.954217 148.571607 
L 186.103116 147.960249 
L 186.161659 147.71236 
L 186.376337 146.853112 
L 186.604405 145.993864 
L 186.846228 145.134616 
L 187.102199 144.275369 
L 187.372735 143.416121 
L 187.54225 142.903531 
L 187.653943 142.556873 
L 187.943706 141.697626 
L 188.248844 140.838378 
L 188.569871 139.97913 
L 188.907335 139.119882 
L 188.981384 138.938308 
L 189.251813 138.260635 
L 189.610636 137.401387 
L 189.987075 136.542139 
L 190.381795 135.682891 
L 190.420519 135.601244 
L 190.782794 134.823644 
L 191.201528 133.964396 
L 191.640073 133.105148 
L 191.859653 132.690355 
L 192.091561 132.2459 
L 192.556783 131.386653 
L 193.043652 130.527405 
L 193.298787 130.092865 
L 193.545423 129.668157 
L 194.062327 128.808909 
L 194.603066 127.949662 
L 194.737921 127.741488 
L 195.156537 127.090414 
L 195.731476 126.231166 
L 196.177055 125.590892 
L 196.328766 125.371918 
L 196.941275 124.512671 
L 197.581986 123.653423 
L 197.616189 123.608578 
L 198.236794 122.794175 
L 198.920974 121.934927 
L 199.055323 121.770404 
L 199.623911 121.07568 
L 200.35635 120.216432 
L 200.494458 120.058329 
L 201.110262 119.357184 
L 201.896496 118.497936 
L 201.933592 118.45821 
L 202.705511 117.638689 
L 203.372726 116.95749 
L 203.549128 116.779441 
L 204.421686 115.920193 
L 204.81186 115.547451 
L 205.328712 115.060945 
L 206.250994 114.221694 
L 206.273362 114.201698 
L 207.252723 113.34245 
L 207.690128 112.970098 
L 208.274353 112.483202 
L 209.129263 111.790859 
L 209.340422 111.623954 
L 210.453194 110.764707 
L 210.568397 110.677495 
L 211.617114 109.905459 
L 212.007531 109.624757 
L 212.837702 109.046211 
L 213.446665 108.630848 
L 214.12032 108.186963 
L 214.885799 107.692247 
L 215.471702 107.327716 
L 216.324933 106.805938 
L 216.900236 106.468468 
L 217.764068 105.969362 
L 218.416332 105.60922 
L 219.203202 105.180385 
L 220.032897 104.749972 
L 220.642336 104.437262 
L 221.765958 103.890725 
L 222.08147 103.738612 
L 223.520604 103.082341 
L 223.638523 103.031477 
L 224.959738 102.464633 
L 225.688333 102.172229 
L 226.398872 101.888015 
L 227.838007 101.351467 
L 227.948177 101.312981 
L 229.277141 100.848668 
L 230.505741 100.453734 
L 230.716275 100.385908 
L 232.155409 99.955351 
L 233.480654 99.594486 
L 233.594543 99.563298 
L 235.033677 99.201143 
L 236.472812 98.875706 
L 237.164773 98.735238 
L 237.911946 98.58196 
L 239.35108 98.319686 
L 240.790214 98.091116 
L 242.229348 97.895271 
L 242.397484 97.87599 
L 243.668482 97.727778 
L 245.107617 97.591799 
L 246.546751 97.487247 
L 247.985885 97.413698 
L 249.425019 97.370866 
L 250.864153 97.358596 
L 252.303287 97.376868 
L 253.742421 97.425794 
L 255.181556 97.505618 
L 256.62069 97.61672 
L 258.059824 97.75962 
L 259.017531 97.87599 
L 259.498958 97.933589 
L 260.938092 98.137312 
L 262.377226 98.374472 
L 263.816361 98.646169 
L 264.237412 98.735238 
L 265.255495 98.948706 
L 266.694629 99.285635 
L 267.883637 99.594486 
L 268.133763 99.659124 
L 269.572897 100.064777 
L 270.829582 100.453734 
L 271.012031 100.510123 
L 272.451166 100.98943 
L 273.347728 101.312981 
L 273.8903 101.509236 
L 275.329434 102.06872 
L 275.579489 102.172229 
L 276.768568 102.667434 
L 277.586757 103.031477 
L 278.207702 103.310068 
L 279.425142 103.890725 
L 279.646836 103.997589 
L 281.08597 104.731027 
L 281.121398 104.749972 
L 282.525105 105.511522 
L 282.696678 105.60922 
L 283.964239 106.343182 
L 284.171224 106.468468 
L 285.403373 107.22863 
L 285.557612 107.327716 
L 286.842507 108.171017 
L 286.865928 108.186963 
L 288.104145 109.046211 
L 288.281641 109.172376 
L 289.279982 109.905459 
L 289.720775 110.237995 
L 290.398978 110.764707 
L 291.15991 111.373315 
L 291.465345 111.623954 
L 292.483173 112.483202 
L 292.599044 112.583382 
L 293.458118 113.34245 
L 294.038178 113.873369 
L 294.39031 114.201698 
L 295.283334 115.060945 
L 295.477312 115.252824 
L 296.142081 115.920193 
L 296.916446 116.73033 
L 296.962842 116.779441 
L 297.75607 117.638689 
L 298.35558 118.316841 
L 298.514384 118.497936 
L 299.24716 119.357184 
L 299.794714 120.027511 
L 299.948334 120.216432 
L 300.627192 121.07568 
L 301.233849 121.880433 
L 301.233849 121.07568 
L 301.233849 120.216432 
L 301.233849 119.357184 
L 301.233849 118.497936 
L 301.233849 117.638689 
L 301.233849 116.779441 
L 301.233849 115.920193 
L 301.233849 115.060945 
L 301.233849 114.201698 
L 301.233849 113.34245 
L 301.233849 112.483202 
L 301.233849 111.623954 
L 301.233849 110.764707 
L 301.233849 109.905459 
L 301.233849 109.046211 
L 301.233849 108.186963 
L 301.233849 107.327716 
L 301.233849 106.468468 
L 301.233849 105.60922 
L 301.233849 104.749972 
L 301.233849 103.890725 
L 301.233849 103.031477 
L 301.233849 102.172229 
L 301.233849 101.312981 
L 301.233849 100.453734 
L 301.233849 99.594486 
L 301.233849 98.735238 
L 301.233849 97.87599 
L 301.233849 97.016743 
L 301.233849 96.157495 
L 301.233849 95.298247 
L 301.233849 94.438999 
L 301.233849 93.579752 
L 301.233849 92.720504 
L 301.233849 91.861256 
L 301.233849 91.002008 
L 301.233849 90.142761 
L 301.233849 89.283513 
L 301.233849 88.424265 
L 301.233849 87.565017 
L 301.233849 86.70577 
L 301.233849 85.846522 
L 301.233849 84.987274 
L 301.233849 84.128026 
L 301.233849 83.268779 
L 301.233849 82.409531 
L 301.233849 81.550283 
L 301.233849 80.691035 
L 301.233849 79.831788 
L 301.233849 78.97254 
L 301.233849 78.113292 
L 301.233849 77.254044 
L 301.233849 76.394797 
L 301.233849 75.535549 
L 301.233849 74.676301 
L 301.233849 73.817054 
L 301.233849 72.957806 
L 301.233849 72.098558 
L 301.233849 71.23931 
L 301.233849 70.380063 
L 301.233849 69.520815 
L 301.233849 68.661567 
L 301.233849 67.802319 
L 301.233849 66.943072 
L 301.233849 66.083824 
L 301.233849 65.224576 
L 301.233849 64.365328 
L 301.233849 63.506081 
L 301.233849 62.646833 
L 301.233849 61.787585 
L 301.233849 60.928337 
L 301.233849 60.06909 
L 301.233849 59.209842 
L 301.233849 58.350594 
L 301.233849 57.491346 
L 301.233849 56.632099 
L 301.233849 55.772851 
L 301.233849 54.913603 
L 301.233849 54.054355 
L 301.233849 53.195108 
L 301.233849 52.33586 
L 301.233849 51.476612 
L 301.233849 50.617364 
L 301.233849 49.758117 
L 301.233849 48.898869 
L 301.233849 48.039621 
L 301.233849 47.180373 
L 301.233849 46.321126 
L 301.233849 45.461878 
L 301.233849 44.60263 
L 301.233849 43.743382 
L 301.233849 42.884135 
L 301.233849 42.024887 
L 301.233849 41.165639 
L 301.233849 40.306391 
L 301.233849 39.447144 
L 301.233849 38.587896 
L 301.233849 37.728648 
L 301.233849 36.8694 
L 301.233849 36.010153 
L 301.233849 35.150905 
L 301.233849 34.291657 
L 301.233849 33.432409 
L 301.233849 32.573162 
L 301.233849 31.713914 
L 301.233849 30.854666 
L 301.233849 29.995418 
L 301.233849 29.136171 
L 301.233849 28.276923 
L 301.233849 27.417675 
L 301.233849 26.558427 
L 301.233849 25.69918 
L 301.233849 24.839932 
L 299.794714 24.839932 
L 298.35558 24.839932 
L 296.916446 24.839932 
L 295.477312 24.839932 
L 294.038178 24.839932 
L 292.599044 24.839932 
L 291.15991 24.839932 
L 289.720775 24.839932 
L 288.281641 24.839932 
L 286.842507 24.839932 
L 285.403373 24.839932 
L 283.964239 24.839932 
L 282.525105 24.839932 
L 281.08597 24.839932 
L 279.646836 24.839932 
L 278.207702 24.839932 
L 276.768568 24.839932 
L 275.329434 24.839932 
L 273.8903 24.839932 
L 272.451166 24.839932 
L 271.012031 24.839932 
L 269.572897 24.839932 
L 268.133763 24.839932 
L 266.694629 24.839932 
L 265.255495 24.839932 
L 263.816361 24.839932 
L 262.377226 24.839932 
L 260.938092 24.839932 
L 259.498958 24.839932 
L 258.059824 24.839932 
L 256.62069 24.839932 
L 255.181556 24.839932 
L 253.742421 24.839932 
L 252.303287 24.839932 
L 250.864153 24.839932 
L 249.425019 24.839932 
L 247.985885 24.839932 
L 246.546751 24.839932 
L 245.107617 24.839932 
L 243.668482 24.839932 
L 242.229348 24.839932 
L 240.790214 24.839932 
L 239.35108 24.839932 
L 237.911946 24.839932 
L 236.472812 24.839932 
L 235.033677 24.839932 
L 233.594543 24.839932 
L 232.155409 24.839932 
L 230.716275 24.839932 
L 229.277141 24.839932 
L 227.838007 24.839932 
L 226.398872 24.839932 
L 224.959738 24.839932 
L 223.520604 24.839932 
L 222.08147 24.839932 
L 220.642336 24.839932 
L 219.203202 24.839932 
L 217.764068 24.839932 
L 216.324933 24.839932 
L 214.885799 24.839932 
L 213.446665 24.839932 
L 212.007531 24.839932 
L 210.568397 24.839932 
L 209.129263 24.839932 
L 207.690128 24.839932 
L 206.250994 24.839932 
L 204.81186 24.839932 
L 203.372726 24.839932 
L 201.933592 24.839932 
L 200.494458 24.839932 
L 199.055323 24.839932 
L 197.616189 24.839932 
L 196.177055 24.839932 
L 194.737921 24.839932 
L 193.298787 24.839932 
L 191.859653 24.839932 
L 190.420519 24.839932 
L 188.981384 24.839932 
L 187.54225 24.839932 
L 186.103116 24.839932 
L 184.663982 24.839932 
L 183.224848 24.839932 
L 181.785714 24.839932 
L 180.346579 24.839932 
L 178.907445 24.839932 
L 177.468311 24.839932 
L 176.029177 24.839932 
L 174.590043 24.839932 
L 173.150909 24.839932 
L 171.711774 24.839932 
L 170.27264 24.839932 
L 168.833506 24.839932 
L 167.394372 24.839932 
L 165.955238 24.839932 
L 164.516104 24.839932 
L 163.07697 24.839932 
L 161.637835 24.839932 
L 160.198701 24.839932 
L 158.759567 24.839932 
L 157.320433 24.839932 
L 155.881299 24.839932 
L 154.442165 24.839932 
L 153.00303 24.839932 
L 151.563896 24.839932 
L 150.124762 24.839932 
L 148.685628 24.839932 
L 147.246494 24.839932 
L 145.80736 24.839932 
L 144.368226 24.839932 
L 142.929091 24.839932 
L 141.489957 24.839932 
L 140.050823 24.839932 
L 138.611689 24.839932 
L 137.172555 24.839932 
L 135.733421 24.839932 
L 134.294286 24.839932 
L 132.855152 24.839932 
L 131.416018 24.839932 
L 129.976884 24.839932 
L 128.53775 24.839932 
L 127.098616 24.839932 
L 125.659481 24.839932 
L 124.220347 24.839932 
L 122.781213 24.839932 
L 121.342079 24.839932 
L 119.902945 24.839932 
L 118.463811 24.839932 
L 117.024677 24.839932 
L 115.585542 24.839932 
L 114.146408 24.839932 
L 112.707274 24.839932 
L 111.26814 24.839932 
L 109.829006 24.839932 
L 108.389872 24.839932 
L 106.950737 24.839932 
L 105.511603 24.839932 
L 104.072469 24.839932 
L 102.633335 24.839932 
L 101.194201 24.839932 
L 99.755067 24.839932 
L 98.315932 24.839932 
L 96.876798 24.839932 
L 95.437664 24.839932 
L 93.99853 24.839932 
L 92.559396 24.839932 
L 91.120262 24.839932 
L 89.681128 24.839932 
L 88.241993 24.839932 
L 86.802859 24.839932 
L 85.363725 24.839932 
L 83.924591 24.839932 
L 82.485457 24.839932 
L 81.046323 24.839932 
L 79.607188 24.839932 
L 78.168054 24.839932 
L 76.72892 24.839932 
L 75.289786 24.839932 
L 73.850652 24.839932 
L 72.411518 24.839932 
L 70.972383 24.839932 
L 69.533249 24.839932 
L 68.094115 24.839932 
L 66.654981 24.839932 
L 65.215847 24.839932 
L 63.776713 24.839932 
L 62.337579 24.839932 
L 60.898444 24.839932 
L 59.45931 24.839932 
L 58.020176 24.839932 
L 56.581042 24.839932 
L 55.141908 24.839932 
L 53.702774 24.839932 
L 52.263639 24.839932 
L 50.824505 24.839932 
L 49.385371 24.839932 
L 47.946237 24.839932 
L 46.507103 24.839932 
L 45.067969 24.839932 
L 43.628834 24.839932 
L 42.1897 24.839932 
L 40.750566 24.839932 
L 39.311432 24.839932 
L 37.872298 24.839932 
L 36.433164 24.839932 
L 34.99403 24.839932 
L 33.554895 24.839932 
L 32.115761 24.839932 
L 30.676627 24.839932 
L 29.237493 24.839932 
L 27.798359 24.839932 
L 26.359225 24.839932 
L 24.92009 24.839932 
L 23.480956 24.839932 
L 22.041822 24.839932 
L 20.602688 24.839932 
L 19.163554 24.839932 
L 17.72442 24.839932 
L 16.285286 24.839932 
L 14.846151 24.839932 
L 14.846151 25.69918 
L 14.846151 26.558427 
L 14.846151 27.417675 
L 14.846151 28.276923 
L 14.846151 29.136171 
L 14.846151 29.995418 
L 14.846151 30.854666 
L 14.846151 31.713914 
L 14.846151 32.573162 
L 14.846151 33.432409 
L 14.846151 34.291657 
L 14.846151 35.150905 
L 14.846151 36.010153 
L 14.846151 36.8694 
L 14.846151 37.728648 
L 14.846151 38.587896 
L 14.846151 39.447144 
L 14.846151 40.306391 
L 14.846151 41.165639 
L 14.846151 42.024887 
L 14.846151 42.884135 
L 14.846151 43.743382 
L 14.846151 44.60263 
L 14.846151 45.461878 
L 14.846151 46.321126 
L 14.846151 47.180373 
L 14.846151 48.039621 
L 14.846151 48.898869 
L 14.846151 49.758117 
L 14.846151 50.617364 
L 14.846151 51.476612 
L 14.846151 52.33586 
L 14.846151 53.195108 
L 14.846151 54.054355 
L 14.846151 54.913603 
L 14.846151 55.772851 
L 14.846151 56.632099 
L 14.846151 57.491346 
L 14.846151 58.350594 
L 14.846151 59.209842 
L 14.846151 60.06909 
L 14.846151 60.928337 
L 14.846151 61.787585 
L 14.846151 62.646833 
L 14.846151 63.506081 
L 14.846151 64.365328 
L 14.846151 65.224576 
L 14.846151 66.083824 
L 14.846151 66.943072 
L 14.846151 67.802319 
L 14.846151 68.661567 
L 14.846151 69.520815 
L 14.846151 70.380063 
L 14.846151 71.23931 
L 14.846151 72.098558 
L 14.846151 72.957806 
L 14.846151 73.817054 
L 14.846151 74.676301 
L 14.846151 75.535549 
L 14.846151 76.394797 
L 14.846151 77.254044 
L 14.846151 78.113292 
L 14.846151 78.97254 
L 14.846151 79.831788 
L 14.846151 80.691035 
L 14.846151 81.550283 
L 14.846151 82.409531 
L 14.846151 83.268779 
L 14.846151 84.128026 
L 14.846151 84.987274 
L 14.846151 85.846522 
L 14.846151 86.70577 
L 14.846151 87.565017 
L 14.846151 88.424265 
L 14.846151 89.283513 
L 14.846151 90.142761 
L 14.846151 91.002008 
L 14.846151 91.861256 
L 14.846151 92.720504 
L 14.846151 93.579752 
L 14.846151 94.438999 
L 14.846151 95.298247 
L 14.846151 96.157495 
L 14.846151 97.016743 
L 14.846151 97.87599 
L 14.846151 98.735238 
L 14.846151 99.594486 
L 14.846151 100.453734 
L 14.846151 101.312981 
L 14.846151 102.172229 
L 14.846151 103.031477 
L 14.846151 103.890725 
L 14.846151 104.749972 
L 14.846151 105.60922 
L 14.846151 106.468468 
L 14.846151 107.327716 
L 14.846151 108.186963 
L 14.846151 109.046211 
L 14.846151 109.905459 
L 14.846151 110.764707 
L 14.846151 111.623954 
L 14.846151 112.483202 
L 14.846151 113.34245 
L 14.846151 114.201698 
L 14.846151 115.060945 
L 14.846151 115.920193 
L 14.846151 116.779441 
L 14.846151 117.638689 
L 14.846151 118.497936 
L 14.846151 119.357184 
L 14.846151 120.216432 
L 14.846151 121.07568 
L 14.846151 121.934927 
L 14.846151 122.794175 
L 14.846151 123.653423 
L 14.846151 124.512671 
L 14.846151 125.371918 
L 14.846151 126.231166 
L 14.846151 127.090414 
L 14.846151 127.949662 
L 14.846151 128.808909 
L 14.846151 129.668157 
L 14.846151 130.527405 
L 14.846151 131.386653 
L 14.846151 132.2459 
L 14.846151 133.105148 
L 14.846151 133.964396 
L 14.846151 134.823644 
L 14.846151 135.682891 
L 14.846151 136.542139 
L 14.846151 137.401387 
L 14.846151 138.260635 
L 14.846151 139.119882 
L 14.846151 139.97913 
L 14.846151 140.838378 
L 14.846151 141.697626 
L 14.846151 142.556873 
L 14.846151 143.416121 
L 14.846151 144.275369 
L 14.846151 145.134616 
L 14.846151 145.993864 
L 14.846151 146.853112 
L 14.846151 147.71236 
L 14.846151 148.571607 
L 14.846151 149.430855 
L 14.846151 150.290103 
L 14.846151 151.149351 
L 14.846151 152.008598 
L 14.846151 152.867846 
L 14.846151 153.727094 
L 14.846151 154.586342 
L 14.846151 155.445589 
L 14.846151 156.304837 
L 14.846151 157.164085 
L 14.846151 158.023333 
L 14.846151 158.88258 
L 14.846151 159.741828 
L 14.846151 160.601076 
L 14.846151 161.460324 
L 14.846151 162.319571 
L 14.846151 163.178819 
L 14.846151 164.038067 
L 14.846151 164.897315 
L 14.846151 165.756562 
L 14.846151 166.61581 
L 14.846151 167.475058 
L 14.846151 168.334306 
L 14.846151 169.193553 
L 14.846151 170.052801 
L 14.846151 170.912049 
L 14.846151 171.771297 
L 14.846151 172.630544 
L 14.846151 173.489792 
L 14.846151 174.34904 
L 14.846151 175.208288 
L 14.846151 176.067535 
L 14.846151 176.926783 
L 14.846151 177.786031 
L 14.846151 178.645279 
L 14.846151 179.504526 
L 14.846151 180.363774 
L 14.846151 181.223022 
L 14.846151 182.08227 
L 14.846151 182.941517 
L 14.846151 183.800765 
L 14.846151 184.660013 
L 14.846151 185.519261 
L 14.846151 186.378508 
L 14.846151 187.237756 
L 14.846151 188.097004 
L 14.846151 188.956252 
L 14.846151 189.815499 
L 14.846151 190.674747 
L 14.846151 191.533995 
L 14.846151 192.393243 
L 14.846151 193.25249 
L 14.846151 194.111738 
L 14.846151 194.970986 
z
" clip-path="url(#p224788315a)" style="fill: #460a5d"/>
    <path d="M 301.233849 194.970986 
L 301.233849 194.810176 
L 301.126938 194.970986 
z
" clip-path="url(#p224788315a)" style="fill: #460a5d"/>
   </g>
   <g id="PathCollection_2">
    <path d="M 191.859653 194.498698 
L 192.113061 194.970986 
L 193.298787 194.970986 
L 194.737921 194.970986 
L 196.177055 194.970986 
L 197.616189 194.970986 
L 199.055323 194.970986 
L 200.494458 194.970986 
L 201.933592 194.970986 
L 203.372726 194.970986 
L 204.81186 194.970986 
L 206.250994 194.970986 
L 207.690128 194.970986 
L 209.129263 194.970986 
L 210.568397 194.970986 
L 212.007531 194.970986 
L 213.446665 194.970986 
L 214.181867 194.970986 
L 213.446665 194.179275 
L 213.385693 194.111738 
L 212.632949 193.25249 
L 212.007531 192.504793 
L 211.916407 192.393243 
L 211.236956 191.533995 
L 210.590124 190.674747 
L 210.568397 190.644913 
L 209.975557 189.815499 
L 209.390984 188.956252 
L 209.129263 188.555034 
L 208.83479 188.097004 
L 208.305925 187.237756 
L 207.803745 186.378508 
L 207.690128 186.17584 
L 207.325666 185.519261 
L 206.871964 184.660013 
L 206.442299 183.800765 
L 206.250994 183.399038 
L 206.034285 182.941517 
L 205.64748 182.08227 
L 205.282582 181.223022 
L 204.938933 180.363774 
L 204.81186 180.027921 
L 204.613906 179.504526 
L 204.307803 178.645279 
L 204.021376 177.786031 
L 203.754121 176.926783 
L 203.505564 176.067535 
L 203.372726 175.57357 
L 203.273996 175.208288 
L 203.058763 174.34904 
L 202.861219 173.489792 
L 202.681018 172.630544 
L 202.517843 171.771297 
L 202.371408 170.912049 
L 202.241453 170.052801 
L 202.127746 169.193553 
L 202.03008 168.334306 
L 201.948277 167.475058 
L 201.933592 167.284555 
L 201.881356 166.61581 
L 201.830023 165.756562 
L 201.794408 164.897315 
L 201.774432 164.038067 
L 201.770041 163.178819 
L 201.781205 162.319571 
L 201.807917 161.460324 
L 201.850197 160.601076 
L 201.908086 159.741828 
L 201.933592 159.443548 
L 201.980874 158.88258 
L 202.068757 158.023333 
L 202.172258 157.164085 
L 202.291516 156.304837 
L 202.426695 155.445589 
L 202.577981 154.586342 
L 202.745589 153.727094 
L 202.929761 152.867846 
L 203.130765 152.008598 
L 203.348897 151.149351 
L 203.372726 151.061887 
L 203.581451 150.290103 
L 203.831196 149.430855 
L 204.098851 148.571607 
L 204.384824 147.71236 
L 204.689558 146.853112 
L 204.81186 146.526795 
L 205.011077 145.993864 
L 205.350593 145.134616 
L 205.710122 144.275369 
L 206.090239 143.416121 
L 206.250994 143.069535 
L 206.489185 142.556873 
L 206.908158 141.697626 
L 207.349423 140.838378 
L 207.690128 140.205647 
L 207.812789 139.97913 
L 208.297212 139.119882 
L 208.806034 138.260635 
L 209.129263 137.737627 
L 209.339076 137.401387 
L 209.896534 136.542139 
L 210.480974 135.682891 
L 210.568397 135.558534 
L 211.092159 134.823644 
L 211.732112 133.964396 
L 212.007531 133.607657 
L 212.402309 133.105148 
L 213.103894 132.2459 
L 213.446665 131.840853 
L 213.839282 131.386653 
L 214.609737 130.527405 
L 214.885799 130.229355 
L 215.418841 129.668157 
L 216.266742 128.808909 
L 216.324933 128.751447 
L 217.160976 127.949662 
L 217.764068 127.391699 
L 218.100637 127.090414 
L 219.090872 126.231166 
L 219.203202 126.136123 
L 220.14078 125.371918 
L 220.642336 124.975226 
L 221.251922 124.512671 
L 222.08147 123.900417 
L 222.431804 123.653423 
L 223.520604 122.905026 
L 223.690208 122.794175 
L 224.959738 121.983331 
L 225.039831 121.934927 
L 226.398872 121.130451 
L 226.497175 121.07568 
L 227.838007 120.342259 
L 228.083791 120.216432 
L 229.277141 119.615307 
L 229.82805 119.357184 
L 230.716275 118.946765 
L 231.767722 118.497936 
L 232.155409 118.334365 
L 233.594543 117.775375 
L 233.979642 117.638689 
L 235.033677 117.267569 
L 236.472812 116.810827 
L 236.582627 116.779441 
L 237.911946 116.401191 
L 239.35108 116.040104 
L 239.897798 115.920193 
L 240.790214 115.724623 
L 242.229348 115.454537 
L 243.668482 115.229814 
L 245.016401 115.060945 
L 245.107617 115.04947 
L 246.546751 114.911761 
L 247.985885 114.817796 
L 249.425019 114.767272 
L 250.864153 114.760083 
L 252.303287 114.796307 
L 253.742421 114.876219 
L 255.181556 115.000283 
L 255.700589 115.060945 
L 256.62069 115.168194 
L 258.059824 115.380852 
L 259.498958 115.639873 
L 260.815636 115.920193 
L 260.938092 115.946336 
L 262.377226 116.299368 
L 263.816361 116.702956 
L 264.060731 116.779441 
L 265.255495 117.156474 
L 266.624114 117.638689 
L 266.694629 117.6638 
L 268.133763 118.224978 
L 268.773542 118.497936 
L 269.572897 118.844032 
L 270.664189 119.357184 
L 271.012031 119.523592 
L 272.355377 120.216432 
L 272.451166 120.266823 
L 273.886884 121.07568 
L 273.8903 121.077647 
L 275.28823 121.934927 
L 275.329434 121.960835 
L 276.581577 122.794175 
L 276.768568 122.922114 
L 277.783692 123.653423 
L 278.207702 123.9683 
L 278.907314 124.512671 
L 279.646836 125.107455 
L 279.962112 125.371918 
L 280.953336 126.231166 
L 281.08597 126.349659 
L 281.884936 127.090414 
L 282.525105 127.70815 
L 282.767281 127.949662 
L 283.600248 128.808909 
L 283.964239 129.199079 
L 284.389612 129.668157 
L 285.137988 130.527405 
L 285.403373 130.843889 
L 285.847742 131.386653 
L 286.521512 132.2459 
L 286.842507 132.672695 
L 287.161429 133.105148 
L 287.768914 133.964396 
L 288.281641 134.726652 
L 288.345879 134.823644 
L 288.894015 135.682891 
L 289.413825 136.542139 
L 289.720775 137.074616 
L 289.90711 137.401387 
L 290.375274 138.260635 
L 290.817949 139.119882 
L 291.15991 139.821034 
L 291.236529 139.97913 
L 291.633578 140.838378 
L 292.007427 141.697626 
L 292.358786 142.556873 
L 292.599044 143.181419 
L 292.689218 143.416121 
L 293.000682 144.275369 
L 293.291358 145.134616 
L 293.561792 145.993864 
L 293.812493 146.853112 
L 294.038178 147.690804 
L 294.04401 147.71236 
L 294.259419 148.571607 
L 294.456205 149.430855 
L 294.634744 150.290103 
L 294.795381 151.149351 
L 294.938431 152.008598 
L 295.064182 152.867846 
L 295.17289 153.727094 
L 295.264785 154.586342 
L 295.340071 155.445589 
L 295.398925 156.304837 
L 295.441496 157.164085 
L 295.467909 158.023333 
L 295.477312 158.803362 
L 295.478281 158.88258 
L 295.477312 159.027984 
L 295.472638 159.741828 
L 295.451079 160.601076 
L 295.413612 161.460324 
L 295.360238 162.319571 
L 295.290934 163.178819 
L 295.205651 164.038067 
L 295.104317 164.897315 
L 294.986834 165.756562 
L 294.853078 166.61581 
L 294.702901 167.475058 
L 294.536129 168.334306 
L 294.352562 169.193553 
L 294.151971 170.052801 
L 294.038178 170.502763 
L 293.935671 170.912049 
L 293.703821 171.771297 
L 293.454416 172.630544 
L 293.187125 173.489792 
L 292.901587 174.34904 
L 292.599044 175.203709 
L 292.597431 175.208288 
L 292.278445 176.067535 
L 291.940263 176.926783 
L 291.582409 177.786031 
L 291.20437 178.645279 
L 291.15991 178.741978 
L 290.809493 179.504526 
L 290.394101 180.363774 
L 289.957097 181.223022 
L 289.720775 181.66773 
L 289.499765 182.08227 
L 289.021803 182.941517 
L 288.520463 183.800765 
L 288.281641 184.194139 
L 287.996781 184.660013 
L 287.449893 185.519261 
L 286.877473 186.378508 
L 286.842507 186.429386 
L 286.280781 187.237756 
L 285.657082 188.097004 
L 285.403373 188.434679 
L 285.005713 188.956252 
L 284.325618 189.815499 
L 283.964239 190.256319 
L 283.614872 190.674747 
L 282.872377 191.533995 
L 282.525105 191.922848 
L 282.095622 192.393243 
L 281.283686 193.25249 
L 281.08597 193.455959 
L 280.431962 194.111738 
L 279.646836 194.871719 
L 279.541203 194.970986 
L 279.646836 194.970986 
L 281.08597 194.970986 
L 282.525105 194.970986 
L 283.964239 194.970986 
L 285.403373 194.970986 
L 286.842507 194.970986 
L 288.281641 194.970986 
L 289.720775 194.970986 
L 291.15991 194.970986 
L 292.599044 194.970986 
L 294.038178 194.970986 
L 295.477312 194.970986 
L 296.916446 194.970986 
L 298.35558 194.970986 
L 299.794714 194.970986 
L 301.126938 194.970986 
L 301.233849 194.810176 
L 301.233849 194.111738 
L 301.233849 193.25249 
L 301.233849 192.393243 
L 301.233849 191.533995 
L 301.233849 190.674747 
L 301.233849 189.815499 
L 301.233849 188.956252 
L 301.233849 188.097004 
L 301.233849 187.237756 
L 301.233849 186.378508 
L 301.233849 185.519261 
L 301.233849 184.660013 
L 301.233849 183.800765 
L 301.233849 182.941517 
L 301.233849 182.08227 
L 301.233849 181.223022 
L 301.233849 180.363774 
L 301.233849 179.504526 
L 301.233849 178.645279 
L 301.233849 177.786031 
L 301.233849 176.926783 
L 301.233849 176.067535 
L 301.233849 175.208288 
L 301.233849 174.34904 
L 301.233849 173.489792 
L 301.233849 172.630544 
L 301.233849 171.771297 
L 301.233849 170.912049 
L 301.233849 170.052801 
L 301.233849 169.193553 
L 301.233849 168.334306 
L 301.233849 167.475058 
L 301.233849 166.61581 
L 301.233849 165.756562 
L 301.233849 164.897315 
L 301.233849 164.038067 
L 301.233849 163.178819 
L 301.233849 162.319571 
L 301.233849 161.460324 
L 301.233849 160.601076 
L 301.233849 159.741828 
L 301.233849 158.88258 
L 301.233849 158.023333 
L 301.233849 157.164085 
L 301.233849 156.304837 
L 301.233849 155.445589 
L 301.233849 154.586342 
L 301.233849 153.727094 
L 301.233849 152.867846 
L 301.233849 152.008598 
L 301.233849 151.149351 
L 301.233849 150.290103 
L 301.233849 149.430855 
L 301.233849 148.571607 
L 301.233849 147.71236 
L 301.233849 146.853112 
L 301.233849 145.993864 
L 301.233849 145.134616 
L 301.233849 144.275369 
L 301.233849 143.416121 
L 301.233849 142.556873 
L 301.233849 141.697626 
L 301.233849 140.838378 
L 301.233849 139.97913 
L 301.233849 139.119882 
L 301.233849 138.260635 
L 301.233849 137.401387 
L 301.233849 136.542139 
L 301.233849 135.682891 
L 301.233849 134.823644 
L 301.233849 133.964396 
L 301.233849 133.105148 
L 301.233849 132.2459 
L 301.233849 131.386653 
L 301.233849 130.527405 
L 301.233849 129.668157 
L 301.233849 128.808909 
L 301.233849 127.949662 
L 301.233849 127.090414 
L 301.233849 126.231166 
L 301.233849 125.371918 
L 301.233849 124.512671 
L 301.233849 123.653423 
L 301.233849 122.794175 
L 301.233849 121.934927 
L 301.233849 121.880433 
L 300.627192 121.07568 
L 299.948334 120.216432 
L 299.794714 120.027511 
L 299.24716 119.357184 
L 298.514384 118.497936 
L 298.35558 118.316841 
L 297.75607 117.638689 
L 296.962842 116.779441 
L 296.916446 116.73033 
L 296.142081 115.920193 
L 295.477312 115.252824 
L 295.283334 115.060945 
L 294.39031 114.201698 
L 294.038178 113.873369 
L 293.458118 113.34245 
L 292.599044 112.583382 
L 292.483173 112.483202 
L 291.465345 111.623954 
L 291.15991 111.373315 
L 290.398978 110.764707 
L 289.720775 110.237995 
L 289.279982 109.905459 
L 288.281641 109.172376 
L 288.104145 109.046211 
L 286.865928 108.186963 
L 286.842507 108.171017 
L 285.557612 107.327716 
L 285.403373 107.22863 
L 284.171224 106.468468 
L 283.964239 106.343182 
L 282.696678 105.60922 
L 282.525105 105.511522 
L 281.121398 104.749972 
L 281.08597 104.731027 
L 279.646836 103.997589 
L 279.425142 103.890725 
L 278.207702 103.310068 
L 277.586757 103.031477 
L 276.768568 102.667434 
L 275.579489 102.172229 
L 275.329434 102.06872 
L 273.8903 101.509236 
L 273.347728 101.312981 
L 272.451166 100.98943 
L 271.012031 100.510123 
L 270.829582 100.453734 
L 269.572897 100.064777 
L 268.133763 99.659124 
L 267.883637 99.594486 
L 266.694629 99.285635 
L 265.255495 98.948706 
L 264.237412 98.735238 
L 263.816361 98.646169 
L 262.377226 98.374472 
L 260.938092 98.137312 
L 259.498958 97.933589 
L 259.017531 97.87599 
L 258.059824 97.75962 
L 256.62069 97.61672 
L 255.181556 97.505618 
L 253.742421 97.425794 
L 252.303287 97.376868 
L 250.864153 97.358596 
L 249.425019 97.370866 
L 247.985885 97.413698 
L 246.546751 97.487247 
L 245.107617 97.591799 
L 243.668482 97.727778 
L 242.397484 97.87599 
L 242.229348 97.895271 
L 240.790214 98.091116 
L 239.35108 98.319686 
L 237.911946 98.58196 
L 237.164773 98.735238 
L 236.472812 98.875706 
L 235.033677 99.201143 
L 233.594543 99.563298 
L 233.480654 99.594486 
L 232.155409 99.955351 
L 230.716275 100.385908 
L 230.505741 100.453734 
L 229.277141 100.848668 
L 227.948177 101.312981 
L 227.838007 101.351467 
L 226.398872 101.888015 
L 225.688333 102.172229 
L 224.959738 102.464633 
L 223.638523 103.031477 
L 223.520604 103.082341 
L 222.08147 103.738612 
L 221.765958 103.890725 
L 220.642336 104.437262 
L 220.032897 104.749972 
L 219.203202 105.180385 
L 218.416332 105.60922 
L 217.764068 105.969362 
L 216.900236 106.468468 
L 216.324933 106.805938 
L 215.471702 107.327716 
L 214.885799 107.692247 
L 214.12032 108.186963 
L 213.446665 108.630848 
L 212.837702 109.046211 
L 212.007531 109.624757 
L 211.617114 109.905459 
L 210.568397 110.677495 
L 210.453194 110.764707 
L 209.340422 111.623954 
L 209.129263 111.790859 
L 208.274353 112.483202 
L 207.690128 112.970098 
L 207.252723 113.34245 
L 206.273362 114.201698 
L 206.250994 114.221694 
L 205.328712 115.060945 
L 204.81186 115.547451 
L 204.421686 115.920193 
L 203.549128 116.779441 
L 203.372726 116.95749 
L 202.705511 117.638689 
L 201.933592 118.45821 
L 201.896496 118.497936 
L 201.110262 119.357184 
L 200.494458 120.058329 
L 200.35635 120.216432 
L 199.623911 121.07568 
L 199.055323 121.770404 
L 198.920974 121.934927 
L 198.236794 122.794175 
L 197.616189 123.608578 
L 197.581986 123.653423 
L 196.941275 124.512671 
L 196.328766 125.371918 
L 196.177055 125.590892 
L 195.731476 126.231166 
L 195.156537 127.090414 
L 194.737921 127.741488 
L 194.603066 127.949662 
L 194.062327 128.808909 
L 193.545423 129.668157 
L 193.298787 130.092865 
L 193.043652 130.527405 
L 192.556783 131.386653 
L 192.091561 132.2459 
L 191.859653 132.690355 
L 191.640073 133.105148 
L 191.201528 133.964396 
L 190.782794 134.823644 
L 190.420519 135.601244 
L 190.381795 135.682891 
L 189.987075 136.542139 
L 189.610636 137.401387 
L 189.251813 138.260635 
L 188.981384 138.938308 
L 188.907335 139.119882 
L 188.569871 139.97913 
L 188.248844 140.838378 
L 187.943706 141.697626 
L 187.653943 142.556873 
L 187.54225 142.903531 
L 187.372735 143.416121 
L 187.102199 144.275369 
L 186.846228 145.134616 
L 186.604405 145.993864 
L 186.376337 146.853112 
L 186.161659 147.71236 
L 186.103116 147.960249 
L 185.954217 148.571607 
L 185.757654 149.430855 
L 185.574041 150.290103 
L 185.403092 151.149351 
L 185.244541 152.008598 
L 185.098146 152.867846 
L 184.963682 153.727094 
L 184.840946 154.586342 
L 184.729755 155.445589 
L 184.663982 156.010949 
L 184.628503 156.304837 
L 184.536181 157.164085 
L 184.455436 158.023333 
L 184.386151 158.88258 
L 184.328228 159.741828 
L 184.281584 160.601076 
L 184.246156 161.460324 
L 184.221898 162.319571 
L 184.20878 163.178819 
L 184.20679 164.038067 
L 184.215934 164.897315 
L 184.236235 165.756562 
L 184.267731 166.61581 
L 184.31048 167.475058 
L 184.364558 168.334306 
L 184.430055 169.193553 
L 184.507083 170.052801 
L 184.595769 170.912049 
L 184.663982 171.496176 
L 184.694972 171.771297 
L 184.802945 172.630544 
L 184.9226 173.489792 
L 185.054133 174.34904 
L 185.197764 175.208288 
L 185.353731 176.067535 
L 185.522293 176.926783 
L 185.703731 177.786031 
L 185.898349 178.645279 
L 186.103116 179.490793 
L 186.106346 179.504526 
L 186.319944 180.363774 
L 186.547255 181.223022 
L 186.788667 182.08227 
L 187.044596 182.941517 
L 187.315482 183.800765 
L 187.54225 184.483069 
L 187.599673 184.660013 
L 187.891148 185.519261 
L 188.198524 186.378508 
L 188.522349 187.237756 
L 188.863205 188.097004 
L 188.981384 188.383131 
L 189.213642 188.956252 
L 189.577828 189.815499 
L 189.960404 190.674747 
L 190.362083 191.533995 
L 190.420519 191.654886 
L 190.772212 192.393243 
L 191.200549 193.25249 
L 191.649755 194.111738 
z
" clip-path="url(#p224788315a)" style="fill: #481c6e"/>
   </g>
   <g id="PathCollection_3">
    <path d="M 213.446665 194.179275 
L 214.181867 194.970986 
L 214.885799 194.970986 
L 216.324933 194.970986 
L 217.764068 194.970986 
L 219.203202 194.970986 
L 220.642336 194.970986 
L 222.08147 194.970986 
L 223.520604 194.970986 
L 224.959738 194.970986 
L 226.398872 194.970986 
L 227.838007 194.970986 
L 229.277141 194.970986 
L 230.716275 194.970986 
L 232.155409 194.970986 
L 233.594543 194.970986 
L 235.033677 194.970986 
L 236.472812 194.970986 
L 237.911946 194.970986 
L 239.35108 194.970986 
L 240.790214 194.970986 
L 242.229348 194.970986 
L 243.668482 194.970986 
L 245.107617 194.970986 
L 246.546751 194.970986 
L 247.985885 194.970986 
L 249.425019 194.970986 
L 250.864153 194.970986 
L 252.303287 194.970986 
L 253.742421 194.970986 
L 255.181556 194.970986 
L 256.62069 194.970986 
L 258.059824 194.970986 
L 259.498958 194.970986 
L 260.938092 194.970986 
L 262.377226 194.970986 
L 263.816361 194.970986 
L 265.255495 194.970986 
L 266.694629 194.970986 
L 268.133763 194.970986 
L 269.572897 194.970986 
L 271.012031 194.970986 
L 272.451166 194.970986 
L 273.8903 194.970986 
L 275.329434 194.970986 
L 276.768568 194.970986 
L 278.207702 194.970986 
L 279.541203 194.970986 
L 279.646836 194.871719 
L 280.431962 194.111738 
L 281.08597 193.455959 
L 281.283686 193.25249 
L 282.095622 192.393243 
L 282.525105 191.922848 
L 282.872377 191.533995 
L 283.614872 190.674747 
L 283.964239 190.256319 
L 284.325618 189.815499 
L 285.005713 188.956252 
L 285.403373 188.434679 
L 285.657082 188.097004 
L 286.280781 187.237756 
L 286.842507 186.429386 
L 286.877473 186.378508 
L 287.449893 185.519261 
L 287.996781 184.660013 
L 288.281641 184.194139 
L 288.520463 183.800765 
L 289.021803 182.941517 
L 289.499765 182.08227 
L 289.720775 181.66773 
L 289.957097 181.223022 
L 290.394101 180.363774 
L 290.809493 179.504526 
L 291.15991 178.741978 
L 291.20437 178.645279 
L 291.582409 177.786031 
L 291.940263 176.926783 
L 292.278445 176.067535 
L 292.597431 175.208288 
L 292.599044 175.203709 
L 292.901587 174.34904 
L 293.187125 173.489792 
L 293.454416 172.630544 
L 293.703821 171.771297 
L 293.935671 170.912049 
L 294.038178 170.502763 
L 294.151971 170.052801 
L 294.352562 169.193553 
L 294.536129 168.334306 
L 294.702901 167.475058 
L 294.853078 166.61581 
L 294.986834 165.756562 
L 295.104317 164.897315 
L 295.205651 164.038067 
L 295.290934 163.178819 
L 295.360238 162.319571 
L 295.413612 161.460324 
L 295.451079 160.601076 
L 295.472638 159.741828 
L 295.477312 159.027984 
L 295.478281 158.88258 
L 295.477312 158.803362 
L 295.467909 158.023333 
L 295.441496 157.164085 
L 295.398925 156.304837 
L 295.340071 155.445589 
L 295.264785 154.586342 
L 295.17289 153.727094 
L 295.064182 152.867846 
L 294.938431 152.008598 
L 294.795381 151.149351 
L 294.634744 150.290103 
L 294.456205 149.430855 
L 294.259419 148.571607 
L 294.04401 147.71236 
L 294.038178 147.690804 
L 293.812493 146.853112 
L 293.561792 145.993864 
L 293.291358 145.134616 
L 293.000682 144.275369 
L 292.689218 143.416121 
L 292.599044 143.181419 
L 292.358786 142.556873 
L 292.007427 141.697626 
L 291.633578 140.838378 
L 291.236529 139.97913 
L 291.15991 139.821034 
L 290.817949 139.119882 
L 290.375274 138.260635 
L 289.90711 137.401387 
L 289.720775 137.074616 
L 289.413825 136.542139 
L 288.894015 135.682891 
L 288.345879 134.823644 
L 288.281641 134.726652 
L 287.768914 133.964396 
L 287.161429 133.105148 
L 286.842507 132.672695 
L 286.521512 132.2459 
L 285.847742 131.386653 
L 285.403373 130.843889 
L 285.137988 130.527405 
L 284.389612 129.668157 
L 283.964239 129.199079 
L 283.600248 128.808909 
L 282.767281 127.949662 
L 282.525105 127.70815 
L 281.884936 127.090414 
L 281.08597 126.349659 
L 280.953336 126.231166 
L 279.962112 125.371918 
L 279.646836 125.107455 
L 278.907314 124.512671 
L 278.207702 123.9683 
L 277.783692 123.653423 
L 276.768568 122.922114 
L 276.581577 122.794175 
L 275.329434 121.960835 
L 275.28823 121.934927 
L 273.8903 121.077647 
L 273.886884 121.07568 
L 272.451166 120.266823 
L 272.355377 120.216432 
L 271.012031 119.523592 
L 270.664189 119.357184 
L 269.572897 118.844032 
L 268.773542 118.497936 
L 268.133763 118.224978 
L 266.694629 117.6638 
L 266.624114 117.638689 
L 265.255495 117.156474 
L 264.060731 116.779441 
L 263.816361 116.702956 
L 262.377226 116.299368 
L 260.938092 115.946336 
L 260.815636 115.920193 
L 259.498958 115.639873 
L 258.059824 115.380852 
L 256.62069 115.168194 
L 255.700589 115.060945 
L 255.181556 115.000283 
L 253.742421 114.876219 
L 252.303287 114.796307 
L 250.864153 114.760083 
L 249.425019 114.767272 
L 247.985885 114.817796 
L 246.546751 114.911761 
L 245.107617 115.04947 
L 245.016401 115.060945 
L 243.668482 115.229814 
L 242.229348 115.454537 
L 240.790214 115.724623 
L 239.897798 115.920193 
L 239.35108 116.040104 
L 237.911946 116.401191 
L 236.582627 116.779441 
L 236.472812 116.810827 
L 235.033677 117.267569 
L 233.979642 117.638689 
L 233.594543 117.775375 
L 232.155409 118.334365 
L 231.767722 118.497936 
L 230.716275 118.946765 
L 229.82805 119.357184 
L 229.277141 119.615307 
L 228.083791 120.216432 
L 227.838007 120.342259 
L 226.497175 121.07568 
L 226.398872 121.130451 
L 225.039831 121.934927 
L 224.959738 121.983331 
L 223.690208 122.794175 
L 223.520604 122.905026 
L 222.431804 123.653423 
L 222.08147 123.900417 
L 221.251922 124.512671 
L 220.642336 124.975226 
L 220.14078 125.371918 
L 219.203202 126.136123 
L 219.090872 126.231166 
L 218.100637 127.090414 
L 217.764068 127.391699 
L 217.160976 127.949662 
L 216.324933 128.751447 
L 216.266742 128.808909 
L 215.418841 129.668157 
L 214.885799 130.229355 
L 214.609737 130.527405 
L 213.839282 131.386653 
L 213.446665 131.840853 
L 213.103894 132.2459 
L 212.402309 133.105148 
L 212.007531 133.607657 
L 211.732112 133.964396 
L 211.092159 134.823644 
L 210.568397 135.558534 
L 210.480974 135.682891 
L 209.896534 136.542139 
L 209.339076 137.401387 
L 209.129263 137.737627 
L 208.806034 138.260635 
L 208.297212 139.119882 
L 207.812789 139.97913 
L 207.690128 140.205647 
L 207.349423 140.838378 
L 206.908158 141.697626 
L 206.489185 142.556873 
L 206.250994 143.069535 
L 206.090239 143.416121 
L 205.710122 144.275369 
L 205.350593 145.134616 
L 205.011077 145.993864 
L 204.81186 146.526795 
L 204.689558 146.853112 
L 204.384824 147.71236 
L 204.098851 148.571607 
L 203.831196 149.430855 
L 203.581451 150.290103 
L 203.372726 151.061887 
L 203.348897 151.149351 
L 203.130765 152.008598 
L 202.929761 152.867846 
L 202.745589 153.727094 
L 202.577981 154.586342 
L 202.426695 155.445589 
L 202.291516 156.304837 
L 202.172258 157.164085 
L 202.068757 158.023333 
L 201.980874 158.88258 
L 201.933592 159.443548 
L 201.908086 159.741828 
L 201.850197 160.601076 
L 201.807917 161.460324 
L 201.781205 162.319571 
L 201.770041 163.178819 
L 201.774432 164.038067 
L 201.794408 164.897315 
L 201.830023 165.756562 
L 201.881356 166.61581 
L 201.933592 167.284555 
L 201.948277 167.475058 
L 202.03008 168.334306 
L 202.127746 169.193553 
L 202.241453 170.052801 
L 202.371408 170.912049 
L 202.517843 171.771297 
L 202.681018 172.630544 
L 202.861219 173.489792 
L 203.058763 174.34904 
L 203.273996 175.208288 
L 203.372726 175.57357 
L 203.505564 176.067535 
L 203.754121 176.926783 
L 204.021376 177.786031 
L 204.307803 178.645279 
L 204.613906 179.504526 
L 204.81186 180.027921 
L 204.938933 180.363774 
L 205.282582 181.223022 
L 205.64748 182.08227 
L 206.034285 182.941517 
L 206.250994 183.399038 
L 206.442299 183.800765 
L 206.871964 184.660013 
L 207.325666 185.519261 
L 207.690128 186.17584 
L 207.803745 186.378508 
L 208.305925 187.237756 
L 208.83479 188.097004 
L 209.129263 188.555034 
L 209.390984 188.956252 
L 209.975557 189.815499 
L 210.568397 190.644913 
L 210.590124 190.674747 
L 211.236956 191.533995 
L 211.916407 192.393243 
L 212.007531 192.504793 
L 212.632949 193.25249 
L 213.385693 194.111738 
z
M 246.463395 194.111738 
L 245.107617 194.058661 
L 243.668482 193.935948 
L 242.229348 193.745834 
L 240.790214 193.487011 
L 239.761903 193.25249 
L 239.35108 193.157014 
L 237.911946 192.751953 
L 236.833713 192.393243 
L 236.472812 192.270344 
L 235.033677 191.706154 
L 234.645743 191.533995 
L 233.594543 191.054321 
L 232.850569 190.674747 
L 232.155409 190.308958 
L 231.305818 189.815499 
L 230.716275 189.461248 
L 229.946552 188.956252 
L 229.277141 188.500447 
L 228.729321 188.097004 
L 227.838007 187.41354 
L 227.624289 187.237756 
L 226.620626 186.378508 
L 226.398872 186.180491 
L 225.702878 185.519261 
L 224.959738 184.777686 
L 224.848162 184.660013 
L 224.067348 183.800765 
L 223.520604 183.166377 
L 223.335991 182.941517 
L 222.663154 182.08227 
L 222.08147 181.295166 
L 222.030361 181.223022 
L 221.450594 180.363774 
L 220.905712 179.504526 
L 220.642336 179.064066 
L 220.400723 178.645279 
L 219.934133 177.786031 
L 219.498573 176.926783 
L 219.203202 176.302266 
L 219.095432 176.067535 
L 218.727035 175.208288 
L 218.386692 174.34904 
L 218.073759 173.489792 
L 217.787642 172.630544 
L 217.764068 172.553054 
L 217.531573 171.771297 
L 217.301194 170.912049 
L 217.095683 170.052801 
L 216.914642 169.193553 
L 216.757713 168.334306 
L 216.624579 167.475058 
L 216.51496 166.61581 
L 216.428617 165.756562 
L 216.365349 164.897315 
L 216.324992 164.038067 
L 216.324933 164.035215 
L 216.307622 163.178819 
L 216.31268 162.319571 
L 216.324933 161.935835 
L 216.340292 161.460324 
L 216.390669 160.601076 
L 216.463683 159.741828 
L 216.559389 158.88258 
L 216.677878 158.023333 
L 216.819275 157.164085 
L 216.983744 156.304837 
L 217.171486 155.445589 
L 217.38274 154.586342 
L 217.617782 153.727094 
L 217.764068 153.241006 
L 217.878554 152.867846 
L 218.166218 152.008598 
L 218.479051 151.149351 
L 218.817492 150.290103 
L 219.182026 149.430855 
L 219.203202 149.384008 
L 219.579735 148.571607 
L 220.005436 147.71236 
L 220.459381 146.853112 
L 220.642336 146.525733 
L 220.94866 145.993864 
L 221.472073 145.134616 
L 222.026492 144.275369 
L 222.08147 144.194026 
L 222.6262 143.416121 
L 223.260806 142.556873 
L 223.520604 142.220912 
L 223.942004 141.697626 
L 224.667391 140.838378 
L 224.959738 140.50665 
L 225.446506 139.97913 
L 226.275697 139.119882 
L 226.398872 138.996914 
L 227.175585 138.260635 
L 227.838007 137.658418 
L 228.137493 137.401387 
L 229.176904 136.542139 
L 229.277141 136.46198 
L 230.316128 135.682891 
L 230.716275 135.392995 
L 231.560297 134.823644 
L 232.155409 134.434701 
L 232.934325 133.964396 
L 233.594543 133.577113 
L 234.473198 133.105148 
L 235.033677 132.811874 
L 236.227013 132.2459 
L 236.472812 132.132036 
L 237.911946 131.533274 
L 238.310147 131.386653 
L 239.35108 131.010791 
L 240.790214 130.559683 
L 240.910766 130.527405 
L 242.229348 130.179807 
L 243.668482 129.866537 
L 244.81852 129.668157 
L 245.107617 129.618866 
L 246.546751 129.436628 
L 247.985885 129.317837 
L 249.425019 129.262251 
L 250.864153 129.269906 
L 252.303287 129.341127 
L 253.742421 129.476523 
L 255.118476 129.668157 
L 255.181556 129.677065 
L 256.62069 129.94598 
L 258.059824 130.283282 
L 258.92547 130.527405 
L 259.498958 130.692401 
L 260.938092 131.177069 
L 261.480766 131.386653 
L 262.377226 131.741474 
L 263.503731 132.2459 
L 263.816361 132.389807 
L 265.209919 133.105148 
L 265.255495 133.129273 
L 266.687371 133.964396 
L 266.694629 133.968775 
L 267.993818 134.823644 
L 268.133763 134.919224 
L 269.168325 135.682891 
L 269.572897 135.993926 
L 270.237942 136.542139 
L 271.012031 137.20908 
L 271.22169 137.401387 
L 272.119891 138.260635 
L 272.451166 138.592584 
L 272.948988 139.119882 
L 273.720101 139.97913 
L 273.8903 140.177928 
L 274.428737 140.838378 
L 275.091231 141.697626 
L 275.329434 142.023291 
L 275.703355 142.556873 
L 276.271894 143.416121 
L 276.768568 144.215978 
L 276.804104 144.275369 
L 277.290388 145.134616 
L 277.744194 145.993864 
L 278.1664 146.853112 
L 278.207702 146.943007 
L 278.550576 147.71236 
L 278.904573 148.571607 
L 279.229942 149.430855 
L 279.527323 150.290103 
L 279.646836 150.668893 
L 279.794816 151.149351 
L 280.033963 152.008598 
L 280.247243 152.867846 
L 280.435102 153.727094 
L 280.597944 154.586342 
L 280.73613 155.445589 
L 280.849986 156.304837 
L 280.939797 157.164085 
L 281.00581 158.023333 
L 281.048238 158.88258 
L 281.067255 159.741828 
L 281.063 160.601076 
L 281.035576 161.460324 
L 280.985052 162.319571 
L 280.911462 163.178819 
L 280.814803 164.038067 
L 280.69504 164.897315 
L 280.552101 165.756562 
L 280.38588 166.61581 
L 280.196234 167.475058 
L 279.982987 168.334306 
L 279.745925 169.193553 
L 279.646836 169.520412 
L 279.482442 170.052801 
L 279.192865 170.912049 
L 278.878321 171.771297 
L 278.538452 172.630544 
L 278.207702 173.408333 
L 278.172236 173.489792 
L 277.773549 174.34904 
L 277.34784 175.208288 
L 276.894585 176.067535 
L 276.768568 176.29378 
L 276.405656 176.926783 
L 275.88482 177.786031 
L 275.334105 178.645279 
L 275.329434 178.652247 
L 274.738344 179.504526 
L 274.11049 180.363774 
L 273.8903 180.652088 
L 273.43694 181.223022 
L 272.722448 182.08227 
L 272.451166 182.395289 
L 271.956364 182.941517 
L 271.143663 183.800765 
L 271.012031 183.934977 
L 270.264618 184.660013 
L 269.572897 185.304501 
L 269.329253 185.519261 
L 268.319527 186.378508 
L 268.133763 186.531471 
L 267.22124 187.237756 
L 266.694629 187.632041 
L 266.029481 188.097004 
L 265.255495 188.621798 
L 264.723193 188.956252 
L 263.816361 189.510383 
L 263.272954 189.815499 
L 262.377226 190.305912 
L 261.636967 190.674747 
L 260.938092 191.015166 
L 259.754455 191.533995 
L 259.498958 191.64376 
L 258.059824 192.194507 
L 257.466353 192.393243 
L 256.62069 192.671864 
L 255.181556 193.07863 
L 254.445436 193.25249 
L 253.742421 193.416482 
L 252.303287 193.686768 
L 250.864153 193.891514 
L 249.425019 194.031107 
L 247.985885 194.105655 
L 247.046992 194.111738 
L 246.546751 194.114965 
z
" clip-path="url(#p224788315a)" style="fill: #472d7b"/>
   </g>
   <g id="PathCollection_4">
    <path d="M 246.546751 194.114965 
L 247.046992 194.111738 
L 247.985885 194.105655 
L 249.425019 194.031107 
L 250.864153 193.891514 
L 252.303287 193.686768 
L 253.742421 193.416482 
L 254.445436 193.25249 
L 255.181556 193.07863 
L 256.62069 192.671864 
L 257.466353 192.393243 
L 258.059824 192.194507 
L 259.498958 191.64376 
L 259.754455 191.533995 
L 260.938092 191.015166 
L 261.636967 190.674747 
L 262.377226 190.305912 
L 263.272954 189.815499 
L 263.816361 189.510383 
L 264.723193 188.956252 
L 265.255495 188.621798 
L 266.029481 188.097004 
L 266.694629 187.632041 
L 267.22124 187.237756 
L 268.133763 186.531471 
L 268.319527 186.378508 
L 269.329253 185.519261 
L 269.572897 185.304501 
L 270.264618 184.660013 
L 271.012031 183.934977 
L 271.143663 183.800765 
L 271.956364 182.941517 
L 272.451166 182.395289 
L 272.722448 182.08227 
L 273.43694 181.223022 
L 273.8903 180.652088 
L 274.11049 180.363774 
L 274.738344 179.504526 
L 275.329434 178.652247 
L 275.334105 178.645279 
L 275.88482 177.786031 
L 276.405656 176.926783 
L 276.768568 176.29378 
L 276.894585 176.067535 
L 277.34784 175.208288 
L 277.773549 174.34904 
L 278.172236 173.489792 
L 278.207702 173.408333 
L 278.538452 172.630544 
L 278.878321 171.771297 
L 279.192865 170.912049 
L 279.482442 170.052801 
L 279.646836 169.520412 
L 279.745925 169.193553 
L 279.982987 168.334306 
L 280.196234 167.475058 
L 280.38588 166.61581 
L 280.552101 165.756562 
L 280.69504 164.897315 
L 280.814803 164.038067 
L 280.911462 163.178819 
L 280.985052 162.319571 
L 281.035576 161.460324 
L 281.063 160.601076 
L 281.067255 159.741828 
L 281.048238 158.88258 
L 281.00581 158.023333 
L 280.939797 157.164085 
L 280.849986 156.304837 
L 280.73613 155.445589 
L 280.597944 154.586342 
L 280.435102 153.727094 
L 280.247243 152.867846 
L 280.033963 152.008598 
L 279.794816 151.149351 
L 279.646836 150.668893 
L 279.527323 150.290103 
L 279.229942 149.430855 
L 278.904573 148.571607 
L 278.550576 147.71236 
L 278.207702 146.943007 
L 278.1664 146.853112 
L 277.744194 145.993864 
L 277.290388 145.134616 
L 276.804104 144.275369 
L 276.768568 144.215978 
L 276.271894 143.416121 
L 275.703355 142.556873 
L 275.329434 142.023291 
L 275.091231 141.697626 
L 274.428737 140.838378 
L 273.8903 140.177928 
L 273.720101 139.97913 
L 272.948988 139.119882 
L 272.451166 138.592584 
L 272.119891 138.260635 
L 271.22169 137.401387 
L 271.012031 137.20908 
L 270.237942 136.542139 
L 269.572897 135.993926 
L 269.168325 135.682891 
L 268.133763 134.919224 
L 267.993818 134.823644 
L 266.694629 133.968775 
L 266.687371 133.964396 
L 265.255495 133.129273 
L 265.209919 133.105148 
L 263.816361 132.389807 
L 263.503731 132.2459 
L 262.377226 131.741474 
L 261.480766 131.386653 
L 260.938092 131.177069 
L 259.498958 130.692401 
L 258.92547 130.527405 
L 258.059824 130.283282 
L 256.62069 129.94598 
L 255.181556 129.677065 
L 255.118476 129.668157 
L 253.742421 129.476523 
L 252.303287 129.341127 
L 250.864153 129.269906 
L 249.425019 129.262251 
L 247.985885 129.317837 
L 246.546751 129.436628 
L 245.107617 129.618866 
L 244.81852 129.668157 
L 243.668482 129.866537 
L 242.229348 130.179807 
L 240.910766 130.527405 
L 240.790214 130.559683 
L 239.35108 131.010791 
L 238.310147 131.386653 
L 237.911946 131.533274 
L 236.472812 132.132036 
L 236.227013 132.2459 
L 235.033677 132.811874 
L 234.473198 133.105148 
L 233.594543 133.577113 
L 232.934325 133.964396 
L 232.155409 134.434701 
L 231.560297 134.823644 
L 230.716275 135.392995 
L 230.316128 135.682891 
L 229.277141 136.46198 
L 229.176904 136.542139 
L 228.137493 137.401387 
L 227.838007 137.658418 
L 227.175585 138.260635 
L 226.398872 138.996914 
L 226.275697 139.119882 
L 225.446506 139.97913 
L 224.959738 140.50665 
L 224.667391 140.838378 
L 223.942004 141.697626 
L 223.520604 142.220912 
L 223.260806 142.556873 
L 222.6262 143.416121 
L 222.08147 144.194026 
L 222.026492 144.275369 
L 221.472073 145.134616 
L 220.94866 145.993864 
L 220.642336 146.525733 
L 220.459381 146.853112 
L 220.005436 147.71236 
L 219.579735 148.571607 
L 219.203202 149.384008 
L 219.182026 149.430855 
L 218.817492 150.290103 
L 218.479051 151.149351 
L 218.166218 152.008598 
L 217.878554 152.867846 
L 217.764068 153.241006 
L 217.617782 153.727094 
L 217.38274 154.586342 
L 217.171486 155.445589 
L 216.983744 156.304837 
L 216.819275 157.164085 
L 216.677878 158.023333 
L 216.559389 158.88258 
L 216.463683 159.741828 
L 216.390669 160.601076 
L 216.340292 161.460324 
L 216.324933 161.935835 
L 216.31268 162.319571 
L 216.307622 163.178819 
L 216.324933 164.035215 
L 216.324992 164.038067 
L 216.365349 164.897315 
L 216.428617 165.756562 
L 216.51496 166.61581 
L 216.624579 167.475058 
L 216.757713 168.334306 
L 216.914642 169.193553 
L 217.095683 170.052801 
L 217.301194 170.912049 
L 217.531573 171.771297 
L 217.764068 172.553054 
L 217.787642 172.630544 
L 218.073759 173.489792 
L 218.386692 174.34904 
L 218.727035 175.208288 
L 219.095432 176.067535 
L 219.203202 176.302266 
L 219.498573 176.926783 
L 219.934133 177.786031 
L 220.400723 178.645279 
L 220.642336 179.064066 
L 220.905712 179.504526 
L 221.450594 180.363774 
L 222.030361 181.223022 
L 222.08147 181.295166 
L 222.663154 182.08227 
L 223.335991 182.941517 
L 223.520604 183.166377 
L 224.067348 183.800765 
L 224.848162 184.660013 
L 224.959738 184.777686 
L 225.702878 185.519261 
L 226.398872 186.180491 
L 226.620626 186.378508 
L 227.624289 187.237756 
L 227.838007 187.41354 
L 228.729321 188.097004 
L 229.277141 188.500447 
L 229.946552 188.956252 
L 230.716275 189.461248 
L 231.305818 189.815499 
L 232.155409 190.308958 
L 232.850569 190.674747 
L 233.594543 191.054321 
L 234.645743 191.533995 
L 235.033677 191.706154 
L 236.472812 192.270344 
L 236.833713 192.393243 
L 237.911946 192.751953 
L 239.35108 193.157014 
L 239.761903 193.25249 
L 240.790214 193.487011 
L 242.229348 193.745834 
L 243.668482 193.935948 
L 245.107617 194.058661 
L 246.463395 194.111738 
z
M 246.658369 176.926783 
L 246.546751 176.920921 
L 245.107617 176.702191 
L 243.668482 176.336955 
L 242.912483 176.067535 
L 242.229348 175.808291 
L 241.004583 175.208288 
L 240.790214 175.095726 
L 239.627872 174.34904 
L 239.35108 174.15708 
L 238.535618 173.489792 
L 237.911946 172.934398 
L 237.615057 172.630544 
L 236.847045 171.771297 
L 236.472812 171.309256 
L 236.18688 170.912049 
L 235.630439 170.052801 
L 235.137388 169.193553 
L 235.033677 168.987851 
L 234.735564 168.334306 
L 234.398138 167.475058 
L 234.114865 166.61581 
L 233.884886 165.756562 
L 233.707439 164.897315 
L 233.594543 164.125149 
L 233.582834 164.038067 
L 233.514244 163.178819 
L 233.492535 162.319571 
L 233.517381 161.460324 
L 233.588536 160.601076 
L 233.594543 160.557099 
L 233.71496 159.741828 
L 233.891628 158.88258 
L 234.117999 158.023333 
L 234.394106 157.164085 
L 234.720073 156.304837 
L 235.033677 155.588021 
L 235.101888 155.445589 
L 235.567639 154.586342 
L 236.088528 153.727094 
L 236.472812 153.153733 
L 236.685421 152.867846 
L 237.384919 152.008598 
L 237.911946 151.413486 
L 238.175683 151.149351 
L 239.101762 150.290103 
L 239.35108 150.074541 
L 240.207256 149.430855 
L 240.790214 149.020355 
L 241.542096 148.571607 
L 242.229348 148.185223 
L 243.257108 147.71236 
L 243.668482 147.533122 
L 245.107617 147.045579 
L 245.905014 146.853112 
L 246.546751 146.705518 
L 247.985885 146.50821 
L 249.425019 146.445177 
L 250.864153 146.517625 
L 252.303287 146.727423 
L 252.823011 146.853112 
L 253.742421 147.088542 
L 255.181556 147.606746 
L 255.409375 147.71236 
L 256.62069 148.311855 
L 257.048922 148.571607 
L 258.059824 149.230847 
L 258.319258 149.430855 
L 259.349461 150.290103 
L 259.498958 150.425756 
L 260.192125 151.149351 
L 260.938092 152.007378 
L 260.939033 152.008598 
L 261.540394 152.867846 
L 262.07621 153.727094 
L 262.377226 154.273975 
L 262.532419 154.586342 
L 262.904375 155.445589 
L 263.220484 156.304837 
L 263.481696 157.164085 
L 263.688871 158.023333 
L 263.816361 158.734486 
L 263.840716 158.88258 
L 263.934155 159.741828 
L 263.979742 160.601076 
L 263.977928 161.460324 
L 263.929098 162.319571 
L 263.833562 163.178819 
L 263.816361 163.282786 
L 263.681176 164.038067 
L 263.477313 164.897315 
L 263.223567 165.756562 
L 262.920021 166.61581 
L 262.566686 167.475058 
L 262.377226 167.879016 
L 262.143442 168.334306 
L 261.64799 169.193553 
L 261.098008 170.052801 
L 260.938092 170.280353 
L 260.445541 170.912049 
L 259.715415 171.771297 
L 259.498958 172.006897 
L 258.853132 172.630544 
L 258.059824 173.342977 
L 257.871905 173.489792 
L 256.696922 174.34904 
L 256.62069 174.401482 
L 255.238321 175.208288 
L 255.181556 175.239607 
L 253.742421 175.890536 
L 253.239341 176.067535 
L 252.303287 176.380745 
L 250.864153 176.724551 
L 249.447879 176.926783 
L 249.425019 176.929906 
L 247.985885 176.992868 
z
" clip-path="url(#p224788315a)" style="fill: #443b84"/>
   </g>
   <g id="PathCollection_5">
    <path d="M 247.985885 176.992868 
L 249.425019 176.929906 
L 249.447879 176.926783 
L 250.864153 176.724551 
L 252.303287 176.380745 
L 253.239341 176.067535 
L 253.742421 175.890536 
L 255.181556 175.239607 
L 255.238321 175.208288 
L 256.62069 174.401482 
L 256.696922 174.34904 
L 257.871905 173.489792 
L 258.059824 173.342977 
L 258.853132 172.630544 
L 259.498958 172.006897 
L 259.715415 171.771297 
L 260.445541 170.912049 
L 260.938092 170.280353 
L 261.098008 170.052801 
L 261.64799 169.193553 
L 262.143442 168.334306 
L 262.377226 167.879016 
L 262.566686 167.475058 
L 262.920021 166.61581 
L 263.223567 165.756562 
L 263.477313 164.897315 
L 263.681176 164.038067 
L 263.816361 163.282786 
L 263.833562 163.178819 
L 263.929098 162.319571 
L 263.977928 161.460324 
L 263.979742 160.601076 
L 263.934155 159.741828 
L 263.840716 158.88258 
L 263.816361 158.734486 
L 263.688871 158.023333 
L 263.481696 157.164085 
L 263.220484 156.304837 
L 262.904375 155.445589 
L 262.532419 154.586342 
L 262.377226 154.273975 
L 262.07621 153.727094 
L 261.540394 152.867846 
L 260.939033 152.008598 
L 260.938092 152.007378 
L 260.192125 151.149351 
L 259.498958 150.425756 
L 259.349461 150.290103 
L 258.319258 149.430855 
L 258.059824 149.230847 
L 257.048922 148.571607 
L 256.62069 148.311855 
L 255.409375 147.71236 
L 255.181556 147.606746 
L 253.742421 147.088542 
L 252.823011 146.853112 
L 252.303287 146.727423 
L 250.864153 146.517625 
L 249.425019 146.445177 
L 247.985885 146.50821 
L 246.546751 146.705518 
L 245.905014 146.853112 
L 245.107617 147.045579 
L 243.668482 147.533122 
L 243.257108 147.71236 
L 242.229348 148.185223 
L 241.542096 148.571607 
L 240.790214 149.020355 
L 240.207256 149.430855 
L 239.35108 150.074541 
L 239.101762 150.290103 
L 238.175683 151.149351 
L 237.911946 151.413486 
L 237.384919 152.008598 
L 236.685421 152.867846 
L 236.472812 153.153733 
L 236.088528 153.727094 
L 235.567639 154.586342 
L 235.101888 155.445589 
L 235.033677 155.588021 
L 234.720073 156.304837 
L 234.394106 157.164085 
L 234.117999 158.023333 
L 233.891628 158.88258 
L 233.71496 159.741828 
L 233.594543 160.557099 
L 233.588536 160.601076 
L 233.517381 161.460324 
L 233.492535 162.319571 
L 233.514244 163.178819 
L 233.582834 164.038067 
L 233.594543 164.125149 
L 233.707439 164.897315 
L 233.884886 165.756562 
L 234.114865 166.61581 
L 234.398138 167.475058 
L 234.735564 168.334306 
L 235.033677 168.987851 
L 235.137388 169.193553 
L 235.630439 170.052801 
L 236.18688 170.912049 
L 236.472812 171.309256 
L 236.847045 171.771297 
L 237.615057 172.630544 
L 237.911946 172.934398 
L 238.535618 173.489792 
L 239.35108 174.15708 
L 239.627872 174.34904 
L 240.790214 175.095726 
L 241.004583 175.208288 
L 242.229348 175.808291 
L 242.912483 176.067535 
L 243.668482 176.336955 
L 245.107617 176.702191 
L 246.546751 176.920921 
L 246.658369 176.926783 
z
" clip-path="url(#p224788315a)" style="fill: #3e4a89"/>
   </g>
   <g id="PathCollection_6"/>
   <g id="PathCollection_7"/>
   <g id="PathCollection_8"/>
   <g id="PathCollection_9"/>
   <g id="PathCollection_10"/>
   <g id="PathCollection_11"/>
   <g id="PathCollection_12"/>
   <g id="PathCollection_13"/>
   <g id="PathCollection_14"/>
   <g id="PathCollection_15"/>
   <g id="PathCollection_16"/>
   <g id="PathCollection_17"/>
   <g id="PathCollection_18"/>
   <g id="PathCollection_19"/>
   <g id="PathCollection_20"/>
   <g id="PathCollection_21">
    <defs>
     <path id="m6f765e7dc4" d="M 0 2.236068 
C 0.593012 2.236068 1.161816 2.000462 1.581139 1.581139 
C 2.000462 1.161816 2.236068 0.593012 2.236068 0 
C 2.236068 -0.593012 2.000462 -1.161816 1.581139 -1.581139 
C 1.161816 -2.000462 0.593012 -2.236068 0 -2.236068 
C -0.593012 -2.236068 -1.161816 -2.000462 -1.581139 -1.581139 
C -2.000462 -1.161816 -2.236068 -0.593012 -2.236068 0 
C -2.236068 0.593012 -2.000462 1.161816 -1.581139 1.581139 
C -1.161816 2.000462 -0.593012 2.236068 0 2.236068 
z
" style="stroke: #000000"/>
    </defs>
    <g clip-path="url(#p224788315a)">
     <use xlink:href="#m6f765e7dc4" x="257.260702" y="50.871731" style="stroke: #000000"/>
     <use xlink:href="#m6f765e7dc4" x="257.260702" y="169.798434" style="stroke: #000000"/>
     <use xlink:href="#m6f765e7dc4" x="132.176664" y="50.871731" style="stroke: #000000"/>
     <use xlink:href="#m6f765e7dc4" x="132.176664" y="169.798434" style="stroke: #000000"/>
    </g>
   </g>
   <g id="patch_2">
    <path d="M 78.019908 174.772315 
C 83.604533 174.772315 88.961179 172.553519 92.910105 168.604593 
C 96.859032 164.655667 99.077827 159.299021 99.077827 153.714396 
C 99.077827 148.12977 96.859032 142.773125 92.910105 138.824198 
C 88.961179 134.875272 83.604533 132.656477 78.019908 132.656477 
C 72.435283 132.656477 67.078637 134.875272 63.129711 138.824198 
C 59.180784 142.773125 56.961989 148.12977 56.961989 153.714396 
C 56.961989 159.299021 59.180784 164.655667 63.129711 168.604593 
C 67.078637 172.553519 72.435283 174.772315 78.019908 174.772315 
L 78.019908 174.772315 
z
" clip-path="url(#p224788315a)" style="fill: none; stroke-dasharray: 7.4,3.2; stroke-dashoffset: 0; stroke: #ff0000; stroke-width: 2; stroke-linejoin: miter"/>
   </g>
   <g id="line2d_1">
    <path d="M 14.846151 195.830234 
L 301.233849 195.830234 
L 301.233849 24.839932 
L 14.846151 24.839932 
L 14.846151 195.830234 
" clip-path="url(#p224788315a)" style="fill: none; stroke: #000000; stroke-width: 2; stroke-linecap: square"/>
   </g>
   <g id="text_1">
    <!-- D2 -->
    <g transform="translate(142.761403 20.635969) scale(0.24 -0.24)">
     <defs>
      <path id="NimbusSanL-Regu-44" d="M 570 0 
L 2368 0 
C 3546 0 4269 885 4269 2339 
C 4269 3787 3552 4672 2368 4672 
L 570 4672 
L 570 0 
z
M 1165 526 
L 1165 4146 
L 2266 4146 
C 3187 4146 3674 3524 3674 2333 
C 3674 1154 3187 526 2266 526 
L 1165 526 
z
" transform="scale(0.015625)"/>
      <path id="NimbusSanL-Regu-32" d="M 3238 558 
L 851 558 
C 909 930 1114 1167 1670 1494 
L 2310 1840 
C 2944 2186 3270 2653 3270 3211 
C 3270 3589 3117 3942 2848 4185 
C 2579 4429 2246 4544 1818 4544 
C 1242 4544 813 4339 563 3955 
C 403 3711 333 3429 320 2967 
L 883 2967 
C 902 3275 941 3461 1018 3608 
C 1165 3884 1459 4051 1798 4051 
C 2310 4051 2694 3685 2694 3198 
C 2694 2839 2483 2531 2080 2301 
L 1491 1968 
C 544 1430 269 1000 218 0 
L 3238 0 
L 3238 558 
z
" transform="scale(0.015625)"/>
     </defs>
     <use xlink:href="#NimbusSanL-Regu-44" transform="scale(0.996264)"/>
     <use xlink:href="#NimbusSanL-Regu-32" transform="translate(71.929985 0) scale(0.996264)"/>
    </g>
   </g>
  </g>
 </g>
 <defs>
  <clipPath id="p224788315a">
   <rect x="3.6" y="17.336067" width="308.88" height="185.998031"/>
  </clipPath>
 </defs>
</svg>
