<?xml version="1.0" encoding="utf-8" standalone="no"?>
<!DOCTYPE svg PUBLIC "-//W3C//DTD SVG 1.1//EN"
  "http://www.w3.org/Graphics/SVG/1.1/DTD/svg11.dtd">
<svg xmlns:xlink="http://www.w3.org/1999/xlink" width="288pt" height="360pt" viewBox="0 0 288 360" xmlns="http://www.w3.org/2000/svg" version="1.1">
 <metadata>
  <rdf:RDF xmlns:dc="http://purl.org/dc/elements/1.1/" xmlns:cc="http://creativecommons.org/ns#" xmlns:rdf="http://www.w3.org/1999/02/22-rdf-syntax-ns#">
   <cc:Work>
    <dc:type rdf:resource="http://purl.org/dc/dcmitype/StillImage"/>
    <dc:date>2024-03-09T19:52:25.913385</dc:date>
    <dc:format>image/svg+xml</dc:format>
    <dc:creator>
     <cc:Agent>
      <dc:title>Matplotlib v3.7.2, https://matplotlib.org/</dc:title>
     </cc:Agent>
    </dc:creator>
   </cc:Work>
  </rdf:RDF>
 </metadata>
 <defs>
  <style type="text/css">*{stroke-linejoin: round; stroke-linecap: butt}</style>
 </defs>
 <g id="figure_1">
  <g id="patch_1">
   <path d="M 0 360 
L 288 360 
L 288 0 
L 0 0 
L 0 360 
z
" style="fill: none"/>
  </g>
  <g id="axes_1">
   <g id="PathCollection_1">
    <path d="M 189.447365 240.748805 
L 161.953786 268.228023 
L 152.701958 268.228023 
L 115.956552 268.228023 
L 79.211145 268.228023 
L 79.211145 231.482617 
L 79.211145 194.73721 
L 79.211145 170.955959 
L 93.075845 157.991803 
L 115.956552 153.524547 
L 133.119267 157.991803 
L 152.701958 176.658426 
L 189.447365 187.676786 
L 218.848396 157.991803 
L 189.447365 128.57994 
L 152.701958 136.597998 
L 148.961976 121.246396 
L 115.956552 89.006027 
L 79.211145 87.017956 
L 79.211145 84.500989 
L 115.956552 84.500989 
L 152.701958 84.500989 
L 189.447365 121.246396 
L 226.192772 157.991803 
L 226.192772 194.73721 
L 226.192772 231.482617 
L 226.192772 233.613206 
z
" clip-path="url(#p9f2bc396b7)" style="fill: #460b5e"/>
   </g>
   <g id="PathCollection_2">
    <path d="M 189.447365 250.026225 
L 171.236055 268.228023 
L 161.953786 268.228023 
L 189.447365 240.748805 
L 226.192772 233.613206 
L 226.192772 235.743958 
z
" clip-path="url(#p9f2bc396b7)" style="fill: #482071"/>
    <path d="M 189.447365 187.676786 
L 152.701958 176.658426 
L 133.119267 157.991803 
L 115.956552 153.524547 
L 93.075845 157.991803 
L 79.211145 170.955959 
L 79.211145 157.991803 
L 79.211145 156.571986 
L 115.956552 148.552196 
L 152.222508 157.991803 
L 152.701958 158.448825 
L 189.447365 180.243882 
L 211.486592 157.991803 
L 189.447365 135.944457 
L 152.701958 157.46801 
L 143.87759 121.246396 
L 115.956552 93.972559 
L 79.211145 89.792759 
L 79.211145 87.017956 
L 115.956552 89.006027 
L 148.961976 121.246396 
L 152.701958 136.597998 
L 189.447365 128.57994 
L 218.848396 157.991803 
z
" clip-path="url(#p9f2bc396b7)" style="fill: #482071"/>
   </g>
   <g id="PathCollection_3">
    <path d="M 189.447365 259.303645 
L 180.518323 268.228023 
L 171.236055 268.228023 
L 189.447365 250.026225 
L 226.192772 235.743958 
L 226.192772 237.87471 
z
" clip-path="url(#p9f2bc396b7)" style="fill: #46337f"/>
    <path d="M 189.447365 180.243882 
L 152.701958 158.448825 
L 152.222508 157.991803 
L 115.956552 148.552196 
L 79.211145 156.571986 
L 79.211145 153.455604 
L 115.956552 143.579844 
L 138.793204 121.246396 
L 115.956552 98.93909 
L 79.211145 92.567563 
L 79.211145 89.792759 
L 115.956552 93.972559 
L 143.87759 121.246396 
L 152.701958 157.46801 
L 189.447365 135.944457 
L 211.486592 157.991803 
z
M 204.124788 157.991803 
L 189.447365 143.308973 
L 164.769206 157.991803 
L 189.447365 172.810979 
z
" clip-path="url(#p9f2bc396b7)" style="fill: #46337f"/>
   </g>
   <g id="PathCollection_4">
    <path d="M 189.447365 268.228023 
L 180.518323 268.228023 
L 189.447365 259.303645 
L 226.192772 237.87471 
L 226.192772 240.005461 
L 189.552632 268.228023 
z
" clip-path="url(#p9f2bc396b7)" style="fill: #414487"/>
    <path d="M 189.447365 172.810979 
L 164.769206 157.991803 
L 189.447365 143.308973 
L 204.124788 157.991803 
z
M 196.762984 157.991803 
L 189.447365 150.673489 
L 177.147113 157.991803 
L 189.447365 165.378075 
z
" clip-path="url(#p9f2bc396b7)" style="fill: #414487"/>
    <path d="M 115.956552 143.579844 
L 79.211145 153.455604 
L 79.211145 150.339221 
L 115.956552 138.607492 
L 133.708818 121.246396 
L 115.956552 103.905622 
L 79.211145 95.342366 
L 79.211145 92.567563 
L 115.956552 98.93909 
L 138.793204 121.246396 
z
" clip-path="url(#p9f2bc396b7)" style="fill: #414487"/>
   </g>
   <g id="PathCollection_5">
    <path d="M 226.192772 240.005461 
L 226.192772 242.136213 
L 192.318895 268.228023 
L 189.552632 268.228023 
z
" clip-path="url(#p9f2bc396b7)" style="fill: #3a548c"/>
    <path d="M 189.447365 165.378075 
L 177.147113 157.991803 
L 189.447365 150.673489 
L 196.762984 157.991803 
z
" clip-path="url(#p9f2bc396b7)" style="fill: #3a548c"/>
    <path d="M 115.956552 138.607492 
L 79.211145 150.339221 
L 79.211145 147.222838 
L 115.956552 133.63514 
L 128.624431 121.246396 
L 115.956552 108.872154 
L 79.211145 98.11717 
L 79.211145 95.342366 
L 115.956552 103.905622 
L 133.708818 121.246396 
z
" clip-path="url(#p9f2bc396b7)" style="fill: #3a548c"/>
   </g>
   <g id="PathCollection_6">
    <path d="M 226.192772 242.136213 
L 226.192772 244.266965 
L 195.085159 268.228023 
L 192.318895 268.228023 
z
" clip-path="url(#p9f2bc396b7)" style="fill: #32648e"/>
    <path d="M 115.956552 133.63514 
L 79.211145 147.222838 
L 79.211145 144.106456 
L 115.956552 128.662788 
L 123.540045 121.246396 
L 115.956552 113.838686 
L 79.211145 100.891973 
L 79.211145 98.11717 
L 115.956552 108.872154 
L 128.624431 121.246396 
z
" clip-path="url(#p9f2bc396b7)" style="fill: #32648e"/>
   </g>
   <g id="PathCollection_7">
    <path d="M 226.192772 244.266965 
L 226.192772 246.397716 
L 197.851422 268.228023 
L 195.085159 268.228023 
z
" clip-path="url(#p9f2bc396b7)" style="fill: #2c728e"/>
    <path d="M 115.956552 128.662788 
L 79.211145 144.106456 
L 79.211145 140.990073 
L 115.956552 123.690436 
L 118.455659 121.246396 
L 115.956552 118.805217 
L 79.211145 103.666777 
L 79.211145 100.891973 
L 115.956552 113.838686 
L 123.540045 121.246396 
z
" clip-path="url(#p9f2bc396b7)" style="fill: #2c728e"/>
   </g>
   <g id="PathCollection_8">
    <path d="M 226.192772 246.397716 
L 226.192772 248.528468 
L 200.617686 268.228023 
L 197.851422 268.228023 
z
" clip-path="url(#p9f2bc396b7)" style="fill: #26818e"/>
    <path d="M 115.956552 123.690436 
L 79.211145 140.990073 
L 79.211145 137.87369 
L 112.759368 121.246396 
L 79.211145 106.44158 
L 79.211145 103.666777 
L 115.956552 118.805217 
L 118.455659 121.246396 
z
" clip-path="url(#p9f2bc396b7)" style="fill: #26818e"/>
   </g>
   <g id="PathCollection_9">
    <path d="M 226.192772 248.528468 
L 226.192772 250.65922 
L 203.383949 268.228023 
L 200.617686 268.228023 
z
" clip-path="url(#p9f2bc396b7)" style="fill: #218f8d"/>
    <path d="M 79.211145 137.87369 
L 79.211145 134.757307 
L 106.471568 121.246396 
L 79.211145 109.216383 
L 79.211145 106.44158 
L 112.759368 121.246396 
z
" clip-path="url(#p9f2bc396b7)" style="fill: #218f8d"/>
   </g>
   <g id="PathCollection_10">
    <path d="M 226.192772 250.65922 
L 226.192772 252.789971 
L 206.150212 268.228023 
L 203.383949 268.228023 
z
" clip-path="url(#p9f2bc396b7)" style="fill: #1e9d89"/>
    <path d="M 79.211145 134.757307 
L 79.211145 131.640925 
L 100.183768 121.246396 
L 79.211145 111.991187 
L 79.211145 109.216383 
L 106.471568 121.246396 
z
" clip-path="url(#p9f2bc396b7)" style="fill: #1e9d89"/>
   </g>
   <g id="PathCollection_11">
    <path d="M 226.192772 252.789971 
L 226.192772 254.920723 
L 208.916476 268.228023 
L 206.150212 268.228023 
z
" clip-path="url(#p9f2bc396b7)" style="fill: #24aa83"/>
    <path d="M 79.211145 131.640925 
L 79.211145 128.524542 
L 93.895967 121.246396 
L 79.211145 114.76599 
L 79.211145 111.991187 
L 100.183768 121.246396 
z
" clip-path="url(#p9f2bc396b7)" style="fill: #24aa83"/>
   </g>
   <g id="PathCollection_12">
    <path d="M 226.192772 254.920723 
L 226.192772 257.051475 
L 211.682739 268.228023 
L 208.916476 268.228023 
z
" clip-path="url(#p9f2bc396b7)" style="fill: #35b779"/>
    <path d="M 79.211145 128.524542 
L 79.211145 125.408159 
L 87.608167 121.246396 
L 79.211145 117.540794 
L 79.211145 114.76599 
L 93.895967 121.246396 
z
" clip-path="url(#p9f2bc396b7)" style="fill: #35b779"/>
   </g>
   <g id="PathCollection_13">
    <path d="M 226.192772 257.051475 
L 226.192772 259.182226 
L 214.449002 268.228023 
L 211.682739 268.228023 
z
" clip-path="url(#p9f2bc396b7)" style="fill: #50c46a"/>
    <path d="M 79.211145 125.408159 
L 79.211145 122.291777 
L 81.320367 121.246396 
L 79.211145 120.315597 
L 79.211145 117.540794 
L 87.608167 121.246396 
z
" clip-path="url(#p9f2bc396b7)" style="fill: #50c46a"/>
   </g>
   <g id="PathCollection_14">
    <path d="M 226.192772 259.182226 
L 226.192772 261.312978 
L 217.215266 268.228023 
L 214.449002 268.228023 
z
" clip-path="url(#p9f2bc396b7)" style="fill: #70cf57"/>
    <path d="M 79.211145 122.291777 
L 79.211145 121.246396 
L 79.211145 120.315597 
L 81.320367 121.246396 
z
" clip-path="url(#p9f2bc396b7)" style="fill: #70cf57"/>
   </g>
   <g id="PathCollection_15">
    <path d="M 226.192772 261.312978 
L 226.192772 263.44373 
L 219.981529 268.228023 
L 217.215266 268.228023 
z
" clip-path="url(#p9f2bc396b7)" style="fill: #95d840"/>
   </g>
   <g id="PathCollection_16">
    <path d="M 226.192772 263.44373 
L 226.192772 265.574482 
L 222.747793 268.228023 
L 219.981529 268.228023 
z
" clip-path="url(#p9f2bc396b7)" style="fill: #bddf26"/>
   </g>
   <g id="PathCollection_17">
    <path d="M 226.192772 265.574482 
L 226.192772 267.705233 
L 225.514056 268.228023 
L 222.747793 268.228023 
z
" clip-path="url(#p9f2bc396b7)" style="fill: #e2e418"/>
   </g>
   <g id="PathCollection_18">
    <path d="M 226.192772 267.705233 
L 226.192772 268.228023 
L 225.514056 268.228023 
z
" clip-path="url(#p9f2bc396b7)" style="fill: #fde725"/>
   </g>
   <g id="patch_2">
    <path d="M 45.292308 307.8 
L 249.907692 307.8 
L 249.907692 127.594872 
L 178.112821 55.8 
L 45.292308 55.8 
z
" clip-path="url(#p9f2bc396b7)" style="fill: #808080; opacity: 0.15; stroke: #808080; stroke-linejoin: miter"/>
   </g>
   <g id="patch_3">
    <path d="M 212.059923 304.97343 
C 215.807999 304.97343 219.403067 303.484304 222.053356 300.834015 
C 224.703646 298.183725 226.192772 294.588657 226.192772 290.840581 
C 226.192772 287.092506 224.703646 283.497438 222.053356 280.847148 
C 219.403067 278.196859 215.807999 276.707733 212.059923 276.707733 
C 208.311848 276.707733 204.71678 278.196859 202.06649 280.847148 
C 199.416201 283.497438 197.927075 287.092506 197.927075 290.840581 
C 197.927075 294.588657 199.416201 298.183725 202.06649 300.834015 
C 204.71678 303.484304 208.311848 304.97343 212.059923 304.97343 
L 212.059923 304.97343 
z
" clip-path="url(#p9f2bc396b7)" style="fill: none; stroke-dasharray: 7.4,3.2; stroke-dashoffset: 0; stroke: #ff0000; stroke-width: 2; stroke-linejoin: miter"/>
   </g>
   <g id="PathCollection_19">
    <defs>
     <path id="m4f9801b4cf" d="M 0 0.866025 
C 0.229673 0.866025 0.449969 0.774776 0.612372 0.612372 
C 0.774776 0.449969 0.866025 0.229673 0.866025 0 
C 0.866025 -0.229673 0.774776 -0.449969 0.612372 -0.612372 
C 0.449969 -0.774776 0.229673 -0.866025 0 -0.866025 
C -0.229673 -0.866025 -0.449969 -0.774776 -0.612372 -0.612372 
C -0.774776 -0.449969 -0.866025 -0.229673 -0.866025 0 
C -0.866025 0.229673 -0.774776 0.449969 -0.612372 0.612372 
C -0.449969 0.774776 -0.229673 0.866025 0 0.866025 
z
" style="stroke: #000000"/>
    </defs>
    <g clip-path="url(#p9f2bc396b7)">
     <use xlink:href="#m4f9801b4cf" x="226.192772" y="268.228023" style="stroke: #000000"/>
     <use xlink:href="#m4f9801b4cf" x="189.447365" y="268.228023" style="stroke: #000000"/>
     <use xlink:href="#m4f9801b4cf" x="152.701958" y="268.228023" style="stroke: #000000"/>
     <use xlink:href="#m4f9801b4cf" x="115.956552" y="268.228023" style="stroke: #000000"/>
     <use xlink:href="#m4f9801b4cf" x="79.211145" y="268.228023" style="stroke: #000000"/>
     <use xlink:href="#m4f9801b4cf" x="226.192772" y="231.482617" style="stroke: #000000"/>
     <use xlink:href="#m4f9801b4cf" x="189.447365" y="231.482617" style="stroke: #000000"/>
     <use xlink:href="#m4f9801b4cf" x="152.701958" y="231.482617" style="stroke: #000000"/>
     <use xlink:href="#m4f9801b4cf" x="115.956552" y="231.482617" style="stroke: #000000"/>
     <use xlink:href="#m4f9801b4cf" x="79.211145" y="231.482617" style="stroke: #000000"/>
     <use xlink:href="#m4f9801b4cf" x="226.192772" y="194.73721" style="stroke: #000000"/>
     <use xlink:href="#m4f9801b4cf" x="189.447365" y="194.73721" style="stroke: #000000"/>
     <use xlink:href="#m4f9801b4cf" x="152.701958" y="194.73721" style="stroke: #000000"/>
     <use xlink:href="#m4f9801b4cf" x="115.956552" y="194.73721" style="stroke: #000000"/>
     <use xlink:href="#m4f9801b4cf" x="79.211145" y="194.73721" style="stroke: #000000"/>
     <use xlink:href="#m4f9801b4cf" x="226.192772" y="157.991803" style="stroke: #000000"/>
     <use xlink:href="#m4f9801b4cf" x="189.447365" y="157.991803" style="stroke: #000000"/>
     <use xlink:href="#m4f9801b4cf" x="152.701958" y="157.991803" style="stroke: #000000"/>
     <use xlink:href="#m4f9801b4cf" x="115.956552" y="157.991803" style="stroke: #000000"/>
     <use xlink:href="#m4f9801b4cf" x="79.211145" y="157.991803" style="stroke: #000000"/>
     <use xlink:href="#m4f9801b4cf" x="189.447365" y="121.246396" style="stroke: #000000"/>
     <use xlink:href="#m4f9801b4cf" x="152.701958" y="121.246396" style="stroke: #000000"/>
     <use xlink:href="#m4f9801b4cf" x="115.956552" y="121.246396" style="stroke: #000000"/>
     <use xlink:href="#m4f9801b4cf" x="79.211145" y="121.246396" style="stroke: #000000"/>
     <use xlink:href="#m4f9801b4cf" x="152.701958" y="84.500989" style="stroke: #000000"/>
     <use xlink:href="#m4f9801b4cf" x="115.956552" y="84.500989" style="stroke: #000000"/>
     <use xlink:href="#m4f9801b4cf" x="79.211145" y="84.500989" style="stroke: #000000"/>
    </g>
   </g>
   <g id="text_1">
    <!-- Autoencoder -->
    <g transform="translate(90.05625 37.2) scale(0.18 -0.18)">
     <defs>
      <path id="DejaVuSans-41" d="M 2188 4044 
L 1331 1722 
L 3047 1722 
L 2188 4044 
z
M 1831 4666 
L 2547 4666 
L 4325 0 
L 3669 0 
L 3244 1197 
L 1141 1197 
L 716 0 
L 50 0 
L 1831 4666 
z
" transform="scale(0.015625)"/>
      <path id="DejaVuSans-75" d="M 544 1381 
L 544 3500 
L 1119 3500 
L 1119 1403 
Q 1119 906 1312 657 
Q 1506 409 1894 409 
Q 2359 409 2629 706 
Q 2900 1003 2900 1516 
L 2900 3500 
L 3475 3500 
L 3475 0 
L 2900 0 
L 2900 538 
Q 2691 219 2414 64 
Q 2138 -91 1772 -91 
Q 1169 -91 856 284 
Q 544 659 544 1381 
z
M 1991 3584 
L 1991 3584 
z
" transform="scale(0.015625)"/>
      <path id="DejaVuSans-74" d="M 1172 4494 
L 1172 3500 
L 2356 3500 
L 2356 3053 
L 1172 3053 
L 1172 1153 
Q 1172 725 1289 603 
Q 1406 481 1766 481 
L 2356 481 
L 2356 0 
L 1766 0 
Q 1100 0 847 248 
Q 594 497 594 1153 
L 594 3053 
L 172 3053 
L 172 3500 
L 594 3500 
L 594 4494 
L 1172 4494 
z
" transform="scale(0.015625)"/>
      <path id="DejaVuSans-6f" d="M 1959 3097 
Q 1497 3097 1228 2736 
Q 959 2375 959 1747 
Q 959 1119 1226 758 
Q 1494 397 1959 397 
Q 2419 397 2687 759 
Q 2956 1122 2956 1747 
Q 2956 2369 2687 2733 
Q 2419 3097 1959 3097 
z
M 1959 3584 
Q 2709 3584 3137 3096 
Q 3566 2609 3566 1747 
Q 3566 888 3137 398 
Q 2709 -91 1959 -91 
Q 1206 -91 779 398 
Q 353 888 353 1747 
Q 353 2609 779 3096 
Q 1206 3584 1959 3584 
z
" transform="scale(0.015625)"/>
      <path id="DejaVuSans-65" d="M 3597 1894 
L 3597 1613 
L 953 1613 
Q 991 1019 1311 708 
Q 1631 397 2203 397 
Q 2534 397 2845 478 
Q 3156 559 3463 722 
L 3463 178 
Q 3153 47 2828 -22 
Q 2503 -91 2169 -91 
Q 1331 -91 842 396 
Q 353 884 353 1716 
Q 353 2575 817 3079 
Q 1281 3584 2069 3584 
Q 2775 3584 3186 3129 
Q 3597 2675 3597 1894 
z
M 3022 2063 
Q 3016 2534 2758 2815 
Q 2500 3097 2075 3097 
Q 1594 3097 1305 2825 
Q 1016 2553 972 2059 
L 3022 2063 
z
" transform="scale(0.015625)"/>
      <path id="DejaVuSans-6e" d="M 3513 2113 
L 3513 0 
L 2938 0 
L 2938 2094 
Q 2938 2591 2744 2837 
Q 2550 3084 2163 3084 
Q 1697 3084 1428 2787 
Q 1159 2491 1159 1978 
L 1159 0 
L 581 0 
L 581 3500 
L 1159 3500 
L 1159 2956 
Q 1366 3272 1645 3428 
Q 1925 3584 2291 3584 
Q 2894 3584 3203 3211 
Q 3513 2838 3513 2113 
z
" transform="scale(0.015625)"/>
      <path id="DejaVuSans-63" d="M 3122 3366 
L 3122 2828 
Q 2878 2963 2633 3030 
Q 2388 3097 2138 3097 
Q 1578 3097 1268 2742 
Q 959 2388 959 1747 
Q 959 1106 1268 751 
Q 1578 397 2138 397 
Q 2388 397 2633 464 
Q 2878 531 3122 666 
L 3122 134 
Q 2881 22 2623 -34 
Q 2366 -91 2075 -91 
Q 1284 -91 818 406 
Q 353 903 353 1747 
Q 353 2603 823 3093 
Q 1294 3584 2113 3584 
Q 2378 3584 2631 3529 
Q 2884 3475 3122 3366 
z
" transform="scale(0.015625)"/>
      <path id="DejaVuSans-64" d="M 2906 2969 
L 2906 4863 
L 3481 4863 
L 3481 0 
L 2906 0 
L 2906 525 
Q 2725 213 2448 61 
Q 2172 -91 1784 -91 
Q 1150 -91 751 415 
Q 353 922 353 1747 
Q 353 2572 751 3078 
Q 1150 3584 1784 3584 
Q 2172 3584 2448 3432 
Q 2725 3281 2906 2969 
z
M 947 1747 
Q 947 1113 1208 752 
Q 1469 391 1925 391 
Q 2381 391 2643 752 
Q 2906 1113 2906 1747 
Q 2906 2381 2643 2742 
Q 2381 3103 1925 3103 
Q 1469 3103 1208 2742 
Q 947 2381 947 1747 
z
" transform="scale(0.015625)"/>
      <path id="DejaVuSans-72" d="M 2631 2963 
Q 2534 3019 2420 3045 
Q 2306 3072 2169 3072 
Q 1681 3072 1420 2755 
Q 1159 2438 1159 1844 
L 1159 0 
L 581 0 
L 581 3500 
L 1159 3500 
L 1159 2956 
Q 1341 3275 1631 3429 
Q 1922 3584 2338 3584 
Q 2397 3584 2469 3576 
Q 2541 3569 2628 3553 
L 2631 2963 
z
" transform="scale(0.015625)"/>
     </defs>
     <use xlink:href="#DejaVuSans-41"/>
     <use xlink:href="#DejaVuSans-75" x="68.408203"/>
     <use xlink:href="#DejaVuSans-74" x="131.787109"/>
     <use xlink:href="#DejaVuSans-6f" x="170.996094"/>
     <use xlink:href="#DejaVuSans-65" x="232.177734"/>
     <use xlink:href="#DejaVuSans-6e" x="293.701172"/>
     <use xlink:href="#DejaVuSans-63" x="357.080078"/>
     <use xlink:href="#DejaVuSans-6f" x="412.060547"/>
     <use xlink:href="#DejaVuSans-64" x="473.242188"/>
     <use xlink:href="#DejaVuSans-65" x="536.71875"/>
     <use xlink:href="#DejaVuSans-72" x="598.242188"/>
    </g>
   </g>
  </g>
 </g>
 <defs>
  <clipPath id="p9f2bc396b7">
   <rect x="36" y="43.2" width="223.2" height="277.2"/>
  </clipPath>
 </defs>
</svg>
