<?xml version="1.0" encoding="utf-8" standalone="no"?>
<!DOCTYPE svg PUBLIC "-//W3C//DTD SVG 1.1//EN"
  "http://www.w3.org/Graphics/SVG/1.1/DTD/svg11.dtd">
<svg xmlns:xlink="http://www.w3.org/1999/xlink" width="288pt" height="360pt" viewBox="0 0 288 360" xmlns="http://www.w3.org/2000/svg" version="1.1">
 <metadata>
  <rdf:RDF xmlns:dc="http://purl.org/dc/elements/1.1/" xmlns:cc="http://creativecommons.org/ns#" xmlns:rdf="http://www.w3.org/1999/02/22-rdf-syntax-ns#">
   <cc:Work>
    <dc:type rdf:resource="http://purl.org/dc/dcmitype/StillImage"/>
    <dc:date>2024-03-11T22:44:11.546353</dc:date>
    <dc:format>image/svg+xml</dc:format>
    <dc:creator>
     <cc:Agent>
      <dc:title>Matplotlib v3.7.2, https://matplotlib.org/</dc:title>
     </cc:Agent>
    </dc:creator>
   </cc:Work>
  </rdf:RDF>
 </metadata>
 <defs>
  <style type="text/css">*{stroke-linejoin: round; stroke-linecap: butt}</style>
 </defs>
 <g id="figure_1">
  <g id="patch_1">
   <path d="M 0 360 
L 288 360 
L 288 0 
L 0 0 
L 0 360 
z
" style="fill: none"/>
  </g>
  <g id="axes_1">
   <g id="PathCollection_1">
    <path d="M 189.098399 264.807298 
L 152.659413 264.807298 
L 116.220427 264.807298 
L 79.781441 264.807298 
L 79.781441 228.368312 
L 79.781441 191.929326 
L 79.781441 155.49034 
L 79.781441 119.051354 
L 79.781441 82.612369 
L 116.220427 82.612369 
L 152.659413 82.612369 
L 189.098399 119.051354 
L 189.506942 119.459898 
L 190.016883 155.49034 
L 190.095294 191.929326 
L 196.249128 228.368312 
L 189.608809 264.807298 
z
M 186.447294 191.929326 
L 177.924668 155.49034 
L 152.659413 134.451417 
L 132.636928 155.49034 
L 131.928474 191.929326 
L 152.659413 212.655901 
z
" clip-path="url(#p2b0dd7f7ed)" style="fill: #46085c"/>
   </g>
   <g id="PathCollection_2">
    <path d="M 196.249128 228.368312 
L 190.095294 191.929326 
L 190.016883 155.49034 
L 189.506942 119.459898 
L 191.271469 121.224425 
L 191.756436 155.49034 
L 199.793047 191.929326 
L 203.541114 228.368312 
L 192.869165 264.807298 
L 189.608809 264.807298 
z
" clip-path="url(#p2b0dd7f7ed)" style="fill: #481a6c"/>
    <path d="M 152.659413 212.655901 
L 131.928474 191.929326 
L 132.636928 155.49034 
L 152.659413 134.451417 
L 177.924668 155.49034 
L 186.447294 191.929326 
z
M 160.657452 191.929326 
L 156.762304 155.49034 
L 152.659413 152.073774 
L 149.407909 155.49034 
L 147.752125 191.929326 
L 152.659413 196.835581 
z
" clip-path="url(#p2b0dd7f7ed)" style="fill: #481a6c"/>
   </g>
   <g id="PathCollection_3">
    <path d="M 203.541114 228.368312 
L 199.793047 191.929326 
L 191.756436 155.49034 
L 191.271469 121.224425 
L 193.035996 122.988951 
L 193.49599 155.49034 
L 209.4908 191.929326 
L 210.833099 228.368312 
L 196.129521 264.807298 
L 192.869165 264.807298 
z
" clip-path="url(#p2b0dd7f7ed)" style="fill: #482979"/>
    <path d="M 152.659413 196.835581 
L 147.752125 191.929326 
L 149.407909 155.49034 
L 152.659413 152.073774 
L 156.762304 155.49034 
L 160.657452 191.929326 
z
" clip-path="url(#p2b0dd7f7ed)" style="fill: #482979"/>
   </g>
   <g id="PathCollection_4">
    <path d="M 210.833099 228.368312 
L 209.4908 191.929326 
L 193.49599 155.49034 
L 193.035996 122.988951 
L 194.800523 124.753478 
L 195.235543 155.49034 
L 219.188553 191.929326 
L 218.125084 228.368312 
L 199.389877 264.807298 
L 196.129521 264.807298 
z
" clip-path="url(#p2b0dd7f7ed)" style="fill: #453882"/>
   </g>
   <g id="PathCollection_5">
    <path d="M 218.125084 228.368312 
L 219.188553 191.929326 
L 195.235543 155.49034 
L 194.800523 124.753478 
L 196.565049 126.518005 
L 196.975096 155.49034 
L 225.537385 191.178731 
L 225.537385 191.929326 
L 225.537385 226.706672 
L 225.41707 228.368312 
L 202.650232 264.807298 
L 199.389877 264.807298 
z
" clip-path="url(#p2b0dd7f7ed)" style="fill: #404688"/>
   </g>
   <g id="PathCollection_6">
    <path d="M 225.41707 228.368312 
L 225.537385 226.706672 
L 225.537385 228.368312 
L 225.537385 233.485555 
L 205.910588 264.807298 
L 202.650232 264.807298 
z
" clip-path="url(#p2b0dd7f7ed)" style="fill: #3a538b"/>
    <path d="M 196.975096 155.49034 
L 196.565049 126.518005 
L 198.329576 128.282532 
L 198.71465 155.49034 
L 225.537385 189.005171 
L 225.537385 191.178731 
z
" clip-path="url(#p2b0dd7f7ed)" style="fill: #3a538b"/>
   </g>
   <g id="PathCollection_7">
    <path d="M 225.537385 233.485555 
L 225.537385 238.688646 
L 209.170944 264.807298 
L 205.910588 264.807298 
z
" clip-path="url(#p2b0dd7f7ed)" style="fill: #34608d"/>
    <path d="M 198.71465 155.49034 
L 198.329576 128.282532 
L 200.094103 130.047058 
L 200.454203 155.49034 
L 225.537385 186.831611 
L 225.537385 189.005171 
z
" clip-path="url(#p2b0dd7f7ed)" style="fill: #34608d"/>
   </g>
   <g id="PathCollection_8">
    <path d="M 225.537385 238.688646 
L 225.537385 243.891738 
L 212.4313 264.807298 
L 209.170944 264.807298 
z
" clip-path="url(#p2b0dd7f7ed)" style="fill: #2f6c8e"/>
    <path d="M 200.454203 155.49034 
L 200.094103 130.047058 
L 201.858629 131.811585 
L 202.193756 155.49034 
L 225.537385 184.65805 
L 225.537385 186.831611 
z
" clip-path="url(#p2b0dd7f7ed)" style="fill: #2f6c8e"/>
   </g>
   <g id="PathCollection_9">
    <path d="M 225.537385 243.891738 
L 225.537385 249.09483 
L 215.691655 264.807298 
L 212.4313 264.807298 
z
" clip-path="url(#p2b0dd7f7ed)" style="fill: #2a778e"/>
    <path d="M 202.193756 155.49034 
L 201.858629 131.811585 
L 203.623156 133.576112 
L 203.933309 155.49034 
L 225.537385 182.48449 
L 225.537385 184.65805 
z
" clip-path="url(#p2b0dd7f7ed)" style="fill: #2a778e"/>
   </g>
   <g id="PathCollection_10">
    <path d="M 225.537385 249.09483 
L 225.537385 254.297922 
L 218.952011 264.807298 
L 215.691655 264.807298 
z
" clip-path="url(#p2b0dd7f7ed)" style="fill: #26828e"/>
    <path d="M 203.933309 155.49034 
L 203.623156 133.576112 
L 205.387683 135.340638 
L 205.672863 155.49034 
L 225.537385 180.31093 
L 225.537385 182.48449 
z
" clip-path="url(#p2b0dd7f7ed)" style="fill: #26828e"/>
   </g>
   <g id="PathCollection_11">
    <path d="M 225.537385 254.297922 
L 225.537385 259.501014 
L 222.212367 264.807298 
L 218.952011 264.807298 
z
" clip-path="url(#p2b0dd7f7ed)" style="fill: #218e8d"/>
    <path d="M 205.672863 155.49034 
L 205.387683 135.340638 
L 207.15221 137.105165 
L 207.412416 155.49034 
L 225.537385 178.137369 
L 225.537385 180.31093 
z
" clip-path="url(#p2b0dd7f7ed)" style="fill: #218e8d"/>
   </g>
   <g id="PathCollection_12">
    <path d="M 225.537385 259.501014 
L 225.537385 264.704106 
L 225.472723 264.807298 
L 222.212367 264.807298 
z
" clip-path="url(#p2b0dd7f7ed)" style="fill: #1f998a"/>
    <path d="M 207.412416 155.49034 
L 207.15221 137.105165 
L 208.916736 138.869692 
L 209.151969 155.49034 
L 225.537385 175.963809 
L 225.537385 178.137369 
z
" clip-path="url(#p2b0dd7f7ed)" style="fill: #1f998a"/>
   </g>
   <g id="PathCollection_13">
    <path d="M 225.537385 264.704106 
L 225.537385 264.807298 
L 225.472723 264.807298 
z
" clip-path="url(#p2b0dd7f7ed)" style="fill: #20a486"/>
    <path d="M 209.151969 155.49034 
L 208.916736 138.869692 
L 210.681263 140.634219 
L 210.891522 155.49034 
L 225.537385 173.790248 
L 225.537385 175.963809 
z
" clip-path="url(#p2b0dd7f7ed)" style="fill: #20a486"/>
   </g>
   <g id="PathCollection_14">
    <path d="M 210.891522 155.49034 
L 210.681263 140.634219 
L 212.44579 142.398745 
L 212.631076 155.49034 
L 225.537385 171.616688 
L 225.537385 173.790248 
z
" clip-path="url(#p2b0dd7f7ed)" style="fill: #29af7f"/>
   </g>
   <g id="PathCollection_15">
    <path d="M 212.631076 155.49034 
L 212.44579 142.398745 
L 214.210316 144.163272 
L 214.370629 155.49034 
L 225.537385 169.443128 
L 225.537385 171.616688 
z
" clip-path="url(#p2b0dd7f7ed)" style="fill: #3aba76"/>
   </g>
   <g id="PathCollection_16">
    <path d="M 214.370629 155.49034 
L 214.210316 144.163272 
L 215.974843 145.927799 
L 216.110182 155.49034 
L 225.537385 167.269567 
L 225.537385 169.443128 
z
" clip-path="url(#p2b0dd7f7ed)" style="fill: #50c46a"/>
   </g>
   <g id="PathCollection_17">
    <path d="M 216.110182 155.49034 
L 215.974843 145.927799 
L 217.73937 147.692325 
L 217.849736 155.49034 
L 225.537385 165.096007 
L 225.537385 167.269567 
z
" clip-path="url(#p2b0dd7f7ed)" style="fill: #69cd5b"/>
   </g>
   <g id="PathCollection_18">
    <path d="M 217.849736 155.49034 
L 217.73937 147.692325 
L 219.503897 149.456852 
L 219.589289 155.49034 
L 225.537385 162.922447 
L 225.537385 165.096007 
z
" clip-path="url(#p2b0dd7f7ed)" style="fill: #86d549"/>
   </g>
   <g id="PathCollection_19">
    <path d="M 219.589289 155.49034 
L 219.503897 149.456852 
L 221.268423 151.221379 
L 221.328842 155.49034 
L 225.537385 160.748886 
L 225.537385 162.922447 
z
" clip-path="url(#p2b0dd7f7ed)" style="fill: #a5db36"/>
   </g>
   <g id="PathCollection_20">
    <path d="M 221.328842 155.49034 
L 221.268423 151.221379 
L 223.03295 152.985906 
L 223.068395 155.49034 
L 225.537385 158.575326 
L 225.537385 160.748886 
z
" clip-path="url(#p2b0dd7f7ed)" style="fill: #c5e021"/>
   </g>
   <g id="PathCollection_21">
    <path d="M 223.068395 155.49034 
L 223.03295 152.985906 
L 224.797477 154.750432 
L 224.807949 155.49034 
L 225.537385 156.401766 
L 225.537385 158.575326 
z
" clip-path="url(#p2b0dd7f7ed)" style="fill: #e5e419"/>
   </g>
   <g id="PathCollection_22">
    <path d="M 224.807949 155.49034 
L 224.797477 154.750432 
L 225.537385 155.49034 
L 225.537385 156.401766 
z
" clip-path="url(#p2b0dd7f7ed)" style="fill: #fde725"/>
   </g>
   <g id="patch_2">
    <path d="M 46.145455 304.049282 
L 249.054545 304.049282 
L 249.054545 125.34689 
L 177.858373 54.150718 
L 46.145455 54.150718 
z
" clip-path="url(#p2b0dd7f7ed)" style="fill: #808080; opacity: 0.15; stroke: #808080; stroke-linejoin: miter"/>
   </g>
   <g id="patch_3">
    <path d="M 164.964578 175.615872 
L 187.388569 175.615872 
L 187.388569 173.373473 
L 164.964578 173.373473 
z
" clip-path="url(#p2b0dd7f7ed)" style="fill: #ff0000; stroke: #ff0000; stroke-linejoin: miter"/>
   </g>
   <g id="PathCollection_23">
    <defs>
     <path id="m824e3b5de2" d="M 0 0.866025 
C 0.229673 0.866025 0.449969 0.774776 0.612372 0.612372 
C 0.774776 0.449969 0.866025 0.229673 0.866025 0 
C 0.866025 -0.229673 0.774776 -0.449969 0.612372 -0.612372 
C 0.449969 -0.774776 0.229673 -0.866025 0 -0.866025 
C -0.229673 -0.866025 -0.449969 -0.774776 -0.612372 -0.612372 
C -0.774776 -0.449969 -0.866025 -0.229673 -0.866025 0 
C -0.866025 0.229673 -0.774776 0.449969 -0.612372 0.612372 
C -0.449969 0.774776 -0.229673 0.866025 0 0.866025 
z
" style="stroke: #000000"/>
    </defs>
    <g clip-path="url(#p2b0dd7f7ed)">
     <use xlink:href="#m824e3b5de2" x="225.537385" y="264.807298" style="stroke: #000000"/>
     <use xlink:href="#m824e3b5de2" x="189.098399" y="264.807298" style="stroke: #000000"/>
     <use xlink:href="#m824e3b5de2" x="152.659413" y="264.807298" style="stroke: #000000"/>
     <use xlink:href="#m824e3b5de2" x="116.220427" y="264.807298" style="stroke: #000000"/>
     <use xlink:href="#m824e3b5de2" x="79.781441" y="264.807298" style="stroke: #000000"/>
     <use xlink:href="#m824e3b5de2" x="225.537385" y="228.368312" style="stroke: #000000"/>
     <use xlink:href="#m824e3b5de2" x="189.098399" y="228.368312" style="stroke: #000000"/>
     <use xlink:href="#m824e3b5de2" x="152.659413" y="228.368312" style="stroke: #000000"/>
     <use xlink:href="#m824e3b5de2" x="116.220427" y="228.368312" style="stroke: #000000"/>
     <use xlink:href="#m824e3b5de2" x="79.781441" y="228.368312" style="stroke: #000000"/>
     <use xlink:href="#m824e3b5de2" x="225.537385" y="191.929326" style="stroke: #000000"/>
     <use xlink:href="#m824e3b5de2" x="189.098399" y="191.929326" style="stroke: #000000"/>
     <use xlink:href="#m824e3b5de2" x="152.659413" y="191.929326" style="stroke: #000000"/>
     <use xlink:href="#m824e3b5de2" x="116.220427" y="191.929326" style="stroke: #000000"/>
     <use xlink:href="#m824e3b5de2" x="79.781441" y="191.929326" style="stroke: #000000"/>
     <use xlink:href="#m824e3b5de2" x="225.537385" y="155.49034" style="stroke: #000000"/>
     <use xlink:href="#m824e3b5de2" x="189.098399" y="155.49034" style="stroke: #000000"/>
     <use xlink:href="#m824e3b5de2" x="152.659413" y="155.49034" style="stroke: #000000"/>
     <use xlink:href="#m824e3b5de2" x="116.220427" y="155.49034" style="stroke: #000000"/>
     <use xlink:href="#m824e3b5de2" x="79.781441" y="155.49034" style="stroke: #000000"/>
     <use xlink:href="#m824e3b5de2" x="189.098399" y="119.051354" style="stroke: #000000"/>
     <use xlink:href="#m824e3b5de2" x="152.659413" y="119.051354" style="stroke: #000000"/>
     <use xlink:href="#m824e3b5de2" x="116.220427" y="119.051354" style="stroke: #000000"/>
     <use xlink:href="#m824e3b5de2" x="79.781441" y="119.051354" style="stroke: #000000"/>
     <use xlink:href="#m824e3b5de2" x="152.659413" y="82.612369" style="stroke: #000000"/>
     <use xlink:href="#m824e3b5de2" x="116.220427" y="82.612369" style="stroke: #000000"/>
     <use xlink:href="#m824e3b5de2" x="79.781441" y="82.612369" style="stroke: #000000"/>
    </g>
   </g>
   <g id="text_1">
    <!-- Autoencoder -->
    <g transform="translate(90.05625 37.2) scale(0.18 -0.18)">
     <defs>
      <path id="DejaVuSans-41" d="M 2188 4044 
L 1331 1722 
L 3047 1722 
L 2188 4044 
z
M 1831 4666 
L 2547 4666 
L 4325 0 
L 3669 0 
L 3244 1197 
L 1141 1197 
L 716 0 
L 50 0 
L 1831 4666 
z
" transform="scale(0.015625)"/>
      <path id="DejaVuSans-75" d="M 544 1381 
L 544 3500 
L 1119 3500 
L 1119 1403 
Q 1119 906 1312 657 
Q 1506 409 1894 409 
Q 2359 409 2629 706 
Q 2900 1003 2900 1516 
L 2900 3500 
L 3475 3500 
L 3475 0 
L 2900 0 
L 2900 538 
Q 2691 219 2414 64 
Q 2138 -91 1772 -91 
Q 1169 -91 856 284 
Q 544 659 544 1381 
z
M 1991 3584 
L 1991 3584 
z
" transform="scale(0.015625)"/>
      <path id="DejaVuSans-74" d="M 1172 4494 
L 1172 3500 
L 2356 3500 
L 2356 3053 
L 1172 3053 
L 1172 1153 
Q 1172 725 1289 603 
Q 1406 481 1766 481 
L 2356 481 
L 2356 0 
L 1766 0 
Q 1100 0 847 248 
Q 594 497 594 1153 
L 594 3053 
L 172 3053 
L 172 3500 
L 594 3500 
L 594 4494 
L 1172 4494 
z
" transform="scale(0.015625)"/>
      <path id="DejaVuSans-6f" d="M 1959 3097 
Q 1497 3097 1228 2736 
Q 959 2375 959 1747 
Q 959 1119 1226 758 
Q 1494 397 1959 397 
Q 2419 397 2687 759 
Q 2956 1122 2956 1747 
Q 2956 2369 2687 2733 
Q 2419 3097 1959 3097 
z
M 1959 3584 
Q 2709 3584 3137 3096 
Q 3566 2609 3566 1747 
Q 3566 888 3137 398 
Q 2709 -91 1959 -91 
Q 1206 -91 779 398 
Q 353 888 353 1747 
Q 353 2609 779 3096 
Q 1206 3584 1959 3584 
z
" transform="scale(0.015625)"/>
      <path id="DejaVuSans-65" d="M 3597 1894 
L 3597 1613 
L 953 1613 
Q 991 1019 1311 708 
Q 1631 397 2203 397 
Q 2534 397 2845 478 
Q 3156 559 3463 722 
L 3463 178 
Q 3153 47 2828 -22 
Q 2503 -91 2169 -91 
Q 1331 -91 842 396 
Q 353 884 353 1716 
Q 353 2575 817 3079 
Q 1281 3584 2069 3584 
Q 2775 3584 3186 3129 
Q 3597 2675 3597 1894 
z
M 3022 2063 
Q 3016 2534 2758 2815 
Q 2500 3097 2075 3097 
Q 1594 3097 1305 2825 
Q 1016 2553 972 2059 
L 3022 2063 
z
" transform="scale(0.015625)"/>
      <path id="DejaVuSans-6e" d="M 3513 2113 
L 3513 0 
L 2938 0 
L 2938 2094 
Q 2938 2591 2744 2837 
Q 2550 3084 2163 3084 
Q 1697 3084 1428 2787 
Q 1159 2491 1159 1978 
L 1159 0 
L 581 0 
L 581 3500 
L 1159 3500 
L 1159 2956 
Q 1366 3272 1645 3428 
Q 1925 3584 2291 3584 
Q 2894 3584 3203 3211 
Q 3513 2838 3513 2113 
z
" transform="scale(0.015625)"/>
      <path id="DejaVuSans-63" d="M 3122 3366 
L 3122 2828 
Q 2878 2963 2633 3030 
Q 2388 3097 2138 3097 
Q 1578 3097 1268 2742 
Q 959 2388 959 1747 
Q 959 1106 1268 751 
Q 1578 397 2138 397 
Q 2388 397 2633 464 
Q 2878 531 3122 666 
L 3122 134 
Q 2881 22 2623 -34 
Q 2366 -91 2075 -91 
Q 1284 -91 818 406 
Q 353 903 353 1747 
Q 353 2603 823 3093 
Q 1294 3584 2113 3584 
Q 2378 3584 2631 3529 
Q 2884 3475 3122 3366 
z
" transform="scale(0.015625)"/>
      <path id="DejaVuSans-64" d="M 2906 2969 
L 2906 4863 
L 3481 4863 
L 3481 0 
L 2906 0 
L 2906 525 
Q 2725 213 2448 61 
Q 2172 -91 1784 -91 
Q 1150 -91 751 415 
Q 353 922 353 1747 
Q 353 2572 751 3078 
Q 1150 3584 1784 3584 
Q 2172 3584 2448 3432 
Q 2725 3281 2906 2969 
z
M 947 1747 
Q 947 1113 1208 752 
Q 1469 391 1925 391 
Q 2381 391 2643 752 
Q 2906 1113 2906 1747 
Q 2906 2381 2643 2742 
Q 2381 3103 1925 3103 
Q 1469 3103 1208 2742 
Q 947 2381 947 1747 
z
" transform="scale(0.015625)"/>
      <path id="DejaVuSans-72" d="M 2631 2963 
Q 2534 3019 2420 3045 
Q 2306 3072 2169 3072 
Q 1681 3072 1420 2755 
Q 1159 2438 1159 1844 
L 1159 0 
L 581 0 
L 581 3500 
L 1159 3500 
L 1159 2956 
Q 1341 3275 1631 3429 
Q 1922 3584 2338 3584 
Q 2397 3584 2469 3576 
Q 2541 3569 2628 3553 
L 2631 2963 
z
" transform="scale(0.015625)"/>
     </defs>
     <use xlink:href="#DejaVuSans-41"/>
     <use xlink:href="#DejaVuSans-75" x="68.408203"/>
     <use xlink:href="#DejaVuSans-74" x="131.787109"/>
     <use xlink:href="#DejaVuSans-6f" x="170.996094"/>
     <use xlink:href="#DejaVuSans-65" x="232.177734"/>
     <use xlink:href="#DejaVuSans-6e" x="293.701172"/>
     <use xlink:href="#DejaVuSans-63" x="357.080078"/>
     <use xlink:href="#DejaVuSans-6f" x="412.060547"/>
     <use xlink:href="#DejaVuSans-64" x="473.242188"/>
     <use xlink:href="#DejaVuSans-65" x="536.71875"/>
     <use xlink:href="#DejaVuSans-72" x="598.242188"/>
    </g>
   </g>
  </g>
 </g>
 <defs>
  <clipPath id="p2b0dd7f7ed">
   <rect x="36" y="43.2" width="223.2" height="271.8"/>
  </clipPath>
 </defs>
</svg>
