<?xml version="1.0" encoding="utf-8" standalone="no"?>
<!DOCTYPE svg PUBLIC "-//W3C//DTD SVG 1.1//EN"
  "http://www.w3.org/Graphics/SVG/1.1/DTD/svg11.dtd">
<svg xmlns:xlink="http://www.w3.org/1999/xlink" width="286.2pt" height="279pt" viewBox="0 0 286.2 279" xmlns="http://www.w3.org/2000/svg" version="1.1">
 <metadata>
  <rdf:RDF xmlns:dc="http://purl.org/dc/elements/1.1/" xmlns:cc="http://creativecommons.org/ns#" xmlns:rdf="http://www.w3.org/1999/02/22-rdf-syntax-ns#">
   <cc:Work>
    <dc:type rdf:resource="http://purl.org/dc/dcmitype/StillImage"/>
    <dc:date>2024-08-19T02:00:37.563887</dc:date>
    <dc:format>image/svg+xml</dc:format>
    <dc:creator>
     <cc:Agent>
      <dc:title>Matplotlib v3.7.2, https://matplotlib.org/</dc:title>
     </cc:Agent>
    </dc:creator>
   </cc:Work>
  </rdf:RDF>
 </metadata>
 <defs>
  <style type="text/css">*{stroke-linejoin: round; stroke-linecap: butt}</style>
 </defs>
 <g id="figure_1">
  <g id="patch_1">
   <path d="M 0 279 
L 286.2 279 
L 286.2 0 
L 0 0 
L 0 279 
z
" style="fill: none"/>
  </g>
  <g id="axes_1">
   <g id="PathCollection_1">
    <path d="M 8.565829 274.034171 
L 9.931658 274.034171 
L 11.297487 274.034171 
L 12.663317 274.034171 
L 14.029146 274.034171 
L 15.394975 274.034171 
L 16.760804 274.034171 
L 18.126633 274.034171 
L 19.492462 274.034171 
L 20.858291 274.034171 
L 22.224121 274.034171 
L 23.58995 274.034171 
L 24.955779 274.034171 
L 26.321608 274.034171 
L 27.687437 274.034171 
L 29.053266 274.034171 
L 30.419095 274.034171 
L 31.784925 274.034171 
L 33.150754 274.034171 
L 34.516583 274.034171 
L 35.882412 274.034171 
L 37.248241 274.034171 
L 38.61407 274.034171 
L 39.979899 274.034171 
L 41.345729 274.034171 
L 42.711558 274.034171 
L 44.077387 274.034171 
L 45.443216 274.034171 
L 46.809045 274.034171 
L 48.174874 274.034171 
L 49.540704 274.034171 
L 50.906533 274.034171 
L 52.272362 274.034171 
L 53.638191 274.034171 
L 55.00402 274.034171 
L 56.369849 274.034171 
L 57.735678 274.034171 
L 59.101508 274.034171 
L 60.467337 274.034171 
L 61.833166 274.034171 
L 63.198995 274.034171 
L 64.564824 274.034171 
L 65.930653 274.034171 
L 67.296482 274.034171 
L 68.662312 274.034171 
L 70.028141 274.034171 
L 71.39397 274.034171 
L 72.759799 274.034171 
L 74.125628 274.034171 
L 75.491457 274.034171 
L 76.857286 274.034171 
L 78.223116 274.034171 
L 79.588945 274.034171 
L 80.954774 274.034171 
L 82.320603 274.034171 
L 83.686432 274.034171 
L 85.052261 274.034171 
L 86.41809 274.034171 
L 87.78392 274.034171 
L 89.149749 274.034171 
L 90.515578 274.034171 
L 91.881407 274.034171 
L 93.247236 274.034171 
L 94.613065 274.034171 
L 95.978894 274.034171 
L 97.344724 274.034171 
L 98.710553 274.034171 
L 100.076382 274.034171 
L 101.442211 274.034171 
L 102.80804 274.034171 
L 104.173869 274.034171 
L 105.539698 274.034171 
L 106.905528 274.034171 
L 108.271357 274.034171 
L 109.637186 274.034171 
L 111.003015 274.034171 
L 112.368844 274.034171 
L 113.734673 274.034171 
L 115.100503 274.034171 
L 116.466332 274.034171 
L 117.832161 274.034171 
L 119.19799 274.034171 
L 120.563819 274.034171 
L 121.929648 274.034171 
L 123.295477 274.034171 
L 124.661307 274.034171 
L 126.027136 274.034171 
L 127.392965 274.034171 
L 128.758794 274.034171 
L 130.124623 274.034171 
L 131.490452 274.034171 
L 132.856281 274.034171 
L 134.222111 274.034171 
L 135.58794 274.034171 
L 136.953769 274.034171 
L 138.319598 274.034171 
L 139.685427 274.034171 
L 141.051256 274.034171 
L 142.417085 274.034171 
L 143.782915 274.034171 
L 145.148744 274.034171 
L 146.514573 274.034171 
L 147.880402 274.034171 
L 149.246231 274.034171 
L 150.61206 274.034171 
L 151.977889 274.034171 
L 153.343719 274.034171 
L 154.709548 274.034171 
L 156.075377 274.034171 
L 157.441206 274.034171 
L 158.807035 274.034171 
L 160.172864 274.034171 
L 161.538693 274.034171 
L 162.904523 274.034171 
L 164.270352 274.034171 
L 165.636181 274.034171 
L 167.00201 274.034171 
L 168.367839 274.034171 
L 169.733668 274.034171 
L 171.099497 274.034171 
L 172.465327 274.034171 
L 173.831156 274.034171 
L 175.196985 274.034171 
L 176.562814 274.034171 
L 177.928643 274.034171 
L 179.294472 274.034171 
L 180.660302 274.034171 
L 182.026131 274.034171 
L 183.39196 274.034171 
L 184.757789 274.034171 
L 186.123618 274.034171 
L 187.489447 274.034171 
L 188.855276 274.034171 
L 190.221106 274.034171 
L 191.586935 274.034171 
L 192.952764 274.034171 
L 194.318593 274.034171 
L 195.684422 274.034171 
L 197.050251 274.034171 
L 198.41608 274.034171 
L 199.78191 274.034171 
L 201.147739 274.034171 
L 202.513568 274.034171 
L 203.879397 274.034171 
L 205.245226 274.034171 
L 206.611055 274.034171 
L 207.976884 274.034171 
L 209.342714 274.034171 
L 210.708543 274.034171 
L 212.074372 274.034171 
L 213.440201 274.034171 
L 214.80603 274.034171 
L 216.171859 274.034171 
L 217.537688 274.034171 
L 218.903518 274.034171 
L 220.269347 274.034171 
L 221.635176 274.034171 
L 223.001005 274.034171 
L 224.366834 274.034171 
L 225.732663 274.034171 
L 227.098492 274.034171 
L 228.464322 274.034171 
L 229.830151 274.034171 
L 231.19598 274.034171 
L 232.561809 274.034171 
L 233.927638 274.034171 
L 235.293467 274.034171 
L 236.659296 274.034171 
L 238.025126 274.034171 
L 239.390955 274.034171 
L 240.756784 274.034171 
L 242.122613 274.034171 
L 243.488442 274.034171 
L 244.854271 274.034171 
L 246.220101 274.034171 
L 247.58593 274.034171 
L 248.951759 274.034171 
L 250.317588 274.034171 
L 251.683417 274.034171 
L 253.049246 274.034171 
L 254.415075 274.034171 
L 255.780905 274.034171 
L 257.146734 274.034171 
L 258.512563 274.034171 
L 259.878392 274.034171 
L 261.244221 274.034171 
L 262.61005 274.034171 
L 263.975879 274.034171 
L 265.341709 274.034171 
L 266.707538 274.034171 
L 268.073367 274.034171 
L 269.439196 274.034171 
L 270.805025 274.034171 
L 272.170854 274.034171 
L 273.536683 274.034171 
L 274.902513 274.034171 
L 276.268342 274.034171 
L 277.634171 274.034171 
L 279 274.034171 
L 279 272.668342 
L 279 271.302513 
L 279 269.936683 
L 279 268.570854 
L 279 267.205025 
L 279 265.839196 
L 279 264.473367 
L 279 263.107538 
L 279 261.741709 
L 279 260.375879 
L 279 259.01005 
L 279 257.644221 
L 279 256.278392 
L 279 254.912563 
L 279 253.546734 
L 279 252.180905 
L 279 250.815075 
L 279 249.449246 
L 279 248.083417 
L 279 246.717588 
L 279 245.351759 
L 279 243.98593 
L 279 242.620101 
L 279 241.254271 
L 279 239.888442 
L 279 238.522613 
L 279 237.156784 
L 279 235.790955 
L 279 234.425126 
L 279 233.059296 
L 279 231.693467 
L 279 230.327638 
L 279 228.961809 
L 279 227.59598 
L 279 226.230151 
L 279 224.864322 
L 279 223.498492 
L 279 222.132663 
L 279 220.766834 
L 279 219.401005 
L 279 218.035176 
L 279 216.669347 
L 279 215.303518 
L 279 213.937688 
L 279 212.571859 
L 279 211.20603 
L 279 209.840201 
L 279 208.474372 
L 279 207.108543 
L 279 205.742714 
L 279 204.376884 
L 279 203.011055 
L 279 201.645226 
L 279 200.279397 
L 279 198.913568 
L 279 197.547739 
L 279 196.18191 
L 279 194.81608 
L 279 193.450251 
L 279 192.084422 
L 279 190.718593 
L 279 189.352764 
L 279 187.986935 
L 279 186.621106 
L 279 185.255276 
L 279 183.889447 
L 279 182.523618 
L 279 181.157789 
L 279 179.79196 
L 279 178.426131 
L 279 177.060302 
L 279 175.694472 
L 279 174.328643 
L 279 172.962814 
L 279 171.596985 
L 279 170.231156 
L 279 168.865327 
L 279 167.499497 
L 279 166.133668 
L 279 164.767839 
L 279 163.40201 
L 279 162.036181 
L 279 160.670352 
L 279 159.304523 
L 279 157.938693 
L 279 156.572864 
L 279 155.207035 
L 279 153.841206 
L 279 152.475377 
L 279 151.109548 
L 279 149.743719 
L 279 148.377889 
L 279 147.01206 
L 279 145.646231 
L 279 144.280402 
L 279 142.914573 
L 279 141.548744 
L 279 140.182915 
L 279 138.817085 
L 279 137.451256 
L 279 136.085427 
L 279 134.719598 
L 279 133.353769 
L 279 131.98794 
L 279 130.622111 
L 279 129.256281 
L 279 127.890452 
L 279 126.524623 
L 279 125.158794 
L 279 123.792965 
L 279 122.427136 
L 279 121.061307 
L 279 119.695477 
L 279 118.329648 
L 279 116.963819 
L 279 115.59799 
L 279 114.232161 
L 279 112.866332 
L 279 111.500503 
L 279 110.134673 
L 279 108.768844 
L 279 107.403015 
L 279 106.037186 
L 279 104.671357 
L 279 103.305528 
L 279 101.939698 
L 279 100.573869 
L 279 99.20804 
L 279 97.842211 
L 279 96.476382 
L 279 95.110553 
L 277.634171 93.744724 
L 276.268342 92.378894 
L 275.87109 91.981642 
L 275.412713 92.378894 
L 274.902513 92.825798 
L 273.782588 93.744724 
L 273.536683 93.936884 
L 272.170854 94.935952 
L 271.914033 95.110553 
L 270.805025 95.841083 
L 269.740442 96.476382 
L 269.439196 96.652985 
L 268.073367 97.393132 
L 267.14863 97.842211 
L 266.707538 98.056506 
L 265.341709 98.660679 
L 263.975879 99.190315 
L 263.925371 99.20804 
L 262.61005 99.680619 
L 261.244221 100.106186 
L 259.878392 100.470982 
L 259.430578 100.573869 
L 258.512563 100.795212 
L 257.146734 101.070384 
L 255.780905 101.291439 
L 254.415075 101.460549 
L 253.049246 101.579178 
L 251.683417 101.648088 
L 250.317588 101.667333 
L 248.951759 101.63622 
L 247.58593 101.553258 
L 246.220101 101.416068 
L 244.854271 101.221255 
L 243.488442 100.964233 
L 242.122613 100.638985 
L 241.894675 100.573869 
L 240.756784 100.26469 
L 239.390955 99.817555 
L 238.025126 99.281217 
L 237.861846 99.20804 
L 236.659296 98.682488 
L 235.293467 97.978093 
L 235.059775 97.842211 
L 233.927638 97.187659 
L 232.863675 96.476382 
L 232.561809 96.273061 
L 231.19598 95.235842 
L 231.047326 95.110553 
L 229.830151 94.05935 
L 229.501848 93.744724 
L 228.464322 92.715783 
L 228.153741 92.378894 
L 227.098492 91.185303 
L 226.957327 91.013065 
L 225.878274 89.647236 
L 225.732663 89.455927 
L 224.887859 88.281407 
L 224.366834 87.523403 
L 223.966923 86.915578 
L 223.098426 85.549749 
L 223.001005 85.39488 
L 222.258688 84.18392 
L 221.635176 83.143442 
L 221.44289 82.81809 
L 220.628301 81.452261 
L 220.269347 80.856469 
L 219.804017 80.086432 
L 218.960696 78.720603 
L 218.903518 78.63175 
L 218.065744 77.354774 
L 217.537688 76.585006 
L 217.116309 75.988945 
L 216.171859 74.72911 
L 216.089122 74.623116 
L 214.94594 73.257286 
L 214.80603 73.101634 
L 213.65716 71.891457 
L 213.440201 71.679632 
L 212.180965 70.525628 
L 212.074372 70.435225 
L 210.708543 69.354801 
L 210.443216 69.159799 
L 209.342714 68.411061 
L 208.360905 67.79397 
L 207.976884 67.569509 
L 206.611055 66.832251 
L 205.799145 66.428141 
L 205.245226 66.169993 
L 203.879397 65.582534 
L 202.57111 65.062312 
L 202.513568 65.040695 
L 201.147739 64.565879 
L 199.78191 64.124221 
L 198.41608 63.711222 
L 198.363676 63.696482 
L 197.050251 63.342885 
L 195.684422 62.99601 
L 194.318593 62.666539 
L 192.952764 62.351451 
L 192.857408 62.330653 
L 191.586935 62.06164 
L 190.221106 61.781829 
L 188.855276 61.508568 
L 187.489447 61.239469 
L 186.123618 60.972164 
L 186.085063 60.964824 
L 184.757789 60.715413 
L 183.39196 60.456374 
L 182.026131 60.192232 
L 180.660302 59.9203 
L 179.294472 59.637634 
L 179.109873 59.598995 
L 177.928643 59.350207 
L 176.562814 59.047295 
L 175.196985 58.723388 
L 173.831156 58.37365 
L 173.310227 58.233166 
L 172.465327 57.998975 
L 171.099497 57.590904 
L 169.733668 57.137444 
L 168.985673 56.867337 
L 168.367839 56.632883 
L 167.00201 56.066443 
L 165.801247 55.501508 
L 165.636181 55.418178 
L 164.270352 54.672539 
L 163.402113 54.135678 
L 162.904523 53.797442 
L 161.55516 52.769849 
L 161.538693 52.755796 
L 160.172864 51.482667 
L 160.095717 51.40402 
L 158.926285 50.038191 
L 158.807035 49.875846 
L 157.974802 48.672362 
L 157.441206 47.740386 
L 157.203511 47.306533 
L 156.568281 45.940704 
L 156.075377 44.622455 
L 156.057925 44.574874 
L 155.632308 43.209045 
L 155.296473 41.843216 
L 155.037138 40.477387 
L 154.84435 39.111558 
L 154.710662 37.745729 
L 154.709548 37.727165 
L 154.6263 36.379899 
L 154.594155 35.01407 
L 154.611376 33.648241 
L 154.676145 32.282412 
L 154.709548 31.873869 
L 154.783608 30.916583 
L 154.933632 29.550754 
L 155.128613 28.184925 
L 155.36994 26.819095 
L 155.659688 25.453266 
L 156.00063 24.087437 
L 156.075377 23.824311 
L 156.382523 22.721608 
L 156.817687 21.355779 
L 157.314235 19.98995 
L 157.441206 19.67353 
L 157.8624 18.624121 
L 158.477438 17.258291 
L 158.807035 16.594547 
L 159.16091 15.892462 
L 159.920232 14.526633 
L 160.172864 14.107948 
L 160.761059 13.160804 
L 161.538693 12.019796 
L 161.697869 11.794975 
L 162.736644 10.429146 
L 162.904523 10.22217 
L 163.893398 9.063317 
L 164.270352 8.648388 
L 165.186769 7.697487 
L 165.636181 7.25471 
L 166.637926 6.331658 
L 167.00201 6.009796 
L 168.274213 4.965829 
L 168.367839 4.891384 
L 169.733668 3.874008 
L 170.132433 3.6 
L 169.733668 3.6 
L 168.367839 3.6 
L 167.00201 3.6 
L 165.636181 3.6 
L 164.270352 3.6 
L 162.904523 3.6 
L 161.538693 3.6 
L 160.172864 3.6 
L 158.807035 3.6 
L 157.441206 3.6 
L 156.075377 3.6 
L 154.709548 3.6 
L 153.343719 3.6 
L 151.977889 3.6 
L 150.61206 3.6 
L 149.246231 3.6 
L 147.880402 3.6 
L 146.514573 3.6 
L 145.148744 3.6 
L 143.782915 3.6 
L 142.417085 3.6 
L 141.051256 3.6 
L 139.685427 3.6 
L 138.319598 3.6 
L 136.953769 3.6 
L 135.58794 3.6 
L 134.222111 3.6 
L 132.856281 3.6 
L 131.490452 3.6 
L 130.124623 3.6 
L 128.758794 3.6 
L 127.392965 3.6 
L 126.027136 3.6 
L 124.661307 3.6 
L 123.295477 3.6 
L 121.929648 3.6 
L 120.563819 3.6 
L 119.19799 3.6 
L 117.832161 3.6 
L 116.466332 3.6 
L 115.100503 3.6 
L 113.734673 3.6 
L 112.368844 3.6 
L 111.003015 3.6 
L 109.637186 3.6 
L 108.271357 3.6 
L 106.905528 3.6 
L 105.539698 3.6 
L 104.173869 3.6 
L 102.80804 3.6 
L 101.442211 3.6 
L 100.076382 3.6 
L 98.710553 3.6 
L 97.344724 4.965829 
L 95.978894 6.331658 
L 94.613065 7.697487 
L 93.247236 9.063317 
L 91.881407 10.429146 
L 90.691157 11.619396 
L 91.881407 11.215677 
L 93.247236 10.848982 
L 94.613065 10.574722 
L 95.699629 10.429146 
L 95.978894 10.391705 
L 97.344724 10.300046 
L 98.710553 10.3022 
L 100.076382 10.400787 
L 100.272585 10.429146 
L 101.442211 10.598754 
L 102.80804 10.902105 
L 104.173869 11.318563 
L 105.383931 11.794975 
L 105.539698 11.857855 
L 106.905528 12.532673 
L 107.9538 13.160804 
L 108.271357 13.359418 
L 109.637186 14.361828 
L 109.832863 14.526633 
L 111.003015 15.574654 
L 111.316451 15.892462 
L 112.368844 17.043192 
L 112.546017 17.258291 
L 113.580689 18.624121 
L 113.734673 18.847302 
L 114.460623 19.98995 
L 115.100503 21.121367 
L 115.224687 21.355779 
L 115.875758 22.721608 
L 116.441508 24.087437 
L 116.466332 24.155757 
L 116.919257 25.453266 
L 117.324017 26.819095 
L 117.660156 28.184925 
L 117.832161 29.051285 
L 117.929922 29.550754 
L 118.135286 30.916583 
L 118.278392 32.282412 
L 118.359159 33.648241 
L 118.376406 35.01407 
L 118.327717 36.379899 
L 118.209251 37.745729 
L 118.015468 39.111558 
L 117.832161 40.026623 
L 117.738472 40.477387 
L 117.367881 41.843216 
L 116.891127 43.209045 
L 116.466332 44.190124 
L 116.288863 44.574874 
L 115.535165 45.940704 
L 115.100503 46.60172 
L 114.596669 47.306533 
L 113.734673 48.338426 
L 113.427432 48.672362 
L 112.368844 49.685008 
L 111.957672 50.038191 
L 111.003015 50.777652 
L 110.095168 51.40402 
L 109.637186 51.69519 
L 108.271357 52.47906 
L 107.7095 52.769849 
L 106.905528 53.164232 
L 105.539698 53.773135 
L 104.650218 54.135678 
L 104.173869 54.324411 
L 102.80804 54.829452 
L 101.442211 55.301465 
L 100.832232 55.501508 
L 100.076382 55.749839 
L 98.710553 56.182542 
L 97.344724 56.606956 
L 96.498321 56.867337 
L 95.978894 57.032035 
L 94.613065 57.465938 
L 93.247236 57.914083 
L 92.309597 58.233166 
L 91.881407 58.387627 
L 90.515578 58.899042 
L 89.149749 59.454625 
L 88.81206 59.598995 
L 87.78392 60.07862 
L 86.41809 60.781958 
L 86.08621 60.964824 
L 85.052261 61.60076 
L 83.985011 62.330653 
L 83.686432 62.56189 
L 82.345767 63.696482 
L 82.320603 63.720926 
L 81.033939 65.062312 
L 80.954774 65.158183 
L 79.959999 66.428141 
L 79.588945 66.983688 
L 79.066442 67.79397 
L 78.313384 69.159799 
L 78.223116 69.343519 
L 77.647747 70.525628 
L 77.068292 71.891457 
L 76.857286 72.440201 
L 76.53912 73.257286 
L 76.051794 74.623116 
L 75.60269 75.988945 
L 75.491457 76.343617 
L 75.162768 77.354774 
L 74.735987 78.720603 
L 74.319431 80.086432 
L 74.125628 80.725054 
L 73.893023 81.452261 
L 73.452739 82.81809 
L 73.002219 84.18392 
L 72.759799 84.895718 
L 72.522781 85.549749 
L 72.008205 86.915578 
L 71.464091 88.281407 
L 71.39397 88.449341 
L 70.861321 89.647236 
L 70.21419 91.013065 
L 70.028141 91.384331 
L 69.500357 92.378894 
L 68.727885 93.744724 
L 68.662312 93.854728 
L 67.878374 95.110553 
L 67.296482 95.989957 
L 66.962796 96.476382 
L 65.978557 97.842211 
L 65.930653 97.905697 
L 64.928305 99.20804 
L 64.564824 99.659504 
L 63.821993 100.573869 
L 63.198995 101.309983 
L 62.666161 101.939698 
L 61.833166 102.886475 
L 61.467055 103.305528 
L 60.467337 104.40576 
L 60.228628 104.671357 
L 59.101508 105.874624 
L 58.951015 106.037186 
L 57.735678 107.292376 
L 57.62958 107.403015 
L 56.369849 108.653534 
L 56.254242 108.768844 
L 55.00402 109.950551 
L 54.808729 110.134673 
L 53.638191 111.176195 
L 53.269323 111.500503 
L 52.272362 112.325154 
L 51.602673 112.866332 
L 50.906533 113.394683 
L 49.762144 114.232161 
L 49.540704 114.384347 
L 48.174874 115.281968 
L 47.665077 115.59799 
L 46.809045 116.096371 
L 45.443216 116.832893 
L 45.179783 116.963819 
L 44.077387 117.480118 
L 42.711558 118.05362 
L 41.968336 118.329648 
L 41.345729 118.548971 
L 39.979899 118.964719 
L 38.61407 119.310122 
L 37.248241 119.584398 
L 36.499943 119.695477 
L 35.882412 119.783451 
L 34.516583 119.907581 
L 33.150754 119.959191 
L 31.784925 119.936637 
L 30.419095 119.837823 
L 29.323498 119.695477 
L 29.053266 119.6587 
L 27.687437 119.388123 
L 26.321608 119.027567 
L 24.955779 118.57209 
L 24.353866 118.329648 
L 23.58995 117.997902 
L 22.224121 117.295355 
L 21.667 116.963819 
L 20.858291 116.432846 
L 19.746361 115.59799 
L 19.492462 115.383072 
L 18.279401 114.232161 
L 18.126633 114.064598 
L 17.134312 112.866332 
L 16.760804 112.32879 
L 16.229427 111.500503 
L 15.519326 110.134673 
L 15.394975 109.82914 
L 14.988701 108.768844 
L 14.608252 107.403015 
L 14.364535 106.037186 
L 14.250653 104.671357 
L 14.261072 103.305528 
L 14.391449 101.939698 
L 14.638485 100.573869 
L 14.999793 99.20804 
L 15.394975 98.067995 
L 15.476154 97.842211 
L 16.078237 96.476382 
L 16.760804 95.170158 
L 16.793322 95.110553 
L 17.643721 93.744724 
L 18.126633 93.053223 
L 18.61999 92.378894 
L 19.492462 91.292542 
L 19.72806 91.013065 
L 20.858291 89.768415 
L 20.9738 89.647236 
L 22.224121 88.409168 
L 22.359288 88.281407 
L 23.58995 87.167113 
L 23.879776 86.915578 
L 24.955779 86.009047 
L 25.521032 85.549749 
L 26.321608 84.910657 
L 27.258107 84.18392 
L 27.687437 83.853064 
L 29.053266 82.820595 
L 29.056646 82.81809 
L 30.419095 81.801975 
L 30.890308 81.452261 
L 31.784925 80.778678 
L 32.700345 80.086432 
L 33.150754 79.738596 
L 34.453114 78.720603 
L 34.516583 78.669681 
L 35.882412 77.561127 
L 36.131764 77.354774 
L 37.248241 76.401223 
L 37.719834 75.988945 
L 38.61407 75.181387 
L 39.218027 74.623116 
L 39.979899 73.896321 
L 40.635702 73.257286 
L 41.345729 72.545171 
L 41.986228 71.891457 
L 42.711558 71.132654 
L 43.284628 70.525628 
L 44.077387 69.669342 
L 44.546055 69.159799 
L 45.443216 68.170759 
L 45.784951 67.79397 
L 46.809045 66.655295 
L 47.014631 66.428141 
L 48.174874 65.141391 
L 48.247066 65.062312 
L 49.494754 63.696482 
L 49.540704 63.646321 
L 50.766769 62.330653 
L 50.906533 62.180961 
L 52.06502 60.964824 
L 52.272362 60.747325 
L 53.390346 59.598995 
L 53.638191 59.343828 
L 54.738488 58.233166 
L 55.00402 57.963196 
L 56.099075 56.867337 
L 56.369849 56.592626 
L 57.455351 55.501508 
L 57.735678 55.213571 
L 58.785338 54.135678 
L 59.101508 53.800878 
L 60.064799 52.769849 
L 60.467337 52.321112 
L 61.271567 51.40402 
L 61.833166 50.729965 
L 62.389924 50.038191 
L 63.198995 48.968844 
L 63.413356 48.672362 
L 64.346884 47.306533 
L 64.564824 46.970384 
L 65.196964 45.940704 
L 65.930653 44.655753 
L 65.97418 44.574874 
L 66.690733 43.209045 
L 67.296482 41.983477 
L 67.361866 41.843216 
L 67.994302 40.477387 
L 68.605637 39.111558 
L 68.662312 38.98655 
L 69.197426 37.745729 
L 69.785817 36.379899 
L 70.028141 35.831065 
L 70.374284 35.01407 
L 70.97147 33.648241 
L 71.39397 32.718592 
L 71.586254 32.282412 
L 72.220773 30.916583 
L 72.759799 29.817021 
L 72.887976 29.550754 
L 73.023085 29.287467 
L 72.759799 29.550754 
L 71.39397 30.916583 
L 70.028141 32.282412 
L 68.662312 33.648241 
L 67.296482 35.01407 
L 65.930653 36.379899 
L 64.564824 37.745729 
L 63.198995 39.111558 
L 61.833166 40.477387 
L 60.467337 41.843216 
L 59.101508 43.209045 
L 57.735678 44.574874 
L 56.369849 45.940704 
L 55.00402 47.306533 
L 53.638191 48.672362 
L 52.272362 50.038191 
L 50.906533 51.40402 
L 49.540704 52.769849 
L 48.174874 54.135678 
L 46.809045 55.501508 
L 45.443216 56.867337 
L 44.077387 58.233166 
L 42.711558 59.598995 
L 41.345729 60.964824 
L 39.979899 62.330653 
L 38.61407 63.696482 
L 37.248241 65.062312 
L 35.882412 66.428141 
L 34.516583 67.79397 
L 33.150754 69.159799 
L 31.784925 70.525628 
L 30.419095 71.891457 
L 29.053266 73.257286 
L 27.687437 74.623116 
L 26.321608 75.988945 
L 24.955779 77.354774 
L 23.58995 78.720603 
L 22.224121 80.086432 
L 20.858291 81.452261 
L 19.492462 82.81809 
L 18.126633 84.18392 
L 16.760804 85.549749 
L 15.394975 86.915578 
L 14.029146 88.281407 
L 12.663317 89.647236 
L 11.297487 91.013065 
L 9.931658 92.378894 
L 8.565829 93.744724 
L 7.2 95.110553 
L 7.2 96.476382 
L 7.2 97.842211 
L 7.2 99.20804 
L 7.2 100.573869 
L 7.2 101.939698 
L 7.2 103.305528 
L 7.2 104.671357 
L 7.2 106.037186 
L 7.2 107.403015 
L 7.2 108.768844 
L 7.2 110.134673 
L 7.2 111.500503 
L 7.2 112.866332 
L 7.2 114.232161 
L 7.2 115.59799 
L 7.2 116.963819 
L 7.2 118.329648 
L 7.2 119.695477 
L 7.2 121.061307 
L 7.2 122.427136 
L 7.2 123.792965 
L 7.2 125.158794 
L 7.2 126.524623 
L 7.2 127.890452 
L 7.2 129.256281 
L 7.2 130.622111 
L 7.2 131.98794 
L 7.2 133.353769 
L 7.2 134.719598 
L 7.2 136.085427 
L 7.2 137.451256 
L 7.2 138.817085 
L 7.2 140.182915 
L 7.2 141.548744 
L 7.2 142.914573 
L 7.2 144.280402 
L 7.2 145.646231 
L 7.2 147.01206 
L 7.2 148.377889 
L 7.2 149.743719 
L 7.2 151.109548 
L 7.2 152.475377 
L 7.2 153.841206 
L 7.2 155.207035 
L 7.2 156.572864 
L 7.2 157.938693 
L 7.2 159.304523 
L 7.2 160.670352 
L 7.2 162.036181 
L 7.2 163.40201 
L 7.2 164.767839 
L 7.2 166.133668 
L 7.2 167.499497 
L 7.2 168.865327 
L 7.2 170.231156 
L 7.2 171.596985 
L 7.2 172.962814 
L 7.2 174.328643 
L 7.2 175.694472 
L 7.2 177.060302 
L 7.2 178.426131 
L 7.2 179.79196 
L 7.2 181.157789 
L 7.2 182.523618 
L 7.2 183.889447 
L 7.2 185.255276 
L 7.2 186.621106 
L 7.2 187.986935 
L 7.2 189.352764 
L 7.2 190.718593 
L 7.2 192.084422 
L 7.2 193.450251 
L 7.2 194.81608 
L 7.2 196.18191 
L 7.2 197.547739 
L 7.2 198.913568 
L 7.2 200.279397 
L 7.2 201.645226 
L 7.2 203.011055 
L 7.2 204.376884 
L 7.2 205.742714 
L 7.2 207.108543 
L 7.2 208.474372 
L 7.2 209.840201 
L 7.2 211.20603 
L 7.2 212.571859 
L 7.2 213.937688 
L 7.2 215.303518 
L 7.2 216.669347 
L 7.2 218.035176 
L 7.2 219.401005 
L 7.2 220.766834 
L 7.2 222.132663 
L 7.2 223.498492 
L 7.2 224.864322 
L 7.2 226.230151 
L 7.2 227.59598 
L 7.2 228.961809 
L 7.2 230.327638 
L 7.2 231.693467 
L 7.2 233.059296 
L 7.2 234.425126 
L 7.2 235.790955 
L 7.2 237.156784 
L 7.2 238.522613 
L 7.2 239.888442 
L 7.2 241.254271 
L 7.2 242.620101 
L 7.2 243.98593 
L 7.2 245.351759 
L 7.2 246.717588 
L 7.2 248.083417 
L 7.2 249.449246 
L 7.2 250.815075 
L 7.2 252.180905 
L 7.2 253.546734 
L 7.2 254.912563 
L 7.2 256.278392 
L 7.2 257.644221 
L 7.2 259.01005 
L 7.2 260.375879 
L 7.2 261.741709 
L 7.2 263.107538 
L 7.2 264.473367 
L 7.2 265.839196 
L 7.2 267.205025 
L 7.2 268.570854 
L 7.2 269.936683 
L 7.2 271.302513 
L 7.2 272.668342 
L 7.2 274.034171 
z
M 169.544192 233.059296 
L 168.367839 232.668941 
L 167.00201 232.11368 
L 166.137044 231.693467 
L 165.636181 231.433578 
L 164.270352 230.601602 
L 163.88054 230.327638 
L 162.904523 229.577633 
L 162.205795 228.961809 
L 161.538693 228.307412 
L 160.89356 227.59598 
L 160.172864 226.69344 
L 159.837694 226.230151 
L 158.977641 224.864322 
L 158.807035 224.551868 
L 158.274115 223.498492 
L 157.693567 222.132663 
L 157.441206 221.426267 
L 157.218403 220.766834 
L 156.834408 219.401005 
L 156.527462 218.035176 
L 156.288886 216.669347 
L 156.111521 215.303518 
L 156.075377 214.905606 
L 155.989632 213.937688 
L 155.917923 212.571859 
L 155.892117 211.20603 
L 155.908666 209.840201 
L 155.964548 208.474372 
L 156.05718 207.108543 
L 156.075377 206.913896 
L 156.184452 205.742714 
L 156.344357 204.376884 
L 156.535282 203.011055 
L 156.755938 201.645226 
L 157.005346 200.279397 
L 157.282852 198.913568 
L 157.441206 198.201856 
L 157.58965 197.547739 
L 157.926094 196.18191 
L 158.291055 194.81608 
L 158.685594 193.450251 
L 158.807035 193.055257 
L 159.117912 192.084422 
L 159.587108 190.718593 
L 160.093937 189.352764 
L 160.172864 189.151563 
L 160.659053 187.986935 
L 161.276457 186.621106 
L 161.538693 186.078691 
L 161.971617 185.255276 
L 162.750665 183.889447 
L 162.904523 183.637078 
L 163.662014 182.523618 
L 164.270352 181.701697 
L 164.731053 181.157789 
L 165.636181 180.169626 
L 166.044506 179.79196 
L 167.00201 178.967384 
L 167.774165 178.426131 
L 168.367839 178.035715 
L 169.733668 177.332465 
L 170.450143 177.060302 
L 171.099497 176.825511 
L 172.465327 176.492741 
L 173.831156 176.315453 
L 175.196985 176.283203 
L 176.562814 176.389366 
L 177.928643 176.630576 
L 179.294472 177.006387 
L 179.438964 177.060302 
L 180.660302 177.525692 
L 182.026131 178.188952 
L 182.429052 178.426131 
L 183.39196 179.01196 
L 184.474725 179.79196 
L 184.757789 180.004034 
L 186.092765 181.157789 
L 186.123618 181.185669 
L 187.4359 182.523618 
L 187.489447 182.580956 
L 188.593643 183.889447 
L 188.855276 184.216204 
L 189.620057 185.255276 
L 190.221106 186.118123 
L 190.548201 186.621106 
L 191.391296 187.986935 
L 191.586935 188.32008 
L 192.16231 189.352764 
L 192.881489 190.718593 
L 192.952764 190.860528 
L 193.544752 192.084422 
L 194.168963 193.450251 
L 194.318593 193.794951 
L 194.751684 194.81608 
L 195.299012 196.18191 
L 195.684422 197.202727 
L 195.813443 197.547739 
L 196.293957 198.913568 
L 196.742521 200.279397 
L 197.050251 201.290206 
L 197.158956 201.645226 
L 197.542726 203.011055 
L 197.891387 204.376884 
L 198.203197 205.742714 
L 198.41608 206.811154 
L 198.476757 207.108543 
L 198.710888 208.474372 
L 198.900033 209.840201 
L 199.040761 211.20603 
L 199.129078 212.571859 
L 199.160312 213.937688 
L 199.128959 215.303518 
L 199.028468 216.669347 
L 198.850961 218.035176 
L 198.586854 219.401005 
L 198.41608 220.059791 
L 198.226927 220.766834 
L 197.758013 222.132663 
L 197.15986 223.498492 
L 197.050251 223.708474 
L 196.412831 224.864322 
L 195.684422 225.952971 
L 195.48547 226.230151 
L 194.336613 227.59598 
L 194.318593 227.614764 
L 192.952764 228.915079 
L 192.898317 228.961809 
L 191.586935 229.96852 
L 191.056985 230.327638 
L 190.221106 230.843817 
L 188.855276 231.577737 
L 188.610194 231.693467 
L 187.489447 232.18711 
L 186.123618 232.697303 
L 184.961662 233.059296 
L 184.757789 233.119765 
L 183.39196 233.458726 
L 182.026131 233.725394 
L 180.660302 233.923743 
L 179.294472 234.056453 
L 177.928643 234.124999 
L 176.562814 234.129692 
L 175.196985 234.06967 
L 173.831156 233.94284 
L 172.465327 233.745773 
L 171.099497 233.473525 
L 169.733668 233.119395 
z
M 98.084579 193.450251 
L 97.344724 192.737833 
L 96.912968 192.084422 
L 96.17221 190.718593 
L 95.978894 190.266371 
L 95.686916 189.352764 
L 95.365322 187.986935 
L 95.158766 186.621106 
L 95.064627 185.255276 
L 95.080871 183.889447 
L 95.20596 182.523618 
L 95.438769 181.157789 
L 95.77851 179.79196 
L 95.978894 179.179751 
L 96.283034 178.426131 
L 96.960302 177.060302 
L 97.344724 176.404202 
L 97.885952 175.694472 
L 98.710553 174.743953 
L 99.223832 174.328643 
L 100.076382 173.703896 
L 101.442211 173.11764 
L 102.80804 172.969983 
L 104.173869 173.329019 
L 105.539698 174.31785 
L 105.548646 174.328643 
L 106.443588 175.694472 
L 106.905528 176.682144 
L 107.032416 177.060302 
L 107.35239 178.426131 
L 107.537638 179.79196 
L 107.6058 181.157789 
L 107.570309 182.523618 
L 107.441511 183.889447 
L 107.22746 185.255276 
L 106.934489 186.621106 
L 106.905528 186.727349 
L 106.487137 187.986935 
L 105.950371 189.352764 
L 105.539698 190.261769 
L 105.271513 190.718593 
L 104.372817 192.084422 
L 104.173869 192.358989 
L 103.038704 193.450251 
L 102.80804 193.655679 
L 101.442211 194.329406 
L 100.076382 194.447343 
L 98.710553 193.964143 
z
M 245.929977 162.036181 
L 244.854271 161.747802 
L 243.488442 161.267204 
L 242.122613 160.673442 
L 242.116623 160.670352 
L 240.756784 159.930626 
L 239.761367 159.304523 
L 239.390955 159.054812 
L 238.025126 158.013651 
L 237.936461 157.938693 
L 236.659296 156.759796 
L 236.473976 156.572864 
L 235.293467 155.24755 
L 235.259949 155.207035 
L 234.265132 153.841206 
L 233.927638 153.299249 
L 233.443299 152.475377 
L 232.779746 151.109548 
L 232.561809 150.536489 
L 232.272376 149.743719 
L 231.914837 148.377889 
L 231.702133 147.01206 
L 231.641656 145.646231 
L 231.74377 144.280402 
L 232.022498 142.914573 
L 232.496385 141.548744 
L 232.561809 141.414586 
L 233.224541 140.182915 
L 233.927638 139.205581 
L 234.242585 138.817085 
L 235.293467 137.776074 
L 235.671971 137.451256 
L 236.659296 136.736547 
L 237.727501 136.085427 
L 238.025126 135.926546 
L 239.390955 135.312813 
L 240.756784 134.823453 
L 241.127395 134.719598 
L 242.122613 134.464408 
L 243.488442 134.209699 
L 244.854271 134.047427 
L 246.220101 133.973872 
L 247.58593 133.986708 
L 248.951759 134.084867 
L 250.317588 134.268443 
L 251.683417 134.538644 
L 252.375053 134.719598 
L 253.049246 134.908068 
L 254.415075 135.385211 
L 255.780905 135.964186 
L 256.026227 136.085427 
L 257.146734 136.693929 
L 258.35009 137.451256 
L 258.512563 137.566297 
L 259.878392 138.657703 
L 260.057678 138.817085 
L 261.244221 140.040124 
L 261.370615 140.182915 
L 262.386142 141.548744 
L 262.61005 141.921952 
L 263.16504 142.914573 
L 263.749451 144.280402 
L 263.975879 145.026456 
L 264.154697 145.646231 
L 264.394222 147.01206 
L 264.48295 148.377889 
L 264.424426 149.743719 
L 264.219861 151.109548 
L 263.975879 152.061271 
L 263.863385 152.475377 
L 263.338386 153.841206 
L 262.649416 155.207035 
L 262.61005 155.271176 
L 261.737747 156.572864 
L 261.244221 157.190906 
L 260.577715 157.938693 
L 259.878392 158.619352 
L 259.071621 159.304523 
L 258.512563 159.727561 
L 257.146734 160.602208 
L 257.01832 160.670352 
L 255.780905 161.270871 
L 254.415075 161.786386 
L 253.510894 162.036181 
L 253.049246 162.155547 
L 251.683417 162.385683 
L 250.317588 162.492572 
L 248.951759 162.480411 
L 247.58593 162.352506 
L 246.220101 162.111365 
z
" clip-path="url(#pdc99b9cd03)" style="fill: #460a5d"/>
   </g>
   <g id="PathCollection_2">
    <path d="M 169.733668 233.119395 
L 171.099497 233.473525 
L 172.465327 233.745773 
L 173.831156 233.94284 
L 175.196985 234.06967 
L 176.562814 234.129692 
L 177.928643 234.124999 
L 179.294472 234.056453 
L 180.660302 233.923743 
L 182.026131 233.725394 
L 183.39196 233.458726 
L 184.757789 233.119765 
L 184.961662 233.059296 
L 186.123618 232.697303 
L 187.489447 232.18711 
L 188.610194 231.693467 
L 188.855276 231.577737 
L 190.221106 230.843817 
L 191.056985 230.327638 
L 191.586935 229.96852 
L 192.898317 228.961809 
L 192.952764 228.915079 
L 194.318593 227.614764 
L 194.336613 227.59598 
L 195.48547 226.230151 
L 195.684422 225.952971 
L 196.412831 224.864322 
L 197.050251 223.708474 
L 197.15986 223.498492 
L 197.758013 222.132663 
L 198.226927 220.766834 
L 198.41608 220.059791 
L 198.586854 219.401005 
L 198.850961 218.035176 
L 199.028468 216.669347 
L 199.128959 215.303518 
L 199.160312 213.937688 
L 199.129078 212.571859 
L 199.040761 211.20603 
L 198.900033 209.840201 
L 198.710888 208.474372 
L 198.476757 207.108543 
L 198.41608 206.811154 
L 198.203197 205.742714 
L 197.891387 204.376884 
L 197.542726 203.011055 
L 197.158956 201.645226 
L 197.050251 201.290206 
L 196.742521 200.279397 
L 196.293957 198.913568 
L 195.813443 197.547739 
L 195.684422 197.202727 
L 195.299012 196.18191 
L 194.751684 194.81608 
L 194.318593 193.794951 
L 194.168963 193.450251 
L 193.544752 192.084422 
L 192.952764 190.860528 
L 192.881489 190.718593 
L 192.16231 189.352764 
L 191.586935 188.32008 
L 191.391296 187.986935 
L 190.548201 186.621106 
L 190.221106 186.118123 
L 189.620057 185.255276 
L 188.855276 184.216204 
L 188.593643 183.889447 
L 187.489447 182.580956 
L 187.4359 182.523618 
L 186.123618 181.185669 
L 186.092765 181.157789 
L 184.757789 180.004034 
L 184.474725 179.79196 
L 183.39196 179.01196 
L 182.429052 178.426131 
L 182.026131 178.188952 
L 180.660302 177.525692 
L 179.438964 177.060302 
L 179.294472 177.006387 
L 177.928643 176.630576 
L 176.562814 176.389366 
L 175.196985 176.283203 
L 173.831156 176.315453 
L 172.465327 176.492741 
L 171.099497 176.825511 
L 170.450143 177.060302 
L 169.733668 177.332465 
L 168.367839 178.035715 
L 167.774165 178.426131 
L 167.00201 178.967384 
L 166.044506 179.79196 
L 165.636181 180.169626 
L 164.731053 181.157789 
L 164.270352 181.701697 
L 163.662014 182.523618 
L 162.904523 183.637078 
L 162.750665 183.889447 
L 161.971617 185.255276 
L 161.538693 186.078691 
L 161.276457 186.621106 
L 160.659053 187.986935 
L 160.172864 189.151563 
L 160.093937 189.352764 
L 159.587108 190.718593 
L 159.117912 192.084422 
L 158.807035 193.055257 
L 158.685594 193.450251 
L 158.291055 194.81608 
L 157.926094 196.18191 
L 157.58965 197.547739 
L 157.441206 198.201856 
L 157.282852 198.913568 
L 157.005346 200.279397 
L 156.755938 201.645226 
L 156.535282 203.011055 
L 156.344357 204.376884 
L 156.184452 205.742714 
L 156.075377 206.913896 
L 156.05718 207.108543 
L 155.964548 208.474372 
L 155.908666 209.840201 
L 155.892117 211.20603 
L 155.917923 212.571859 
L 155.989632 213.937688 
L 156.075377 214.905606 
L 156.111521 215.303518 
L 156.288886 216.669347 
L 156.527462 218.035176 
L 156.834408 219.401005 
L 157.218403 220.766834 
L 157.441206 221.426267 
L 157.693567 222.132663 
L 158.274115 223.498492 
L 158.807035 224.551868 
L 158.977641 224.864322 
L 159.837694 226.230151 
L 160.172864 226.69344 
L 160.89356 227.59598 
L 161.538693 228.307412 
L 162.205795 228.961809 
L 162.904523 229.577633 
L 163.88054 230.327638 
L 164.270352 230.601602 
L 165.636181 231.433578 
L 166.137044 231.693467 
L 167.00201 232.11368 
L 168.367839 232.668941 
L 169.544192 233.059296 
z
" clip-path="url(#pdc99b9cd03)" style="fill: #481c6e"/>
    <path d="M 98.710553 193.964143 
L 100.076382 194.447343 
L 101.442211 194.329406 
L 102.80804 193.655679 
L 103.038704 193.450251 
L 104.173869 192.358989 
L 104.372817 192.084422 
L 105.271513 190.718593 
L 105.539698 190.261769 
L 105.950371 189.352764 
L 106.487137 187.986935 
L 106.905528 186.727349 
L 106.934489 186.621106 
L 107.22746 185.255276 
L 107.441511 183.889447 
L 107.570309 182.523618 
L 107.6058 181.157789 
L 107.537638 179.79196 
L 107.35239 178.426131 
L 107.032416 177.060302 
L 106.905528 176.682144 
L 106.443588 175.694472 
L 105.548646 174.328643 
L 105.539698 174.31785 
L 104.173869 173.329019 
L 102.80804 172.969983 
L 101.442211 173.11764 
L 100.076382 173.703896 
L 99.223832 174.328643 
L 98.710553 174.743953 
L 97.885952 175.694472 
L 97.344724 176.404202 
L 96.960302 177.060302 
L 96.283034 178.426131 
L 95.978894 179.179751 
L 95.77851 179.79196 
L 95.438769 181.157789 
L 95.20596 182.523618 
L 95.080871 183.889447 
L 95.064627 185.255276 
L 95.158766 186.621106 
L 95.365322 187.986935 
L 95.686916 189.352764 
L 95.978894 190.266371 
L 96.17221 190.718593 
L 96.912968 192.084422 
L 97.344724 192.737833 
L 98.084579 193.450251 
z
" clip-path="url(#pdc99b9cd03)" style="fill: #481c6e"/>
    <path d="M 246.220101 162.111365 
L 247.58593 162.352506 
L 248.951759 162.480411 
L 250.317588 162.492572 
L 251.683417 162.385683 
L 253.049246 162.155547 
L 253.510894 162.036181 
L 254.415075 161.786386 
L 255.780905 161.270871 
L 257.01832 160.670352 
L 257.146734 160.602208 
L 258.512563 159.727561 
L 259.071621 159.304523 
L 259.878392 158.619352 
L 260.577715 157.938693 
L 261.244221 157.190906 
L 261.737747 156.572864 
L 262.61005 155.271176 
L 262.649416 155.207035 
L 263.338386 153.841206 
L 263.863385 152.475377 
L 263.975879 152.061271 
L 264.219861 151.109548 
L 264.424426 149.743719 
L 264.48295 148.377889 
L 264.394222 147.01206 
L 264.154697 145.646231 
L 263.975879 145.026456 
L 263.749451 144.280402 
L 263.16504 142.914573 
L 262.61005 141.921952 
L 262.386142 141.548744 
L 261.370615 140.182915 
L 261.244221 140.040124 
L 260.057678 138.817085 
L 259.878392 138.657703 
L 258.512563 137.566297 
L 258.35009 137.451256 
L 257.146734 136.693929 
L 256.026227 136.085427 
L 255.780905 135.964186 
L 254.415075 135.385211 
L 253.049246 134.908068 
L 252.375053 134.719598 
L 251.683417 134.538644 
L 250.317588 134.268443 
L 248.951759 134.084867 
L 247.58593 133.986708 
L 246.220101 133.973872 
L 244.854271 134.047427 
L 243.488442 134.209699 
L 242.122613 134.464408 
L 241.127395 134.719598 
L 240.756784 134.823453 
L 239.390955 135.312813 
L 238.025126 135.926546 
L 237.727501 136.085427 
L 236.659296 136.736547 
L 235.671971 137.451256 
L 235.293467 137.776074 
L 234.242585 138.817085 
L 233.927638 139.205581 
L 233.224541 140.182915 
L 232.561809 141.414586 
L 232.496385 141.548744 
L 232.022498 142.914573 
L 231.74377 144.280402 
L 231.641656 145.646231 
L 231.702133 147.01206 
L 231.914837 148.377889 
L 232.272376 149.743719 
L 232.561809 150.536489 
L 232.779746 151.109548 
L 233.443299 152.475377 
L 233.927638 153.299249 
L 234.265132 153.841206 
L 235.259949 155.207035 
L 235.293467 155.24755 
L 236.473976 156.572864 
L 236.659296 156.759796 
L 237.936461 157.938693 
L 238.025126 158.013651 
L 239.390955 159.054812 
L 239.761367 159.304523 
L 240.756784 159.930626 
L 242.116623 160.670352 
L 242.122613 160.673442 
L 243.488442 161.267204 
L 244.854271 161.747802 
L 245.929977 162.036181 
z
" clip-path="url(#pdc99b9cd03)" style="fill: #481c6e"/>
    <path d="M 30.419095 119.837823 
L 31.784925 119.936637 
L 33.150754 119.959191 
L 34.516583 119.907581 
L 35.882412 119.783451 
L 36.499943 119.695477 
L 37.248241 119.584398 
L 38.61407 119.310122 
L 39.979899 118.964719 
L 41.345729 118.548971 
L 41.968336 118.329648 
L 42.711558 118.05362 
L 44.077387 117.480118 
L 45.179783 116.963819 
L 45.443216 116.832893 
L 46.809045 116.096371 
L 47.665077 115.59799 
L 48.174874 115.281968 
L 49.540704 114.384347 
L 49.762144 114.232161 
L 50.906533 113.394683 
L 51.602673 112.866332 
L 52.272362 112.325154 
L 53.269323 111.500503 
L 53.638191 111.176195 
L 54.808729 110.134673 
L 55.00402 109.950551 
L 56.254242 108.768844 
L 56.369849 108.653534 
L 57.62958 107.403015 
L 57.735678 107.292376 
L 58.951015 106.037186 
L 59.101508 105.874624 
L 60.228628 104.671357 
L 60.467337 104.40576 
L 61.467055 103.305528 
L 61.833166 102.886475 
L 62.666161 101.939698 
L 63.198995 101.309983 
L 63.821993 100.573869 
L 64.564824 99.659504 
L 64.928305 99.20804 
L 65.930653 97.905697 
L 65.978557 97.842211 
L 66.962796 96.476382 
L 67.296482 95.989957 
L 67.878374 95.110553 
L 68.662312 93.854728 
L 68.727885 93.744724 
L 69.500357 92.378894 
L 70.028141 91.384331 
L 70.21419 91.013065 
L 70.861321 89.647236 
L 71.39397 88.449341 
L 71.464091 88.281407 
L 72.008205 86.915578 
L 72.522781 85.549749 
L 72.759799 84.895718 
L 73.002219 84.18392 
L 73.452739 82.81809 
L 73.893023 81.452261 
L 74.125628 80.725054 
L 74.319431 80.086432 
L 74.735987 78.720603 
L 75.162768 77.354774 
L 75.491457 76.343617 
L 75.60269 75.988945 
L 76.051794 74.623116 
L 76.53912 73.257286 
L 76.857286 72.440201 
L 77.068292 71.891457 
L 77.647747 70.525628 
L 78.223116 69.343519 
L 78.313384 69.159799 
L 79.066442 67.79397 
L 79.588945 66.983688 
L 79.959999 66.428141 
L 80.954774 65.158183 
L 81.033939 65.062312 
L 82.320603 63.720926 
L 82.345767 63.696482 
L 83.686432 62.56189 
L 83.985011 62.330653 
L 85.052261 61.60076 
L 86.08621 60.964824 
L 86.41809 60.781958 
L 87.78392 60.07862 
L 88.81206 59.598995 
L 89.149749 59.454625 
L 90.515578 58.899042 
L 91.881407 58.387627 
L 92.309597 58.233166 
L 93.247236 57.914083 
L 94.613065 57.465938 
L 95.978894 57.032035 
L 96.498321 56.867337 
L 97.344724 56.606956 
L 98.710553 56.182542 
L 100.076382 55.749839 
L 100.832232 55.501508 
L 101.442211 55.301465 
L 102.80804 54.829452 
L 104.173869 54.324411 
L 104.650218 54.135678 
L 105.539698 53.773135 
L 106.905528 53.164232 
L 107.7095 52.769849 
L 108.271357 52.47906 
L 109.637186 51.69519 
L 110.095168 51.40402 
L 111.003015 50.777652 
L 111.957672 50.038191 
L 112.368844 49.685008 
L 113.427432 48.672362 
L 113.734673 48.338426 
L 114.596669 47.306533 
L 115.100503 46.60172 
L 115.535165 45.940704 
L 116.288863 44.574874 
L 116.466332 44.190124 
L 116.891127 43.209045 
L 117.367881 41.843216 
L 117.738472 40.477387 
L 117.832161 40.026623 
L 118.015468 39.111558 
L 118.209251 37.745729 
L 118.327717 36.379899 
L 118.376406 35.01407 
L 118.359159 33.648241 
L 118.278392 32.282412 
L 118.135286 30.916583 
L 117.929922 29.550754 
L 117.832161 29.051285 
L 117.660156 28.184925 
L 117.324017 26.819095 
L 116.919257 25.453266 
L 116.466332 24.155757 
L 116.441508 24.087437 
L 115.875758 22.721608 
L 115.224687 21.355779 
L 115.100503 21.121367 
L 114.460623 19.98995 
L 113.734673 18.847302 
L 113.580689 18.624121 
L 112.546017 17.258291 
L 112.368844 17.043192 
L 111.316451 15.892462 
L 111.003015 15.574654 
L 109.832863 14.526633 
L 109.637186 14.361828 
L 108.271357 13.359418 
L 107.9538 13.160804 
L 106.905528 12.532673 
L 105.539698 11.857855 
L 105.383931 11.794975 
L 104.173869 11.318563 
L 102.80804 10.902105 
L 101.442211 10.598754 
L 100.272585 10.429146 
L 100.076382 10.400787 
L 98.710553 10.3022 
L 97.344724 10.300046 
L 95.978894 10.391705 
L 95.699629 10.429146 
L 94.613065 10.574722 
L 93.247236 10.848982 
L 91.881407 11.215677 
L 90.691157 11.619396 
L 90.515578 11.794975 
L 89.149749 13.160804 
L 87.78392 14.526633 
L 86.41809 15.892462 
L 85.052261 17.258291 
L 83.686432 18.624121 
L 82.320603 19.98995 
L 80.954774 21.355779 
L 79.588945 22.721608 
L 78.223116 24.087437 
L 76.857286 25.453266 
L 75.491457 26.819095 
L 74.125628 28.184925 
L 73.023085 29.287467 
L 72.887976 29.550754 
L 72.759799 29.817021 
L 72.220773 30.916583 
L 71.586254 32.282412 
L 71.39397 32.718592 
L 70.97147 33.648241 
L 70.374284 35.01407 
L 70.028141 35.831065 
L 69.785817 36.379899 
L 69.197426 37.745729 
L 68.662312 38.98655 
L 68.605637 39.111558 
L 67.994302 40.477387 
L 67.361866 41.843216 
L 67.296482 41.983477 
L 66.690733 43.209045 
L 65.97418 44.574874 
L 65.930653 44.655753 
L 65.196964 45.940704 
L 64.564824 46.970384 
L 64.346884 47.306533 
L 63.413356 48.672362 
L 63.198995 48.968844 
L 62.389924 50.038191 
L 61.833166 50.729965 
L 61.271567 51.40402 
L 60.467337 52.321112 
L 60.064799 52.769849 
L 59.101508 53.800878 
L 58.785338 54.135678 
L 57.735678 55.213571 
L 57.455351 55.501508 
L 56.369849 56.592626 
L 56.099075 56.867337 
L 55.00402 57.963196 
L 54.738488 58.233166 
L 53.638191 59.343828 
L 53.390346 59.598995 
L 52.272362 60.747325 
L 52.06502 60.964824 
L 50.906533 62.180961 
L 50.766769 62.330653 
L 49.540704 63.646321 
L 49.494754 63.696482 
L 48.247066 65.062312 
L 48.174874 65.141391 
L 47.014631 66.428141 
L 46.809045 66.655295 
L 45.784951 67.79397 
L 45.443216 68.170759 
L 44.546055 69.159799 
L 44.077387 69.669342 
L 43.284628 70.525628 
L 42.711558 71.132654 
L 41.986228 71.891457 
L 41.345729 72.545171 
L 40.635702 73.257286 
L 39.979899 73.896321 
L 39.218027 74.623116 
L 38.61407 75.181387 
L 37.719834 75.988945 
L 37.248241 76.401223 
L 36.131764 77.354774 
L 35.882412 77.561127 
L 34.516583 78.669681 
L 34.453114 78.720603 
L 33.150754 79.738596 
L 32.700345 80.086432 
L 31.784925 80.778678 
L 30.890308 81.452261 
L 30.419095 81.801975 
L 29.056646 82.81809 
L 29.053266 82.820595 
L 27.687437 83.853064 
L 27.258107 84.18392 
L 26.321608 84.910657 
L 25.521032 85.549749 
L 24.955779 86.009047 
L 23.879776 86.915578 
L 23.58995 87.167113 
L 22.359288 88.281407 
L 22.224121 88.409168 
L 20.9738 89.647236 
L 20.858291 89.768415 
L 19.72806 91.013065 
L 19.492462 91.292542 
L 18.61999 92.378894 
L 18.126633 93.053223 
L 17.643721 93.744724 
L 16.793322 95.110553 
L 16.760804 95.170158 
L 16.078237 96.476382 
L 15.476154 97.842211 
L 15.394975 98.067995 
L 14.999793 99.20804 
L 14.638485 100.573869 
L 14.391449 101.939698 
L 14.261072 103.305528 
L 14.250653 104.671357 
L 14.364535 106.037186 
L 14.608252 107.403015 
L 14.988701 108.768844 
L 15.394975 109.82914 
L 15.519326 110.134673 
L 16.229427 111.500503 
L 16.760804 112.32879 
L 17.134312 112.866332 
L 18.126633 114.064598 
L 18.279401 114.232161 
L 19.492462 115.383072 
L 19.746361 115.59799 
L 20.858291 116.432846 
L 21.667 116.963819 
L 22.224121 117.295355 
L 23.58995 117.997902 
L 24.353866 118.329648 
L 24.955779 118.57209 
L 26.321608 119.027567 
L 27.687437 119.388123 
L 29.053266 119.6587 
L 29.323498 119.695477 
z
" clip-path="url(#pdc99b9cd03)" style="fill: #481c6e"/>
    <path d="M 242.122613 100.638985 
L 243.488442 100.964233 
L 244.854271 101.221255 
L 246.220101 101.416068 
L 247.58593 101.553258 
L 248.951759 101.63622 
L 250.317588 101.667333 
L 251.683417 101.648088 
L 253.049246 101.579178 
L 254.415075 101.460549 
L 255.780905 101.291439 
L 257.146734 101.070384 
L 258.512563 100.795212 
L 259.430578 100.573869 
L 259.878392 100.470982 
L 261.244221 100.106186 
L 262.61005 99.680619 
L 263.925371 99.20804 
L 263.975879 99.190315 
L 265.341709 98.660679 
L 266.707538 98.056506 
L 267.14863 97.842211 
L 268.073367 97.393132 
L 269.439196 96.652985 
L 269.740442 96.476382 
L 270.805025 95.841083 
L 271.914033 95.110553 
L 272.170854 94.935952 
L 273.536683 93.936884 
L 273.782588 93.744724 
L 274.902513 92.825798 
L 275.412713 92.378894 
L 275.87109 91.981642 
L 274.902513 91.013065 
L 273.536683 89.647236 
L 272.170854 88.281407 
L 270.805025 86.915578 
L 269.439196 85.549749 
L 268.413407 84.52396 
L 268.073367 84.862673 
L 267.370193 85.549749 
L 266.707538 86.141355 
L 265.761079 86.915578 
L 265.341709 87.23379 
L 263.975879 88.172631 
L 263.800584 88.281407 
L 262.61005 88.979392 
L 261.303174 89.647236 
L 261.244221 89.676101 
L 259.878392 90.269907 
L 258.512563 90.772216 
L 257.731261 91.013065 
L 257.146734 91.189556 
L 255.780905 91.526744 
L 254.415075 91.786443 
L 253.049246 91.971236 
L 251.683417 92.082747 
L 250.317588 92.121653 
L 248.951759 92.087677 
L 247.58593 91.979551 
L 246.220101 91.794954 
L 244.854271 91.530413 
L 243.488442 91.181169 
L 242.960138 91.013065 
L 242.122613 90.744368 
L 240.756784 90.213082 
L 239.539438 89.647236 
L 239.390955 89.576741 
L 238.025126 88.829976 
L 237.155701 88.281407 
L 236.659296 87.957987 
L 235.293467 86.949959 
L 235.251341 86.915578 
L 233.927638 85.791181 
L 233.66951 85.549749 
L 232.561809 84.46765 
L 232.293849 84.18392 
L 231.19598 82.968805 
L 231.06847 82.81809 
L 229.95651 81.452261 
L 229.830151 81.291253 
L 228.927201 80.086432 
L 228.464322 79.448543 
L 227.953019 78.720603 
L 227.098492 77.478138 
L 227.015286 77.354774 
L 226.097891 75.988945 
L 225.732663 75.445721 
L 225.180281 74.623116 
L 224.366834 73.431526 
L 224.246564 73.257286 
L 223.276071 71.891457 
L 223.001005 71.518648 
L 222.246835 70.525628 
L 221.635176 69.760544 
L 221.135031 69.159799 
L 220.269347 68.180857 
L 219.90908 67.79397 
L 218.903518 66.782858 
L 218.528121 66.428141 
L 217.537688 65.553677 
L 216.939718 65.062312 
L 216.171859 64.472224 
L 215.077993 63.696482 
L 214.80603 63.515503 
L 213.440201 62.671682 
L 212.841478 62.330653 
L 212.074372 61.917605 
L 210.708543 61.239224 
L 210.1134 60.964824 
L 209.342714 60.62563 
L 207.976884 60.066079 
L 206.752005 59.598995 
L 206.611055 59.547114 
L 205.245226 59.070422 
L 203.879397 58.620804 
L 202.642489 58.233166 
L 202.513568 58.193601 
L 201.147739 57.789797 
L 199.78191 57.399338 
L 198.41608 57.018421 
L 197.863436 56.867337 
L 197.050251 56.645948 
L 195.684422 56.27824 
L 194.318593 55.910709 
L 192.952764 55.540383 
L 192.80947 55.501508 
L 191.586935 55.165723 
L 190.221106 54.782906 
L 188.855276 54.38874 
L 188.002147 54.135678 
L 187.489447 53.97944 
L 186.123618 53.551339 
L 184.757789 53.10166 
L 183.79599 52.769849 
L 183.39196 52.624426 
L 182.026131 52.112369 
L 180.660302 51.564078 
L 180.280009 51.40402 
L 179.294472 50.963891 
L 177.928643 50.309215 
L 177.396556 50.038191 
L 176.562814 49.580307 
L 175.196985 48.769678 
L 175.041992 48.672362 
L 173.831156 47.837811 
L 173.117164 47.306533 
L 172.465327 46.765407 
L 171.538023 45.940704 
L 171.099497 45.497594 
L 170.240292 44.574874 
L 169.733668 43.943619 
L 169.174401 43.209045 
L 168.367839 41.948958 
L 168.303088 41.843216 
L 167.596971 40.477387 
L 167.035297 39.111558 
L 167.00201 39.009562 
L 166.599431 37.745729 
L 166.278116 36.379899 
L 166.061374 35.01407 
L 165.941744 33.648241 
L 165.913949 32.282412 
L 165.974577 30.916583 
L 166.121842 29.550754 
L 166.35543 28.184925 
L 166.6764 26.819095 
L 167.00201 25.732734 
L 167.086981 25.453266 
L 167.590345 24.087437 
L 168.192148 22.721608 
L 168.367839 22.374642 
L 168.899849 21.355779 
L 169.721068 19.98995 
L 169.733668 19.971041 
L 170.669949 18.624121 
L 171.099497 18.069475 
L 171.759401 17.258291 
L 172.465327 16.46761 
L 173.00838 15.892462 
L 173.831156 15.087554 
L 174.441543 14.526633 
L 175.196985 13.877329 
L 176.090216 13.160804 
L 176.562814 12.802118 
L 177.928643 11.839016 
L 177.995186 11.794975 
L 179.294472 10.970732 
L 180.223555 10.429146 
L 180.660302 10.182681 
L 182.026131 9.465345 
L 182.858021 9.063317 
L 183.39196 8.810656 
L 184.757789 8.211437 
L 186.044644 7.697487 
L 186.123618 7.666271 
L 187.489447 7.162983 
L 188.855276 6.707013 
L 190.097853 6.331658 
L 190.191974 6.302527 
L 188.855276 4.965829 
L 187.489447 3.6 
L 186.123618 3.6 
L 184.757789 3.6 
L 183.39196 3.6 
L 182.026131 3.6 
L 180.660302 3.6 
L 179.294472 3.6 
L 177.928643 3.6 
L 176.562814 3.6 
L 175.196985 3.6 
L 173.831156 3.6 
L 172.465327 3.6 
L 171.099497 3.6 
L 170.132433 3.6 
L 169.733668 3.874008 
L 168.367839 4.891384 
L 168.274213 4.965829 
L 167.00201 6.009796 
L 166.637926 6.331658 
L 165.636181 7.25471 
L 165.186769 7.697487 
L 164.270352 8.648388 
L 163.893398 9.063317 
L 162.904523 10.22217 
L 162.736644 10.429146 
L 161.697869 11.794975 
L 161.538693 12.019796 
L 160.761059 13.160804 
L 160.172864 14.107948 
L 159.920232 14.526633 
L 159.16091 15.892462 
L 158.807035 16.594547 
L 158.477438 17.258291 
L 157.8624 18.624121 
L 157.441206 19.67353 
L 157.314235 19.98995 
L 156.817687 21.355779 
L 156.382523 22.721608 
L 156.075377 23.824311 
L 156.00063 24.087437 
L 155.659688 25.453266 
L 155.36994 26.819095 
L 155.128613 28.184925 
L 154.933632 29.550754 
L 154.783608 30.916583 
L 154.709548 31.873869 
L 154.676145 32.282412 
L 154.611376 33.648241 
L 154.594155 35.01407 
L 154.6263 36.379899 
L 154.709548 37.727165 
L 154.710662 37.745729 
L 154.84435 39.111558 
L 155.037138 40.477387 
L 155.296473 41.843216 
L 155.632308 43.209045 
L 156.057925 44.574874 
L 156.075377 44.622455 
L 156.568281 45.940704 
L 157.203511 47.306533 
L 157.441206 47.740386 
L 157.974802 48.672362 
L 158.807035 49.875846 
L 158.926285 50.038191 
L 160.095717 51.40402 
L 160.172864 51.482667 
L 161.538693 52.755796 
L 161.55516 52.769849 
L 162.904523 53.797442 
L 163.402113 54.135678 
L 164.270352 54.672539 
L 165.636181 55.418178 
L 165.801247 55.501508 
L 167.00201 56.066443 
L 168.367839 56.632883 
L 168.985673 56.867337 
L 169.733668 57.137444 
L 171.099497 57.590904 
L 172.465327 57.998975 
L 173.310227 58.233166 
L 173.831156 58.37365 
L 175.196985 58.723388 
L 176.562814 59.047295 
L 177.928643 59.350207 
L 179.109873 59.598995 
L 179.294472 59.637634 
L 180.660302 59.9203 
L 182.026131 60.192232 
L 183.39196 60.456374 
L 184.757789 60.715413 
L 186.085063 60.964824 
L 186.123618 60.972164 
L 187.489447 61.239469 
L 188.855276 61.508568 
L 190.221106 61.781829 
L 191.586935 62.06164 
L 192.857408 62.330653 
L 192.952764 62.351451 
L 194.318593 62.666539 
L 195.684422 62.99601 
L 197.050251 63.342885 
L 198.363676 63.696482 
L 198.41608 63.711222 
L 199.78191 64.124221 
L 201.147739 64.565879 
L 202.513568 65.040695 
L 202.57111 65.062312 
L 203.879397 65.582534 
L 205.245226 66.169993 
L 205.799145 66.428141 
L 206.611055 66.832251 
L 207.976884 67.569509 
L 208.360905 67.79397 
L 209.342714 68.411061 
L 210.443216 69.159799 
L 210.708543 69.354801 
L 212.074372 70.435225 
L 212.180965 70.525628 
L 213.440201 71.679632 
L 213.65716 71.891457 
L 214.80603 73.101634 
L 214.94594 73.257286 
L 216.089122 74.623116 
L 216.171859 74.72911 
L 217.116309 75.988945 
L 217.537688 76.585006 
L 218.065744 77.354774 
L 218.903518 78.63175 
L 218.960696 78.720603 
L 219.804017 80.086432 
L 220.269347 80.856469 
L 220.628301 81.452261 
L 221.44289 82.81809 
L 221.635176 83.143442 
L 222.258688 84.18392 
L 223.001005 85.39488 
L 223.098426 85.549749 
L 223.966923 86.915578 
L 224.366834 87.523403 
L 224.887859 88.281407 
L 225.732663 89.455927 
L 225.878274 89.647236 
L 226.957327 91.013065 
L 227.098492 91.185303 
L 228.153741 92.378894 
L 228.464322 92.715783 
L 229.501848 93.744724 
L 229.830151 94.05935 
L 231.047326 95.110553 
L 231.19598 95.235842 
L 232.561809 96.273061 
L 232.863675 96.476382 
L 233.927638 97.187659 
L 235.059775 97.842211 
L 235.293467 97.978093 
L 236.659296 98.682488 
L 237.861846 99.20804 
L 238.025126 99.281217 
L 239.390955 99.817555 
L 240.756784 100.26469 
L 241.894675 100.573869 
z
" clip-path="url(#pdc99b9cd03)" style="fill: #481c6e"/>
   </g>
   <g id="PathCollection_3">
    <path d="M 243.488442 91.181169 
L 244.854271 91.530413 
L 246.220101 91.794954 
L 247.58593 91.979551 
L 248.951759 92.087677 
L 250.317588 92.121653 
L 251.683417 92.082747 
L 253.049246 91.971236 
L 254.415075 91.786443 
L 255.780905 91.526744 
L 257.146734 91.189556 
L 257.731261 91.013065 
L 258.512563 90.772216 
L 259.878392 90.269907 
L 261.244221 89.676101 
L 261.303174 89.647236 
L 262.61005 88.979392 
L 263.800584 88.281407 
L 263.975879 88.172631 
L 265.341709 87.23379 
L 265.761079 86.915578 
L 266.707538 86.141355 
L 267.370193 85.549749 
L 268.073367 84.862673 
L 268.413407 84.52396 
L 268.073367 84.18392 
L 266.707538 82.81809 
L 265.341709 81.452261 
L 263.975879 80.086432 
L 262.61005 78.720603 
L 261.768687 77.879239 
L 261.244221 78.507932 
L 261.052757 78.720603 
L 259.878392 79.846877 
L 259.592273 80.086432 
L 258.512563 80.886495 
L 257.610379 81.452261 
L 257.146734 81.715131 
L 255.780905 82.356585 
L 254.526117 82.81809 
L 254.415075 82.855893 
L 253.049246 83.204405 
L 251.683417 83.431716 
L 250.317588 83.540797 
L 248.951759 83.533374 
L 247.58593 83.409974 
L 246.220101 83.169952 
L 244.879327 82.81809 
L 244.854271 82.8112 
L 243.488442 82.311336 
L 242.122613 81.683587 
L 241.703545 81.452261 
L 240.756784 80.899957 
L 239.563019 80.086432 
L 239.390955 79.961959 
L 238.025126 78.840591 
L 237.89393 78.720603 
L 236.659296 77.524014 
L 236.4994 77.354774 
L 235.293467 76.006738 
L 235.278615 75.988945 
L 234.192575 74.623116 
L 233.927638 74.274737 
L 233.18866 73.257286 
L 232.561809 72.367435 
L 232.236235 71.891457 
L 231.317416 70.525628 
L 231.19598 70.342565 
L 230.416799 69.159799 
L 229.830151 68.282796 
L 229.500323 67.79397 
L 228.550811 66.428141 
L 228.464322 66.307 
L 227.546745 65.062312 
L 227.098492 64.48879 
L 226.449093 63.696482 
L 225.732663 62.879867 
L 225.219555 62.330653 
L 224.366834 61.48197 
L 223.805035 60.964824 
L 223.001005 60.276928 
L 222.131392 59.598995 
L 221.635176 59.238326 
L 220.269347 58.338796 
L 220.095519 58.233166 
L 218.903518 57.550755 
L 217.558588 56.867337 
L 217.537688 56.857247 
L 216.171859 56.235276 
L 214.80603 55.675871 
L 214.352142 55.501508 
L 213.440201 55.162412 
L 212.074372 54.687689 
L 210.708543 54.244664 
L 210.360436 54.135678 
L 209.342714 53.821481 
L 207.976884 53.415832 
L 206.611055 53.023839 
L 205.710413 52.769849 
L 205.245226 52.638117 
L 203.879397 52.252499 
L 202.513568 51.868471 
L 201.147739 51.482526 
L 200.874023 51.40402 
L 199.78191 51.08299 
L 198.41608 50.673349 
L 197.050251 50.252724 
L 196.373808 50.038191 
L 195.684422 49.810233 
L 194.318593 49.34277 
L 192.952764 48.854886 
L 192.461098 48.672362 
L 191.586935 48.328069 
L 190.221106 47.764449 
L 189.167439 47.306533 
L 188.855276 47.160279 
L 187.489447 46.490543 
L 186.432425 45.940704 
L 186.123618 45.764479 
L 184.757789 44.944877 
L 184.175071 44.574874 
L 183.39196 44.018566 
L 182.317354 43.209045 
L 182.026131 42.958644 
L 180.797524 41.843216 
L 180.660302 41.69758 
L 179.566183 40.477387 
L 179.294472 40.112441 
L 178.581603 39.111558 
L 177.928643 37.963253 
L 177.80966 37.745729 
L 177.232665 36.379899 
L 176.826216 35.01407 
L 176.57915 33.648241 
L 176.562814 33.415818 
L 176.484722 32.282412 
L 176.534557 30.916583 
L 176.562814 30.713811 
L 176.728242 29.550754 
L 177.065479 28.184925 
L 177.547526 26.819095 
L 177.928643 25.987988 
L 178.183055 25.453266 
L 178.983816 24.087437 
L 179.294472 23.640847 
L 179.96554 22.721608 
L 180.660302 21.900558 
L 181.147559 21.355779 
L 182.026131 20.48761 
L 182.562409 19.98995 
L 183.39196 19.295845 
L 184.253476 18.624121 
L 184.757789 18.26349 
L 186.123618 17.35796 
L 186.285264 17.258291 
L 187.489447 16.565858 
L 188.77533 15.892462 
L 188.855276 15.852896 
L 190.221106 15.227484 
L 191.586935 14.664872 
L 191.956987 14.526633 
L 192.952764 14.169513 
L 194.318593 13.732891 
L 195.684422 13.350225 
L 196.46325 13.160804 
L 196.936474 13.047026 
L 195.684422 11.794975 
L 194.318593 10.429146 
L 192.952764 9.063317 
L 191.586935 7.697487 
L 190.221106 6.331658 
L 190.191974 6.302527 
L 190.097853 6.331658 
L 188.855276 6.707013 
L 187.489447 7.162983 
L 186.123618 7.666271 
L 186.044644 7.697487 
L 184.757789 8.211437 
L 183.39196 8.810656 
L 182.858021 9.063317 
L 182.026131 9.465345 
L 180.660302 10.182681 
L 180.223555 10.429146 
L 179.294472 10.970732 
L 177.995186 11.794975 
L 177.928643 11.839016 
L 176.562814 12.802118 
L 176.090216 13.160804 
L 175.196985 13.877329 
L 174.441543 14.526633 
L 173.831156 15.087554 
L 173.00838 15.892462 
L 172.465327 16.46761 
L 171.759401 17.258291 
L 171.099497 18.069475 
L 170.669949 18.624121 
L 169.733668 19.971041 
L 169.721068 19.98995 
L 168.899849 21.355779 
L 168.367839 22.374642 
L 168.192148 22.721608 
L 167.590345 24.087437 
L 167.086981 25.453266 
L 167.00201 25.732734 
L 166.6764 26.819095 
L 166.35543 28.184925 
L 166.121842 29.550754 
L 165.974577 30.916583 
L 165.913949 32.282412 
L 165.941744 33.648241 
L 166.061374 35.01407 
L 166.278116 36.379899 
L 166.599431 37.745729 
L 167.00201 39.009562 
L 167.035297 39.111558 
L 167.596971 40.477387 
L 168.303088 41.843216 
L 168.367839 41.948958 
L 169.174401 43.209045 
L 169.733668 43.943619 
L 170.240292 44.574874 
L 171.099497 45.497594 
L 171.538023 45.940704 
L 172.465327 46.765407 
L 173.117164 47.306533 
L 173.831156 47.837811 
L 175.041992 48.672362 
L 175.196985 48.769678 
L 176.562814 49.580307 
L 177.396556 50.038191 
L 177.928643 50.309215 
L 179.294472 50.963891 
L 180.280009 51.40402 
L 180.660302 51.564078 
L 182.026131 52.112369 
L 183.39196 52.624426 
L 183.79599 52.769849 
L 184.757789 53.10166 
L 186.123618 53.551339 
L 187.489447 53.97944 
L 188.002147 54.135678 
L 188.855276 54.38874 
L 190.221106 54.782906 
L 191.586935 55.165723 
L 192.80947 55.501508 
L 192.952764 55.540383 
L 194.318593 55.910709 
L 195.684422 56.27824 
L 197.050251 56.645948 
L 197.863436 56.867337 
L 198.41608 57.018421 
L 199.78191 57.399338 
L 201.147739 57.789797 
L 202.513568 58.193601 
L 202.642489 58.233166 
L 203.879397 58.620804 
L 205.245226 59.070422 
L 206.611055 59.547114 
L 206.752005 59.598995 
L 207.976884 60.066079 
L 209.342714 60.62563 
L 210.1134 60.964824 
L 210.708543 61.239224 
L 212.074372 61.917605 
L 212.841478 62.330653 
L 213.440201 62.671682 
L 214.80603 63.515503 
L 215.077993 63.696482 
L 216.171859 64.472224 
L 216.939718 65.062312 
L 217.537688 65.553677 
L 218.528121 66.428141 
L 218.903518 66.782858 
L 219.90908 67.79397 
L 220.269347 68.180857 
L 221.135031 69.159799 
L 221.635176 69.760544 
L 222.246835 70.525628 
L 223.001005 71.518648 
L 223.276071 71.891457 
L 224.246564 73.257286 
L 224.366834 73.431526 
L 225.180281 74.623116 
L 225.732663 75.445721 
L 226.097891 75.988945 
L 227.015286 77.354774 
L 227.098492 77.478138 
L 227.953019 78.720603 
L 228.464322 79.448543 
L 228.927201 80.086432 
L 229.830151 81.291253 
L 229.95651 81.452261 
L 231.06847 82.81809 
L 231.19598 82.968805 
L 232.293849 84.18392 
L 232.561809 84.46765 
L 233.66951 85.549749 
L 233.927638 85.791181 
L 235.251341 86.915578 
L 235.293467 86.949959 
L 236.659296 87.957987 
L 237.155701 88.281407 
L 238.025126 88.829976 
L 239.390955 89.576741 
L 239.539438 89.647236 
L 240.756784 90.213082 
L 242.122613 90.744368 
L 242.960138 91.013065 
z
" clip-path="url(#pdc99b9cd03)" style="fill: #472d7b"/>
   </g>
   <g id="PathCollection_4">
    <path d="M 246.220101 83.169952 
L 247.58593 83.409974 
L 248.951759 83.533374 
L 250.317588 83.540797 
L 251.683417 83.431716 
L 253.049246 83.204405 
L 254.415075 82.855893 
L 254.526117 82.81809 
L 255.780905 82.356585 
L 257.146734 81.715131 
L 257.610379 81.452261 
L 258.512563 80.886495 
L 259.592273 80.086432 
L 259.878392 79.846877 
L 261.052757 78.720603 
L 261.244221 78.507932 
L 261.768687 77.879239 
L 261.244221 77.354774 
L 259.878392 75.988945 
L 258.512563 74.623116 
L 257.146734 73.257286 
L 255.780905 71.891457 
L 254.415075 70.525628 
L 253.049246 69.159799 
L 251.683417 67.79397 
L 250.840698 66.951251 
L 250.668724 67.79397 
L 250.317588 68.434293 
L 249.596933 69.159799 
L 248.951759 69.523678 
L 247.58593 69.721593 
L 246.220101 69.440881 
L 245.656303 69.159799 
L 244.854271 68.665824 
L 243.875838 67.79397 
L 243.488442 67.362935 
L 242.824514 66.428141 
L 242.122613 65.200924 
L 242.054779 65.062312 
L 241.618022 63.696482 
L 241.405762 62.330653 
L 241.568172 60.964824 
L 242.122613 60.076713 
L 243.15373 59.598995 
L 243.410712 59.521265 
L 242.122613 58.233166 
L 240.756784 56.867337 
L 239.390955 55.501508 
L 238.025126 54.135678 
L 236.659296 52.769849 
L 235.293467 51.40402 
L 233.927638 50.038191 
L 232.561809 48.672362 
L 231.19598 47.306533 
L 229.830151 45.940704 
L 228.464322 44.574874 
L 228.376907 44.48746 
L 228.336324 44.574874 
L 227.544271 45.940704 
L 227.098492 46.331419 
L 225.732663 47.046633 
L 224.796045 47.306533 
L 224.366834 47.391194 
L 223.001005 47.54461 
L 221.635176 47.602663 
L 220.269347 47.596525 
L 218.903518 47.543897 
L 217.537688 47.455274 
L 216.171859 47.337019 
L 215.896917 47.306533 
L 214.80603 47.183833 
L 213.440201 47.003674 
L 212.074372 46.800392 
L 210.708543 46.57448 
L 209.342714 46.325882 
L 207.976884 46.054146 
L 207.461123 45.940704 
L 206.611055 45.743406 
L 205.245226 45.397085 
L 203.879397 45.023411 
L 202.513568 44.620807 
L 202.37001 44.574874 
L 201.147739 44.15068 
L 199.78191 43.641408 
L 198.701995 43.209045 
L 198.41608 43.081997 
L 197.050251 42.429885 
L 195.903009 41.843216 
L 195.684422 41.715868 
L 194.318593 40.86543 
L 193.734351 40.477387 
L 192.952764 39.867189 
L 192.043391 39.111558 
L 191.586935 38.648494 
L 190.747149 37.745729 
L 190.221106 37.017523 
L 189.784103 36.379899 
L 189.114289 35.01407 
L 188.855276 34.148686 
L 188.711965 33.648241 
L 188.565126 32.282412 
L 188.65931 30.916583 
L 188.855276 30.113159 
L 189.000361 29.550754 
L 189.605607 28.184925 
L 190.221106 27.209671 
L 190.486389 26.819095 
L 191.586935 25.567367 
L 191.696436 25.453266 
L 192.952764 24.379542 
L 193.331946 24.087437 
L 194.318593 23.437841 
L 195.548887 22.721608 
L 195.684422 22.652071 
L 197.050251 22.034877 
L 198.41608 21.51101 
L 198.902134 21.355779 
L 199.78191 21.100854 
L 201.147739 20.785732 
L 202.513568 20.552585 
L 203.879397 20.401201 
L 204.268829 20.379382 
L 203.879397 19.98995 
L 202.513568 18.624121 
L 201.147739 17.258291 
L 199.78191 15.892462 
L 198.41608 14.526633 
L 197.050251 13.160804 
L 196.936474 13.047026 
L 196.46325 13.160804 
L 195.684422 13.350225 
L 194.318593 13.732891 
L 192.952764 14.169513 
L 191.956987 14.526633 
L 191.586935 14.664872 
L 190.221106 15.227484 
L 188.855276 15.852896 
L 188.77533 15.892462 
L 187.489447 16.565858 
L 186.285264 17.258291 
L 186.123618 17.35796 
L 184.757789 18.26349 
L 184.253476 18.624121 
L 183.39196 19.295845 
L 182.562409 19.98995 
L 182.026131 20.48761 
L 181.147559 21.355779 
L 180.660302 21.900558 
L 179.96554 22.721608 
L 179.294472 23.640847 
L 178.983816 24.087437 
L 178.183055 25.453266 
L 177.928643 25.987988 
L 177.547526 26.819095 
L 177.065479 28.184925 
L 176.728242 29.550754 
L 176.562814 30.713811 
L 176.534557 30.916583 
L 176.484722 32.282412 
L 176.562814 33.415818 
L 176.57915 33.648241 
L 176.826216 35.01407 
L 177.232665 36.379899 
L 177.80966 37.745729 
L 177.928643 37.963253 
L 178.581603 39.111558 
L 179.294472 40.112441 
L 179.566183 40.477387 
L 180.660302 41.69758 
L 180.797524 41.843216 
L 182.026131 42.958644 
L 182.317354 43.209045 
L 183.39196 44.018566 
L 184.175071 44.574874 
L 184.757789 44.944877 
L 186.123618 45.764479 
L 186.432425 45.940704 
L 187.489447 46.490543 
L 188.855276 47.160279 
L 189.167439 47.306533 
L 190.221106 47.764449 
L 191.586935 48.328069 
L 192.461098 48.672362 
L 192.952764 48.854886 
L 194.318593 49.34277 
L 195.684422 49.810233 
L 196.373808 50.038191 
L 197.050251 50.252724 
L 198.41608 50.673349 
L 199.78191 51.08299 
L 200.874023 51.40402 
L 201.147739 51.482526 
L 202.513568 51.868471 
L 203.879397 52.252499 
L 205.245226 52.638117 
L 205.710413 52.769849 
L 206.611055 53.023839 
L 207.976884 53.415832 
L 209.342714 53.821481 
L 210.360436 54.135678 
L 210.708543 54.244664 
L 212.074372 54.687689 
L 213.440201 55.162412 
L 214.352142 55.501508 
L 214.80603 55.675871 
L 216.171859 56.235276 
L 217.537688 56.857247 
L 217.558588 56.867337 
L 218.903518 57.550755 
L 220.095519 58.233166 
L 220.269347 58.338796 
L 221.635176 59.238326 
L 222.131392 59.598995 
L 223.001005 60.276928 
L 223.805035 60.964824 
L 224.366834 61.48197 
L 225.219555 62.330653 
L 225.732663 62.879867 
L 226.449093 63.696482 
L 227.098492 64.48879 
L 227.546745 65.062312 
L 228.464322 66.307 
L 228.550811 66.428141 
L 229.500323 67.79397 
L 229.830151 68.282796 
L 230.416799 69.159799 
L 231.19598 70.342565 
L 231.317416 70.525628 
L 232.236235 71.891457 
L 232.561809 72.367435 
L 233.18866 73.257286 
L 233.927638 74.274737 
L 234.192575 74.623116 
L 235.278615 75.988945 
L 235.293467 76.006738 
L 236.4994 77.354774 
L 236.659296 77.524014 
L 237.89393 78.720603 
L 238.025126 78.840591 
L 239.390955 79.961959 
L 239.563019 80.086432 
L 240.756784 80.899957 
L 241.703545 81.452261 
L 242.122613 81.683587 
L 243.488442 82.311336 
L 244.854271 82.8112 
L 244.879327 82.81809 
z
" clip-path="url(#pdc99b9cd03)" style="fill: #443b84"/>
   </g>
   <g id="PathCollection_5">
    <path d="M 246.220101 69.440881 
L 247.58593 69.721593 
L 248.951759 69.523678 
L 249.596933 69.159799 
L 250.317588 68.434293 
L 250.668724 67.79397 
L 250.840698 66.951251 
L 250.317588 66.428141 
L 248.951759 65.062312 
L 247.58593 63.696482 
L 246.220101 62.330653 
L 244.854271 60.964824 
L 243.488442 59.598995 
L 243.410712 59.521265 
L 243.15373 59.598995 
L 242.122613 60.076713 
L 241.568172 60.964824 
L 241.405762 62.330653 
L 241.618022 63.696482 
L 242.054779 65.062312 
L 242.122613 65.200924 
L 242.824514 66.428141 
L 243.488442 67.362935 
L 243.875838 67.79397 
L 244.854271 68.665824 
L 245.656303 69.159799 
z
" clip-path="url(#pdc99b9cd03)" style="fill: #3e4a89"/>
    <path d="M 216.171859 47.337019 
L 217.537688 47.455274 
L 218.903518 47.543897 
L 220.269347 47.596525 
L 221.635176 47.602663 
L 223.001005 47.54461 
L 224.366834 47.391194 
L 224.796045 47.306533 
L 225.732663 47.046633 
L 227.098492 46.331419 
L 227.544271 45.940704 
L 228.336324 44.574874 
L 228.376907 44.48746 
L 227.098492 43.209045 
L 225.732663 41.843216 
L 224.366834 40.477387 
L 223.001005 39.111558 
L 221.635176 37.745729 
L 220.269347 36.379899 
L 218.903518 35.01407 
L 217.537688 33.648241 
L 216.171859 32.282412 
L 214.80603 30.916583 
L 213.440201 29.550754 
L 212.074372 28.184925 
L 210.708543 26.819095 
L 209.342714 25.453266 
L 207.976884 24.087437 
L 206.611055 22.721608 
L 205.245226 21.355779 
L 204.268829 20.379382 
L 203.879397 20.401201 
L 202.513568 20.552585 
L 201.147739 20.785732 
L 199.78191 21.100854 
L 198.902134 21.355779 
L 198.41608 21.51101 
L 197.050251 22.034877 
L 195.684422 22.652071 
L 195.548887 22.721608 
L 194.318593 23.437841 
L 193.331946 24.087437 
L 192.952764 24.379542 
L 191.696436 25.453266 
L 191.586935 25.567367 
L 190.486389 26.819095 
L 190.221106 27.209671 
L 189.605607 28.184925 
L 189.000361 29.550754 
L 188.855276 30.113159 
L 188.65931 30.916583 
L 188.565126 32.282412 
L 188.711965 33.648241 
L 188.855276 34.148686 
L 189.114289 35.01407 
L 189.784103 36.379899 
L 190.221106 37.017523 
L 190.747149 37.745729 
L 191.586935 38.648494 
L 192.043391 39.111558 
L 192.952764 39.867189 
L 193.734351 40.477387 
L 194.318593 40.86543 
L 195.684422 41.715868 
L 195.903009 41.843216 
L 197.050251 42.429885 
L 198.41608 43.081997 
L 198.701995 43.209045 
L 199.78191 43.641408 
L 201.147739 44.15068 
L 202.37001 44.574874 
L 202.513568 44.620807 
L 203.879397 45.023411 
L 205.245226 45.397085 
L 206.611055 45.743406 
L 207.461123 45.940704 
L 207.976884 46.054146 
L 209.342714 46.325882 
L 210.708543 46.57448 
L 212.074372 46.800392 
L 213.440201 47.003674 
L 214.80603 47.183833 
L 215.896917 47.306533 
z
" clip-path="url(#pdc99b9cd03)" style="fill: #3e4a89"/>
   </g>
   <g id="PathCollection_6"/>
   <g id="PathCollection_7"/>
   <g id="PathCollection_8"/>
   <g id="PathCollection_9"/>
   <g id="PathCollection_10"/>
   <g id="PathCollection_11"/>
   <g id="PathCollection_12"/>
   <g id="PathCollection_13"/>
   <g id="PathCollection_14"/>
   <g id="PathCollection_15"/>
   <g id="PathCollection_16"/>
   <g id="PathCollection_17"/>
   <g id="PathCollection_18"/>
   <g id="PathCollection_19"/>
   <g id="PathCollection_20"/>
   <g id="patch_2">
    <path d="M 59.592555 131.126168 
L 60.873832 132.407445 
L 54.467445 138.813832 
L 53.186168 137.532555 
z
" clip-path="url(#pdc99b9cd03)" style="fill: #ff0000; stroke: #ff0000; stroke-linejoin: miter"/>
   </g>
   <g id="PathCollection_21">
    <defs>
     <path id="m136deb4916" d="M 0 0.866025 
C 0.229673 0.866025 0.449969 0.774776 0.612372 0.612372 
C 0.774776 0.449969 0.866025 0.229673 0.866025 0 
C 0.866025 -0.229673 0.774776 -0.449969 0.612372 -0.612372 
C 0.449969 -0.774776 0.229673 -0.866025 0 -0.866025 
C -0.229673 -0.866025 -0.449969 -0.774776 -0.612372 -0.612372 
C -0.774776 -0.449969 -0.866025 -0.229673 -0.866025 0 
C -0.866025 0.229673 -0.774776 0.449969 -0.612372 0.612372 
C -0.449969 0.774776 -0.229673 0.866025 0 0.866025 
z
" style="stroke: #000000"/>
    </defs>
    <g clip-path="url(#pdc99b9cd03)">
     <use xlink:href="#m136deb4916" x="29.85" y="252.75" style="stroke: #000000"/>
     <use xlink:href="#m136deb4916" x="66.09" y="252.75" style="stroke: #000000"/>
     <use xlink:href="#m136deb4916" x="102.33" y="252.75" style="stroke: #000000"/>
     <use xlink:href="#m136deb4916" x="138.57" y="252.75" style="stroke: #000000"/>
     <use xlink:href="#m136deb4916" x="174.81" y="252.75" style="stroke: #000000"/>
     <use xlink:href="#m136deb4916" x="211.05" y="252.75" style="stroke: #000000"/>
     <use xlink:href="#m136deb4916" x="247.29" y="252.75" style="stroke: #000000"/>
     <use xlink:href="#m136deb4916" x="29.85" y="216.51" style="stroke: #000000"/>
     <use xlink:href="#m136deb4916" x="66.09" y="216.51" style="stroke: #000000"/>
     <use xlink:href="#m136deb4916" x="102.33" y="216.51" style="stroke: #000000"/>
     <use xlink:href="#m136deb4916" x="138.57" y="216.51" style="stroke: #000000"/>
     <use xlink:href="#m136deb4916" x="174.81" y="216.51" style="stroke: #000000"/>
     <use xlink:href="#m136deb4916" x="211.05" y="216.51" style="stroke: #000000"/>
     <use xlink:href="#m136deb4916" x="247.29" y="216.51" style="stroke: #000000"/>
     <use xlink:href="#m136deb4916" x="29.85" y="180.27" style="stroke: #000000"/>
     <use xlink:href="#m136deb4916" x="66.09" y="180.27" style="stroke: #000000"/>
     <use xlink:href="#m136deb4916" x="102.33" y="180.27" style="stroke: #000000"/>
     <use xlink:href="#m136deb4916" x="138.57" y="180.27" style="stroke: #000000"/>
     <use xlink:href="#m136deb4916" x="174.81" y="180.27" style="stroke: #000000"/>
     <use xlink:href="#m136deb4916" x="211.05" y="180.27" style="stroke: #000000"/>
     <use xlink:href="#m136deb4916" x="247.29" y="180.27" style="stroke: #000000"/>
     <use xlink:href="#m136deb4916" x="29.85" y="144.03" style="stroke: #000000"/>
     <use xlink:href="#m136deb4916" x="66.09" y="144.03" style="stroke: #000000"/>
     <use xlink:href="#m136deb4916" x="102.33" y="144.03" style="stroke: #000000"/>
     <use xlink:href="#m136deb4916" x="138.57" y="144.03" style="stroke: #000000"/>
     <use xlink:href="#m136deb4916" x="174.81" y="144.03" style="stroke: #000000"/>
     <use xlink:href="#m136deb4916" x="211.05" y="144.03" style="stroke: #000000"/>
     <use xlink:href="#m136deb4916" x="247.29" y="144.03" style="stroke: #000000"/>
     <use xlink:href="#m136deb4916" x="29.85" y="107.79" style="stroke: #000000"/>
     <use xlink:href="#m136deb4916" x="66.09" y="107.79" style="stroke: #000000"/>
     <use xlink:href="#m136deb4916" x="102.33" y="107.79" style="stroke: #000000"/>
     <use xlink:href="#m136deb4916" x="138.57" y="107.79" style="stroke: #000000"/>
     <use xlink:href="#m136deb4916" x="174.81" y="107.79" style="stroke: #000000"/>
     <use xlink:href="#m136deb4916" x="211.05" y="107.79" style="stroke: #000000"/>
     <use xlink:href="#m136deb4916" x="247.29" y="107.79" style="stroke: #000000"/>
     <use xlink:href="#m136deb4916" x="66.09" y="71.55" style="stroke: #000000"/>
     <use xlink:href="#m136deb4916" x="102.33" y="71.55" style="stroke: #000000"/>
     <use xlink:href="#m136deb4916" x="138.57" y="71.55" style="stroke: #000000"/>
     <use xlink:href="#m136deb4916" x="174.81" y="71.55" style="stroke: #000000"/>
     <use xlink:href="#m136deb4916" x="211.05" y="71.55" style="stroke: #000000"/>
     <use xlink:href="#m136deb4916" x="247.29" y="71.55" style="stroke: #000000"/>
     <use xlink:href="#m136deb4916" x="102.33" y="35.31" style="stroke: #000000"/>
     <use xlink:href="#m136deb4916" x="138.57" y="35.31" style="stroke: #000000"/>
     <use xlink:href="#m136deb4916" x="174.81" y="35.31" style="stroke: #000000"/>
     <use xlink:href="#m136deb4916" x="211.05" y="35.31" style="stroke: #000000"/>
    </g>
   </g>
   <g id="line2d_1">
    <path d="M 7.2 275.4 
L 279 275.4 
L 279 94.2 
L 188.4 3.6 
L 97.8 3.6 
L 7.2 94.2 
L 7.2 275.4 
" clip-path="url(#pdc99b9cd03)" style="fill: none; stroke: #000000; stroke-width: 2; stroke-linecap: square"/>
   </g>
  </g>
 </g>
 <defs>
  <clipPath id="pdc99b9cd03">
   <rect x="3.6" y="3.6" width="279" height="271.8"/>
  </clipPath>
 </defs>
</svg>
