<?xml version="1.0" encoding="utf-8" standalone="no"?>
<!DOCTYPE svg PUBLIC "-//W3C//DTD SVG 1.1//EN"
  "http://www.w3.org/Graphics/SVG/1.1/DTD/svg11.dtd">
<svg xmlns:xlink="http://www.w3.org/1999/xlink" width="174.6pt" height="224.64pt" viewBox="0 0 174.6 224.64" xmlns="http://www.w3.org/2000/svg" version="1.1">
 <metadata>
  <rdf:RDF xmlns:dc="http://purl.org/dc/elements/1.1/" xmlns:cc="http://creativecommons.org/ns#" xmlns:rdf="http://www.w3.org/1999/02/22-rdf-syntax-ns#">
   <cc:Work>
    <dc:type rdf:resource="http://purl.org/dc/dcmitype/StillImage"/>
    <dc:date>2024-08-19T03:10:50.430150</dc:date>
    <dc:format>image/svg+xml</dc:format>
    <dc:creator>
     <cc:Agent>
      <dc:title>Matplotlib v3.7.2, https://matplotlib.org/</dc:title>
     </cc:Agent>
    </dc:creator>
   </cc:Work>
  </rdf:RDF>
 </metadata>
 <defs>
  <style type="text/css">*{stroke-linejoin: round; stroke-linecap: butt}</style>
 </defs>
 <g id="figure_1">
  <g id="patch_1">
   <path d="M 0 224.64 
L 174.6 224.64 
L 174.6 0 
L 0 0 
L 0 224.64 
z
" style="fill: none"/>
  </g>
  <g id="axes_1">
   <g id="PathCollection_1">
    <path d="M 4.441206 214.367146 
L 5.282412 214.367146 
L 6.123618 214.367146 
L 6.964824 214.367146 
L 7.80603 214.367146 
L 8.647236 214.367146 
L 9.488442 214.367146 
L 10.329648 214.367146 
L 11.170854 214.367146 
L 12.01206 214.367146 
L 12.853266 214.367146 
L 13.694472 214.367146 
L 14.535678 214.367146 
L 15.376884 214.367146 
L 16.21809 214.367146 
L 17.059296 214.367146 
L 17.900503 214.367146 
L 18.741709 214.367146 
L 19.582915 214.367146 
L 20.424121 214.367146 
L 21.265327 214.367146 
L 22.106533 214.367146 
L 22.947739 214.367146 
L 23.788945 214.367146 
L 24.630151 214.367146 
L 25.471357 214.367146 
L 26.312563 214.367146 
L 27.153769 214.367146 
L 27.994975 214.367146 
L 28.836181 214.367146 
L 29.677387 214.367146 
L 30.518593 214.367146 
L 31.359799 214.367146 
L 32.201005 214.367146 
L 33.042211 214.367146 
L 33.883417 214.367146 
L 34.724623 214.367146 
L 35.565829 214.367146 
L 36.407035 214.367146 
L 37.248241 214.367146 
L 38.089447 214.367146 
L 38.930653 214.367146 
L 39.771859 214.367146 
L 40.613065 214.367146 
L 41.454271 214.367146 
L 42.295477 214.367146 
L 43.136683 214.367146 
L 43.977889 214.367146 
L 44.819095 214.367146 
L 45.660302 214.367146 
L 46.501508 214.367146 
L 47.342714 214.367146 
L 48.18392 214.367146 
L 49.025126 214.367146 
L 49.866332 214.367146 
L 50.707538 214.367146 
L 51.548744 214.367146 
L 52.38995 214.367146 
L 53.231156 214.367146 
L 54.072362 214.367146 
L 54.913568 214.367146 
L 55.754774 214.367146 
L 56.59598 214.367146 
L 57.437186 214.367146 
L 58.278392 214.367146 
L 59.119598 214.367146 
L 59.960804 214.367146 
L 60.80201 214.367146 
L 61.643216 214.367146 
L 62.484422 214.367146 
L 63.325628 214.367146 
L 64.166834 214.367146 
L 65.00804 214.367146 
L 65.849246 214.367146 
L 66.690452 214.367146 
L 67.531658 214.367146 
L 68.372864 214.367146 
L 69.21407 214.367146 
L 70.055276 214.367146 
L 70.896482 214.367146 
L 71.737688 214.367146 
L 72.578894 214.367146 
L 73.420101 214.367146 
L 74.261307 214.367146 
L 75.102513 214.367146 
L 75.943719 214.367146 
L 76.784925 214.367146 
L 77.626131 214.367146 
L 78.467337 214.367146 
L 79.308543 214.367146 
L 80.149749 214.367146 
L 80.990955 214.367146 
L 81.832161 214.367146 
L 82.673367 214.367146 
L 83.514573 214.367146 
L 84.355779 214.367146 
L 85.196985 214.367146 
L 86.038191 214.367146 
L 86.879397 214.367146 
L 87.720603 214.367146 
L 88.561809 214.367146 
L 89.403015 214.367146 
L 90.244221 214.367146 
L 91.085427 214.367146 
L 91.926633 214.367146 
L 92.767839 214.367146 
L 93.609045 214.367146 
L 94.450251 214.367146 
L 95.291457 214.367146 
L 96.132663 214.367146 
L 96.973869 214.367146 
L 97.815075 214.367146 
L 98.656281 214.367146 
L 99.497487 214.367146 
L 100.338693 214.367146 
L 101.179899 214.367146 
L 102.021106 214.367146 
L 102.862312 214.367146 
L 103.703518 214.367146 
L 104.544724 214.367146 
L 105.38593 214.367146 
L 106.227136 214.367146 
L 107.068342 214.367146 
L 107.909548 214.367146 
L 108.750754 214.367146 
L 109.59196 214.367146 
L 110.433166 214.367146 
L 111.274372 214.367146 
L 112.115578 214.367146 
L 112.956784 214.367146 
L 113.79799 214.367146 
L 114.639196 214.367146 
L 115.480402 214.367146 
L 116.321608 214.367146 
L 117.162814 214.367146 
L 118.00402 214.367146 
L 118.845226 214.367146 
L 119.686432 214.367146 
L 120.527638 214.367146 
L 121.368844 214.367146 
L 122.21005 214.367146 
L 123.051256 214.367146 
L 123.892462 214.367146 
L 124.733668 214.367146 
L 125.574874 214.367146 
L 126.41608 214.367146 
L 127.257286 214.367146 
L 128.098492 214.367146 
L 128.939698 214.367146 
L 129.780905 214.367146 
L 130.622111 214.367146 
L 131.463317 214.367146 
L 132.304523 214.367146 
L 133.145729 214.367146 
L 133.986935 214.367146 
L 134.828141 214.367146 
L 135.669347 214.367146 
L 136.510553 214.367146 
L 137.351759 214.367146 
L 138.192965 214.367146 
L 139.034171 214.367146 
L 139.875377 214.367146 
L 140.716583 214.367146 
L 141.557789 214.367146 
L 142.398995 214.367146 
L 143.240201 214.367146 
L 144.081407 214.367146 
L 144.922613 214.367146 
L 145.763819 214.367146 
L 146.605025 214.367146 
L 147.446231 214.367146 
L 148.287437 214.367146 
L 149.128643 214.367146 
L 149.969849 214.367146 
L 150.811055 214.367146 
L 151.652261 214.367146 
L 152.493467 214.367146 
L 153.334673 214.367146 
L 154.175879 214.367146 
L 155.017085 214.367146 
L 155.858291 214.367146 
L 156.699497 214.367146 
L 157.540704 214.367146 
L 158.38191 214.367146 
L 159.223116 214.367146 
L 160.064322 214.367146 
L 160.905528 214.367146 
L 161.746734 214.367146 
L 162.58794 214.367146 
L 163.429146 214.367146 
L 164.270352 214.367146 
L 165.111558 214.367146 
L 165.952764 214.367146 
L 166.79397 214.367146 
L 167.635176 214.367146 
L 168.476382 214.367146 
L 169.317588 214.367146 
L 170.158794 214.367146 
L 171 214.367146 
L 171 213.331135 
L 171 212.295123 
L 171 211.259111 
L 171 210.2231 
L 171 209.187088 
L 171 208.151076 
L 171 207.115065 
L 171 206.079053 
L 171 205.043042 
L 171 204.00703 
L 171 202.971018 
L 171 201.935007 
L 171 200.898995 
L 171 199.862983 
L 171 198.826972 
L 171 197.79096 
L 171 196.754948 
L 171 195.718937 
L 171 194.682925 
L 171 193.646914 
L 171 192.610902 
L 171 191.57489 
L 171 190.538879 
L 171 189.502867 
L 171 188.466855 
L 171 187.430844 
L 171 186.394832 
L 171 185.35882 
L 171 184.322809 
L 171 183.286797 
L 171 182.250786 
L 171 181.214774 
L 171 180.178762 
L 171 179.142751 
L 171 178.106739 
L 171 177.070727 
L 171 176.034716 
L 171 174.998704 
L 171 173.962692 
L 171 172.926681 
L 171 171.890669 
L 171 170.854657 
L 171 169.818646 
L 171 168.782634 
L 171 167.746623 
L 171 166.710611 
L 171 165.674599 
L 171 164.638588 
L 171 163.602576 
L 171 162.566564 
L 171 161.530553 
L 171 160.494541 
L 171 159.458529 
L 171 158.422518 
L 171 157.386506 
L 171 156.350495 
L 171 155.314483 
L 171 154.278471 
L 171 153.24246 
L 171 152.206448 
L 171 151.170436 
L 171 150.134425 
L 171 149.098413 
L 171 148.062401 
L 171 147.02639 
L 171 145.990378 
L 171 144.954367 
L 171 143.918355 
L 171 142.882343 
L 171 141.846332 
L 171 140.81032 
L 171 139.774308 
L 171 138.738297 
L 171 137.702285 
L 171 136.666273 
L 171 135.630262 
L 171 134.59425 
L 171 133.558239 
L 171 132.522227 
L 171 131.486215 
L 171 130.450204 
L 171 129.414192 
L 171 128.37818 
L 171 127.342169 
L 171 126.306157 
L 171 125.270145 
L 171 124.234134 
L 171 123.198122 
L 171 122.162111 
L 171 121.126099 
L 171 120.090087 
L 171 119.054076 
L 171 118.018064 
L 171 116.982052 
L 171 115.946041 
L 171 114.910029 
L 171 113.874017 
L 171 112.838006 
L 171 111.801994 
L 171 110.765983 
L 171 109.729971 
L 171 108.693959 
L 171 107.657948 
L 171 106.621936 
L 171 105.585924 
L 171 104.549913 
L 171 103.513901 
L 171 102.477889 
L 171 101.441878 
L 171 100.405866 
L 171 99.369855 
L 171 98.333843 
L 171 97.297831 
L 171 96.26182 
L 171 95.225808 
L 171 94.189796 
L 171 93.153785 
L 171 92.117773 
L 171 91.081761 
L 171 90.04575 
L 171 89.009738 
L 171 87.973727 
L 171 86.937715 
L 171 85.901703 
L 171 84.865692 
L 171 83.82968 
L 171 82.793668 
L 171 81.757657 
L 171 80.721645 
L 171 79.685633 
L 171 78.649622 
L 171 77.61361 
L 171 76.577599 
L 171 75.541587 
L 171 74.505575 
L 171 73.469564 
L 171 72.433552 
L 171 71.39754 
L 171 70.361529 
L 171 69.325517 
L 171 68.289505 
L 170.158794 67.253494 
L 169.317588 67.253494 
L 168.476382 66.217482 
L 167.635176 65.181471 
L 166.79397 64.145459 
L 165.952764 63.109447 
L 165.111558 63.109447 
L 164.270352 62.073436 
L 163.429146 61.037424 
L 162.58794 60.001412 
L 161.746734 58.965401 
L 160.905528 57.929389 
L 160.064322 57.929389 
L 159.223116 56.893377 
L 158.38191 55.857366 
L 157.540704 54.821354 
L 156.699497 53.785343 
L 155.858291 53.785343 
L 155.017085 52.749331 
L 154.175879 51.713319 
L 153.334673 50.677308 
L 152.493467 49.641296 
L 151.652261 49.641296 
L 150.811055 48.605284 
L 149.969849 47.569273 
L 149.128643 46.533261 
L 148.287437 45.497249 
L 147.446231 44.461238 
L 146.605025 44.461238 
L 145.763819 43.425226 
L 144.922613 42.389214 
L 144.081407 41.353203 
L 143.240201 40.317191 
L 142.398995 40.317191 
L 141.557789 39.28118 
L 140.716583 38.245168 
L 139.875377 37.209156 
L 139.034171 36.173145 
L 138.192965 36.173145 
L 137.351759 35.137133 
L 136.510553 34.101121 
L 135.669347 33.06511 
L 134.828141 32.029098 
L 133.986935 30.993086 
L 133.145729 30.993086 
L 132.304523 29.957075 
L 131.463317 28.921063 
L 130.622111 27.885052 
L 129.780905 26.84904 
L 128.939698 26.84904 
L 128.098492 25.813028 
L 127.257286 24.777017 
L 126.41608 23.741005 
L 125.574874 22.704993 
L 124.733668 22.704993 
L 123.892462 21.668982 
L 123.051256 20.63297 
L 122.21005 19.596958 
L 121.368844 18.560947 
L 120.527638 17.524935 
L 119.686432 17.524935 
L 118.845226 16.488924 
L 118.00402 15.452912 
L 117.162814 14.4169 
L 116.321608 13.380889 
L 115.480402 13.380889 
L 114.639196 12.344877 
L 113.79799 11.308865 
L 112.956784 10.272854 
L 112.115578 9.236842 
L 111.274372 9.236842 
L 110.433166 9.236842 
L 109.59196 9.236842 
L 108.750754 9.236842 
L 107.909548 9.236842 
L 107.068342 9.236842 
L 106.227136 9.236842 
L 105.38593 9.236842 
L 104.544724 9.236842 
L 103.703518 9.236842 
L 102.862312 9.236842 
L 102.021106 9.236842 
L 101.179899 9.236842 
L 100.338693 9.236842 
L 99.497487 9.236842 
L 98.656281 9.236842 
L 97.815075 9.236842 
L 96.973869 9.236842 
L 96.132663 9.236842 
L 95.291457 9.236842 
L 94.450251 9.236842 
L 93.609045 9.236842 
L 92.767839 9.236842 
L 91.926633 9.236842 
L 91.085427 9.236842 
L 90.244221 9.236842 
L 89.403015 9.236842 
L 88.561809 9.236842 
L 87.720603 9.236842 
L 86.879397 9.236842 
L 86.038191 9.236842 
L 85.196985 9.236842 
L 84.355779 9.236842 
L 83.514573 9.236842 
L 82.673367 9.236842 
L 81.832161 9.236842 
L 80.990955 9.236842 
L 80.149749 9.236842 
L 79.308543 9.236842 
L 78.467337 9.236842 
L 77.626131 9.236842 
L 76.784925 9.236842 
L 75.943719 9.236842 
L 75.102513 9.236842 
L 74.261307 9.236842 
L 73.420101 9.236842 
L 72.578894 9.236842 
L 71.737688 9.236842 
L 70.896482 9.236842 
L 70.055276 9.236842 
L 69.21407 9.236842 
L 68.372864 9.236842 
L 67.531658 9.236842 
L 66.690452 9.236842 
L 65.849246 9.236842 
L 65.00804 9.236842 
L 64.166834 9.236842 
L 63.325628 9.236842 
L 62.484422 9.236842 
L 61.643216 9.236842 
L 60.80201 9.236842 
L 59.960804 9.236842 
L 59.119598 9.236842 
L 58.278392 9.236842 
L 57.437186 9.236842 
L 56.59598 9.236842 
L 55.754774 9.236842 
L 54.913568 9.236842 
L 54.072362 9.236842 
L 53.231156 9.236842 
L 52.38995 9.236842 
L 51.548744 9.236842 
L 50.707538 9.236842 
L 49.866332 9.236842 
L 49.025126 9.236842 
L 48.18392 9.236842 
L 47.342714 9.236842 
L 46.501508 9.236842 
L 45.660302 9.236842 
L 44.819095 9.236842 
L 43.977889 9.236842 
L 43.136683 9.236842 
L 42.295477 9.236842 
L 41.454271 9.236842 
L 40.613065 9.236842 
L 39.771859 9.236842 
L 38.930653 9.236842 
L 38.089447 9.236842 
L 37.248241 9.236842 
L 36.407035 9.236842 
L 35.565829 9.236842 
L 34.724623 9.236842 
L 33.883417 9.236842 
L 33.042211 9.236842 
L 32.201005 9.236842 
L 31.359799 9.236842 
L 30.518593 9.236842 
L 29.677387 9.236842 
L 28.836181 9.236842 
L 27.994975 9.236842 
L 27.153769 9.236842 
L 26.312563 9.236842 
L 25.471357 9.236842 
L 24.630151 9.236842 
L 23.788945 9.236842 
L 22.947739 9.236842 
L 22.106533 9.236842 
L 21.265327 9.236842 
L 20.424121 9.236842 
L 19.582915 9.236842 
L 18.741709 9.236842 
L 17.900503 9.236842 
L 17.059296 9.236842 
L 16.21809 9.236842 
L 15.376884 9.236842 
L 14.535678 9.236842 
L 13.694472 9.236842 
L 12.853266 9.236842 
L 12.01206 9.236842 
L 11.170854 9.236842 
L 10.329648 9.236842 
L 9.488442 9.236842 
L 8.647236 9.236842 
L 7.80603 9.236842 
L 6.964824 9.236842 
L 6.123618 9.236842 
L 5.282412 9.236842 
L 4.441206 9.236842 
L 3.6 9.236842 
L 3.6 10.272854 
L 3.6 11.308865 
L 3.6 12.344877 
L 3.6 13.380889 
L 3.6 14.4169 
L 3.6 15.452912 
L 3.6 16.488924 
L 3.6 17.524935 
L 3.6 18.560947 
L 3.6 19.596958 
L 3.6 20.63297 
L 3.6 21.668982 
L 3.6 22.704993 
L 3.6 23.741005 
L 3.6 24.777017 
L 3.6 25.813028 
L 3.6 26.84904 
L 3.6 27.885052 
L 3.6 28.921063 
L 3.6 29.957075 
L 3.6 30.993086 
L 3.6 32.029098 
L 3.6 33.06511 
L 3.6 34.101121 
L 3.6 35.137133 
L 3.6 36.173145 
L 3.6 37.209156 
L 3.6 38.245168 
L 3.6 39.28118 
L 3.6 40.317191 
L 3.6 41.353203 
L 3.6 42.389214 
L 3.6 43.425226 
L 3.6 44.461238 
L 3.6 45.497249 
L 3.6 46.533261 
L 3.6 47.569273 
L 3.6 48.605284 
L 3.6 49.641296 
L 3.6 50.677308 
L 3.6 51.713319 
L 3.6 52.749331 
L 3.6 53.785343 
L 3.6 54.821354 
L 3.6 55.857366 
L 3.6 56.893377 
L 3.6 57.929389 
L 3.6 58.965401 
L 3.6 60.001412 
L 3.6 61.037424 
L 3.6 62.073436 
L 3.6 63.109447 
L 3.6 64.145459 
L 3.6 65.181471 
L 3.6 66.217482 
L 3.6 67.253494 
L 3.6 68.289505 
L 3.6 69.325517 
L 3.6 70.361529 
L 3.6 71.39754 
L 3.6 72.433552 
L 3.6 73.469564 
L 3.6 74.505575 
L 3.6 75.541587 
L 3.6 76.577599 
L 3.6 77.61361 
L 3.6 78.649622 
L 3.6 79.685633 
L 3.6 80.721645 
L 3.6 81.757657 
L 3.6 82.793668 
L 3.6 83.82968 
L 3.6 84.865692 
L 3.6 85.901703 
L 3.6 86.937715 
L 3.6 87.973727 
L 3.6 89.009738 
L 3.6 90.04575 
L 3.6 91.081761 
L 3.6 92.117773 
L 3.6 93.153785 
L 3.6 94.189796 
L 3.6 95.225808 
L 3.6 96.26182 
L 3.6 97.297831 
L 3.6 98.333843 
L 3.6 99.369855 
L 3.6 100.405866 
L 3.6 101.441878 
L 3.6 102.477889 
L 3.6 103.513901 
L 3.6 104.549913 
L 3.6 105.585924 
L 3.6 106.621936 
L 3.6 107.657948 
L 3.6 108.693959 
L 3.6 109.729971 
L 3.6 110.765983 
L 3.6 111.801994 
L 3.6 112.838006 
L 3.6 113.874017 
L 3.6 114.910029 
L 3.6 115.946041 
L 3.6 116.982052 
L 3.6 118.018064 
L 3.6 119.054076 
L 3.6 120.090087 
L 3.6 121.126099 
L 3.6 122.162111 
L 3.6 123.198122 
L 3.6 124.234134 
L 3.6 125.270145 
L 3.6 126.306157 
L 3.6 127.342169 
L 3.6 128.37818 
L 3.6 129.414192 
L 3.6 130.450204 
L 3.6 131.486215 
L 3.6 132.522227 
L 3.6 133.558239 
L 3.6 134.59425 
L 3.6 135.630262 
L 3.6 136.666273 
L 3.6 137.702285 
L 3.6 138.738297 
L 3.6 139.774308 
L 3.6 140.81032 
L 3.6 141.846332 
L 3.6 142.882343 
L 3.6 143.918355 
L 3.6 144.954367 
L 3.6 145.990378 
L 3.6 147.02639 
L 3.6 148.062401 
L 3.6 149.098413 
L 3.6 150.134425 
L 3.6 151.170436 
L 3.6 152.206448 
L 3.6 153.24246 
L 3.6 154.278471 
L 3.6 155.314483 
L 3.6 156.350495 
L 3.6 157.386506 
L 3.6 158.422518 
L 3.6 159.458529 
L 3.6 160.494541 
L 3.6 161.530553 
L 3.6 162.566564 
L 3.6 163.602576 
L 3.6 164.638588 
L 3.6 165.674599 
L 3.6 166.710611 
L 3.6 167.746623 
L 3.6 168.782634 
L 3.6 169.818646 
L 3.6 170.854657 
L 3.6 171.890669 
L 3.6 172.926681 
L 3.6 173.962692 
L 3.6 174.998704 
L 3.6 176.034716 
L 3.6 177.070727 
L 3.6 178.106739 
L 3.6 179.142751 
L 3.6 180.178762 
L 3.6 181.214774 
L 3.6 182.250786 
L 3.6 183.286797 
L 3.6 184.322809 
L 3.6 185.35882 
L 3.6 186.394832 
L 3.6 187.430844 
L 3.6 188.466855 
L 3.6 189.502867 
L 3.6 190.538879 
L 3.6 191.57489 
L 3.6 192.610902 
L 3.6 193.646914 
L 3.6 194.682925 
L 3.6 195.718937 
L 3.6 196.754948 
L 3.6 197.79096 
L 3.6 198.826972 
L 3.6 199.862983 
L 3.6 200.898995 
L 3.6 201.935007 
L 3.6 202.971018 
L 3.6 204.00703 
L 3.6 205.043042 
L 3.6 206.079053 
L 3.6 207.115065 
L 3.6 208.151076 
L 3.6 209.187088 
L 3.6 210.2231 
L 3.6 211.259111 
L 3.6 212.295123 
L 3.6 213.331135 
L 3.6 214.367146 
z
M 75.227414 212.295123 
L 75.102513 212.287567 
L 74.261307 212.228369 
L 73.420101 212.160631 
L 72.578894 212.084275 
L 71.737688 211.999217 
L 70.896482 211.905365 
L 70.055276 211.802619 
L 69.21407 211.690872 
L 68.372864 211.570009 
L 67.531658 211.439906 
L 66.690452 211.300431 
L 66.455767 211.259111 
L 65.849246 211.153133 
L 65.00804 210.996933 
L 64.166834 210.831012 
L 63.325628 210.655194 
L 62.484422 210.469296 
L 61.643216 210.273121 
L 61.437955 210.2231 
L 60.80201 210.068531 
L 59.960804 209.85397 
L 59.119598 209.628531 
L 58.278392 209.391962 
L 57.581892 209.187088 
L 57.437186 209.144466 
L 56.59598 208.887593 
L 55.754774 208.618764 
L 54.913568 208.33766 
L 54.37648 208.151076 
L 54.072362 208.04485 
L 53.231156 207.740665 
L 52.38995 207.423104 
L 51.607068 207.115065 
L 51.548744 207.091907 
L 50.707538 206.748376 
L 49.866332 206.390103 
L 49.163856 206.079053 
L 49.025126 206.016835 
L 48.18392 205.628889 
L 47.342714 205.22452 
L 46.976782 205.043042 
L 46.501508 204.803386 
L 45.660302 204.364643 
L 44.999736 204.00703 
L 44.819095 203.907262 
L 43.977889 203.429959 
L 43.200796 202.971018 
L 43.136683 202.932256 
L 42.295477 202.411382 
L 41.555897 201.935007 
L 41.454271 201.867751 
L 40.613065 201.2973 
L 40.046177 200.898995 
L 39.771859 200.700215 
L 38.930653 200.07296 
L 38.656841 199.862983 
L 38.089447 199.412454 
L 37.376033 198.826972 
L 37.248241 198.718005 
L 36.407035 197.982629 
L 36.193564 197.79096 
L 35.565829 197.202777 
L 35.101209 196.754948 
L 34.724623 196.374686 
L 34.092071 195.718937 
L 33.883417 195.491394 
L 33.159897 194.682925 
L 33.042211 194.543978 
L 32.29926 193.646914 
L 32.201005 193.520965 
L 31.505464 192.610902 
L 31.359799 192.407519 
L 30.774469 191.57489 
L 30.518593 191.184287 
L 30.102826 190.538879 
L 29.677387 189.825744 
L 29.487618 189.502867 
L 28.925655 188.466855 
L 28.836181 188.287638 
L 28.413452 187.430844 
L 27.994975 186.49455 
L 27.95085 186.394832 
L 27.532863 185.35882 
L 27.1609 184.322809 
L 27.153769 184.300643 
L 26.829454 183.286797 
L 26.540056 182.250786 
L 26.312563 181.305775 
L 26.290715 181.214774 
L 26.077828 180.178762 
L 25.902367 179.142751 
L 25.762952 178.106739 
L 25.658329 177.070727 
L 25.587361 176.034716 
L 25.549023 174.998704 
L 25.5424 173.962692 
L 25.566675 172.926681 
L 25.621133 171.890669 
L 25.705152 170.854657 
L 25.8182 169.818646 
L 25.959834 168.782634 
L 26.129697 167.746623 
L 26.312563 166.788932 
L 26.3273 166.710611 
L 26.549597 165.674599 
L 26.799053 164.638588 
L 27.075625 163.602576 
L 27.153769 163.33535 
L 27.376017 162.566564 
L 27.702027 161.530553 
L 27.994975 160.669914 
L 28.054092 160.494541 
L 28.42857 159.458529 
L 28.830072 158.422518 
L 28.836181 158.407647 
L 29.252743 157.386506 
L 29.677387 156.408368 
L 29.702364 156.350495 
L 30.173318 155.314483 
L 30.518593 154.595394 
L 30.670175 154.278471 
L 31.190445 153.24246 
L 31.359799 152.92037 
L 31.734516 152.206448 
L 32.201005 151.358394 
L 32.304347 151.170436 
L 32.897901 150.134425 
L 33.042211 149.8923 
L 33.516249 149.098413 
L 33.883417 148.507605 
L 34.161001 148.062401 
L 34.724623 147.192171 
L 34.832505 147.02639 
L 35.53088 145.990378 
L 35.565829 145.940124 
L 36.256409 144.954367 
L 36.407035 144.746193 
L 37.011391 143.918355 
L 37.248241 143.603704 
L 37.79702 142.882343 
L 38.089447 142.508929 
L 38.614774 141.846332 
L 38.930653 141.458661 
L 39.466443 140.81032 
L 39.771859 140.450145 
L 40.354174 139.774308 
L 40.613065 139.481019 
L 41.280516 138.738297 
L 41.454271 138.549273 
L 42.248477 137.702285 
L 42.295477 137.653207 
L 43.136683 136.790911 
L 43.260911 136.666273 
L 43.977889 135.960878 
L 44.322423 135.630262 
L 44.819095 135.162168 
L 45.438288 134.59425 
L 45.660302 134.393949 
L 46.501508 133.654816 
L 46.614132 133.558239 
L 47.342714 132.942669 
L 47.857007 132.522227 
L 48.18392 132.258492 
L 49.025126 131.600908 
L 49.175977 131.486215 
L 49.866332 130.96735 
L 50.581959 130.450204 
L 50.707538 130.36035 
L 51.548744 129.775392 
L 52.089412 129.414192 
L 52.38995 129.215029 
L 53.231156 128.676535 
L 53.716311 128.37818 
L 54.072362 128.160567 
L 54.913568 127.665412 
L 55.487272 127.342169 
L 55.754774 127.192081 
L 56.59598 126.737394 
L 57.435752 126.306157 
L 57.437186 126.305423 
L 58.278392 125.888591 
L 59.119598 125.493237 
L 59.616965 125.270145 
L 59.960804 125.115871 
L 60.80201 124.754891 
L 61.643216 124.413492 
L 62.107769 124.234134 
L 62.484422 124.088291 
L 63.325628 123.778345 
L 64.166834 123.48637 
L 65.00804 123.211755 
L 65.051959 123.198122 
L 65.849246 122.949132 
L 66.690452 122.702869 
L 67.531658 122.472719 
L 68.372864 122.258201 
L 68.776034 122.162111 
L 69.21407 122.056728 
L 70.055276 121.868366 
L 70.896482 121.694718 
L 71.737688 121.535417 
L 72.578894 121.390125 
L 73.420101 121.258535 
L 74.261307 121.140363 
L 74.374887 121.126099 
L 75.102513 121.033389 
L 75.943719 120.93933 
L 76.784925 120.858284 
L 77.626131 120.79006 
L 78.467337 120.734493 
L 79.308543 120.69144 
L 80.149749 120.660781 
L 80.990955 120.642416 
L 81.832161 120.636269 
L 82.673367 120.642281 
L 83.514573 120.660415 
L 84.355779 120.690655 
L 85.196985 120.733002 
L 86.038191 120.78748 
L 86.879397 120.854128 
L 87.720603 120.933008 
L 88.561809 121.024199 
L 89.389264 121.126099 
L 89.403015 121.127763 
L 90.244221 121.241476 
L 91.085427 121.367588 
L 91.926633 121.506246 
L 92.767839 121.657622 
L 93.609045 121.821901 
L 94.450251 121.99929 
L 95.169146 122.162111 
L 95.291457 122.189474 
L 96.132663 122.389807 
L 96.973869 122.6037 
L 97.815075 122.831429 
L 98.656281 123.073288 
L 99.06813 123.198122 
L 99.497487 123.327204 
L 100.338693 123.593343 
L 101.179899 123.874304 
L 102.021106 124.170448 
L 102.194659 124.234134 
L 102.862312 124.477966 
L 103.703518 124.80006 
L 104.544724 125.138207 
L 104.860409 125.270145 
L 105.38593 125.489353 
L 106.227136 125.855041 
L 107.068342 126.237767 
L 107.213905 126.306157 
L 107.909548 126.633221 
L 108.750754 127.045332 
L 109.334028 127.342169 
L 109.59196 127.473815 
L 110.433166 127.91671 
L 111.274064 128.37818 
L 111.274372 128.37835 
L 112.115578 128.853519 
L 112.956784 129.348069 
L 113.066611 129.414192 
L 113.79799 129.857747 
L 114.639196 130.386737 
L 114.737964 130.450204 
L 115.480402 130.931684 
L 116.306372 131.486215 
L 116.321608 131.496556 
L 117.162814 132.077831 
L 117.786507 132.522227 
L 118.00402 132.679172 
L 118.845226 133.2988 
L 119.189583 133.558239 
L 119.686432 133.937919 
L 120.523954 134.59425 
L 120.527638 134.597183 
L 121.368844 135.275483 
L 121.799355 135.630262 
L 122.21005 135.974575 
L 123.019073 136.666273 
L 123.051256 136.694307 
L 123.892462 137.434753 
L 124.191651 137.702285 
L 124.733668 138.196682 
L 125.318981 138.738297 
L 125.574874 138.980172 
L 126.404784 139.774308 
L 126.41608 139.785366 
L 127.257286 140.613509 
L 127.455377 140.81032 
L 128.098492 141.464544 
L 128.47101 141.846332 
L 128.939698 142.338795 
L 129.454153 142.882343 
L 129.780905 143.236737 
L 130.407066 143.918355 
L 130.622111 144.158971 
L 131.33168 144.954367 
L 131.463317 145.106237 
L 132.229621 145.990378 
L 132.304523 146.07944 
L 133.102236 147.02639 
L 133.145729 147.079669 
L 133.950607 148.062401 
L 133.986935 148.108237 
L 134.775571 149.098413 
L 134.828141 149.166717 
L 135.577729 150.134425 
L 135.669347 150.257002 
L 136.357464 151.170436 
L 136.510553 151.381366 
L 137.114942 152.206448 
L 137.351759 152.542552 
L 137.85013 153.24246 
L 138.192965 153.743876 
L 138.562798 154.278471 
L 139.034171 154.989365 
L 139.252534 155.314483 
L 139.875377 156.283922 
L 139.918746 156.350495 
L 140.563841 157.386506 
L 140.716583 157.644264 
L 141.18508 158.422518 
L 141.557789 159.07504 
L 141.780484 159.458529 
L 142.349812 160.494541 
L 142.398995 160.589458 
L 142.895563 161.530553 
L 143.240201 162.226526 
L 143.411758 162.566564 
L 143.900248 163.602576 
L 144.081407 164.016262 
L 144.359423 164.638588 
L 144.786641 165.674599 
L 144.922613 166.035077 
L 145.182841 166.710611 
L 145.544678 167.746623 
L 145.763819 168.447422 
L 145.870964 168.782634 
L 146.162225 169.818646 
L 146.413852 170.854657 
L 146.605025 171.793841 
L 146.6252 171.890669 
L 146.797109 172.926681 
L 146.925237 173.962692 
L 147.008118 174.998704 
L 147.044096 176.034716 
L 147.031305 177.070727 
L 146.967669 178.106739 
L 146.85088 179.142751 
L 146.678388 180.178762 
L 146.605025 180.511567 
L 146.449277 181.214774 
L 146.159993 182.250786 
L 145.806188 183.286797 
L 145.763819 183.392717 
L 145.388442 184.322809 
L 144.922613 185.310311 
L 144.899497 185.35882 
L 144.340122 186.394832 
L 144.081407 186.819427 
L 143.704038 187.430844 
L 143.240201 188.105156 
L 142.987872 188.466855 
L 142.398995 189.232795 
L 142.188153 189.502867 
L 141.557789 190.242529 
L 141.301019 190.538879 
L 140.716583 191.161873 
L 140.322181 191.57489 
L 139.875377 192.010166 
L 139.246894 192.610902 
L 139.034171 192.801276 
L 138.192965 193.54159 
L 138.071614 193.646914 
L 137.351759 194.235788 
L 136.793399 194.682925 
L 136.510553 194.897513 
L 135.669347 195.525864 
L 135.407005 195.718937 
L 134.828141 196.124759 
L 133.986935 196.701831 
L 133.908835 196.754948 
L 133.145729 197.251818 
L 132.304523 197.786115 
L 132.296849 197.79096 
L 131.463317 198.297191 
L 130.622111 198.795421 
L 130.568508 198.826972 
L 129.780905 199.274755 
L 128.939698 199.742245 
L 128.720346 199.862983 
L 128.098492 200.194927 
L 127.257286 200.635923 
L 126.74751 200.898995 
L 126.41608 201.065488 
L 125.574874 201.483384 
L 124.733668 201.891964 
L 124.644469 201.935007 
L 123.892462 202.289691 
L 123.051256 202.678477 
L 122.406518 202.971018 
L 122.21005 203.058446 
L 121.368844 203.429451 
L 120.527638 203.792215 
L 120.021336 204.00703 
L 119.686432 204.146906 
L 118.845226 204.493776 
L 118.00402 204.8327 
L 117.472526 205.043042 
L 117.162814 205.16413 
L 116.321608 205.488498 
L 115.480402 205.805082 
L 114.735314 206.079053 
L 114.639196 206.11409 
L 113.79799 206.417035 
L 112.956784 206.712262 
L 112.115578 206.999752 
L 111.771607 207.115065 
L 111.274372 207.280943 
L 110.433166 207.555409 
L 109.59196 207.822133 
L 108.750754 208.081096 
L 108.518486 208.151076 
L 107.909548 208.334326 
L 107.068342 208.580543 
L 106.227136 208.818956 
L 105.38593 209.04955 
L 104.868749 209.187088 
L 104.544724 209.273468 
L 103.703518 209.491347 
L 102.862312 209.70134 
L 102.021106 209.903441 
L 101.179899 210.097649 
L 100.615182 210.2231 
L 100.338693 210.284917 
L 99.497487 210.466162 
L 98.656281 210.63943 
L 97.815075 210.804726 
L 96.973869 210.962054 
L 96.132663 211.11142 
L 95.291457 211.252834 
L 95.252133 211.259111 
L 94.450251 211.388559 
L 93.609045 211.516332 
L 92.767839 211.636049 
L 91.926633 211.747717 
L 91.085427 211.851342 
L 90.244221 211.946931 
L 89.403015 212.034489 
L 88.561809 212.114018 
L 87.720603 212.185522 
L 86.879397 212.248999 
L 86.179913 212.295123 
L 86.038191 212.30463 
L 85.196985 212.352966 
L 84.355779 212.393102 
L 83.514573 212.425029 
L 82.673367 212.448729 
L 81.832161 212.464186 
L 80.990955 212.471376 
L 80.149749 212.470274 
L 79.308543 212.460847 
L 78.467337 212.443061 
L 77.626131 212.416874 
L 76.784925 212.382241 
L 75.943719 212.339111 
z
" clip-path="url(#pc9b00785a6)" style="fill: #460a5d"/>
   </g>
   <g id="PathCollection_2">
    <path d="M 75.943719 212.339111 
L 76.784925 212.382241 
L 77.626131 212.416874 
L 78.467337 212.443061 
L 79.308543 212.460847 
L 80.149749 212.470274 
L 80.990955 212.471376 
L 81.832161 212.464186 
L 82.673367 212.448729 
L 83.514573 212.425029 
L 84.355779 212.393102 
L 85.196985 212.352966 
L 86.038191 212.30463 
L 86.179913 212.295123 
L 86.879397 212.248999 
L 87.720603 212.185522 
L 88.561809 212.114018 
L 89.403015 212.034489 
L 90.244221 211.946931 
L 91.085427 211.851342 
L 91.926633 211.747717 
L 92.767839 211.636049 
L 93.609045 211.516332 
L 94.450251 211.388559 
L 95.252133 211.259111 
L 95.291457 211.252834 
L 96.132663 211.11142 
L 96.973869 210.962054 
L 97.815075 210.804726 
L 98.656281 210.63943 
L 99.497487 210.466162 
L 100.338693 210.284917 
L 100.615182 210.2231 
L 101.179899 210.097649 
L 102.021106 209.903441 
L 102.862312 209.70134 
L 103.703518 209.491347 
L 104.544724 209.273468 
L 104.868749 209.187088 
L 105.38593 209.04955 
L 106.227136 208.818956 
L 107.068342 208.580543 
L 107.909548 208.334326 
L 108.518486 208.151076 
L 108.750754 208.081096 
L 109.59196 207.822133 
L 110.433166 207.555409 
L 111.274372 207.280943 
L 111.771607 207.115065 
L 112.115578 206.999752 
L 112.956784 206.712262 
L 113.79799 206.417035 
L 114.639196 206.11409 
L 114.735314 206.079053 
L 115.480402 205.805082 
L 116.321608 205.488498 
L 117.162814 205.16413 
L 117.472526 205.043042 
L 118.00402 204.8327 
L 118.845226 204.493776 
L 119.686432 204.146906 
L 120.021336 204.00703 
L 120.527638 203.792215 
L 121.368844 203.429451 
L 122.21005 203.058446 
L 122.406518 202.971018 
L 123.051256 202.678477 
L 123.892462 202.289691 
L 124.644469 201.935007 
L 124.733668 201.891964 
L 125.574874 201.483384 
L 126.41608 201.065488 
L 126.74751 200.898995 
L 127.257286 200.635923 
L 128.098492 200.194927 
L 128.720346 199.862983 
L 128.939698 199.742245 
L 129.780905 199.274755 
L 130.568508 198.826972 
L 130.622111 198.795421 
L 131.463317 198.297191 
L 132.296849 197.79096 
L 132.304523 197.786115 
L 133.145729 197.251818 
L 133.908835 196.754948 
L 133.986935 196.701831 
L 134.828141 196.124759 
L 135.407005 195.718937 
L 135.669347 195.525864 
L 136.510553 194.897513 
L 136.793399 194.682925 
L 137.351759 194.235788 
L 138.071614 193.646914 
L 138.192965 193.54159 
L 139.034171 192.801276 
L 139.246894 192.610902 
L 139.875377 192.010166 
L 140.322181 191.57489 
L 140.716583 191.161873 
L 141.301019 190.538879 
L 141.557789 190.242529 
L 142.188153 189.502867 
L 142.398995 189.232795 
L 142.987872 188.466855 
L 143.240201 188.105156 
L 143.704038 187.430844 
L 144.081407 186.819427 
L 144.340122 186.394832 
L 144.899497 185.35882 
L 144.922613 185.310311 
L 145.388442 184.322809 
L 145.763819 183.392717 
L 145.806188 183.286797 
L 146.159993 182.250786 
L 146.449277 181.214774 
L 146.605025 180.511567 
L 146.678388 180.178762 
L 146.85088 179.142751 
L 146.967669 178.106739 
L 147.031305 177.070727 
L 147.044096 176.034716 
L 147.008118 174.998704 
L 146.925237 173.962692 
L 146.797109 172.926681 
L 146.6252 171.890669 
L 146.605025 171.793841 
L 146.413852 170.854657 
L 146.162225 169.818646 
L 145.870964 168.782634 
L 145.763819 168.447422 
L 145.544678 167.746623 
L 145.182841 166.710611 
L 144.922613 166.035077 
L 144.786641 165.674599 
L 144.359423 164.638588 
L 144.081407 164.016262 
L 143.900248 163.602576 
L 143.411758 162.566564 
L 143.240201 162.226526 
L 142.895563 161.530553 
L 142.398995 160.589458 
L 142.349812 160.494541 
L 141.780484 159.458529 
L 141.557789 159.07504 
L 141.18508 158.422518 
L 140.716583 157.644264 
L 140.563841 157.386506 
L 139.918746 156.350495 
L 139.875377 156.283922 
L 139.252534 155.314483 
L 139.034171 154.989365 
L 138.562798 154.278471 
L 138.192965 153.743876 
L 137.85013 153.24246 
L 137.351759 152.542552 
L 137.114942 152.206448 
L 136.510553 151.381366 
L 136.357464 151.170436 
L 135.669347 150.257002 
L 135.577729 150.134425 
L 134.828141 149.166717 
L 134.775571 149.098413 
L 133.986935 148.108237 
L 133.950607 148.062401 
L 133.145729 147.079669 
L 133.102236 147.02639 
L 132.304523 146.07944 
L 132.229621 145.990378 
L 131.463317 145.106237 
L 131.33168 144.954367 
L 130.622111 144.158971 
L 130.407066 143.918355 
L 129.780905 143.236737 
L 129.454153 142.882343 
L 128.939698 142.338795 
L 128.47101 141.846332 
L 128.098492 141.464544 
L 127.455377 140.81032 
L 127.257286 140.613509 
L 126.41608 139.785366 
L 126.404784 139.774308 
L 125.574874 138.980172 
L 125.318981 138.738297 
L 124.733668 138.196682 
L 124.191651 137.702285 
L 123.892462 137.434753 
L 123.051256 136.694307 
L 123.019073 136.666273 
L 122.21005 135.974575 
L 121.799355 135.630262 
L 121.368844 135.275483 
L 120.527638 134.597183 
L 120.523954 134.59425 
L 119.686432 133.937919 
L 119.189583 133.558239 
L 118.845226 133.2988 
L 118.00402 132.679172 
L 117.786507 132.522227 
L 117.162814 132.077831 
L 116.321608 131.496556 
L 116.306372 131.486215 
L 115.480402 130.931684 
L 114.737964 130.450204 
L 114.639196 130.386737 
L 113.79799 129.857747 
L 113.066611 129.414192 
L 112.956784 129.348069 
L 112.115578 128.853519 
L 111.274372 128.37835 
L 111.274064 128.37818 
L 110.433166 127.91671 
L 109.59196 127.473815 
L 109.334028 127.342169 
L 108.750754 127.045332 
L 107.909548 126.633221 
L 107.213905 126.306157 
L 107.068342 126.237767 
L 106.227136 125.855041 
L 105.38593 125.489353 
L 104.860409 125.270145 
L 104.544724 125.138207 
L 103.703518 124.80006 
L 102.862312 124.477966 
L 102.194659 124.234134 
L 102.021106 124.170448 
L 101.179899 123.874304 
L 100.338693 123.593343 
L 99.497487 123.327204 
L 99.06813 123.198122 
L 98.656281 123.073288 
L 97.815075 122.831429 
L 96.973869 122.6037 
L 96.132663 122.389807 
L 95.291457 122.189474 
L 95.169146 122.162111 
L 94.450251 121.99929 
L 93.609045 121.821901 
L 92.767839 121.657622 
L 91.926633 121.506246 
L 91.085427 121.367588 
L 90.244221 121.241476 
L 89.403015 121.127763 
L 89.389264 121.126099 
L 88.561809 121.024199 
L 87.720603 120.933008 
L 86.879397 120.854128 
L 86.038191 120.78748 
L 85.196985 120.733002 
L 84.355779 120.690655 
L 83.514573 120.660415 
L 82.673367 120.642281 
L 81.832161 120.636269 
L 80.990955 120.642416 
L 80.149749 120.660781 
L 79.308543 120.69144 
L 78.467337 120.734493 
L 77.626131 120.79006 
L 76.784925 120.858284 
L 75.943719 120.93933 
L 75.102513 121.033389 
L 74.374887 121.126099 
L 74.261307 121.140363 
L 73.420101 121.258535 
L 72.578894 121.390125 
L 71.737688 121.535417 
L 70.896482 121.694718 
L 70.055276 121.868366 
L 69.21407 122.056728 
L 68.776034 122.162111 
L 68.372864 122.258201 
L 67.531658 122.472719 
L 66.690452 122.702869 
L 65.849246 122.949132 
L 65.051959 123.198122 
L 65.00804 123.211755 
L 64.166834 123.48637 
L 63.325628 123.778345 
L 62.484422 124.088291 
L 62.107769 124.234134 
L 61.643216 124.413492 
L 60.80201 124.754891 
L 59.960804 125.115871 
L 59.616965 125.270145 
L 59.119598 125.493237 
L 58.278392 125.888591 
L 57.437186 126.305423 
L 57.435752 126.306157 
L 56.59598 126.737394 
L 55.754774 127.192081 
L 55.487272 127.342169 
L 54.913568 127.665412 
L 54.072362 128.160567 
L 53.716311 128.37818 
L 53.231156 128.676535 
L 52.38995 129.215029 
L 52.089412 129.414192 
L 51.548744 129.775392 
L 50.707538 130.36035 
L 50.581959 130.450204 
L 49.866332 130.96735 
L 49.175977 131.486215 
L 49.025126 131.600908 
L 48.18392 132.258492 
L 47.857007 132.522227 
L 47.342714 132.942669 
L 46.614132 133.558239 
L 46.501508 133.654816 
L 45.660302 134.393949 
L 45.438288 134.59425 
L 44.819095 135.162168 
L 44.322423 135.630262 
L 43.977889 135.960878 
L 43.260911 136.666273 
L 43.136683 136.790911 
L 42.295477 137.653207 
L 42.248477 137.702285 
L 41.454271 138.549273 
L 41.280516 138.738297 
L 40.613065 139.481019 
L 40.354174 139.774308 
L 39.771859 140.450145 
L 39.466443 140.81032 
L 38.930653 141.458661 
L 38.614774 141.846332 
L 38.089447 142.508929 
L 37.79702 142.882343 
L 37.248241 143.603704 
L 37.011391 143.918355 
L 36.407035 144.746193 
L 36.256409 144.954367 
L 35.565829 145.940124 
L 35.53088 145.990378 
L 34.832505 147.02639 
L 34.724623 147.192171 
L 34.161001 148.062401 
L 33.883417 148.507605 
L 33.516249 149.098413 
L 33.042211 149.8923 
L 32.897901 150.134425 
L 32.304347 151.170436 
L 32.201005 151.358394 
L 31.734516 152.206448 
L 31.359799 152.92037 
L 31.190445 153.24246 
L 30.670175 154.278471 
L 30.518593 154.595394 
L 30.173318 155.314483 
L 29.702364 156.350495 
L 29.677387 156.408368 
L 29.252743 157.386506 
L 28.836181 158.407647 
L 28.830072 158.422518 
L 28.42857 159.458529 
L 28.054092 160.494541 
L 27.994975 160.669914 
L 27.702027 161.530553 
L 27.376017 162.566564 
L 27.153769 163.33535 
L 27.075625 163.602576 
L 26.799053 164.638588 
L 26.549597 165.674599 
L 26.3273 166.710611 
L 26.312563 166.788932 
L 26.129697 167.746623 
L 25.959834 168.782634 
L 25.8182 169.818646 
L 25.705152 170.854657 
L 25.621133 171.890669 
L 25.566675 172.926681 
L 25.5424 173.962692 
L 25.549023 174.998704 
L 25.587361 176.034716 
L 25.658329 177.070727 
L 25.762952 178.106739 
L 25.902367 179.142751 
L 26.077828 180.178762 
L 26.290715 181.214774 
L 26.312563 181.305775 
L 26.540056 182.250786 
L 26.829454 183.286797 
L 27.153769 184.300643 
L 27.1609 184.322809 
L 27.532863 185.35882 
L 27.95085 186.394832 
L 27.994975 186.49455 
L 28.413452 187.430844 
L 28.836181 188.287638 
L 28.925655 188.466855 
L 29.487618 189.502867 
L 29.677387 189.825744 
L 30.102826 190.538879 
L 30.518593 191.184287 
L 30.774469 191.57489 
L 31.359799 192.407519 
L 31.505464 192.610902 
L 32.201005 193.520965 
L 32.29926 193.646914 
L 33.042211 194.543978 
L 33.159897 194.682925 
L 33.883417 195.491394 
L 34.092071 195.718937 
L 34.724623 196.374686 
L 35.101209 196.754948 
L 35.565829 197.202777 
L 36.193564 197.79096 
L 36.407035 197.982629 
L 37.248241 198.718005 
L 37.376033 198.826972 
L 38.089447 199.412454 
L 38.656841 199.862983 
L 38.930653 200.07296 
L 39.771859 200.700215 
L 40.046177 200.898995 
L 40.613065 201.2973 
L 41.454271 201.867751 
L 41.555897 201.935007 
L 42.295477 202.411382 
L 43.136683 202.932256 
L 43.200796 202.971018 
L 43.977889 203.429959 
L 44.819095 203.907262 
L 44.999736 204.00703 
L 45.660302 204.364643 
L 46.501508 204.803386 
L 46.976782 205.043042 
L 47.342714 205.22452 
L 48.18392 205.628889 
L 49.025126 206.016835 
L 49.163856 206.079053 
L 49.866332 206.390103 
L 50.707538 206.748376 
L 51.548744 207.091907 
L 51.607068 207.115065 
L 52.38995 207.423104 
L 53.231156 207.740665 
L 54.072362 208.04485 
L 54.37648 208.151076 
L 54.913568 208.33766 
L 55.754774 208.618764 
L 56.59598 208.887593 
L 57.437186 209.144466 
L 57.581892 209.187088 
L 58.278392 209.391962 
L 59.119598 209.628531 
L 59.960804 209.85397 
L 60.80201 210.068531 
L 61.437955 210.2231 
L 61.643216 210.273121 
L 62.484422 210.469296 
L 63.325628 210.655194 
L 64.166834 210.831012 
L 65.00804 210.996933 
L 65.849246 211.153133 
L 66.455767 211.259111 
L 66.690452 211.300431 
L 67.531658 211.439906 
L 68.372864 211.570009 
L 69.21407 211.690872 
L 70.055276 211.802619 
L 70.896482 211.905365 
L 71.737688 211.999217 
L 72.578894 212.084275 
L 73.420101 212.160631 
L 74.261307 212.228369 
L 75.102513 212.287567 
L 75.227414 212.295123 
z
M 78.904631 189.502867 
L 78.467337 189.459681 
L 77.626131 189.355105 
L 76.784925 189.228646 
L 75.943719 189.080028 
L 75.102513 188.908938 
L 74.261307 188.715024 
L 73.420101 188.497901 
L 73.310924 188.466855 
L 72.578894 188.250837 
L 71.737688 187.977929 
L 70.896482 187.67956 
L 70.250176 187.430844 
L 70.055276 187.352544 
L 69.21407 186.989308 
L 68.372864 186.59757 
L 67.965436 186.394832 
L 67.531658 186.168029 
L 66.690452 185.699064 
L 66.117464 185.35882 
L 65.849246 185.190425 
L 65.00804 184.631467 
L 64.569194 184.322809 
L 64.166834 184.02154 
L 63.325628 183.355961 
L 63.242231 183.286797 
L 62.484422 182.612607 
L 62.097635 182.250786 
L 61.643216 181.791345 
L 61.098892 181.214774 
L 60.80201 180.87198 
L 60.226962 180.178762 
L 59.960804 179.825546 
L 59.466362 179.142751 
L 59.119598 178.609434 
L 58.804486 178.106739 
L 58.278392 177.158871 
L 58.231082 177.070727 
L 57.742543 176.034716 
L 57.437186 175.277255 
L 57.328139 174.998704 
L 56.98672 173.962692 
L 56.710933 172.926681 
L 56.59598 172.368979 
L 56.499736 171.890669 
L 56.350432 170.854657 
L 56.259675 169.818646 
L 56.225923 168.782634 
L 56.247867 167.746623 
L 56.324423 166.710611 
L 56.454724 165.674599 
L 56.59598 164.877102 
L 56.63867 164.638588 
L 56.877792 163.602576 
L 57.169969 162.566564 
L 57.437186 161.764448 
L 57.516291 161.530553 
L 57.920423 160.494541 
L 58.278392 159.685025 
L 58.380451 159.458529 
L 58.901971 158.422518 
L 59.119598 158.031245 
L 59.486425 157.386506 
L 59.960804 156.625526 
L 60.136689 156.350495 
L 60.80201 155.393387 
L 60.858447 155.314483 
L 61.643216 154.298029 
L 61.658802 154.278471 
L 62.484422 153.312658 
L 62.546565 153.24246 
L 63.325628 152.417418 
L 63.532633 152.206448 
L 64.166834 151.597389 
L 64.630472 151.170436 
L 65.00804 150.841252 
L 65.849246 150.140615 
L 65.857017 150.134425 
L 66.690452 149.503033 
L 67.253576 149.098413 
L 67.531658 148.907605 
L 68.372864 148.360245 
L 68.858132 148.062401 
L 69.21407 147.852924 
L 70.055276 147.38703 
L 70.752081 147.02639 
L 70.896482 146.954443 
L 71.737688 146.562696 
L 72.578894 146.200468 
L 73.1084 145.990378 
L 73.420101 145.870827 
L 74.261307 145.57514 
L 75.102513 145.307326 
L 75.943719 145.067117 
L 76.388484 144.954367 
L 76.784925 144.856777 
L 77.626131 144.675757 
L 78.467337 144.521055 
L 79.308543 144.392502 
L 80.149749 144.289955 
L 80.990955 144.213297 
L 81.832161 144.162435 
L 82.673367 144.137303 
L 83.514573 144.137858 
L 84.355779 144.164082 
L 85.196985 144.215983 
L 86.038191 144.293587 
L 86.879397 144.396949 
L 87.720603 144.526144 
L 88.561809 144.681267 
L 89.403015 144.862439 
L 89.776698 144.954367 
L 90.244221 145.072839 
L 91.085427 145.312694 
L 91.926633 145.579754 
L 92.767839 145.874214 
L 93.072303 145.990378 
L 93.609045 146.202376 
L 94.450251 146.562597 
L 95.291457 146.951665 
L 95.44261 147.02639 
L 96.132663 147.381154 
L 96.973869 147.843339 
L 97.34946 148.062401 
L 97.815075 148.34603 
L 98.656281 148.888497 
L 98.965271 149.098413 
L 99.497487 149.477716 
L 100.338693 150.10877 
L 100.371439 150.134425 
L 101.179899 150.801945 
L 101.606842 151.170436 
L 102.021106 151.549041 
L 102.711913 152.206448 
L 102.862312 152.358783 
L 103.703284 153.24246 
L 103.703518 153.242722 
L 104.544724 154.220204 
L 104.593343 154.278471 
L 105.38593 155.301174 
L 105.395964 155.314483 
L 106.117285 156.350495 
L 106.227136 156.522904 
L 106.764759 157.386506 
L 107.068342 157.924222 
L 107.344075 158.422518 
L 107.858771 159.458529 
L 107.909548 159.573761 
L 108.308889 160.494541 
L 108.700543 161.530553 
L 108.750754 161.686167 
L 109.031496 162.566564 
L 109.305251 163.602576 
L 109.522295 164.638588 
L 109.59196 165.090368 
L 109.681458 165.674599 
L 109.782989 166.710611 
L 109.826823 167.746623 
L 109.811999 168.782634 
L 109.737328 169.818646 
L 109.601384 170.854657 
L 109.59196 170.904201 
L 109.400743 171.890669 
L 109.134577 172.926681 
L 108.800773 173.962692 
L 108.750754 174.09244 
L 108.393066 174.998704 
L 107.911209 176.034716 
L 107.909548 176.037844 
L 107.345808 177.070727 
L 107.068342 177.519453 
L 106.694179 178.106739 
L 106.227136 178.763411 
L 105.948376 179.142751 
L 105.38593 179.836743 
L 105.09871 180.178762 
L 104.544724 180.783062 
L 104.133423 181.214774 
L 103.703518 181.631778 
L 103.038289 182.250786 
L 102.862312 182.403278 
L 102.021106 183.102953 
L 101.79013 183.286797 
L 101.179899 183.742616 
L 100.362973 184.322809 
L 100.338693 184.339089 
L 99.497487 184.879108 
L 98.706783 185.35882 
L 98.656281 185.387929 
L 97.815075 185.849806 
L 96.973869 186.284347 
L 96.747455 186.394832 
L 96.132663 186.681684 
L 95.291457 187.049903 
L 94.450251 187.393353 
L 94.35204 187.430844 
L 93.609045 187.703632 
L 92.767839 187.989547 
L 91.926633 188.252593 
L 91.177517 188.466855 
L 91.085427 188.492325 
L 90.244221 188.704394 
L 89.403015 188.894978 
L 88.561809 189.064257 
L 87.720603 189.212382 
L 86.879397 189.339475 
L 86.038191 189.445628 
L 85.473806 189.502867 
L 85.196985 189.530214 
L 84.355779 189.593058 
L 83.514573 189.63558 
L 82.673367 189.657759 
L 81.832161 189.659544 
L 80.990955 189.64086 
L 80.149749 189.601598 
L 79.308543 189.541623 
z
" clip-path="url(#pc9b00785a6)" style="fill: #481c6e"/>
   </g>
   <g id="PathCollection_3">
    <path d="M 79.308543 189.541623 
L 80.149749 189.601598 
L 80.990955 189.64086 
L 81.832161 189.659544 
L 82.673367 189.657759 
L 83.514573 189.63558 
L 84.355779 189.593058 
L 85.196985 189.530214 
L 85.473806 189.502867 
L 86.038191 189.445628 
L 86.879397 189.339475 
L 87.720603 189.212382 
L 88.561809 189.064257 
L 89.403015 188.894978 
L 90.244221 188.704394 
L 91.085427 188.492325 
L 91.177517 188.466855 
L 91.926633 188.252593 
L 92.767839 187.989547 
L 93.609045 187.703632 
L 94.35204 187.430844 
L 94.450251 187.393353 
L 95.291457 187.049903 
L 96.132663 186.681684 
L 96.747455 186.394832 
L 96.973869 186.284347 
L 97.815075 185.849806 
L 98.656281 185.387929 
L 98.706783 185.35882 
L 99.497487 184.879108 
L 100.338693 184.339089 
L 100.362973 184.322809 
L 101.179899 183.742616 
L 101.79013 183.286797 
L 102.021106 183.102953 
L 102.862312 182.403278 
L 103.038289 182.250786 
L 103.703518 181.631778 
L 104.133423 181.214774 
L 104.544724 180.783062 
L 105.09871 180.178762 
L 105.38593 179.836743 
L 105.948376 179.142751 
L 106.227136 178.763411 
L 106.694179 178.106739 
L 107.068342 177.519453 
L 107.345808 177.070727 
L 107.909548 176.037844 
L 107.911209 176.034716 
L 108.393066 174.998704 
L 108.750754 174.09244 
L 108.800773 173.962692 
L 109.134577 172.926681 
L 109.400743 171.890669 
L 109.59196 170.904201 
L 109.601384 170.854657 
L 109.737328 169.818646 
L 109.811999 168.782634 
L 109.826823 167.746623 
L 109.782989 166.710611 
L 109.681458 165.674599 
L 109.59196 165.090368 
L 109.522295 164.638588 
L 109.305251 163.602576 
L 109.031496 162.566564 
L 108.750754 161.686167 
L 108.700543 161.530553 
L 108.308889 160.494541 
L 107.909548 159.573761 
L 107.858771 159.458529 
L 107.344075 158.422518 
L 107.068342 157.924222 
L 106.764759 157.386506 
L 106.227136 156.522904 
L 106.117285 156.350495 
L 105.395964 155.314483 
L 105.38593 155.301174 
L 104.593343 154.278471 
L 104.544724 154.220204 
L 103.703518 153.242722 
L 103.703284 153.24246 
L 102.862312 152.358783 
L 102.711913 152.206448 
L 102.021106 151.549041 
L 101.606842 151.170436 
L 101.179899 150.801945 
L 100.371439 150.134425 
L 100.338693 150.10877 
L 99.497487 149.477716 
L 98.965271 149.098413 
L 98.656281 148.888497 
L 97.815075 148.34603 
L 97.34946 148.062401 
L 96.973869 147.843339 
L 96.132663 147.381154 
L 95.44261 147.02639 
L 95.291457 146.951665 
L 94.450251 146.562597 
L 93.609045 146.202376 
L 93.072303 145.990378 
L 92.767839 145.874214 
L 91.926633 145.579754 
L 91.085427 145.312694 
L 90.244221 145.072839 
L 89.776698 144.954367 
L 89.403015 144.862439 
L 88.561809 144.681267 
L 87.720603 144.526144 
L 86.879397 144.396949 
L 86.038191 144.293587 
L 85.196985 144.215983 
L 84.355779 144.164082 
L 83.514573 144.137858 
L 82.673367 144.137303 
L 81.832161 144.162435 
L 80.990955 144.213297 
L 80.149749 144.289955 
L 79.308543 144.392502 
L 78.467337 144.521055 
L 77.626131 144.675757 
L 76.784925 144.856777 
L 76.388484 144.954367 
L 75.943719 145.067117 
L 75.102513 145.307326 
L 74.261307 145.57514 
L 73.420101 145.870827 
L 73.1084 145.990378 
L 72.578894 146.200468 
L 71.737688 146.562696 
L 70.896482 146.954443 
L 70.752081 147.02639 
L 70.055276 147.38703 
L 69.21407 147.852924 
L 68.858132 148.062401 
L 68.372864 148.360245 
L 67.531658 148.907605 
L 67.253576 149.098413 
L 66.690452 149.503033 
L 65.857017 150.134425 
L 65.849246 150.140615 
L 65.00804 150.841252 
L 64.630472 151.170436 
L 64.166834 151.597389 
L 63.532633 152.206448 
L 63.325628 152.417418 
L 62.546565 153.24246 
L 62.484422 153.312658 
L 61.658802 154.278471 
L 61.643216 154.298029 
L 60.858447 155.314483 
L 60.80201 155.393387 
L 60.136689 156.350495 
L 59.960804 156.625526 
L 59.486425 157.386506 
L 59.119598 158.031245 
L 58.901971 158.422518 
L 58.380451 159.458529 
L 58.278392 159.685025 
L 57.920423 160.494541 
L 57.516291 161.530553 
L 57.437186 161.764448 
L 57.169969 162.566564 
L 56.877792 163.602576 
L 56.63867 164.638588 
L 56.59598 164.877102 
L 56.454724 165.674599 
L 56.324423 166.710611 
L 56.247867 167.746623 
L 56.225923 168.782634 
L 56.259675 169.818646 
L 56.350432 170.854657 
L 56.499736 171.890669 
L 56.59598 172.368979 
L 56.710933 172.926681 
L 56.98672 173.962692 
L 57.328139 174.998704 
L 57.437186 175.277255 
L 57.742543 176.034716 
L 58.231082 177.070727 
L 58.278392 177.158871 
L 58.804486 178.106739 
L 59.119598 178.609434 
L 59.466362 179.142751 
L 59.960804 179.825546 
L 60.226962 180.178762 
L 60.80201 180.87198 
L 61.098892 181.214774 
L 61.643216 181.791345 
L 62.097635 182.250786 
L 62.484422 182.612607 
L 63.242231 183.286797 
L 63.325628 183.355961 
L 64.166834 184.02154 
L 64.569194 184.322809 
L 65.00804 184.631467 
L 65.849246 185.190425 
L 66.117464 185.35882 
L 66.690452 185.699064 
L 67.531658 186.168029 
L 67.965436 186.394832 
L 68.372864 186.59757 
L 69.21407 186.989308 
L 70.055276 187.352544 
L 70.250176 187.430844 
L 70.896482 187.67956 
L 71.737688 187.977929 
L 72.578894 188.250837 
L 73.310924 188.466855 
L 73.420101 188.497901 
L 74.261307 188.715024 
L 75.102513 188.908938 
L 75.943719 189.080028 
L 76.784925 189.228646 
L 77.626131 189.355105 
L 78.467337 189.459681 
L 78.904631 189.502867 
z
" clip-path="url(#pc9b00785a6)" style="fill: #472d7b"/>
   </g>
   <g id="PathCollection_4"/>
   <g id="PathCollection_5"/>
   <g id="PathCollection_6"/>
   <g id="PathCollection_7"/>
   <g id="PathCollection_8"/>
   <g id="PathCollection_9"/>
   <g id="PathCollection_10"/>
   <g id="PathCollection_11"/>
   <g id="PathCollection_12"/>
   <g id="PathCollection_13"/>
   <g id="PathCollection_14"/>
   <g id="PathCollection_15"/>
   <g id="PathCollection_16"/>
   <g id="PathCollection_17"/>
   <g id="PathCollection_18"/>
   <g id="PathCollection_19"/>
   <g id="PathCollection_20"/>
   <g id="PathCollection_21">
    <defs>
     <path id="mb67e93aae4" d="M 0 2.236068 
C 0.593012 2.236068 1.161816 2.000462 1.581139 1.581139 
C 2.000462 1.161816 2.236068 0.593012 2.236068 0 
C 2.236068 -0.593012 2.000462 -1.161816 1.581139 -1.581139 
C 1.161816 -2.000462 0.593012 -2.236068 0 -2.236068 
C -0.593012 -2.236068 -1.161816 -2.000462 -1.581139 -1.581139 
C -2.000462 -1.161816 -2.236068 -0.593012 -2.236068 0 
C -2.236068 0.593012 -2.000462 1.161816 -1.581139 1.581139 
C -1.161816 2.000462 -0.593012 2.236068 0 2.236068 
z
" style="stroke: #000000"/>
    </defs>
    <g clip-path="url(#pc9b00785a6)">
     <use xlink:href="#mb67e93aae4" x="151.598342" y="183.028521" style="stroke: #000000"/>
     <use xlink:href="#mb67e93aae4" x="31.349689" y="183.028521" style="stroke: #000000"/>
     <use xlink:href="#mb67e93aae4" x="151.598342" y="92.842031" style="stroke: #000000"/>
     <use xlink:href="#mb67e93aae4" x="31.349689" y="92.842031" style="stroke: #000000"/>
    </g>
   </g>
   <g id="patch_2">
    <path d="M 101.625777 109.445595 
L 120.12557 109.445595 
L 120.12557 107.595615 
L 101.625777 107.595615 
z
" clip-path="url(#pc9b00785a6)" style="fill: #ff0000; stroke: #ff0000; stroke-linejoin: miter"/>
   </g>
   <g id="line2d_1">
    <path d="M 3.6 215.403158 
L 171 215.403158 
L 171 67.973684 
L 112.263158 9.236842 
L 3.6 9.236842 
L 3.6 215.403158 
" clip-path="url(#pc9b00785a6)" style="fill: none; stroke: #000000; stroke-width: 2; stroke-linecap: square"/>
   </g>
  </g>
 </g>
 <defs>
  <clipPath id="pc9b00785a6">
   <rect x="3.6" y="3.6" width="167.4" height="217.44"/>
  </clipPath>
 </defs>
</svg>
