<?xml version="1.0" encoding="utf-8" standalone="no"?>
<!DOCTYPE svg PUBLIC "-//W3C//DTD SVG 1.1//EN"
  "http://www.w3.org/Graphics/SVG/1.1/DTD/svg11.dtd">
<svg xmlns:xlink="http://www.w3.org/1999/xlink" width="288pt" height="360pt" viewBox="0 0 288 360" xmlns="http://www.w3.org/2000/svg" version="1.1">
 <metadata>
  <rdf:RDF xmlns:dc="http://purl.org/dc/elements/1.1/" xmlns:cc="http://creativecommons.org/ns#" xmlns:rdf="http://www.w3.org/1999/02/22-rdf-syntax-ns#">
   <cc:Work>
    <dc:type rdf:resource="http://purl.org/dc/dcmitype/StillImage"/>
    <dc:date>2024-03-09T19:52:27.101852</dc:date>
    <dc:format>image/svg+xml</dc:format>
    <dc:creator>
     <cc:Agent>
      <dc:title>Matplotlib v3.7.2, https://matplotlib.org/</dc:title>
     </cc:Agent>
    </dc:creator>
   </cc:Work>
  </rdf:RDF>
 </metadata>
 <defs>
  <style type="text/css">*{stroke-linejoin: round; stroke-linecap: butt}</style>
 </defs>
 <g id="figure_1">
  <g id="patch_1">
   <path d="M 0 360 
L 288 360 
L 288 0 
L 0 0 
L 0 360 
z
" style="fill: none"/>
  </g>
  <g id="axes_1">
   <g id="PathCollection_1">
    <path d="M 189.447365 240.331367 
L 161.542103 268.228023 
L 152.701958 268.228023 
L 115.956552 268.228023 
L 79.211145 268.228023 
L 79.211145 231.482617 
L 79.211145 194.73721 
L 79.211145 157.991803 
L 79.211145 152.821533 
L 115.956552 137.011033 
L 131.819631 121.246396 
L 115.956552 105.506859 
L 79.211145 94.232649 
L 79.211145 84.500989 
L 115.956552 84.500989 
L 152.701958 84.500989 
L 189.447365 121.246396 
L 226.192772 157.991803 
L 226.192772 194.73721 
L 226.192772 231.482617 
L 226.192772 233.395451 
z
" clip-path="url(#p04cd617585)" style="fill: #460a5d"/>
   </g>
   <g id="PathCollection_2">
    <path d="M 189.447365 249.235908 
L 170.449392 268.228023 
L 161.542103 268.228023 
L 189.447365 240.331367 
L 226.192772 233.395451 
L 226.192772 235.309113 
z
" clip-path="url(#p04cd617585)" style="fill: #481c6e"/>
    <path d="M 115.956552 137.011033 
L 79.211145 152.821533 
L 79.211145 141.36517 
L 111.2809 121.246396 
L 79.211145 104.034009 
L 79.211145 94.232649 
L 115.956552 105.506859 
L 131.819631 121.246396 
z
" clip-path="url(#p04cd617585)" style="fill: #481c6e"/>
   </g>
   <g id="PathCollection_3">
    <path d="M 189.447365 258.14045 
L 179.35668 268.228023 
L 170.449392 268.228023 
L 189.447365 249.235908 
L 226.192772 235.309113 
L 226.192772 237.222776 
z
" clip-path="url(#p04cd617585)" style="fill: #472e7c"/>
    <path d="M 79.211145 141.36517 
L 79.211145 129.908808 
L 93.019214 121.246396 
L 79.211145 113.835368 
L 79.211145 104.034009 
L 111.2809 121.246396 
z
" clip-path="url(#p04cd617585)" style="fill: #472e7c"/>
   </g>
   <g id="PathCollection_4">
    <path d="M 189.447365 267.044992 
L 188.263969 268.228023 
L 179.35668 268.228023 
L 189.447365 258.14045 
L 226.192772 237.222776 
L 226.192772 239.136439 
z
" clip-path="url(#p04cd617585)" style="fill: #433e85"/>
    <path d="M 79.211145 129.908808 
L 79.211145 121.246396 
L 79.211145 113.835368 
L 93.019214 121.246396 
z
" clip-path="url(#p04cd617585)" style="fill: #433e85"/>
   </g>
   <g id="PathCollection_5">
    <path d="M 189.447365 268.228023 
L 188.263969 268.228023 
L 189.447365 267.044992 
L 226.192772 239.136439 
L 226.192772 241.050101 
L 191.561847 268.228023 
z
" clip-path="url(#p04cd617585)" style="fill: #3d4d8a"/>
   </g>
   <g id="PathCollection_6">
    <path d="M 226.192772 241.050101 
L 226.192772 242.963764 
L 194.000293 268.228023 
L 191.561847 268.228023 
z
" clip-path="url(#p04cd617585)" style="fill: #365c8d"/>
   </g>
   <g id="PathCollection_7">
    <path d="M 226.192772 242.963764 
L 226.192772 244.877427 
L 196.43874 268.228023 
L 194.000293 268.228023 
z
" clip-path="url(#p04cd617585)" style="fill: #30698e"/>
   </g>
   <g id="PathCollection_8">
    <path d="M 226.192772 244.877427 
L 226.192772 246.791089 
L 198.877186 268.228023 
L 196.43874 268.228023 
z
" clip-path="url(#p04cd617585)" style="fill: #2b758e"/>
   </g>
   <g id="PathCollection_9">
    <path d="M 226.192772 246.791089 
L 226.192772 248.704752 
L 201.315633 268.228023 
L 198.877186 268.228023 
z
" clip-path="url(#p04cd617585)" style="fill: #26828e"/>
   </g>
   <g id="PathCollection_10">
    <path d="M 226.192772 248.704752 
L 226.192772 250.618415 
L 203.754079 268.228023 
L 201.315633 268.228023 
z
" clip-path="url(#p04cd617585)" style="fill: #218f8d"/>
   </g>
   <g id="PathCollection_11">
    <path d="M 226.192772 250.618415 
L 226.192772 252.532077 
L 206.192526 268.228023 
L 203.754079 268.228023 
z
" clip-path="url(#p04cd617585)" style="fill: #1e9b8a"/>
   </g>
   <g id="PathCollection_12">
    <path d="M 226.192772 252.532077 
L 226.192772 254.44574 
L 208.630972 268.228023 
L 206.192526 268.228023 
z
" clip-path="url(#p04cd617585)" style="fill: #22a884"/>
   </g>
   <g id="PathCollection_13">
    <path d="M 226.192772 254.44574 
L 226.192772 256.359403 
L 211.069419 268.228023 
L 208.630972 268.228023 
z
" clip-path="url(#p04cd617585)" style="fill: #2fb47c"/>
   </g>
   <g id="PathCollection_14">
    <path d="M 226.192772 256.359403 
L 226.192772 258.273065 
L 213.507865 268.228023 
L 211.069419 268.228023 
z
" clip-path="url(#p04cd617585)" style="fill: #44bf70"/>
   </g>
   <g id="PathCollection_15">
    <path d="M 226.192772 258.273065 
L 226.192772 260.186728 
L 215.946312 268.228023 
L 213.507865 268.228023 
z
" clip-path="url(#p04cd617585)" style="fill: #60ca60"/>
   </g>
   <g id="PathCollection_16">
    <path d="M 226.192772 260.186728 
L 226.192772 262.100391 
L 218.384758 268.228023 
L 215.946312 268.228023 
z
" clip-path="url(#p04cd617585)" style="fill: #7fd34e"/>
   </g>
   <g id="PathCollection_17">
    <path d="M 226.192772 262.100391 
L 226.192772 264.014053 
L 220.823205 268.228023 
L 218.384758 268.228023 
z
" clip-path="url(#p04cd617585)" style="fill: #a0da39"/>
   </g>
   <g id="PathCollection_18">
    <path d="M 226.192772 264.014053 
L 226.192772 265.927716 
L 223.261651 268.228023 
L 220.823205 268.228023 
z
" clip-path="url(#p04cd617585)" style="fill: #c5e021"/>
   </g>
   <g id="PathCollection_19">
    <path d="M 226.192772 265.927716 
L 226.192772 267.841379 
L 225.700098 268.228023 
L 223.261651 268.228023 
z
" clip-path="url(#p04cd617585)" style="fill: #e7e419"/>
   </g>
   <g id="PathCollection_20">
    <path d="M 226.192772 267.841379 
L 226.192772 268.228023 
L 225.700098 268.228023 
z
" clip-path="url(#p04cd617585)" style="fill: #fde725"/>
   </g>
   <g id="patch_2">
    <path d="M 45.292308 307.8 
L 249.907692 307.8 
L 249.907692 127.594872 
L 178.112821 55.8 
L 45.292308 55.8 
z
" clip-path="url(#p04cd617585)" style="fill: #808080; opacity: 0.15; stroke: #808080; stroke-linejoin: miter"/>
   </g>
   <g id="patch_3">
    <path d="M 212.059923 304.97343 
C 215.807999 304.97343 219.403067 303.484304 222.053356 300.834015 
C 224.703646 298.183725 226.192772 294.588657 226.192772 290.840581 
C 226.192772 287.092506 224.703646 283.497438 222.053356 280.847148 
C 219.403067 278.196859 215.807999 276.707733 212.059923 276.707733 
C 208.311848 276.707733 204.71678 278.196859 202.06649 280.847148 
C 199.416201 283.497438 197.927075 287.092506 197.927075 290.840581 
C 197.927075 294.588657 199.416201 298.183725 202.06649 300.834015 
C 204.71678 303.484304 208.311848 304.97343 212.059923 304.97343 
L 212.059923 304.97343 
z
" clip-path="url(#p04cd617585)" style="fill: none; stroke-dasharray: 7.4,3.2; stroke-dashoffset: 0; stroke: #ff0000; stroke-width: 2; stroke-linejoin: miter"/>
   </g>
   <g id="PathCollection_21">
    <defs>
     <path id="m4cfbf04683" d="M 0 0.866025 
C 0.229673 0.866025 0.449969 0.774776 0.612372 0.612372 
C 0.774776 0.449969 0.866025 0.229673 0.866025 0 
C 0.866025 -0.229673 0.774776 -0.449969 0.612372 -0.612372 
C 0.449969 -0.774776 0.229673 -0.866025 0 -0.866025 
C -0.229673 -0.866025 -0.449969 -0.774776 -0.612372 -0.612372 
C -0.774776 -0.449969 -0.866025 -0.229673 -0.866025 0 
C -0.866025 0.229673 -0.774776 0.449969 -0.612372 0.612372 
C -0.449969 0.774776 -0.229673 0.866025 0 0.866025 
z
" style="stroke: #000000"/>
    </defs>
    <g clip-path="url(#p04cd617585)">
     <use xlink:href="#m4cfbf04683" x="226.192772" y="268.228023" style="stroke: #000000"/>
     <use xlink:href="#m4cfbf04683" x="189.447365" y="268.228023" style="stroke: #000000"/>
     <use xlink:href="#m4cfbf04683" x="152.701958" y="268.228023" style="stroke: #000000"/>
     <use xlink:href="#m4cfbf04683" x="115.956552" y="268.228023" style="stroke: #000000"/>
     <use xlink:href="#m4cfbf04683" x="79.211145" y="268.228023" style="stroke: #000000"/>
     <use xlink:href="#m4cfbf04683" x="226.192772" y="231.482617" style="stroke: #000000"/>
     <use xlink:href="#m4cfbf04683" x="189.447365" y="231.482617" style="stroke: #000000"/>
     <use xlink:href="#m4cfbf04683" x="152.701958" y="231.482617" style="stroke: #000000"/>
     <use xlink:href="#m4cfbf04683" x="115.956552" y="231.482617" style="stroke: #000000"/>
     <use xlink:href="#m4cfbf04683" x="79.211145" y="231.482617" style="stroke: #000000"/>
     <use xlink:href="#m4cfbf04683" x="226.192772" y="194.73721" style="stroke: #000000"/>
     <use xlink:href="#m4cfbf04683" x="189.447365" y="194.73721" style="stroke: #000000"/>
     <use xlink:href="#m4cfbf04683" x="152.701958" y="194.73721" style="stroke: #000000"/>
     <use xlink:href="#m4cfbf04683" x="115.956552" y="194.73721" style="stroke: #000000"/>
     <use xlink:href="#m4cfbf04683" x="79.211145" y="194.73721" style="stroke: #000000"/>
     <use xlink:href="#m4cfbf04683" x="226.192772" y="157.991803" style="stroke: #000000"/>
     <use xlink:href="#m4cfbf04683" x="189.447365" y="157.991803" style="stroke: #000000"/>
     <use xlink:href="#m4cfbf04683" x="152.701958" y="157.991803" style="stroke: #000000"/>
     <use xlink:href="#m4cfbf04683" x="115.956552" y="157.991803" style="stroke: #000000"/>
     <use xlink:href="#m4cfbf04683" x="79.211145" y="157.991803" style="stroke: #000000"/>
     <use xlink:href="#m4cfbf04683" x="189.447365" y="121.246396" style="stroke: #000000"/>
     <use xlink:href="#m4cfbf04683" x="152.701958" y="121.246396" style="stroke: #000000"/>
     <use xlink:href="#m4cfbf04683" x="115.956552" y="121.246396" style="stroke: #000000"/>
     <use xlink:href="#m4cfbf04683" x="79.211145" y="121.246396" style="stroke: #000000"/>
     <use xlink:href="#m4cfbf04683" x="152.701958" y="84.500989" style="stroke: #000000"/>
     <use xlink:href="#m4cfbf04683" x="115.956552" y="84.500989" style="stroke: #000000"/>
     <use xlink:href="#m4cfbf04683" x="79.211145" y="84.500989" style="stroke: #000000"/>
    </g>
   </g>
   <g id="text_1">
    <!-- Mechanics-AE -->
    <g transform="translate(85.400156 37.2) scale(0.18 -0.18)">
     <defs>
      <path id="DejaVuSans-4d" d="M 628 4666 
L 1569 4666 
L 2759 1491 
L 3956 4666 
L 4897 4666 
L 4897 0 
L 4281 0 
L 4281 4097 
L 3078 897 
L 2444 897 
L 1241 4097 
L 1241 0 
L 628 0 
L 628 4666 
z
" transform="scale(0.015625)"/>
      <path id="DejaVuSans-65" d="M 3597 1894 
L 3597 1613 
L 953 1613 
Q 991 1019 1311 708 
Q 1631 397 2203 397 
Q 2534 397 2845 478 
Q 3156 559 3463 722 
L 3463 178 
Q 3153 47 2828 -22 
Q 2503 -91 2169 -91 
Q 1331 -91 842 396 
Q 353 884 353 1716 
Q 353 2575 817 3079 
Q 1281 3584 2069 3584 
Q 2775 3584 3186 3129 
Q 3597 2675 3597 1894 
z
M 3022 2063 
Q 3016 2534 2758 2815 
Q 2500 3097 2075 3097 
Q 1594 3097 1305 2825 
Q 1016 2553 972 2059 
L 3022 2063 
z
" transform="scale(0.015625)"/>
      <path id="DejaVuSans-63" d="M 3122 3366 
L 3122 2828 
Q 2878 2963 2633 3030 
Q 2388 3097 2138 3097 
Q 1578 3097 1268 2742 
Q 959 2388 959 1747 
Q 959 1106 1268 751 
Q 1578 397 2138 397 
Q 2388 397 2633 464 
Q 2878 531 3122 666 
L 3122 134 
Q 2881 22 2623 -34 
Q 2366 -91 2075 -91 
Q 1284 -91 818 406 
Q 353 903 353 1747 
Q 353 2603 823 3093 
Q 1294 3584 2113 3584 
Q 2378 3584 2631 3529 
Q 2884 3475 3122 3366 
z
" transform="scale(0.015625)"/>
      <path id="DejaVuSans-68" d="M 3513 2113 
L 3513 0 
L 2938 0 
L 2938 2094 
Q 2938 2591 2744 2837 
Q 2550 3084 2163 3084 
Q 1697 3084 1428 2787 
Q 1159 2491 1159 1978 
L 1159 0 
L 581 0 
L 581 4863 
L 1159 4863 
L 1159 2956 
Q 1366 3272 1645 3428 
Q 1925 3584 2291 3584 
Q 2894 3584 3203 3211 
Q 3513 2838 3513 2113 
z
" transform="scale(0.015625)"/>
      <path id="DejaVuSans-61" d="M 2194 1759 
Q 1497 1759 1228 1600 
Q 959 1441 959 1056 
Q 959 750 1161 570 
Q 1363 391 1709 391 
Q 2188 391 2477 730 
Q 2766 1069 2766 1631 
L 2766 1759 
L 2194 1759 
z
M 3341 1997 
L 3341 0 
L 2766 0 
L 2766 531 
Q 2569 213 2275 61 
Q 1981 -91 1556 -91 
Q 1019 -91 701 211 
Q 384 513 384 1019 
Q 384 1609 779 1909 
Q 1175 2209 1959 2209 
L 2766 2209 
L 2766 2266 
Q 2766 2663 2505 2880 
Q 2244 3097 1772 3097 
Q 1472 3097 1187 3025 
Q 903 2953 641 2809 
L 641 3341 
Q 956 3463 1253 3523 
Q 1550 3584 1831 3584 
Q 2591 3584 2966 3190 
Q 3341 2797 3341 1997 
z
" transform="scale(0.015625)"/>
      <path id="DejaVuSans-6e" d="M 3513 2113 
L 3513 0 
L 2938 0 
L 2938 2094 
Q 2938 2591 2744 2837 
Q 2550 3084 2163 3084 
Q 1697 3084 1428 2787 
Q 1159 2491 1159 1978 
L 1159 0 
L 581 0 
L 581 3500 
L 1159 3500 
L 1159 2956 
Q 1366 3272 1645 3428 
Q 1925 3584 2291 3584 
Q 2894 3584 3203 3211 
Q 3513 2838 3513 2113 
z
" transform="scale(0.015625)"/>
      <path id="DejaVuSans-69" d="M 603 3500 
L 1178 3500 
L 1178 0 
L 603 0 
L 603 3500 
z
M 603 4863 
L 1178 4863 
L 1178 4134 
L 603 4134 
L 603 4863 
z
" transform="scale(0.015625)"/>
      <path id="DejaVuSans-73" d="M 2834 3397 
L 2834 2853 
Q 2591 2978 2328 3040 
Q 2066 3103 1784 3103 
Q 1356 3103 1142 2972 
Q 928 2841 928 2578 
Q 928 2378 1081 2264 
Q 1234 2150 1697 2047 
L 1894 2003 
Q 2506 1872 2764 1633 
Q 3022 1394 3022 966 
Q 3022 478 2636 193 
Q 2250 -91 1575 -91 
Q 1294 -91 989 -36 
Q 684 19 347 128 
L 347 722 
Q 666 556 975 473 
Q 1284 391 1588 391 
Q 1994 391 2212 530 
Q 2431 669 2431 922 
Q 2431 1156 2273 1281 
Q 2116 1406 1581 1522 
L 1381 1569 
Q 847 1681 609 1914 
Q 372 2147 372 2553 
Q 372 3047 722 3315 
Q 1072 3584 1716 3584 
Q 2034 3584 2315 3537 
Q 2597 3491 2834 3397 
z
" transform="scale(0.015625)"/>
      <path id="DejaVuSans-2d" d="M 313 2009 
L 1997 2009 
L 1997 1497 
L 313 1497 
L 313 2009 
z
" transform="scale(0.015625)"/>
      <path id="DejaVuSans-41" d="M 2188 4044 
L 1331 1722 
L 3047 1722 
L 2188 4044 
z
M 1831 4666 
L 2547 4666 
L 4325 0 
L 3669 0 
L 3244 1197 
L 1141 1197 
L 716 0 
L 50 0 
L 1831 4666 
z
" transform="scale(0.015625)"/>
      <path id="DejaVuSans-45" d="M 628 4666 
L 3578 4666 
L 3578 4134 
L 1259 4134 
L 1259 2753 
L 3481 2753 
L 3481 2222 
L 1259 2222 
L 1259 531 
L 3634 531 
L 3634 0 
L 628 0 
L 628 4666 
z
" transform="scale(0.015625)"/>
     </defs>
     <use xlink:href="#DejaVuSans-4d"/>
     <use xlink:href="#DejaVuSans-65" x="86.279297"/>
     <use xlink:href="#DejaVuSans-63" x="147.802734"/>
     <use xlink:href="#DejaVuSans-68" x="202.783203"/>
     <use xlink:href="#DejaVuSans-61" x="266.162109"/>
     <use xlink:href="#DejaVuSans-6e" x="327.441406"/>
     <use xlink:href="#DejaVuSans-69" x="390.820312"/>
     <use xlink:href="#DejaVuSans-63" x="418.603516"/>
     <use xlink:href="#DejaVuSans-73" x="473.583984"/>
     <use xlink:href="#DejaVuSans-2d" x="525.683594"/>
     <use xlink:href="#DejaVuSans-41" x="559.517578"/>
     <use xlink:href="#DejaVuSans-45" x="627.925781"/>
    </g>
   </g>
  </g>
 </g>
 <defs>
  <clipPath id="p04cd617585">
   <rect x="36" y="43.2" width="223.2" height="277.2"/>
  </clipPath>
 </defs>
</svg>
