<?xml version="1.0" encoding="utf-8" standalone="no"?>
<!DOCTYPE svg PUBLIC "-//W3C//DTD SVG 1.1//EN"
  "http://www.w3.org/Graphics/SVG/1.1/DTD/svg11.dtd">
<svg xmlns:xlink="http://www.w3.org/1999/xlink" width="288pt" height="360pt" viewBox="0 0 288 360" xmlns="http://www.w3.org/2000/svg" version="1.1">
 <metadata>
  <rdf:RDF xmlns:dc="http://purl.org/dc/elements/1.1/" xmlns:cc="http://creativecommons.org/ns#" xmlns:rdf="http://www.w3.org/1999/02/22-rdf-syntax-ns#">
   <cc:Work>
    <dc:type rdf:resource="http://purl.org/dc/dcmitype/StillImage"/>
    <dc:date>2024-03-11T22:44:12.732357</dc:date>
    <dc:format>image/svg+xml</dc:format>
    <dc:creator>
     <cc:Agent>
      <dc:title>Matplotlib v3.7.2, https://matplotlib.org/</dc:title>
     </cc:Agent>
    </dc:creator>
   </cc:Work>
  </rdf:RDF>
 </metadata>
 <defs>
  <style type="text/css">*{stroke-linejoin: round; stroke-linecap: butt}</style>
 </defs>
 <g id="figure_1">
  <g id="patch_1">
   <path d="M 0 360 
L 288 360 
L 288 0 
L 0 0 
L 0 360 
z
" style="fill: none"/>
  </g>
  <g id="axes_1">
   <g id="PathCollection_1">
    <path d="M 189.098399 242.332384 
L 152.659413 257.21428 
L 145.21537 264.807298 
L 116.220427 264.807298 
L 79.781441 264.807298 
L 79.781441 228.368312 
L 79.781441 191.929326 
L 79.781441 155.49034 
L 79.781441 119.051354 
L 79.781441 82.612369 
L 116.220427 82.612369 
L 152.659413 82.612369 
L 156.216033 86.168989 
L 152.659413 117.299429 
L 151.310832 119.051354 
L 117.197304 155.49034 
L 118.066926 191.929326 
L 152.659413 226.497408 
L 189.098399 222.254163 
L 192.910678 228.368312 
z
" clip-path="url(#pcc350a9721)" style="fill: #460a5d"/>
   </g>
   <g id="PathCollection_2">
    <path d="M 189.098399 258.893975 
L 177.288445 264.807298 
L 152.659413 264.807298 
L 145.21537 264.807298 
L 152.659413 257.21428 
L 189.098399 242.332384 
L 192.910678 228.368312 
L 189.098399 222.254163 
L 152.659413 226.497408 
L 118.066926 191.929326 
L 117.197304 155.49034 
L 151.310832 119.051354 
L 152.659413 117.299429 
L 156.216033 86.168989 
L 161.168447 91.121403 
L 157.97748 119.051354 
L 152.659413 120.958453 
L 119.119344 155.49034 
L 119.996595 191.929326 
L 152.659413 224.5691 
L 189.098399 215.002695 
L 197.432096 228.368312 
z
" clip-path="url(#pcc350a9721)" style="fill: #481c6e"/>
   </g>
   <g id="PathCollection_3">
    <path d="M 189.098399 264.807298 
L 177.288445 264.807298 
L 189.098399 258.893975 
L 197.432096 228.368312 
L 189.098399 215.002695 
L 152.659413 224.5691 
L 119.996595 191.929326 
L 119.119344 155.49034 
L 152.659413 120.958453 
L 157.97748 119.051354 
L 161.168447 91.121403 
L 166.120861 96.073817 
L 163.495702 119.051354 
L 152.659413 122.937329 
L 121.041383 155.49034 
L 121.926264 191.929326 
L 152.659413 222.640793 
L 189.098399 207.751227 
L 201.953514 228.368312 
L 191.511234 264.807298 
z
" clip-path="url(#pcc350a9721)" style="fill: #472d7b"/>
    <path d="M 189.098399 158.197377 
L 188.71462 155.49034 
L 189.098399 154.165155 
L 189.542771 155.49034 
z
" clip-path="url(#pcc350a9721)" style="fill: #472d7b"/>
   </g>
   <g id="PathCollection_4">
    <path d="M 201.953514 228.368312 
L 189.098399 207.751227 
L 152.659413 222.640793 
L 121.926264 191.929326 
L 121.041383 155.49034 
L 152.659413 122.937329 
L 163.495702 119.051354 
L 166.120861 96.073817 
L 171.073276 101.026231 
L 169.013924 119.051354 
L 152.659413 124.916205 
L 122.963422 155.49034 
L 123.855933 191.929326 
L 152.659413 220.712486 
L 189.098399 200.499758 
L 206.474932 228.368312 
L 195.263994 264.807298 
L 191.511234 264.807298 
z
" clip-path="url(#pcc350a9721)" style="fill: #433e85"/>
    <path d="M 189.098399 173.65735 
L 186.522848 155.49034 
L 189.098399 146.596977 
L 192.080593 155.49034 
z
M 189.542771 155.49034 
L 189.098399 154.165155 
L 188.71462 155.49034 
L 189.098399 158.197377 
z
" clip-path="url(#pcc350a9721)" style="fill: #433e85"/>
   </g>
   <g id="PathCollection_5">
    <path d="M 206.474932 228.368312 
L 189.098399 200.499758 
L 152.659413 220.712486 
L 123.855933 191.929326 
L 122.963422 155.49034 
L 152.659413 124.916205 
L 169.013924 119.051354 
L 171.073276 101.026231 
L 176.02569 105.978645 
L 174.532147 119.051354 
L 152.659413 126.895081 
L 124.885461 155.49034 
L 125.785601 191.929326 
L 152.659413 218.784178 
L 189.098399 193.24829 
L 210.996349 228.368312 
L 199.016753 264.807298 
L 195.263994 264.807298 
z
" clip-path="url(#pcc350a9721)" style="fill: #3d4d8a"/>
    <path d="M 189.098399 189.117323 
L 184.331076 155.49034 
L 189.098399 139.0288 
L 194.618415 155.49034 
z
M 192.080593 155.49034 
L 189.098399 146.596977 
L 186.522848 155.49034 
L 189.098399 173.65735 
z
" clip-path="url(#pcc350a9721)" style="fill: #3d4d8a"/>
   </g>
   <g id="PathCollection_6">
    <path d="M 210.996349 228.368312 
L 189.098399 193.24829 
L 152.659413 218.784178 
L 125.785601 191.929326 
L 124.885461 155.49034 
L 152.659413 126.895081 
L 174.532147 119.051354 
L 176.02569 105.978645 
L 180.978104 110.93106 
L 180.050369 119.051354 
L 152.659413 128.873957 
L 126.8075 155.49034 
L 127.71527 191.929326 
L 152.659413 216.855871 
L 186.92949 191.929326 
L 182.139304 155.49034 
L 189.098399 131.460622 
L 197.156237 155.49034 
L 225.537385 191.333619 
L 225.537385 191.929326 
L 225.537385 194.749044 
L 215.517767 228.368312 
L 202.769513 264.807298 
L 199.016753 264.807298 
z
M 194.618415 155.49034 
L 189.098399 139.0288 
L 184.331076 155.49034 
L 189.098399 189.117323 
z
" clip-path="url(#pcc350a9721)" style="fill: #375b8d"/>
   </g>
   <g id="PathCollection_7">
    <path d="M 215.517767 228.368312 
L 225.537385 194.749044 
L 225.537385 209.919959 
L 220.039185 228.368312 
L 206.522273 264.807298 
L 202.769513 264.807298 
z
" clip-path="url(#pcc350a9721)" style="fill: #31688e"/>
    <path d="M 152.659413 216.855871 
L 127.71527 191.929326 
L 126.8075 155.49034 
L 152.659413 128.873957 
L 180.050369 119.051354 
L 180.978104 110.93106 
L 185.930518 115.883474 
L 185.568591 119.051354 
L 152.659413 130.852833 
L 128.729539 155.49034 
L 129.644939 191.929326 
L 152.659413 214.927564 
L 184.278371 191.929326 
L 179.947532 155.49034 
L 189.098399 123.892444 
L 199.694059 155.49034 
L 225.537385 188.128538 
L 225.537385 191.333619 
L 197.156237 155.49034 
L 189.098399 131.460622 
L 182.139304 155.49034 
L 186.92949 191.929326 
z
" clip-path="url(#pcc350a9721)" style="fill: #31688e"/>
   </g>
   <g id="PathCollection_8">
    <path d="M 220.039185 228.368312 
L 225.537385 209.919959 
L 225.537385 225.090873 
L 224.560603 228.368312 
L 210.275032 264.807298 
L 206.522273 264.807298 
z
" clip-path="url(#pcc350a9721)" style="fill: #2b748e"/>
    <path d="M 152.659413 214.927564 
L 129.644939 191.929326 
L 128.729539 155.49034 
L 152.659413 130.852833 
L 185.568591 119.051354 
L 185.930518 115.883474 
L 189.098399 119.051354 
L 190.474219 120.427174 
L 202.231881 155.49034 
L 225.537385 184.923458 
L 225.537385 188.128538 
L 199.694059 155.49034 
L 189.098399 123.892444 
L 179.947532 155.49034 
L 184.278371 191.929326 
z
M 181.627252 191.929326 
L 177.75576 155.49034 
L 152.659413 132.831708 
L 130.651578 155.49034 
L 131.574607 191.929326 
L 152.659413 212.999256 
z
" clip-path="url(#pcc350a9721)" style="fill: #2b748e"/>
   </g>
   <g id="PathCollection_9">
    <path d="M 224.560603 228.368312 
L 225.537385 225.090873 
L 225.537385 228.368312 
L 225.537385 235.786491 
L 214.027792 264.807298 
L 210.275032 264.807298 
z
" clip-path="url(#pcc350a9721)" style="fill: #26818e"/>
    <path d="M 152.659413 212.999256 
L 131.574607 191.929326 
L 130.651578 155.49034 
L 152.659413 132.831708 
L 177.75576 155.49034 
L 181.627252 191.929326 
z
M 178.976132 191.929326 
L 175.563988 155.49034 
L 152.659413 134.810584 
L 132.573617 155.49034 
L 133.504276 191.929326 
L 152.659413 211.070949 
z
" clip-path="url(#pcc350a9721)" style="fill: #26818e"/>
    <path d="M 202.231881 155.49034 
L 190.474219 120.427174 
L 194.292376 124.245331 
L 204.769703 155.49034 
L 225.537385 181.718378 
L 225.537385 184.923458 
z
" clip-path="url(#pcc350a9721)" style="fill: #26818e"/>
   </g>
   <g id="PathCollection_10">
    <path d="M 225.537385 235.786491 
L 225.537385 245.248868 
L 217.780551 264.807298 
L 214.027792 264.807298 
z
" clip-path="url(#pcc350a9721)" style="fill: #218e8d"/>
    <path d="M 152.659413 211.070949 
L 133.504276 191.929326 
L 132.573617 155.49034 
L 152.659413 134.810584 
L 175.563988 155.49034 
L 178.976132 191.929326 
z
M 176.325013 191.929326 
L 173.372216 155.49034 
L 152.659413 136.78946 
L 134.495656 155.49034 
L 135.433945 191.929326 
L 152.659413 209.142642 
z
" clip-path="url(#pcc350a9721)" style="fill: #218e8d"/>
    <path d="M 204.769703 155.49034 
L 194.292376 124.245331 
L 198.110533 128.063488 
L 207.307525 155.49034 
L 225.537385 178.513297 
L 225.537385 181.718378 
z
" clip-path="url(#pcc350a9721)" style="fill: #218e8d"/>
   </g>
   <g id="PathCollection_11">
    <path d="M 225.537385 245.248868 
L 225.537385 254.711246 
L 221.533311 264.807298 
L 217.780551 264.807298 
z
" clip-path="url(#pcc350a9721)" style="fill: #1f9a8a"/>
    <path d="M 152.659413 209.142642 
L 135.433945 191.929326 
L 134.495656 155.49034 
L 152.659413 136.78946 
L 173.372216 155.49034 
L 176.325013 191.929326 
z
M 173.673894 191.929326 
L 171.180444 155.49034 
L 152.659413 138.768336 
L 136.417695 155.49034 
L 137.363613 191.929326 
L 152.659413 207.214335 
z
" clip-path="url(#pcc350a9721)" style="fill: #1f9a8a"/>
    <path d="M 207.307525 155.49034 
L 198.110533 128.063488 
L 201.92869 131.881645 
L 209.845346 155.49034 
L 225.537385 175.308217 
L 225.537385 178.513297 
z
" clip-path="url(#pcc350a9721)" style="fill: #1f9a8a"/>
   </g>
   <g id="PathCollection_12">
    <path d="M 225.537385 254.711246 
L 225.537385 264.173623 
L 225.286071 264.807298 
L 221.533311 264.807298 
z
" clip-path="url(#pcc350a9721)" style="fill: #21a685"/>
    <path d="M 152.659413 207.214335 
L 137.363613 191.929326 
L 136.417695 155.49034 
L 152.659413 138.768336 
L 171.180444 155.49034 
L 173.673894 191.929326 
z
M 171.022775 191.929326 
L 168.988672 155.49034 
L 152.659413 140.747212 
L 138.339734 155.49034 
L 139.293282 191.929326 
L 152.659413 205.286027 
z
" clip-path="url(#pcc350a9721)" style="fill: #21a685"/>
    <path d="M 209.845346 155.49034 
L 201.92869 131.881645 
L 205.746847 135.699802 
L 212.383168 155.49034 
L 225.537385 172.103137 
L 225.537385 175.308217 
z
" clip-path="url(#pcc350a9721)" style="fill: #21a685"/>
   </g>
   <g id="PathCollection_13">
    <path d="M 225.537385 264.173623 
L 225.537385 264.807298 
L 225.286071 264.807298 
z
" clip-path="url(#pcc350a9721)" style="fill: #2db27d"/>
    <path d="M 152.659413 205.286027 
L 139.293282 191.929326 
L 138.339734 155.49034 
L 152.659413 140.747212 
L 168.988672 155.49034 
L 171.022775 191.929326 
z
M 168.371656 191.929326 
L 166.796899 155.49034 
L 152.659413 142.726088 
L 140.261773 155.49034 
L 141.222951 191.929326 
L 152.659413 203.35772 
z
" clip-path="url(#pcc350a9721)" style="fill: #2db27d"/>
    <path d="M 212.383168 155.49034 
L 205.746847 135.699802 
L 209.565004 139.517959 
L 214.92099 155.49034 
L 225.537385 168.898056 
L 225.537385 172.103137 
z
" clip-path="url(#pcc350a9721)" style="fill: #2db27d"/>
   </g>
   <g id="PathCollection_14">
    <path d="M 152.659413 203.35772 
L 141.222951 191.929326 
L 140.261773 155.49034 
L 152.659413 142.726088 
L 166.796899 155.49034 
L 168.371656 191.929326 
z
M 165.720537 191.929326 
L 164.605127 155.49034 
L 152.659413 144.704964 
L 142.183812 155.49034 
L 143.152619 191.929326 
L 152.659413 201.429413 
z
" clip-path="url(#pcc350a9721)" style="fill: #40bd72"/>
    <path d="M 214.92099 155.49034 
L 209.565004 139.517959 
L 213.383161 143.336116 
L 217.458812 155.49034 
L 225.537385 165.692976 
L 225.537385 168.898056 
z
" clip-path="url(#pcc350a9721)" style="fill: #40bd72"/>
   </g>
   <g id="PathCollection_15">
    <path d="M 152.659413 201.429413 
L 143.152619 191.929326 
L 142.183812 155.49034 
L 152.659413 144.704964 
L 164.605127 155.49034 
L 165.720537 191.929326 
z
M 163.069418 191.929326 
L 162.413355 155.49034 
L 152.659413 146.68384 
L 144.105851 155.49034 
L 145.082288 191.929326 
L 152.659413 199.501105 
z
" clip-path="url(#pcc350a9721)" style="fill: #5ac864"/>
    <path d="M 217.458812 155.49034 
L 213.383161 143.336116 
L 217.201318 147.154273 
L 219.996634 155.49034 
L 225.537385 162.487896 
L 225.537385 165.692976 
z
" clip-path="url(#pcc350a9721)" style="fill: #5ac864"/>
   </g>
   <g id="PathCollection_16">
    <path d="M 152.659413 199.501105 
L 145.082288 191.929326 
L 144.105851 155.49034 
L 152.659413 146.68384 
L 162.413355 155.49034 
L 163.069418 191.929326 
z
M 160.418299 191.929326 
L 160.221583 155.49034 
L 152.659413 148.662716 
L 146.02789 155.49034 
L 147.011957 191.929326 
L 152.659413 197.572798 
z
" clip-path="url(#pcc350a9721)" style="fill: #7ad151"/>
    <path d="M 219.996634 155.49034 
L 217.201318 147.154273 
L 221.019475 150.97243 
L 222.534456 155.49034 
L 225.537385 159.282815 
L 225.537385 162.487896 
z
" clip-path="url(#pcc350a9721)" style="fill: #7ad151"/>
   </g>
   <g id="PathCollection_17">
    <path d="M 152.659413 197.572798 
L 147.011957 191.929326 
L 146.02789 155.49034 
L 152.659413 148.662716 
L 160.221583 155.49034 
L 160.418299 191.929326 
z
M 157.76718 191.929326 
L 158.029811 155.49034 
L 152.659413 150.641592 
L 147.949929 155.49034 
L 148.941626 191.929326 
L 152.659413 195.644491 
z
" clip-path="url(#pcc350a9721)" style="fill: #9bd93c"/>
    <path d="M 222.534456 155.49034 
L 221.019475 150.97243 
L 224.837632 154.790587 
L 225.072278 155.49034 
L 225.537385 156.077735 
L 225.537385 159.282815 
z
" clip-path="url(#pcc350a9721)" style="fill: #9bd93c"/>
   </g>
   <g id="PathCollection_18">
    <path d="M 152.659413 195.644491 
L 148.941626 191.929326 
L 147.949929 155.49034 
L 152.659413 150.641592 
L 158.029811 155.49034 
L 157.76718 191.929326 
z
M 155.116061 191.929326 
L 155.838039 155.49034 
L 152.659413 152.620468 
L 149.871968 155.49034 
L 150.871294 191.929326 
L 152.659413 193.716183 
z
" clip-path="url(#pcc350a9721)" style="fill: #bddf26"/>
    <path d="M 225.072278 155.49034 
L 224.837632 154.790587 
L 225.537385 155.49034 
L 225.537385 156.077735 
z
" clip-path="url(#pcc350a9721)" style="fill: #bddf26"/>
   </g>
   <g id="PathCollection_19">
    <path d="M 152.659413 193.716183 
L 150.871294 191.929326 
L 149.871968 155.49034 
L 152.659413 152.620468 
L 155.838039 155.49034 
L 155.116061 191.929326 
z
M 153.646267 155.49034 
L 152.659413 154.599344 
L 151.794007 155.49034 
L 152.659413 186.824436 
z
" clip-path="url(#pcc350a9721)" style="fill: #dfe318"/>
   </g>
   <g id="PathCollection_20">
    <path d="M 152.659413 186.824436 
L 151.794007 155.49034 
L 152.659413 154.599344 
L 153.646267 155.49034 
z
" clip-path="url(#pcc350a9721)" style="fill: #fde725"/>
   </g>
   <g id="patch_2">
    <path d="M 46.145455 304.049282 
L 249.054545 304.049282 
L 249.054545 125.34689 
L 177.858373 54.150718 
L 46.145455 54.150718 
z
" clip-path="url(#pcc350a9721)" style="fill: #808080; opacity: 0.15; stroke: #808080; stroke-linejoin: miter"/>
   </g>
   <g id="patch_3">
    <path d="M 164.964578 175.615872 
L 187.388569 175.615872 
L 187.388569 173.373473 
L 164.964578 173.373473 
z
" clip-path="url(#pcc350a9721)" style="fill: #ff0000; stroke: #ff0000; stroke-linejoin: miter"/>
   </g>
   <g id="PathCollection_21">
    <defs>
     <path id="m0a6dd4060e" d="M 0 0.866025 
C 0.229673 0.866025 0.449969 0.774776 0.612372 0.612372 
C 0.774776 0.449969 0.866025 0.229673 0.866025 0 
C 0.866025 -0.229673 0.774776 -0.449969 0.612372 -0.612372 
C 0.449969 -0.774776 0.229673 -0.866025 0 -0.866025 
C -0.229673 -0.866025 -0.449969 -0.774776 -0.612372 -0.612372 
C -0.774776 -0.449969 -0.866025 -0.229673 -0.866025 0 
C -0.866025 0.229673 -0.774776 0.449969 -0.612372 0.612372 
C -0.449969 0.774776 -0.229673 0.866025 0 0.866025 
z
" style="stroke: #000000"/>
    </defs>
    <g clip-path="url(#pcc350a9721)">
     <use xlink:href="#m0a6dd4060e" x="225.537385" y="264.807298" style="stroke: #000000"/>
     <use xlink:href="#m0a6dd4060e" x="189.098399" y="264.807298" style="stroke: #000000"/>
     <use xlink:href="#m0a6dd4060e" x="152.659413" y="264.807298" style="stroke: #000000"/>
     <use xlink:href="#m0a6dd4060e" x="116.220427" y="264.807298" style="stroke: #000000"/>
     <use xlink:href="#m0a6dd4060e" x="79.781441" y="264.807298" style="stroke: #000000"/>
     <use xlink:href="#m0a6dd4060e" x="225.537385" y="228.368312" style="stroke: #000000"/>
     <use xlink:href="#m0a6dd4060e" x="189.098399" y="228.368312" style="stroke: #000000"/>
     <use xlink:href="#m0a6dd4060e" x="152.659413" y="228.368312" style="stroke: #000000"/>
     <use xlink:href="#m0a6dd4060e" x="116.220427" y="228.368312" style="stroke: #000000"/>
     <use xlink:href="#m0a6dd4060e" x="79.781441" y="228.368312" style="stroke: #000000"/>
     <use xlink:href="#m0a6dd4060e" x="225.537385" y="191.929326" style="stroke: #000000"/>
     <use xlink:href="#m0a6dd4060e" x="189.098399" y="191.929326" style="stroke: #000000"/>
     <use xlink:href="#m0a6dd4060e" x="152.659413" y="191.929326" style="stroke: #000000"/>
     <use xlink:href="#m0a6dd4060e" x="116.220427" y="191.929326" style="stroke: #000000"/>
     <use xlink:href="#m0a6dd4060e" x="79.781441" y="191.929326" style="stroke: #000000"/>
     <use xlink:href="#m0a6dd4060e" x="225.537385" y="155.49034" style="stroke: #000000"/>
     <use xlink:href="#m0a6dd4060e" x="189.098399" y="155.49034" style="stroke: #000000"/>
     <use xlink:href="#m0a6dd4060e" x="152.659413" y="155.49034" style="stroke: #000000"/>
     <use xlink:href="#m0a6dd4060e" x="116.220427" y="155.49034" style="stroke: #000000"/>
     <use xlink:href="#m0a6dd4060e" x="79.781441" y="155.49034" style="stroke: #000000"/>
     <use xlink:href="#m0a6dd4060e" x="189.098399" y="119.051354" style="stroke: #000000"/>
     <use xlink:href="#m0a6dd4060e" x="152.659413" y="119.051354" style="stroke: #000000"/>
     <use xlink:href="#m0a6dd4060e" x="116.220427" y="119.051354" style="stroke: #000000"/>
     <use xlink:href="#m0a6dd4060e" x="79.781441" y="119.051354" style="stroke: #000000"/>
     <use xlink:href="#m0a6dd4060e" x="152.659413" y="82.612369" style="stroke: #000000"/>
     <use xlink:href="#m0a6dd4060e" x="116.220427" y="82.612369" style="stroke: #000000"/>
     <use xlink:href="#m0a6dd4060e" x="79.781441" y="82.612369" style="stroke: #000000"/>
    </g>
   </g>
   <g id="text_1">
    <!-- Mechanics-AE -->
    <g transform="translate(85.400156 37.2) scale(0.18 -0.18)">
     <defs>
      <path id="DejaVuSans-4d" d="M 628 4666 
L 1569 4666 
L 2759 1491 
L 3956 4666 
L 4897 4666 
L 4897 0 
L 4281 0 
L 4281 4097 
L 3078 897 
L 2444 897 
L 1241 4097 
L 1241 0 
L 628 0 
L 628 4666 
z
" transform="scale(0.015625)"/>
      <path id="DejaVuSans-65" d="M 3597 1894 
L 3597 1613 
L 953 1613 
Q 991 1019 1311 708 
Q 1631 397 2203 397 
Q 2534 397 2845 478 
Q 3156 559 3463 722 
L 3463 178 
Q 3153 47 2828 -22 
Q 2503 -91 2169 -91 
Q 1331 -91 842 396 
Q 353 884 353 1716 
Q 353 2575 817 3079 
Q 1281 3584 2069 3584 
Q 2775 3584 3186 3129 
Q 3597 2675 3597 1894 
z
M 3022 2063 
Q 3016 2534 2758 2815 
Q 2500 3097 2075 3097 
Q 1594 3097 1305 2825 
Q 1016 2553 972 2059 
L 3022 2063 
z
" transform="scale(0.015625)"/>
      <path id="DejaVuSans-63" d="M 3122 3366 
L 3122 2828 
Q 2878 2963 2633 3030 
Q 2388 3097 2138 3097 
Q 1578 3097 1268 2742 
Q 959 2388 959 1747 
Q 959 1106 1268 751 
Q 1578 397 2138 397 
Q 2388 397 2633 464 
Q 2878 531 3122 666 
L 3122 134 
Q 2881 22 2623 -34 
Q 2366 -91 2075 -91 
Q 1284 -91 818 406 
Q 353 903 353 1747 
Q 353 2603 823 3093 
Q 1294 3584 2113 3584 
Q 2378 3584 2631 3529 
Q 2884 3475 3122 3366 
z
" transform="scale(0.015625)"/>
      <path id="DejaVuSans-68" d="M 3513 2113 
L 3513 0 
L 2938 0 
L 2938 2094 
Q 2938 2591 2744 2837 
Q 2550 3084 2163 3084 
Q 1697 3084 1428 2787 
Q 1159 2491 1159 1978 
L 1159 0 
L 581 0 
L 581 4863 
L 1159 4863 
L 1159 2956 
Q 1366 3272 1645 3428 
Q 1925 3584 2291 3584 
Q 2894 3584 3203 3211 
Q 3513 2838 3513 2113 
z
" transform="scale(0.015625)"/>
      <path id="DejaVuSans-61" d="M 2194 1759 
Q 1497 1759 1228 1600 
Q 959 1441 959 1056 
Q 959 750 1161 570 
Q 1363 391 1709 391 
Q 2188 391 2477 730 
Q 2766 1069 2766 1631 
L 2766 1759 
L 2194 1759 
z
M 3341 1997 
L 3341 0 
L 2766 0 
L 2766 531 
Q 2569 213 2275 61 
Q 1981 -91 1556 -91 
Q 1019 -91 701 211 
Q 384 513 384 1019 
Q 384 1609 779 1909 
Q 1175 2209 1959 2209 
L 2766 2209 
L 2766 2266 
Q 2766 2663 2505 2880 
Q 2244 3097 1772 3097 
Q 1472 3097 1187 3025 
Q 903 2953 641 2809 
L 641 3341 
Q 956 3463 1253 3523 
Q 1550 3584 1831 3584 
Q 2591 3584 2966 3190 
Q 3341 2797 3341 1997 
z
" transform="scale(0.015625)"/>
      <path id="DejaVuSans-6e" d="M 3513 2113 
L 3513 0 
L 2938 0 
L 2938 2094 
Q 2938 2591 2744 2837 
Q 2550 3084 2163 3084 
Q 1697 3084 1428 2787 
Q 1159 2491 1159 1978 
L 1159 0 
L 581 0 
L 581 3500 
L 1159 3500 
L 1159 2956 
Q 1366 3272 1645 3428 
Q 1925 3584 2291 3584 
Q 2894 3584 3203 3211 
Q 3513 2838 3513 2113 
z
" transform="scale(0.015625)"/>
      <path id="DejaVuSans-69" d="M 603 3500 
L 1178 3500 
L 1178 0 
L 603 0 
L 603 3500 
z
M 603 4863 
L 1178 4863 
L 1178 4134 
L 603 4134 
L 603 4863 
z
" transform="scale(0.015625)"/>
      <path id="DejaVuSans-73" d="M 2834 3397 
L 2834 2853 
Q 2591 2978 2328 3040 
Q 2066 3103 1784 3103 
Q 1356 3103 1142 2972 
Q 928 2841 928 2578 
Q 928 2378 1081 2264 
Q 1234 2150 1697 2047 
L 1894 2003 
Q 2506 1872 2764 1633 
Q 3022 1394 3022 966 
Q 3022 478 2636 193 
Q 2250 -91 1575 -91 
Q 1294 -91 989 -36 
Q 684 19 347 128 
L 347 722 
Q 666 556 975 473 
Q 1284 391 1588 391 
Q 1994 391 2212 530 
Q 2431 669 2431 922 
Q 2431 1156 2273 1281 
Q 2116 1406 1581 1522 
L 1381 1569 
Q 847 1681 609 1914 
Q 372 2147 372 2553 
Q 372 3047 722 3315 
Q 1072 3584 1716 3584 
Q 2034 3584 2315 3537 
Q 2597 3491 2834 3397 
z
" transform="scale(0.015625)"/>
      <path id="DejaVuSans-2d" d="M 313 2009 
L 1997 2009 
L 1997 1497 
L 313 1497 
L 313 2009 
z
" transform="scale(0.015625)"/>
      <path id="DejaVuSans-41" d="M 2188 4044 
L 1331 1722 
L 3047 1722 
L 2188 4044 
z
M 1831 4666 
L 2547 4666 
L 4325 0 
L 3669 0 
L 3244 1197 
L 1141 1197 
L 716 0 
L 50 0 
L 1831 4666 
z
" transform="scale(0.015625)"/>
      <path id="DejaVuSans-45" d="M 628 4666 
L 3578 4666 
L 3578 4134 
L 1259 4134 
L 1259 2753 
L 3481 2753 
L 3481 2222 
L 1259 2222 
L 1259 531 
L 3634 531 
L 3634 0 
L 628 0 
L 628 4666 
z
" transform="scale(0.015625)"/>
     </defs>
     <use xlink:href="#DejaVuSans-4d"/>
     <use xlink:href="#DejaVuSans-65" x="86.279297"/>
     <use xlink:href="#DejaVuSans-63" x="147.802734"/>
     <use xlink:href="#DejaVuSans-68" x="202.783203"/>
     <use xlink:href="#DejaVuSans-61" x="266.162109"/>
     <use xlink:href="#DejaVuSans-6e" x="327.441406"/>
     <use xlink:href="#DejaVuSans-69" x="390.820312"/>
     <use xlink:href="#DejaVuSans-63" x="418.603516"/>
     <use xlink:href="#DejaVuSans-73" x="473.583984"/>
     <use xlink:href="#DejaVuSans-2d" x="525.683594"/>
     <use xlink:href="#DejaVuSans-41" x="559.517578"/>
     <use xlink:href="#DejaVuSans-45" x="627.925781"/>
    </g>
   </g>
  </g>
 </g>
 <defs>
  <clipPath id="pcc350a9721">
   <rect x="36" y="43.2" width="223.2" height="271.8"/>
  </clipPath>
 </defs>
</svg>
