<?xml version="1.0" encoding="utf-8" standalone="no"?>
<!DOCTYPE svg PUBLIC "-//W3C//DTD SVG 1.1//EN"
  "http://www.w3.org/Graphics/SVG/1.1/DTD/svg11.dtd">
<svg xmlns:xlink="http://www.w3.org/1999/xlink" width="316.08pt" height="206.934098pt" viewBox="0 0 316.08 206.934098" xmlns="http://www.w3.org/2000/svg" version="1.1">
 <metadata>
  <rdf:RDF xmlns:dc="http://purl.org/dc/elements/1.1/" xmlns:cc="http://creativecommons.org/ns#" xmlns:rdf="http://www.w3.org/1999/02/22-rdf-syntax-ns#">
   <cc:Work>
    <dc:type rdf:resource="http://purl.org/dc/dcmitype/StillImage"/>
    <dc:date>2024-08-19T02:19:27.886436</dc:date>
    <dc:format>image/svg+xml</dc:format>
    <dc:creator>
     <cc:Agent>
      <dc:title>Matplotlib v3.7.2, https://matplotlib.org/</dc:title>
     </cc:Agent>
    </dc:creator>
   </cc:Work>
  </rdf:RDF>
 </metadata>
 <defs>
  <style type="text/css">*{stroke-linejoin: round; stroke-linecap: butt}</style>
 </defs>
 <g id="figure_1">
  <g id="patch_1">
   <path d="M 0 206.934098 
L 316.08 206.934098 
L 316.08 0 
L 0 0 
L 0 206.934098 
z
" style="fill: none"/>
  </g>
  <g id="axes_1">
   <g id="PathCollection_1">
    <path d="M 16.285286 194.970986 
L 17.72442 194.970986 
L 19.163554 194.970986 
L 20.602688 194.970986 
L 22.041822 194.970986 
L 23.480956 194.970986 
L 24.92009 194.970986 
L 26.359225 194.970986 
L 27.798359 194.970986 
L 29.237493 194.970986 
L 30.676627 194.970986 
L 32.115761 194.970986 
L 33.554895 194.970986 
L 34.99403 194.970986 
L 36.433164 194.970986 
L 37.872298 194.970986 
L 39.311432 194.970986 
L 40.750566 194.970986 
L 42.1897 194.970986 
L 43.628834 194.970986 
L 45.067969 194.970986 
L 46.507103 194.970986 
L 47.946237 194.970986 
L 49.385371 194.970986 
L 50.824505 194.970986 
L 52.263639 194.970986 
L 53.702774 194.970986 
L 55.141908 194.970986 
L 56.581042 194.970986 
L 58.020176 194.970986 
L 59.45931 194.970986 
L 60.898444 194.970986 
L 62.337579 194.970986 
L 63.776713 194.970986 
L 65.215847 194.970986 
L 66.654981 194.970986 
L 68.094115 194.970986 
L 69.533249 194.970986 
L 70.972383 194.970986 
L 72.411518 194.970986 
L 73.850652 194.970986 
L 75.289786 194.970986 
L 76.72892 194.970986 
L 78.168054 194.970986 
L 79.607188 194.970986 
L 81.046323 194.970986 
L 82.485457 194.970986 
L 83.924591 194.970986 
L 85.363725 194.970986 
L 86.802859 194.970986 
L 88.241993 194.970986 
L 89.681128 194.970986 
L 91.120262 194.970986 
L 92.559396 194.970986 
L 93.99853 194.970986 
L 95.437664 194.970986 
L 96.876798 194.970986 
L 98.315932 194.970986 
L 99.755067 194.970986 
L 101.194201 194.970986 
L 102.633335 194.970986 
L 104.072469 194.970986 
L 105.511603 194.970986 
L 106.950737 194.970986 
L 108.389872 194.970986 
L 109.829006 194.970986 
L 111.26814 194.970986 
L 112.707274 194.970986 
L 114.146408 194.970986 
L 115.585542 194.970986 
L 117.024677 194.970986 
L 118.463811 194.970986 
L 119.902945 194.970986 
L 121.342079 194.970986 
L 122.781213 194.970986 
L 124.220347 194.970986 
L 125.659481 194.970986 
L 127.098616 194.970986 
L 128.53775 194.970986 
L 129.976884 194.970986 
L 131.416018 194.970986 
L 132.855152 194.970986 
L 134.294286 194.970986 
L 135.733421 194.970986 
L 137.172555 194.970986 
L 138.611689 194.970986 
L 140.050823 194.970986 
L 141.489957 194.970986 
L 142.929091 194.970986 
L 144.368226 194.970986 
L 145.80736 194.970986 
L 147.246494 194.970986 
L 148.685628 194.970986 
L 150.124762 194.970986 
L 151.563896 194.970986 
L 153.00303 194.970986 
L 154.442165 194.970986 
L 155.881299 194.970986 
L 157.320433 194.970986 
L 158.759567 194.970986 
L 160.198701 194.970986 
L 161.637835 194.970986 
L 163.07697 194.970986 
L 164.516104 194.970986 
L 165.955238 194.970986 
L 167.394372 194.970986 
L 168.833506 194.970986 
L 170.27264 194.970986 
L 171.711774 194.970986 
L 173.150909 194.970986 
L 174.590043 194.970986 
L 176.029177 194.970986 
L 177.468311 194.970986 
L 178.907445 194.970986 
L 180.346579 194.970986 
L 181.785714 194.970986 
L 183.224848 194.970986 
L 184.663982 194.970986 
L 186.103116 194.970986 
L 187.54225 194.970986 
L 188.981384 194.970986 
L 190.420519 194.970986 
L 191.859653 194.970986 
L 193.298787 194.970986 
L 194.737921 194.970986 
L 196.177055 194.970986 
L 197.616189 194.970986 
L 199.055323 194.970986 
L 200.494458 194.970986 
L 201.933592 194.970986 
L 203.372726 194.970986 
L 204.81186 194.970986 
L 206.250994 194.970986 
L 207.690128 194.970986 
L 209.129263 194.970986 
L 210.568397 194.970986 
L 212.007531 194.970986 
L 213.446665 194.970986 
L 214.885799 194.970986 
L 216.324933 194.970986 
L 217.764068 194.970986 
L 219.203202 194.970986 
L 220.642336 194.970986 
L 222.08147 194.970986 
L 223.520604 194.970986 
L 224.959738 194.970986 
L 226.398872 194.970986 
L 227.838007 194.970986 
L 229.277141 194.970986 
L 230.716275 194.970986 
L 232.155409 194.970986 
L 233.594543 194.970986 
L 233.93896 194.970986 
L 233.594543 194.817493 
L 232.155409 194.131689 
L 232.115879 194.111738 
L 230.716275 193.395454 
L 230.452605 193.25249 
L 229.277141 192.604773 
L 228.913091 192.393243 
L 227.838007 191.756966 
L 227.479136 191.533995 
L 226.398872 190.848797 
L 226.136386 190.674747 
L 224.959738 189.876424 
L 224.873497 189.815499 
L 223.683153 188.956252 
L 223.520604 188.836034 
L 222.556714 188.097004 
L 222.08147 187.722104 
L 221.487043 187.237756 
L 220.642336 186.527942 
L 220.469561 186.378508 
L 219.501177 185.519261 
L 219.203202 185.246852 
L 218.57708 184.660013 
L 217.764068 183.869659 
L 217.694714 183.800765 
L 216.850701 182.941517 
L 216.324933 182.385454 
L 216.04335 182.08227 
L 215.270072 181.223022 
L 214.885799 180.780486 
L 214.529074 180.363774 
L 213.818862 179.504526 
L 213.446665 179.03726 
L 213.13776 178.645279 
L 212.484074 177.786031 
L 212.007531 177.132868 
L 211.858255 176.926783 
L 211.255515 176.067535 
L 210.680332 175.208288 
L 210.568397 175.035432 
L 210.125376 174.34904 
L 209.594594 173.489792 
L 209.129263 172.700671 
L 209.087907 172.630544 
L 208.597723 171.771297 
L 208.130854 170.912049 
L 207.690128 170.060025 
L 207.686377 170.052801 
L 207.255643 169.193553 
L 206.846199 168.334306 
L 206.457314 167.475058 
L 206.250994 166.997346 
L 206.084864 166.61581 
L 205.727683 165.756562 
L 205.389508 164.897315 
L 205.069756 164.038067 
L 204.81186 163.305165 
L 204.766848 163.178819 
L 204.475679 162.319571 
L 204.201773 161.460324 
L 203.944666 160.601076 
L 203.703924 159.741828 
L 203.479143 158.88258 
L 203.372726 158.447131 
L 203.267321 158.023333 
L 203.068403 157.164085 
L 202.884771 156.304837 
L 202.716118 155.445589 
L 202.562158 154.586342 
L 202.422632 153.727094 
L 202.297303 152.867846 
L 202.185955 152.008598 
L 202.088393 151.149351 
L 202.004445 150.290103 
L 201.933958 149.430855 
L 201.933592 149.425369 
L 201.875224 148.571607 
L 201.830059 147.71236 
L 201.798375 146.853112 
L 201.780091 145.993864 
L 201.775149 145.134616 
L 201.783507 144.275369 
L 201.805139 143.416121 
L 201.840041 142.556873 
L 201.888222 141.697626 
L 201.933592 141.063268 
L 201.949279 140.838378 
L 202.022107 139.97913 
L 202.107991 139.119882 
L 202.207008 138.260635 
L 202.319253 137.401387 
L 202.444836 136.542139 
L 202.583884 135.682891 
L 202.736539 134.823644 
L 202.902961 133.964396 
L 203.083325 133.105148 
L 203.277822 132.2459 
L 203.372726 131.853823 
L 203.483817 131.386653 
L 203.701645 130.527405 
L 203.933907 129.668157 
L 204.180853 128.808909 
L 204.442749 127.949662 
L 204.719875 127.090414 
L 204.81186 126.818442 
L 205.007933 126.231166 
L 205.309361 125.371918 
L 205.626586 124.512671 
L 205.959941 123.653423 
L 206.250994 122.937124 
L 206.308556 122.794175 
L 206.667614 121.934927 
L 207.043539 121.07568 
L 207.436715 120.216432 
L 207.690128 119.683652 
L 207.844608 119.357184 
L 208.265503 118.497936 
L 208.704541 117.638689 
L 209.129263 116.840346 
L 209.161608 116.779441 
L 209.630397 115.920193 
L 210.118327 115.060945 
L 210.568397 114.297601 
L 210.625037 114.201698 
L 211.145149 113.34245 
L 211.685493 112.483202 
L 212.007531 111.98643 
L 212.243716 111.623954 
L 212.81906 110.764707 
L 213.415804 109.905459 
L 213.446665 109.861855 
L 214.028891 109.046211 
L 214.663829 108.186963 
L 214.885799 107.893316 
L 215.318359 107.327716 
L 215.994271 106.468468 
L 216.324933 106.058054 
L 216.691953 105.60922 
L 217.411919 104.749972 
L 217.764068 104.339118 
L 218.155385 103.890725 
L 218.922807 103.031477 
L 219.203202 102.723437 
L 219.715739 102.172229 
L 220.534357 101.312981 
L 220.642336 101.201106 
L 221.381645 100.453734 
L 222.08147 99.76282 
L 222.256784 99.594486 
L 223.163517 98.735238 
L 223.520604 98.402323 
L 224.103103 97.87599 
L 224.959738 97.115861 
L 225.07539 97.016743 
L 226.087348 96.157495 
L 226.398872 95.896263 
L 227.140004 95.298247 
L 227.838007 94.74215 
L 228.234949 94.438999 
L 229.277141 93.651357 
L 229.376377 93.579752 
L 230.57395 92.720504 
L 230.716275 92.618956 
L 231.833371 91.861256 
L 232.155409 91.643963 
L 233.160782 91.002008 
L 233.594543 90.725881 
L 234.567279 90.142761 
L 235.033677 89.863412 
L 236.067348 89.283513 
L 236.472812 89.055749 
L 237.68007 88.424265 
L 237.911946 88.302559 
L 239.35108 87.603074 
L 239.436081 87.565017 
L 240.790214 86.954503 
L 241.396055 86.70577 
L 242.229348 86.360534 
L 243.605102 85.846522 
L 243.668482 85.822575 
L 245.107617 85.333497 
L 246.265763 84.987274 
L 246.546751 84.902035 
L 247.985885 84.520996 
L 249.425019 84.197766 
L 249.799298 84.128026 
L 250.864153 83.925705 
L 252.303287 83.708564 
L 253.742421 83.547293 
L 255.181556 83.441213 
L 256.62069 83.389881 
L 258.059824 83.393082 
L 259.498958 83.450829 
L 260.938092 83.563364 
L 262.377226 83.731158 
L 263.816361 83.954916 
L 264.706398 84.128026 
L 265.255495 84.232781 
L 266.694629 84.562723 
L 268.133763 84.95065 
L 268.252745 84.987274 
L 269.572897 85.387794 
L 270.904548 85.846522 
L 271.012031 85.883092 
L 272.451166 86.427685 
L 273.115326 86.70577 
L 273.8903 87.027375 
L 275.071331 87.565017 
L 275.329434 87.681718 
L 276.768568 88.389015 
L 276.835176 88.424265 
L 278.207702 89.148255 
L 278.446648 89.283513 
L 279.646836 89.962123 
L 279.946278 90.142761 
L 281.08597 90.830987 
L 281.35283 91.002008 
L 282.525105 91.755692 
L 282.680575 91.861256 
L 283.939777 92.720504 
L 283.964239 92.737254 
L 285.134546 93.579752 
L 285.403373 93.774913 
L 286.27719 94.438999 
L 286.842507 94.873225 
L 287.373188 95.298247 
L 288.281641 96.035255 
L 288.426692 96.157495 
L 289.437156 97.016743 
L 289.720775 97.261061 
L 290.410541 97.87599 
L 291.15991 98.556379 
L 291.350911 98.735238 
L 292.257087 99.594486 
L 292.599044 99.924326 
L 293.133063 100.453734 
L 293.98061 101.312981 
L 294.038178 101.372045 
L 294.799601 102.172229 
L 295.477312 102.904004 
L 295.592925 103.031477 
L 296.360816 103.890725 
L 296.916446 104.529784 
L 297.104538 104.749972 
L 297.825237 105.60922 
L 298.35558 106.260039 
L 298.522988 106.468468 
L 299.199862 107.327716 
L 299.794714 108.108005 
L 299.854232 108.186963 
L 300.490334 109.046211 
L 301.10427 109.905459 
L 301.233849 110.090872 
L 301.233849 109.905459 
L 301.233849 109.046211 
L 301.233849 108.186963 
L 301.233849 107.327716 
L 301.233849 106.468468 
L 301.233849 105.60922 
L 301.233849 104.749972 
L 301.233849 103.890725 
L 301.233849 103.031477 
L 301.233849 102.172229 
L 301.233849 101.312981 
L 301.233849 100.453734 
L 301.233849 99.594486 
L 301.233849 98.735238 
L 301.233849 97.87599 
L 301.233849 97.016743 
L 301.233849 96.157495 
L 301.233849 95.298247 
L 301.233849 94.438999 
L 301.233849 93.579752 
L 301.233849 92.720504 
L 301.233849 91.861256 
L 301.233849 91.002008 
L 301.233849 90.142761 
L 301.233849 89.283513 
L 301.233849 88.424265 
L 301.233849 87.565017 
L 301.233849 86.70577 
L 301.233849 85.846522 
L 301.233849 84.987274 
L 301.233849 84.128026 
L 301.233849 83.268779 
L 301.233849 82.409531 
L 301.233849 81.550283 
L 301.233849 80.691035 
L 301.233849 79.831788 
L 301.233849 78.97254 
L 301.233849 78.113292 
L 301.233849 77.254044 
L 301.233849 76.394797 
L 301.233849 75.535549 
L 301.233849 74.676301 
L 301.233849 73.817054 
L 301.233849 72.957806 
L 301.233849 72.098558 
L 301.233849 71.23931 
L 301.233849 70.380063 
L 301.233849 69.520815 
L 301.233849 68.661567 
L 301.233849 67.802319 
L 301.233849 66.943072 
L 301.233849 66.083824 
L 301.233849 65.224576 
L 301.233849 64.365328 
L 301.233849 63.506081 
L 301.233849 62.646833 
L 301.233849 61.787585 
L 301.233849 60.928337 
L 301.233849 60.06909 
L 301.233849 59.209842 
L 301.233849 58.350594 
L 301.233849 57.491346 
L 301.233849 56.632099 
L 301.233849 55.772851 
L 301.233849 54.913603 
L 301.233849 54.054355 
L 301.233849 53.195108 
L 301.233849 52.33586 
L 301.233849 51.476612 
L 301.233849 50.617364 
L 301.233849 49.758117 
L 301.233849 48.898869 
L 301.233849 48.039621 
L 301.233849 47.180373 
L 301.233849 46.321126 
L 301.233849 45.461878 
L 301.233849 44.60263 
L 301.233849 43.743382 
L 301.233849 42.884135 
L 301.233849 42.024887 
L 301.233849 41.165639 
L 301.233849 40.306391 
L 301.233849 39.447144 
L 301.233849 38.587896 
L 301.233849 37.728648 
L 301.233849 36.8694 
L 301.233849 36.010153 
L 301.233849 35.150905 
L 301.233849 34.291657 
L 301.233849 33.432409 
L 301.233849 32.573162 
L 301.233849 31.713914 
L 301.233849 30.854666 
L 301.233849 29.995418 
L 301.233849 29.136171 
L 301.233849 28.276923 
L 301.233849 27.417675 
L 301.233849 26.558427 
L 301.233849 25.69918 
L 301.233849 24.839932 
L 299.794714 24.839932 
L 298.35558 24.839932 
L 296.916446 24.839932 
L 295.477312 24.839932 
L 294.038178 24.839932 
L 292.599044 24.839932 
L 291.15991 24.839932 
L 289.720775 24.839932 
L 288.281641 24.839932 
L 286.842507 24.839932 
L 285.403373 24.839932 
L 283.964239 24.839932 
L 282.525105 24.839932 
L 281.08597 24.839932 
L 279.646836 24.839932 
L 278.207702 24.839932 
L 276.768568 24.839932 
L 275.329434 24.839932 
L 273.8903 24.839932 
L 272.451166 24.839932 
L 271.012031 24.839932 
L 269.572897 24.839932 
L 268.133763 24.839932 
L 266.694629 24.839932 
L 265.255495 24.839932 
L 263.816361 24.839932 
L 262.377226 24.839932 
L 260.938092 24.839932 
L 259.498958 24.839932 
L 258.059824 24.839932 
L 256.62069 24.839932 
L 255.181556 24.839932 
L 253.742421 24.839932 
L 252.303287 24.839932 
L 250.864153 24.839932 
L 249.425019 24.839932 
L 247.985885 24.839932 
L 246.546751 24.839932 
L 245.107617 24.839932 
L 243.668482 24.839932 
L 242.229348 24.839932 
L 240.790214 24.839932 
L 239.35108 24.839932 
L 237.911946 24.839932 
L 236.472812 24.839932 
L 235.033677 24.839932 
L 233.594543 24.839932 
L 232.155409 24.839932 
L 230.716275 24.839932 
L 229.277141 24.839932 
L 227.838007 24.839932 
L 226.398872 24.839932 
L 224.959738 24.839932 
L 223.520604 24.839932 
L 222.08147 24.839932 
L 220.642336 24.839932 
L 219.203202 24.839932 
L 217.764068 24.839932 
L 216.324933 24.839932 
L 214.885799 24.839932 
L 213.446665 24.839932 
L 212.007531 24.839932 
L 210.568397 24.839932 
L 209.129263 24.839932 
L 207.690128 24.839932 
L 206.250994 24.839932 
L 204.81186 24.839932 
L 203.372726 24.839932 
L 201.933592 24.839932 
L 200.494458 24.839932 
L 199.055323 24.839932 
L 197.616189 24.839932 
L 196.177055 24.839932 
L 194.737921 24.839932 
L 193.298787 24.839932 
L 191.859653 24.839932 
L 190.420519 24.839932 
L 188.981384 24.839932 
L 187.54225 24.839932 
L 186.103116 24.839932 
L 184.663982 24.839932 
L 183.224848 24.839932 
L 181.785714 24.839932 
L 180.346579 24.839932 
L 178.907445 24.839932 
L 177.468311 24.839932 
L 176.029177 24.839932 
L 174.590043 24.839932 
L 173.150909 24.839932 
L 171.711774 24.839932 
L 170.27264 24.839932 
L 168.833506 24.839932 
L 167.394372 24.839932 
L 165.955238 24.839932 
L 164.516104 24.839932 
L 163.07697 24.839932 
L 161.637835 24.839932 
L 160.198701 24.839932 
L 158.759567 24.839932 
L 157.320433 24.839932 
L 155.881299 24.839932 
L 154.442165 24.839932 
L 153.00303 24.839932 
L 151.563896 24.839932 
L 150.124762 24.839932 
L 148.685628 24.839932 
L 147.246494 24.839932 
L 145.80736 24.839932 
L 144.368226 24.839932 
L 142.929091 24.839932 
L 141.489957 24.839932 
L 140.050823 24.839932 
L 138.611689 24.839932 
L 137.172555 24.839932 
L 135.733421 24.839932 
L 134.294286 24.839932 
L 132.855152 24.839932 
L 131.416018 24.839932 
L 129.976884 24.839932 
L 128.53775 24.839932 
L 127.098616 24.839932 
L 125.659481 24.839932 
L 124.220347 24.839932 
L 122.781213 24.839932 
L 121.342079 24.839932 
L 119.902945 24.839932 
L 118.463811 24.839932 
L 117.024677 24.839932 
L 115.585542 24.839932 
L 114.146408 24.839932 
L 112.707274 24.839932 
L 111.26814 24.839932 
L 109.829006 24.839932 
L 108.389872 24.839932 
L 106.950737 24.839932 
L 105.511603 24.839932 
L 104.072469 24.839932 
L 102.633335 24.839932 
L 101.194201 24.839932 
L 99.755067 24.839932 
L 98.315932 24.839932 
L 96.876798 24.839932 
L 95.437664 24.839932 
L 93.99853 24.839932 
L 92.559396 24.839932 
L 91.120262 24.839932 
L 89.681128 24.839932 
L 88.241993 24.839932 
L 86.802859 24.839932 
L 85.363725 24.839932 
L 83.924591 24.839932 
L 82.485457 24.839932 
L 81.046323 24.839932 
L 79.607188 24.839932 
L 78.168054 24.839932 
L 76.72892 24.839932 
L 75.289786 24.839932 
L 73.850652 24.839932 
L 72.411518 24.839932 
L 70.972383 24.839932 
L 69.533249 24.839932 
L 68.094115 24.839932 
L 66.654981 24.839932 
L 65.215847 24.839932 
L 63.776713 24.839932 
L 62.337579 24.839932 
L 60.898444 24.839932 
L 59.45931 24.839932 
L 58.020176 24.839932 
L 56.581042 24.839932 
L 55.141908 24.839932 
L 53.702774 24.839932 
L 52.263639 24.839932 
L 50.824505 24.839932 
L 49.385371 24.839932 
L 47.946237 24.839932 
L 46.507103 24.839932 
L 45.067969 24.839932 
L 43.628834 24.839932 
L 42.1897 24.839932 
L 40.750566 24.839932 
L 39.311432 24.839932 
L 37.872298 24.839932 
L 36.433164 24.839932 
L 34.99403 24.839932 
L 33.554895 24.839932 
L 32.115761 24.839932 
L 30.676627 24.839932 
L 29.237493 24.839932 
L 27.798359 24.839932 
L 26.359225 24.839932 
L 24.92009 24.839932 
L 23.480956 24.839932 
L 22.041822 24.839932 
L 20.602688 24.839932 
L 19.163554 24.839932 
L 17.72442 24.839932 
L 16.285286 24.839932 
L 14.846151 24.839932 
L 14.846151 25.69918 
L 14.846151 26.558427 
L 14.846151 27.417675 
L 14.846151 28.276923 
L 14.846151 29.136171 
L 14.846151 29.995418 
L 14.846151 30.854666 
L 14.846151 31.713914 
L 14.846151 32.573162 
L 14.846151 33.432409 
L 14.846151 34.291657 
L 14.846151 35.150905 
L 14.846151 36.010153 
L 14.846151 36.8694 
L 14.846151 37.728648 
L 14.846151 38.587896 
L 14.846151 39.447144 
L 14.846151 40.306391 
L 14.846151 41.165639 
L 14.846151 42.024887 
L 14.846151 42.884135 
L 14.846151 43.743382 
L 14.846151 44.60263 
L 14.846151 45.461878 
L 14.846151 46.321126 
L 14.846151 47.180373 
L 14.846151 48.039621 
L 14.846151 48.898869 
L 14.846151 49.758117 
L 14.846151 50.617364 
L 14.846151 51.476612 
L 14.846151 52.33586 
L 14.846151 53.195108 
L 14.846151 54.054355 
L 14.846151 54.913603 
L 14.846151 55.772851 
L 14.846151 56.632099 
L 14.846151 57.491346 
L 14.846151 58.350594 
L 14.846151 59.209842 
L 14.846151 60.06909 
L 14.846151 60.928337 
L 14.846151 61.787585 
L 14.846151 62.646833 
L 14.846151 63.506081 
L 14.846151 64.365328 
L 14.846151 65.224576 
L 14.846151 66.083824 
L 14.846151 66.943072 
L 14.846151 67.802319 
L 14.846151 68.661567 
L 14.846151 69.520815 
L 14.846151 70.380063 
L 14.846151 71.23931 
L 14.846151 72.098558 
L 14.846151 72.957806 
L 14.846151 73.817054 
L 14.846151 74.676301 
L 14.846151 75.535549 
L 14.846151 76.394797 
L 14.846151 77.254044 
L 14.846151 78.113292 
L 14.846151 78.97254 
L 14.846151 79.831788 
L 14.846151 80.691035 
L 14.846151 81.550283 
L 14.846151 82.409531 
L 14.846151 83.268779 
L 14.846151 84.128026 
L 14.846151 84.987274 
L 14.846151 85.846522 
L 14.846151 86.70577 
L 14.846151 87.565017 
L 14.846151 88.424265 
L 14.846151 89.283513 
L 14.846151 90.142761 
L 14.846151 91.002008 
L 14.846151 91.861256 
L 14.846151 92.720504 
L 14.846151 93.579752 
L 14.846151 94.438999 
L 14.846151 95.298247 
L 14.846151 96.157495 
L 14.846151 97.016743 
L 14.846151 97.87599 
L 14.846151 98.735238 
L 14.846151 99.594486 
L 14.846151 100.453734 
L 14.846151 101.312981 
L 14.846151 102.172229 
L 14.846151 103.031477 
L 14.846151 103.890725 
L 14.846151 104.749972 
L 14.846151 105.60922 
L 14.846151 106.468468 
L 14.846151 107.327716 
L 14.846151 108.186963 
L 14.846151 109.046211 
L 14.846151 109.905459 
L 14.846151 110.764707 
L 14.846151 111.623954 
L 14.846151 112.483202 
L 14.846151 113.34245 
L 14.846151 114.201698 
L 14.846151 115.060945 
L 14.846151 115.920193 
L 14.846151 116.779441 
L 14.846151 117.638689 
L 14.846151 118.497936 
L 14.846151 119.357184 
L 14.846151 120.216432 
L 14.846151 121.07568 
L 14.846151 121.934927 
L 14.846151 122.794175 
L 14.846151 123.653423 
L 14.846151 124.512671 
L 14.846151 125.371918 
L 14.846151 126.231166 
L 14.846151 127.090414 
L 14.846151 127.949662 
L 14.846151 128.808909 
L 14.846151 129.668157 
L 14.846151 130.527405 
L 14.846151 131.386653 
L 14.846151 132.2459 
L 14.846151 133.105148 
L 14.846151 133.964396 
L 14.846151 134.823644 
L 14.846151 135.682891 
L 14.846151 136.542139 
L 14.846151 137.401387 
L 14.846151 138.260635 
L 14.846151 139.119882 
L 14.846151 139.97913 
L 14.846151 140.838378 
L 14.846151 141.697626 
L 14.846151 142.556873 
L 14.846151 143.416121 
L 14.846151 144.275369 
L 14.846151 145.134616 
L 14.846151 145.993864 
L 14.846151 146.853112 
L 14.846151 147.71236 
L 14.846151 148.571607 
L 14.846151 149.430855 
L 14.846151 150.290103 
L 14.846151 151.149351 
L 14.846151 152.008598 
L 14.846151 152.867846 
L 14.846151 153.727094 
L 14.846151 154.586342 
L 14.846151 155.445589 
L 14.846151 156.304837 
L 14.846151 157.164085 
L 14.846151 158.023333 
L 14.846151 158.88258 
L 14.846151 159.741828 
L 14.846151 160.601076 
L 14.846151 161.460324 
L 14.846151 162.319571 
L 14.846151 163.178819 
L 14.846151 164.038067 
L 14.846151 164.897315 
L 14.846151 165.756562 
L 14.846151 166.61581 
L 14.846151 167.475058 
L 14.846151 168.334306 
L 14.846151 169.193553 
L 14.846151 170.052801 
L 14.846151 170.912049 
L 14.846151 171.771297 
L 14.846151 172.630544 
L 14.846151 173.489792 
L 14.846151 174.34904 
L 14.846151 175.208288 
L 14.846151 176.067535 
L 14.846151 176.926783 
L 14.846151 177.786031 
L 14.846151 178.645279 
L 14.846151 179.504526 
L 14.846151 180.363774 
L 14.846151 181.223022 
L 14.846151 182.08227 
L 14.846151 182.941517 
L 14.846151 183.800765 
L 14.846151 184.660013 
L 14.846151 185.519261 
L 14.846151 186.378508 
L 14.846151 187.237756 
L 14.846151 188.097004 
L 14.846151 188.956252 
L 14.846151 189.815499 
L 14.846151 190.674747 
L 14.846151 191.533995 
L 14.846151 192.393243 
L 14.846151 193.25249 
L 14.846151 194.111738 
L 14.846151 194.970986 
z
" clip-path="url(#p33e40e865b)" style="fill: #460a5d"/>
    <path d="M 281.08597 194.970986 
L 282.525105 194.970986 
L 283.964239 194.970986 
L 285.403373 194.970986 
L 286.842507 194.970986 
L 288.281641 194.970986 
L 289.720775 194.970986 
L 291.15991 194.970986 
L 292.599044 194.970986 
L 294.038178 194.970986 
L 295.477312 194.970986 
L 296.916446 194.970986 
L 298.35558 194.970986 
L 299.794714 194.970986 
L 301.233849 194.970986 
L 301.233849 194.111738 
L 301.233849 193.25249 
L 301.233849 192.393243 
L 301.233849 191.533995 
L 301.233849 190.674747 
L 301.233849 189.815499 
L 301.233849 188.956252 
L 301.233849 188.097004 
L 301.233849 187.237756 
L 301.233849 186.378508 
L 301.233849 185.519261 
L 301.233849 184.660013 
L 301.233849 183.800765 
L 301.233849 182.941517 
L 301.233849 182.08227 
L 301.233849 181.223022 
L 301.233849 180.363774 
L 301.233849 179.504526 
L 301.233849 178.863142 
L 300.723774 179.504526 
L 300.011756 180.363774 
L 299.794714 180.617664 
L 299.270015 181.223022 
L 298.495001 182.08227 
L 298.35558 182.232629 
L 297.686697 182.941517 
L 296.916446 183.725729 
L 296.841209 183.800765 
L 295.957603 184.660013 
L 295.477312 185.111149 
L 295.032067 185.519261 
L 294.062526 186.378508 
L 294.038178 186.399619 
L 293.043645 187.237756 
L 292.599044 187.60102 
L 291.972328 188.097004 
L 291.15991 188.721812 
L 290.844042 188.956252 
L 289.720775 189.768307 
L 289.652877 189.815499 
L 288.38946 190.674747 
L 288.281641 190.746505 
L 287.045344 191.533995 
L 286.842507 191.660535 
L 285.610182 192.393243 
L 285.403373 192.513945 
L 284.069782 193.25249 
L 283.964239 193.309995 
L 282.525105 194.052056 
L 282.402237 194.111738 
L 281.08597 194.743059 
L 280.577827 194.970986 
z
" clip-path="url(#p33e40e865b)" style="fill: #460a5d"/>
   </g>
   <g id="PathCollection_2">
    <path d="M 232.155409 194.131689 
L 233.594543 194.817493 
L 233.93896 194.970986 
L 235.033677 194.970986 
L 236.472812 194.970986 
L 237.911946 194.970986 
L 239.35108 194.970986 
L 240.790214 194.970986 
L 242.229348 194.970986 
L 243.668482 194.970986 
L 245.107617 194.970986 
L 246.546751 194.970986 
L 247.985885 194.970986 
L 249.425019 194.970986 
L 250.864153 194.970986 
L 252.303287 194.970986 
L 253.742421 194.970986 
L 255.181556 194.970986 
L 256.62069 194.970986 
L 258.059824 194.970986 
L 259.498958 194.970986 
L 260.938092 194.970986 
L 262.377226 194.970986 
L 263.816361 194.970986 
L 265.255495 194.970986 
L 266.694629 194.970986 
L 268.133763 194.970986 
L 269.572897 194.970986 
L 271.012031 194.970986 
L 272.451166 194.970986 
L 273.8903 194.970986 
L 275.329434 194.970986 
L 276.768568 194.970986 
L 278.207702 194.970986 
L 279.646836 194.970986 
L 280.577827 194.970986 
L 281.08597 194.743059 
L 282.402237 194.111738 
L 282.525105 194.052056 
L 283.964239 193.309995 
L 284.069782 193.25249 
L 285.403373 192.513945 
L 285.610182 192.393243 
L 286.842507 191.660535 
L 287.045344 191.533995 
L 288.281641 190.746505 
L 288.38946 190.674747 
L 289.652877 189.815499 
L 289.720775 189.768307 
L 290.844042 188.956252 
L 291.15991 188.721812 
L 291.972328 188.097004 
L 292.599044 187.60102 
L 293.043645 187.237756 
L 294.038178 186.399619 
L 294.062526 186.378508 
L 295.032067 185.519261 
L 295.477312 185.111149 
L 295.957603 184.660013 
L 296.841209 183.800765 
L 296.916446 183.725729 
L 297.686697 182.941517 
L 298.35558 182.232629 
L 298.495001 182.08227 
L 299.270015 181.223022 
L 299.794714 180.617664 
L 300.011756 180.363774 
L 300.723774 179.504526 
L 301.233849 178.863142 
L 301.233849 178.645279 
L 301.233849 177.786031 
L 301.233849 176.926783 
L 301.233849 176.067535 
L 301.233849 175.208288 
L 301.233849 174.34904 
L 301.233849 173.489792 
L 301.233849 172.630544 
L 301.233849 171.771297 
L 301.233849 170.912049 
L 301.233849 170.052801 
L 301.233849 169.193553 
L 301.233849 168.334306 
L 301.233849 167.475058 
L 301.233849 166.61581 
L 301.233849 165.756562 
L 301.233849 164.897315 
L 301.233849 164.038067 
L 301.233849 163.178819 
L 301.233849 162.319571 
L 301.233849 161.460324 
L 301.233849 160.601076 
L 301.233849 159.741828 
L 301.233849 158.88258 
L 301.233849 158.023333 
L 301.233849 157.164085 
L 301.233849 156.304837 
L 301.233849 155.445589 
L 301.233849 154.586342 
L 301.233849 153.727094 
L 301.233849 152.867846 
L 301.233849 152.008598 
L 301.233849 151.149351 
L 301.233849 150.290103 
L 301.233849 149.430855 
L 301.233849 148.571607 
L 301.233849 147.71236 
L 301.233849 146.853112 
L 301.233849 145.993864 
L 301.233849 145.134616 
L 301.233849 144.275369 
L 301.233849 143.416121 
L 301.233849 142.556873 
L 301.233849 141.697626 
L 301.233849 140.838378 
L 301.233849 139.97913 
L 301.233849 139.119882 
L 301.233849 138.260635 
L 301.233849 137.401387 
L 301.233849 136.542139 
L 301.233849 135.682891 
L 301.233849 134.823644 
L 301.233849 133.964396 
L 301.233849 133.105148 
L 301.233849 132.2459 
L 301.233849 131.386653 
L 301.233849 130.527405 
L 301.233849 129.668157 
L 301.233849 128.808909 
L 301.233849 127.949662 
L 301.233849 127.090414 
L 301.233849 126.231166 
L 301.233849 125.371918 
L 301.233849 124.512671 
L 301.233849 123.653423 
L 301.233849 122.794175 
L 301.233849 121.934927 
L 301.233849 121.07568 
L 301.233849 120.216432 
L 301.233849 119.357184 
L 301.233849 118.497936 
L 301.233849 117.638689 
L 301.233849 116.779441 
L 301.233849 115.920193 
L 301.233849 115.060945 
L 301.233849 114.201698 
L 301.233849 113.34245 
L 301.233849 112.483202 
L 301.233849 111.623954 
L 301.233849 110.764707 
L 301.233849 110.090872 
L 301.10427 109.905459 
L 300.490334 109.046211 
L 299.854232 108.186963 
L 299.794714 108.108005 
L 299.199862 107.327716 
L 298.522988 106.468468 
L 298.35558 106.260039 
L 297.825237 105.60922 
L 297.104538 104.749972 
L 296.916446 104.529784 
L 296.360816 103.890725 
L 295.592925 103.031477 
L 295.477312 102.904004 
L 294.799601 102.172229 
L 294.038178 101.372045 
L 293.98061 101.312981 
L 293.133063 100.453734 
L 292.599044 99.924326 
L 292.257087 99.594486 
L 291.350911 98.735238 
L 291.15991 98.556379 
L 290.410541 97.87599 
L 289.720775 97.261061 
L 289.437156 97.016743 
L 288.426692 96.157495 
L 288.281641 96.035255 
L 287.373188 95.298247 
L 286.842507 94.873225 
L 286.27719 94.438999 
L 285.403373 93.774913 
L 285.134546 93.579752 
L 283.964239 92.737254 
L 283.939777 92.720504 
L 282.680575 91.861256 
L 282.525105 91.755692 
L 281.35283 91.002008 
L 281.08597 90.830987 
L 279.946278 90.142761 
L 279.646836 89.962123 
L 278.446648 89.283513 
L 278.207702 89.148255 
L 276.835176 88.424265 
L 276.768568 88.389015 
L 275.329434 87.681718 
L 275.071331 87.565017 
L 273.8903 87.027375 
L 273.115326 86.70577 
L 272.451166 86.427685 
L 271.012031 85.883092 
L 270.904548 85.846522 
L 269.572897 85.387794 
L 268.252745 84.987274 
L 268.133763 84.95065 
L 266.694629 84.562723 
L 265.255495 84.232781 
L 264.706398 84.128026 
L 263.816361 83.954916 
L 262.377226 83.731158 
L 260.938092 83.563364 
L 259.498958 83.450829 
L 258.059824 83.393082 
L 256.62069 83.389881 
L 255.181556 83.441213 
L 253.742421 83.547293 
L 252.303287 83.708564 
L 250.864153 83.925705 
L 249.799298 84.128026 
L 249.425019 84.197766 
L 247.985885 84.520996 
L 246.546751 84.902035 
L 246.265763 84.987274 
L 245.107617 85.333497 
L 243.668482 85.822575 
L 243.605102 85.846522 
L 242.229348 86.360534 
L 241.396055 86.70577 
L 240.790214 86.954503 
L 239.436081 87.565017 
L 239.35108 87.603074 
L 237.911946 88.302559 
L 237.68007 88.424265 
L 236.472812 89.055749 
L 236.067348 89.283513 
L 235.033677 89.863412 
L 234.567279 90.142761 
L 233.594543 90.725881 
L 233.160782 91.002008 
L 232.155409 91.643963 
L 231.833371 91.861256 
L 230.716275 92.618956 
L 230.57395 92.720504 
L 229.376377 93.579752 
L 229.277141 93.651357 
L 228.234949 94.438999 
L 227.838007 94.74215 
L 227.140004 95.298247 
L 226.398872 95.896263 
L 226.087348 96.157495 
L 225.07539 97.016743 
L 224.959738 97.115861 
L 224.103103 97.87599 
L 223.520604 98.402323 
L 223.163517 98.735238 
L 222.256784 99.594486 
L 222.08147 99.76282 
L 221.381645 100.453734 
L 220.642336 101.201106 
L 220.534357 101.312981 
L 219.715739 102.172229 
L 219.203202 102.723437 
L 218.922807 103.031477 
L 218.155385 103.890725 
L 217.764068 104.339118 
L 217.411919 104.749972 
L 216.691953 105.60922 
L 216.324933 106.058054 
L 215.994271 106.468468 
L 215.318359 107.327716 
L 214.885799 107.893316 
L 214.663829 108.186963 
L 214.028891 109.046211 
L 213.446665 109.861855 
L 213.415804 109.905459 
L 212.81906 110.764707 
L 212.243716 111.623954 
L 212.007531 111.98643 
L 211.685493 112.483202 
L 211.145149 113.34245 
L 210.625037 114.201698 
L 210.568397 114.297601 
L 210.118327 115.060945 
L 209.630397 115.920193 
L 209.161608 116.779441 
L 209.129263 116.840346 
L 208.704541 117.638689 
L 208.265503 118.497936 
L 207.844608 119.357184 
L 207.690128 119.683652 
L 207.436715 120.216432 
L 207.043539 121.07568 
L 206.667614 121.934927 
L 206.308556 122.794175 
L 206.250994 122.937124 
L 205.959941 123.653423 
L 205.626586 124.512671 
L 205.309361 125.371918 
L 205.007933 126.231166 
L 204.81186 126.818442 
L 204.719875 127.090414 
L 204.442749 127.949662 
L 204.180853 128.808909 
L 203.933907 129.668157 
L 203.701645 130.527405 
L 203.483817 131.386653 
L 203.372726 131.853823 
L 203.277822 132.2459 
L 203.083325 133.105148 
L 202.902961 133.964396 
L 202.736539 134.823644 
L 202.583884 135.682891 
L 202.444836 136.542139 
L 202.319253 137.401387 
L 202.207008 138.260635 
L 202.107991 139.119882 
L 202.022107 139.97913 
L 201.949279 140.838378 
L 201.933592 141.063268 
L 201.888222 141.697626 
L 201.840041 142.556873 
L 201.805139 143.416121 
L 201.783507 144.275369 
L 201.775149 145.134616 
L 201.780091 145.993864 
L 201.798375 146.853112 
L 201.830059 147.71236 
L 201.875224 148.571607 
L 201.933592 149.425369 
L 201.933958 149.430855 
L 202.004445 150.290103 
L 202.088393 151.149351 
L 202.185955 152.008598 
L 202.297303 152.867846 
L 202.422632 153.727094 
L 202.562158 154.586342 
L 202.716118 155.445589 
L 202.884771 156.304837 
L 203.068403 157.164085 
L 203.267321 158.023333 
L 203.372726 158.447131 
L 203.479143 158.88258 
L 203.703924 159.741828 
L 203.944666 160.601076 
L 204.201773 161.460324 
L 204.475679 162.319571 
L 204.766848 163.178819 
L 204.81186 163.305165 
L 205.069756 164.038067 
L 205.389508 164.897315 
L 205.727683 165.756562 
L 206.084864 166.61581 
L 206.250994 166.997346 
L 206.457314 167.475058 
L 206.846199 168.334306 
L 207.255643 169.193553 
L 207.686377 170.052801 
L 207.690128 170.060025 
L 208.130854 170.912049 
L 208.597723 171.771297 
L 209.087907 172.630544 
L 209.129263 172.700671 
L 209.594594 173.489792 
L 210.125376 174.34904 
L 210.568397 175.035432 
L 210.680332 175.208288 
L 211.255515 176.067535 
L 211.858255 176.926783 
L 212.007531 177.132868 
L 212.484074 177.786031 
L 213.13776 178.645279 
L 213.446665 179.03726 
L 213.818862 179.504526 
L 214.529074 180.363774 
L 214.885799 180.780486 
L 215.270072 181.223022 
L 216.04335 182.08227 
L 216.324933 182.385454 
L 216.850701 182.941517 
L 217.694714 183.800765 
L 217.764068 183.869659 
L 218.57708 184.660013 
L 219.203202 185.246852 
L 219.501177 185.519261 
L 220.469561 186.378508 
L 220.642336 186.527942 
L 221.487043 187.237756 
L 222.08147 187.722104 
L 222.556714 188.097004 
L 223.520604 188.836034 
L 223.683153 188.956252 
L 224.873497 189.815499 
L 224.959738 189.876424 
L 226.136386 190.674747 
L 226.398872 190.848797 
L 227.479136 191.533995 
L 227.838007 191.756966 
L 228.913091 192.393243 
L 229.277141 192.604773 
L 230.452605 193.25249 
L 230.716275 193.395454 
L 232.115879 194.111738 
z
M 255.97554 176.926783 
L 255.181556 176.893553 
L 253.742421 176.769079 
L 252.303287 176.579802 
L 250.864153 176.324926 
L 249.710603 176.067535 
L 249.425019 176.002704 
L 247.985885 175.609045 
L 246.741494 175.208288 
L 246.546751 175.144215 
L 245.107617 174.601395 
L 244.516034 174.34904 
L 243.668482 173.978143 
L 242.668642 173.489792 
L 242.229348 173.269056 
L 241.076994 172.630544 
L 240.790214 172.466599 
L 239.675835 171.771297 
L 239.35108 171.561625 
L 238.420956 170.912049 
L 237.911946 170.543102 
L 237.281643 170.052801 
L 236.472812 169.397776 
L 236.236166 169.193553 
L 235.2794 168.334306 
L 235.033677 168.104184 
L 234.3989 167.475058 
L 233.594543 166.638111 
L 233.574172 166.61581 
L 232.820939 165.756562 
L 232.155409 164.955215 
L 232.109433 164.897315 
L 231.457281 164.038067 
L 230.841668 163.178819 
L 230.716275 162.99458 
L 230.274369 162.319571 
L 229.744122 161.460324 
L 229.277141 160.654467 
L 229.247225 160.601076 
L 228.792603 159.741828 
L 228.368209 158.88258 
L 227.973325 158.023333 
L 227.838007 157.707117 
L 227.611974 157.164085 
L 227.281025 156.304837 
L 226.977167 155.445589 
L 226.699885 154.586342 
L 226.448706 153.727094 
L 226.398872 153.537899 
L 226.226135 152.867846 
L 226.029253 152.008598 
L 225.856881 151.149351 
L 225.708708 150.290103 
L 225.58446 149.430855 
L 225.483899 148.571607 
L 225.406821 147.71236 
L 225.353053 146.853112 
L 225.322458 145.993864 
L 225.31493 145.134616 
L 225.330396 144.275369 
L 225.368811 143.416121 
L 225.430165 142.556873 
L 225.514475 141.697626 
L 225.621789 140.838378 
L 225.752186 139.97913 
L 225.905774 139.119882 
L 226.082689 138.260635 
L 226.283097 137.401387 
L 226.398872 136.956466 
L 226.509035 136.542139 
L 226.76126 135.682891 
L 227.03806 134.823644 
L 227.339724 133.964396 
L 227.666566 133.105148 
L 227.838007 132.685577 
L 228.022684 132.2459 
L 228.40879 131.386653 
L 228.821743 130.527405 
L 229.261985 129.668157 
L 229.277141 129.640091 
L 229.741184 128.808909 
L 230.249717 127.949662 
L 230.716275 127.203602 
L 230.789828 127.090414 
L 231.37443 126.231166 
L 231.990603 125.371918 
L 232.155409 125.151709 
L 232.655281 124.512671 
L 233.359524 123.653423 
L 233.594543 123.377928 
L 234.118034 122.794175 
L 234.922543 121.934927 
L 235.033677 121.820284 
L 235.79715 121.07568 
L 236.472812 120.442311 
L 236.729291 120.216432 
L 237.738817 119.357184 
L 237.911946 119.214363 
L 238.84316 118.497936 
L 239.35108 118.119378 
L 240.048034 117.638689 
L 240.790214 117.141334 
L 241.378965 116.779441 
L 242.229348 116.270092 
L 242.872725 115.920193 
L 243.668482 115.497289 
L 244.583602 115.060945 
L 245.107617 114.816102 
L 246.546751 114.221179 
L 246.600727 114.201698 
L 247.985885 113.709753 
L 249.203121 113.34245 
L 249.425019 113.276386 
L 250.864153 112.920269 
L 252.303287 112.638 
L 253.364953 112.483202 
L 253.742421 112.428603 
L 255.181556 112.291305 
L 256.62069 112.224929 
L 258.059824 112.229195 
L 259.498958 112.304121 
L 260.938092 112.450019 
L 261.158472 112.483202 
L 262.377226 112.66822 
L 263.816361 112.95933 
L 265.255495 113.324445 
L 265.314775 113.34245 
L 266.694629 113.767299 
L 267.897025 114.201698 
L 268.133763 114.288632 
L 269.572897 114.893359 
L 269.926856 115.060945 
L 271.012031 115.585348 
L 271.634667 115.920193 
L 272.451166 116.369614 
L 273.128085 116.779441 
L 273.8903 117.253092 
L 274.4601 117.638689 
L 275.329434 118.244267 
L 275.666742 118.497936 
L 276.768568 119.353412 
L 276.773102 119.357184 
L 277.776559 120.216432 
L 278.207702 120.599355 
L 278.711951 121.07568 
L 279.586877 121.934927 
L 279.646836 121.995868 
L 280.390248 122.794175 
L 281.08597 123.575643 
L 281.151885 123.653423 
L 281.853408 124.512671 
L 282.521054 125.371918 
L 282.525105 125.377346 
L 283.135362 126.231166 
L 283.718079 127.090414 
L 283.964239 127.471601 
L 284.2615 127.949662 
L 284.768696 128.808909 
L 285.24702 129.668157 
L 285.403373 129.965089 
L 285.690049 130.527405 
L 286.102165 131.386653 
L 286.487499 132.2459 
L 286.842507 133.095609 
L 286.846386 133.105148 
L 287.172762 133.964396 
L 287.474008 134.823644 
L 287.750439 135.682891 
L 288.002342 136.542139 
L 288.229971 137.401387 
L 288.281641 137.61878 
L 288.431089 138.260635 
L 288.607906 139.119882 
L 288.761429 139.97913 
L 288.891793 140.838378 
L 288.999104 141.697626 
L 289.083442 142.556873 
L 289.144853 143.416121 
L 289.183354 144.275369 
L 289.198934 145.134616 
L 289.191548 145.993864 
L 289.161122 146.853112 
L 289.107549 147.71236 
L 289.030691 148.571607 
L 288.930376 149.430855 
L 288.8064 150.290103 
L 288.658521 151.149351 
L 288.486467 152.008598 
L 288.289927 152.867846 
L 288.281641 152.900151 
L 288.065035 153.727094 
L 287.814371 154.586342 
L 287.537638 155.445589 
L 287.234364 156.304837 
L 286.904032 157.164085 
L 286.842507 157.312654 
L 286.540089 158.023333 
L 286.146108 158.88258 
L 285.722665 159.741828 
L 285.403373 160.348186 
L 285.265796 160.601076 
L 284.769507 161.460324 
L 284.240678 162.319571 
L 283.964239 162.744215 
L 283.670275 163.178819 
L 283.056623 164.038067 
L 282.525105 164.742025 
L 282.402609 164.897315 
L 281.69222 165.756562 
L 281.08597 166.452349 
L 280.936297 166.61581 
L 280.114367 167.475058 
L 279.646836 167.941614 
L 279.230685 168.334306 
L 278.278715 169.193553 
L 278.207702 169.25529 
L 277.230929 170.052801 
L 276.768568 170.415346 
L 276.089341 170.912049 
L 275.329434 171.447375 
L 274.832538 171.771297 
L 273.8903 172.364794 
L 273.430336 172.630544 
L 272.451166 173.17878 
L 271.839416 173.489792 
L 271.012031 173.898602 
L 269.99609 174.34904 
L 269.572897 174.531908 
L 268.133763 175.083491 
L 267.760826 175.208288 
L 266.694629 175.557467 
L 265.255495 175.959375 
L 264.790276 176.067535 
L 263.816361 176.290052 
L 262.377226 176.552808 
L 260.938092 176.749867 
L 259.498958 176.882054 
L 258.550938 176.926783 
L 258.059824 176.949711 
L 256.62069 176.953505 
z
" clip-path="url(#p33e40e865b)" style="fill: #481c6e"/>
   </g>
   <g id="PathCollection_3">
    <path d="M 256.62069 176.953505 
L 258.059824 176.949711 
L 258.550938 176.926783 
L 259.498958 176.882054 
L 260.938092 176.749867 
L 262.377226 176.552808 
L 263.816361 176.290052 
L 264.790276 176.067535 
L 265.255495 175.959375 
L 266.694629 175.557467 
L 267.760826 175.208288 
L 268.133763 175.083491 
L 269.572897 174.531908 
L 269.99609 174.34904 
L 271.012031 173.898602 
L 271.839416 173.489792 
L 272.451166 173.17878 
L 273.430336 172.630544 
L 273.8903 172.364794 
L 274.832538 171.771297 
L 275.329434 171.447375 
L 276.089341 170.912049 
L 276.768568 170.415346 
L 277.230929 170.052801 
L 278.207702 169.25529 
L 278.278715 169.193553 
L 279.230685 168.334306 
L 279.646836 167.941614 
L 280.114367 167.475058 
L 280.936297 166.61581 
L 281.08597 166.452349 
L 281.69222 165.756562 
L 282.402609 164.897315 
L 282.525105 164.742025 
L 283.056623 164.038067 
L 283.670275 163.178819 
L 283.964239 162.744215 
L 284.240678 162.319571 
L 284.769507 161.460324 
L 285.265796 160.601076 
L 285.403373 160.348186 
L 285.722665 159.741828 
L 286.146108 158.88258 
L 286.540089 158.023333 
L 286.842507 157.312654 
L 286.904032 157.164085 
L 287.234364 156.304837 
L 287.537638 155.445589 
L 287.814371 154.586342 
L 288.065035 153.727094 
L 288.281641 152.900151 
L 288.289927 152.867846 
L 288.486467 152.008598 
L 288.658521 151.149351 
L 288.8064 150.290103 
L 288.930376 149.430855 
L 289.030691 148.571607 
L 289.107549 147.71236 
L 289.161122 146.853112 
L 289.191548 145.993864 
L 289.198934 145.134616 
L 289.183354 144.275369 
L 289.144853 143.416121 
L 289.083442 142.556873 
L 288.999104 141.697626 
L 288.891793 140.838378 
L 288.761429 139.97913 
L 288.607906 139.119882 
L 288.431089 138.260635 
L 288.281641 137.61878 
L 288.229971 137.401387 
L 288.002342 136.542139 
L 287.750439 135.682891 
L 287.474008 134.823644 
L 287.172762 133.964396 
L 286.846386 133.105148 
L 286.842507 133.095609 
L 286.487499 132.2459 
L 286.102165 131.386653 
L 285.690049 130.527405 
L 285.403373 129.965089 
L 285.24702 129.668157 
L 284.768696 128.808909 
L 284.2615 127.949662 
L 283.964239 127.471601 
L 283.718079 127.090414 
L 283.135362 126.231166 
L 282.525105 125.377346 
L 282.521054 125.371918 
L 281.853408 124.512671 
L 281.151885 123.653423 
L 281.08597 123.575643 
L 280.390248 122.794175 
L 279.646836 121.995868 
L 279.586877 121.934927 
L 278.711951 121.07568 
L 278.207702 120.599355 
L 277.776559 120.216432 
L 276.773102 119.357184 
L 276.768568 119.353412 
L 275.666742 118.497936 
L 275.329434 118.244267 
L 274.4601 117.638689 
L 273.8903 117.253092 
L 273.128085 116.779441 
L 272.451166 116.369614 
L 271.634667 115.920193 
L 271.012031 115.585348 
L 269.926856 115.060945 
L 269.572897 114.893359 
L 268.133763 114.288632 
L 267.897025 114.201698 
L 266.694629 113.767299 
L 265.314775 113.34245 
L 265.255495 113.324445 
L 263.816361 112.95933 
L 262.377226 112.66822 
L 261.158472 112.483202 
L 260.938092 112.450019 
L 259.498958 112.304121 
L 258.059824 112.229195 
L 256.62069 112.224929 
L 255.181556 112.291305 
L 253.742421 112.428603 
L 253.364953 112.483202 
L 252.303287 112.638 
L 250.864153 112.920269 
L 249.425019 113.276386 
L 249.203121 113.34245 
L 247.985885 113.709753 
L 246.600727 114.201698 
L 246.546751 114.221179 
L 245.107617 114.816102 
L 244.583602 115.060945 
L 243.668482 115.497289 
L 242.872725 115.920193 
L 242.229348 116.270092 
L 241.378965 116.779441 
L 240.790214 117.141334 
L 240.048034 117.638689 
L 239.35108 118.119378 
L 238.84316 118.497936 
L 237.911946 119.214363 
L 237.738817 119.357184 
L 236.729291 120.216432 
L 236.472812 120.442311 
L 235.79715 121.07568 
L 235.033677 121.820284 
L 234.922543 121.934927 
L 234.118034 122.794175 
L 233.594543 123.377928 
L 233.359524 123.653423 
L 232.655281 124.512671 
L 232.155409 125.151709 
L 231.990603 125.371918 
L 231.37443 126.231166 
L 230.789828 127.090414 
L 230.716275 127.203602 
L 230.249717 127.949662 
L 229.741184 128.808909 
L 229.277141 129.640091 
L 229.261985 129.668157 
L 228.821743 130.527405 
L 228.40879 131.386653 
L 228.022684 132.2459 
L 227.838007 132.685577 
L 227.666566 133.105148 
L 227.339724 133.964396 
L 227.03806 134.823644 
L 226.76126 135.682891 
L 226.509035 136.542139 
L 226.398872 136.956466 
L 226.283097 137.401387 
L 226.082689 138.260635 
L 225.905774 139.119882 
L 225.752186 139.97913 
L 225.621789 140.838378 
L 225.514475 141.697626 
L 225.430165 142.556873 
L 225.368811 143.416121 
L 225.330396 144.275369 
L 225.31493 145.134616 
L 225.322458 145.993864 
L 225.353053 146.853112 
L 225.406821 147.71236 
L 225.483899 148.571607 
L 225.58446 149.430855 
L 225.708708 150.290103 
L 225.856881 151.149351 
L 226.029253 152.008598 
L 226.226135 152.867846 
L 226.398872 153.537899 
L 226.448706 153.727094 
L 226.699885 154.586342 
L 226.977167 155.445589 
L 227.281025 156.304837 
L 227.611974 157.164085 
L 227.838007 157.707117 
L 227.973325 158.023333 
L 228.368209 158.88258 
L 228.792603 159.741828 
L 229.247225 160.601076 
L 229.277141 160.654467 
L 229.744122 161.460324 
L 230.274369 162.319571 
L 230.716275 162.99458 
L 230.841668 163.178819 
L 231.457281 164.038067 
L 232.109433 164.897315 
L 232.155409 164.955215 
L 232.820939 165.756562 
L 233.574172 166.61581 
L 233.594543 166.638111 
L 234.3989 167.475058 
L 235.033677 168.104184 
L 235.2794 168.334306 
L 236.236166 169.193553 
L 236.472812 169.397776 
L 237.281643 170.052801 
L 237.911946 170.543102 
L 238.420956 170.912049 
L 239.35108 171.561625 
L 239.675835 171.771297 
L 240.790214 172.466599 
L 241.076994 172.630544 
L 242.229348 173.269056 
L 242.668642 173.489792 
L 243.668482 173.978143 
L 244.516034 174.34904 
L 245.107617 174.601395 
L 246.546751 175.144215 
L 246.741494 175.208288 
L 247.985885 175.609045 
L 249.425019 176.002704 
L 249.710603 176.067535 
L 250.864153 176.324926 
L 252.303287 176.579802 
L 253.742421 176.769079 
L 255.181556 176.893553 
L 255.97554 176.926783 
z
" clip-path="url(#p33e40e865b)" style="fill: #472d7b"/>
   </g>
   <g id="PathCollection_4"/>
   <g id="PathCollection_5"/>
   <g id="PathCollection_6"/>
   <g id="PathCollection_7"/>
   <g id="PathCollection_8"/>
   <g id="PathCollection_9"/>
   <g id="PathCollection_10"/>
   <g id="PathCollection_11"/>
   <g id="PathCollection_12"/>
   <g id="PathCollection_13"/>
   <g id="PathCollection_14"/>
   <g id="PathCollection_15"/>
   <g id="PathCollection_16"/>
   <g id="PathCollection_17"/>
   <g id="PathCollection_18"/>
   <g id="PathCollection_19"/>
   <g id="PathCollection_20"/>
   <g id="PathCollection_21">
    <defs>
     <path id="ma3efbb5ad5" d="M 0 2.236068 
C 0.593012 2.236068 1.161816 2.000462 1.581139 1.581139 
C 2.000462 1.161816 2.236068 0.593012 2.236068 0 
C 2.236068 -0.593012 2.000462 -1.161816 1.581139 -1.581139 
C 1.161816 -2.000462 0.593012 -2.236068 0 -2.236068 
C -0.593012 -2.236068 -1.161816 -2.000462 -1.581139 -1.581139 
C -2.000462 -1.161816 -2.236068 -0.593012 -2.236068 0 
C -2.236068 0.593012 -2.000462 1.161816 -1.581139 1.581139 
C -1.161816 2.000462 -0.593012 2.236068 0 2.236068 
z
" style="stroke: #000000"/>
    </defs>
    <g clip-path="url(#p33e40e865b)">
     <use xlink:href="#ma3efbb5ad5" x="257.260702" y="50.871731" style="stroke: #000000"/>
     <use xlink:href="#ma3efbb5ad5" x="257.260702" y="169.798434" style="stroke: #000000"/>
     <use xlink:href="#ma3efbb5ad5" x="132.176664" y="50.871731" style="stroke: #000000"/>
     <use xlink:href="#ma3efbb5ad5" x="132.176664" y="169.798434" style="stroke: #000000"/>
    </g>
   </g>
   <g id="patch_2">
    <path d="M 78.019908 174.772315 
C 83.604533 174.772315 88.961179 172.553519 92.910105 168.604593 
C 96.859032 164.655667 99.077827 159.299021 99.077827 153.714396 
C 99.077827 148.12977 96.859032 142.773125 92.910105 138.824198 
C 88.961179 134.875272 83.604533 132.656477 78.019908 132.656477 
C 72.435283 132.656477 67.078637 134.875272 63.129711 138.824198 
C 59.180784 142.773125 56.961989 148.12977 56.961989 153.714396 
C 56.961989 159.299021 59.180784 164.655667 63.129711 168.604593 
C 67.078637 172.553519 72.435283 174.772315 78.019908 174.772315 
L 78.019908 174.772315 
z
" clip-path="url(#p33e40e865b)" style="fill: none; stroke-dasharray: 7.4,3.2; stroke-dashoffset: 0; stroke: #ff0000; stroke-width: 2; stroke-linejoin: miter"/>
   </g>
   <g id="line2d_1">
    <path d="M 14.846151 195.830234 
L 301.233849 195.830234 
L 301.233849 24.839932 
L 14.846151 24.839932 
L 14.846151 195.830234 
" clip-path="url(#p33e40e865b)" style="fill: none; stroke: #000000; stroke-width: 2; stroke-linecap: square"/>
   </g>
   <g id="text_1">
    <!-- D2 -->
    <g transform="translate(142.761403 20.635969) scale(0.24 -0.24)">
     <defs>
      <path id="NimbusSanL-Regu-44" d="M 570 0 
L 2368 0 
C 3546 0 4269 885 4269 2339 
C 4269 3787 3552 4672 2368 4672 
L 570 4672 
L 570 0 
z
M 1165 526 
L 1165 4146 
L 2266 4146 
C 3187 4146 3674 3524 3674 2333 
C 3674 1154 3187 526 2266 526 
L 1165 526 
z
" transform="scale(0.015625)"/>
      <path id="NimbusSanL-Regu-32" d="M 3238 558 
L 851 558 
C 909 930 1114 1167 1670 1494 
L 2310 1840 
C 2944 2186 3270 2653 3270 3211 
C 3270 3589 3117 3942 2848 4185 
C 2579 4429 2246 4544 1818 4544 
C 1242 4544 813 4339 563 3955 
C 403 3711 333 3429 320 2967 
L 883 2967 
C 902 3275 941 3461 1018 3608 
C 1165 3884 1459 4051 1798 4051 
C 2310 4051 2694 3685 2694 3198 
C 2694 2839 2483 2531 2080 2301 
L 1491 1968 
C 544 1430 269 1000 218 0 
L 3238 0 
L 3238 558 
z
" transform="scale(0.015625)"/>
     </defs>
     <use xlink:href="#NimbusSanL-Regu-44" transform="scale(0.996264)"/>
     <use xlink:href="#NimbusSanL-Regu-32" transform="translate(71.929985 0) scale(0.996264)"/>
    </g>
   </g>
  </g>
 </g>
 <defs>
  <clipPath id="p33e40e865b">
   <rect x="3.6" y="17.336067" width="308.88" height="185.998031"/>
  </clipPath>
 </defs>
</svg>
