<?xml version="1.0" encoding="utf-8" standalone="no"?>
<!DOCTYPE svg PUBLIC "-//W3C//DTD SVG 1.1//EN"
  "http://www.w3.org/Graphics/SVG/1.1/DTD/svg11.dtd">
<svg xmlns:xlink="http://www.w3.org/1999/xlink" width="288pt" height="360pt" viewBox="0 0 288 360" xmlns="http://www.w3.org/2000/svg" version="1.1">
 <metadata>
  <rdf:RDF xmlns:dc="http://purl.org/dc/elements/1.1/" xmlns:cc="http://creativecommons.org/ns#" xmlns:rdf="http://www.w3.org/1999/02/22-rdf-syntax-ns#">
   <cc:Work>
    <dc:type rdf:resource="http://purl.org/dc/dcmitype/StillImage"/>
    <dc:date>2024-03-09T19:52:40.021851</dc:date>
    <dc:format>image/svg+xml</dc:format>
    <dc:creator>
     <cc:Agent>
      <dc:title>Matplotlib v3.7.2, https://matplotlib.org/</dc:title>
     </cc:Agent>
    </dc:creator>
   </cc:Work>
  </rdf:RDF>
 </metadata>
 <defs>
  <style type="text/css">*{stroke-linejoin: round; stroke-linecap: butt}</style>
 </defs>
 <g id="figure_1">
  <g id="patch_1">
   <path d="M 0 360 
L 288 360 
L 288 0 
L 0 0 
L 0 360 
z
" style="fill: none"/>
  </g>
  <g id="axes_1">
   <g id="PathCollection_1">
    <path d="M 189.447365 232.808363 
L 152.701958 249.467744 
L 146.931664 231.482617 
L 152.701958 226.734949 
L 189.447365 228.487108 
L 226.192772 230.29371 
L 226.192772 231.482617 
L 226.192772 231.863431 
z
" clip-path="url(#p81d5178656)" style="fill: #460a5d"/>
    <path d="M 79.211145 199.797781 
L 79.211145 194.73721 
L 79.211145 193.870263 
L 80.377884 194.73721 
z
" clip-path="url(#p81d5178656)" style="fill: #460a5d"/>
    <path d="M 219.525741 157.991803 
L 212.064972 143.864003 
L 226.192772 157.991803 
L 226.192772 166.908718 
z
" clip-path="url(#p81d5178656)" style="fill: #460a5d"/>
   </g>
   <g id="PathCollection_2">
    <path d="M 189.447365 235.984633 
L 153.135765 268.228023 
L 152.701958 268.228023 
L 149.868306 268.228023 
L 140.08197 231.482617 
L 152.701958 221.099176 
L 189.447365 221.310361 
L 226.192772 214.559383 
L 226.192772 230.29371 
L 189.447365 228.487108 
L 152.701958 226.734949 
L 146.931664 231.482617 
L 152.701958 249.467744 
L 189.447365 232.808363 
L 226.192772 231.863431 
L 226.192772 236.903231 
z
" clip-path="url(#p81d5178656)" style="fill: #481d6f"/>
    <path d="M 79.211145 211.832614 
L 79.211145 199.797781 
L 80.377884 194.73721 
L 79.211145 193.870263 
L 79.211145 191.808526 
L 83.152573 194.73721 
z
" clip-path="url(#p81d5178656)" style="fill: #481d6f"/>
    <path d="M 210.318348 157.991803 
L 192.554008 124.353039 
L 212.064972 143.864003 
L 219.525741 157.991803 
L 226.192772 166.908718 
L 226.192772 179.223276 
z
" clip-path="url(#p81d5178656)" style="fill: #481d6f"/>
    <path d="M 152.701958 102.376596 
L 145.891615 84.500989 
L 152.701958 84.500989 
L 184.241799 116.04083 
z
" clip-path="url(#p81d5178656)" style="fill: #481d6f"/>
   </g>
   <g id="PathCollection_3">
    <path d="M 189.447365 239.160903 
L 156.712791 268.228023 
L 153.135765 268.228023 
L 189.447365 235.984633 
L 226.192772 236.903231 
L 226.192772 241.943032 
z
" clip-path="url(#p81d5178656)" style="fill: #472f7d"/>
    <path d="M 133.232276 231.482617 
L 152.701958 215.463404 
L 189.447365 214.133614 
L 226.192772 198.825057 
L 226.192772 214.559383 
L 189.447365 221.310361 
L 152.701958 221.099176 
L 140.08197 231.482617 
L 149.868306 268.228023 
L 126.502934 268.228023 
z
" clip-path="url(#p81d5178656)" style="fill: #472f7d"/>
    <path d="M 79.211145 268.228023 
L 79.211145 262.11098 
L 87.248746 268.228023 
z
" clip-path="url(#p81d5178656)" style="fill: #472f7d"/>
    <path d="M 79.211145 223.867447 
L 79.211145 211.832614 
L 83.152573 194.73721 
L 79.211145 191.808526 
L 79.211145 189.74679 
L 85.927263 194.73721 
z
" clip-path="url(#p81d5178656)" style="fill: #472f7d"/>
    <path d="M 201.110955 157.991803 
L 189.447365 135.905492 
L 153.488136 121.246396 
L 152.701958 120.905794 
L 138.832262 84.500989 
L 145.891615 84.500989 
L 152.701958 102.376596 
L 184.241799 116.04083 
L 189.447365 121.246396 
L 192.554008 124.353039 
L 210.318348 157.991803 
L 226.192772 179.223276 
L 226.192772 191.537833 
z
" clip-path="url(#p81d5178656)" style="fill: #472f7d"/>
   </g>
   <g id="PathCollection_4">
    <path d="M 189.447365 242.337174 
L 160.289818 268.228023 
L 156.712791 268.228023 
L 189.447365 239.160903 
L 226.192772 241.943032 
L 226.192772 246.982832 
z
" clip-path="url(#p81d5178656)" style="fill: #424086"/>
    <path d="M 115.956552 268.228023 
L 87.248746 268.228023 
L 79.211145 262.11098 
L 79.211145 231.482617 
L 79.211145 223.867447 
L 85.927263 194.73721 
L 79.211145 189.74679 
L 79.211145 187.685053 
L 88.701952 194.73721 
L 86.353451 231.482617 
L 115.956552 258.492556 
L 126.382583 231.482617 
L 152.701958 209.827631 
L 189.447365 206.956867 
L 215.05882 194.73721 
L 191.903562 157.991803 
L 189.447365 153.34072 
L 152.701958 129.105151 
L 147.027156 121.246396 
L 131.77291 84.500989 
L 138.832262 84.500989 
L 152.701958 120.905794 
L 153.488136 121.246396 
L 189.447365 135.905492 
L 201.110955 157.991803 
L 226.192772 191.537833 
L 226.192772 194.73721 
L 226.192772 198.825057 
L 189.447365 214.133614 
L 152.701958 215.463404 
L 133.232276 231.482617 
L 126.502934 268.228023 
z
" clip-path="url(#p81d5178656)" style="fill: #424086"/>
    <path d="M 115.956552 158.744277 
L 115.439981 157.991803 
L 115.956552 156.639492 
L 117.935239 157.991803 
z
" clip-path="url(#p81d5178656)" style="fill: #424086"/>
   </g>
   <g id="PathCollection_5">
    <path d="M 189.447365 245.513444 
L 163.866844 268.228023 
L 160.289818 268.228023 
L 189.447365 242.337174 
L 226.192772 246.982832 
L 226.192772 252.022633 
z
" clip-path="url(#p81d5178656)" style="fill: #3c508b"/>
    <path d="M 115.956552 258.492556 
L 86.353451 231.482617 
L 88.701952 194.73721 
L 79.211145 187.685053 
L 79.211145 185.623317 
L 91.476641 194.73721 
L 105.802096 231.482617 
L 115.956552 240.747566 
L 119.532889 231.482617 
L 152.701958 204.191858 
L 189.447365 199.78012 
L 200.016914 194.73721 
L 189.447365 176.755565 
L 181.383954 157.991803 
L 152.701958 137.111069 
L 141.246087 121.246396 
L 124.713557 84.500989 
L 131.77291 84.500989 
L 147.027156 121.246396 
L 152.701958 129.105151 
L 189.447365 153.34072 
L 191.903562 157.991803 
L 215.05882 194.73721 
L 189.447365 206.956867 
L 152.701958 209.827631 
L 126.382583 231.482617 
z
" clip-path="url(#p81d5178656)" style="fill: #3c508b"/>
    <path d="M 115.956552 162.408583 
L 112.92445 157.991803 
L 115.956552 150.05417 
L 127.570814 157.991803 
z
M 117.935239 157.991803 
L 115.956552 156.639492 
L 115.439981 157.991803 
L 115.956552 158.744277 
z
" clip-path="url(#p81d5178656)" style="fill: #3c508b"/>
   </g>
   <g id="PathCollection_6">
    <path d="M 189.447365 248.689714 
L 167.443871 268.228023 
L 163.866844 268.228023 
L 189.447365 245.513444 
L 226.192772 252.022633 
L 226.192772 257.062434 
z
" clip-path="url(#p81d5178656)" style="fill: #355f8d"/>
    <path d="M 115.956552 240.747566 
L 105.802096 231.482617 
L 91.476641 194.73721 
L 79.211145 185.623317 
L 79.211145 183.56158 
L 94.251331 194.73721 
L 115.956552 229.367068 
L 152.701958 198.556085 
L 178.241153 194.73721 
L 170.38694 157.991803 
L 152.701958 145.116987 
L 137.20639 157.991803 
L 115.956552 166.07289 
L 110.408918 157.991803 
L 115.956552 143.468848 
L 135.465018 121.246396 
L 117.654204 84.500989 
L 124.713557 84.500989 
L 141.246087 121.246396 
L 152.701958 137.111069 
L 181.383954 157.991803 
L 189.447365 176.755565 
L 200.016914 194.73721 
L 189.447365 199.78012 
L 152.701958 204.191858 
L 119.532889 231.482617 
z
M 127.570814 157.991803 
L 115.956552 150.05417 
L 112.92445 157.991803 
L 115.956552 162.408583 
z
" clip-path="url(#p81d5178656)" style="fill: #355f8d"/>
   </g>
   <g id="PathCollection_7">
    <path d="M 189.447365 251.865985 
L 171.020897 268.228023 
L 167.443871 268.228023 
L 189.447365 248.689714 
L 226.192772 257.062434 
L 226.192772 262.102234 
z
" clip-path="url(#p81d5178656)" style="fill: #2e6d8e"/>
    <path d="M 152.701958 198.556085 
L 115.956552 229.367068 
L 94.251331 194.73721 
L 79.211145 183.56158 
L 79.211145 181.499844 
L 97.02602 194.73721 
L 115.956552 224.940156 
L 151.043976 194.73721 
L 152.701958 182.006845 
L 159.389927 157.991803 
L 152.701958 153.122906 
L 146.841965 157.991803 
L 115.956552 169.737196 
L 107.893386 157.991803 
L 115.956552 136.883526 
L 129.683949 121.246396 
L 115.956552 93.405977 
L 79.211145 95.920528 
L 79.211145 84.500989 
L 115.956552 84.500989 
L 117.654204 84.500989 
L 135.465018 121.246396 
L 115.956552 143.468848 
L 110.408918 157.991803 
L 115.956552 166.07289 
L 137.20639 157.991803 
L 152.701958 145.116987 
L 170.38694 157.991803 
L 178.241153 194.73721 
z
" clip-path="url(#p81d5178656)" style="fill: #2e6d8e"/>
   </g>
   <g id="PathCollection_8">
    <path d="M 189.447365 255.042255 
L 174.597924 268.228023 
L 171.020897 268.228023 
L 189.447365 251.865985 
L 226.192772 262.102234 
L 226.192772 267.142035 
z
" clip-path="url(#p81d5178656)" style="fill: #297a8e"/>
    <path d="M 115.956552 224.940156 
L 97.02602 194.73721 
L 79.211145 181.499844 
L 79.211145 179.438107 
L 99.800709 194.73721 
L 115.956552 220.513244 
L 145.901136 194.73721 
L 115.956552 173.401503 
L 105.377855 157.991803 
L 115.956552 130.298204 
L 123.90288 121.246396 
L 115.956552 105.130515 
L 79.211145 110.955787 
L 79.211145 95.920528 
L 115.956552 93.405977 
L 129.683949 121.246396 
L 115.956552 136.883526 
L 107.893386 157.991803 
L 115.956552 169.737196 
L 146.841965 157.991803 
L 152.701958 153.122906 
L 159.389927 157.991803 
L 152.701958 182.006845 
L 151.043976 194.73721 
z
" clip-path="url(#p81d5178656)" style="fill: #297a8e"/>
   </g>
   <g id="PathCollection_9">
    <path d="M 189.447365 258.218525 
L 178.17495 268.228023 
L 174.597924 268.228023 
L 189.447365 255.042255 
L 226.192772 267.142035 
L 226.192772 268.228023 
L 218.868463 268.228023 
z
" clip-path="url(#p81d5178656)" style="fill: #24878e"/>
    <path d="M 115.956552 220.513244 
L 99.800709 194.73721 
L 79.211145 179.438107 
L 79.211145 177.376371 
L 102.575399 194.73721 
L 115.956552 216.086333 
L 140.758295 194.73721 
L 115.956552 177.065809 
L 102.862323 157.991803 
L 115.956552 123.712882 
L 118.121811 121.246396 
L 115.956552 116.855053 
L 96.013775 121.246396 
L 79.211145 122.439659 
L 79.211145 121.246396 
L 79.211145 110.955787 
L 115.956552 105.130515 
L 123.90288 121.246396 
L 115.956552 130.298204 
L 105.377855 157.991803 
L 115.956552 173.401503 
L 145.901136 194.73721 
z
" clip-path="url(#p81d5178656)" style="fill: #24878e"/>
   </g>
   <g id="PathCollection_10">
    <path d="M 189.447365 261.394796 
L 181.751976 268.228023 
L 178.17495 268.228023 
L 189.447365 258.218525 
L 218.868463 268.228023 
L 209.532394 268.228023 
z
" clip-path="url(#p81d5178656)" style="fill: #1f948c"/>
    <path d="M 115.956552 216.086333 
L 102.575399 194.73721 
L 79.211145 177.376371 
L 79.211145 175.314634 
L 100.346791 157.991803 
L 79.211145 126.220974 
L 79.211145 122.439659 
L 96.013775 121.246396 
L 115.956552 116.855053 
L 118.121811 121.246396 
L 115.956552 123.712882 
L 102.862323 157.991803 
L 115.956552 177.065809 
L 140.758295 194.73721 
z
M 135.615455 194.73721 
L 115.956552 180.730116 
L 105.350088 194.73721 
L 115.956552 211.659421 
z
" clip-path="url(#p81d5178656)" style="fill: #1f948c"/>
   </g>
   <g id="PathCollection_11">
    <path d="M 189.447365 264.571066 
L 185.329003 268.228023 
L 181.751976 268.228023 
L 189.447365 261.394796 
L 209.532394 268.228023 
L 200.196325 268.228023 
z
" clip-path="url(#p81d5178656)" style="fill: #1fa187"/>
    <path d="M 115.956552 211.659421 
L 105.350088 194.73721 
L 115.956552 180.730116 
L 135.615455 194.73721 
z
M 130.472614 194.73721 
L 115.956552 184.394422 
L 108.124777 194.73721 
L 115.956552 207.232509 
z
" clip-path="url(#p81d5178656)" style="fill: #1fa187"/>
    <path d="M 79.211145 175.314634 
L 79.211145 173.252898 
L 97.831259 157.991803 
L 79.211145 130.002288 
L 79.211145 126.220974 
L 100.346791 157.991803 
z
" clip-path="url(#p81d5178656)" style="fill: #1fa187"/>
   </g>
   <g id="PathCollection_12">
    <path d="M 189.447365 267.747337 
L 188.906029 268.228023 
L 185.329003 268.228023 
L 189.447365 264.571066 
L 200.196325 268.228023 
L 190.860257 268.228023 
z
" clip-path="url(#p81d5178656)" style="fill: #27ad81"/>
    <path d="M 115.956552 207.232509 
L 108.124777 194.73721 
L 115.956552 184.394422 
L 130.472614 194.73721 
z
M 125.329774 194.73721 
L 115.956552 188.058729 
L 110.899467 194.73721 
L 115.956552 202.805597 
z
" clip-path="url(#p81d5178656)" style="fill: #27ad81"/>
    <path d="M 79.211145 173.252898 
L 79.211145 171.191162 
L 95.315728 157.991803 
L 79.211145 133.783603 
L 79.211145 130.002288 
L 97.831259 157.991803 
z
" clip-path="url(#p81d5178656)" style="fill: #27ad81"/>
   </g>
   <g id="PathCollection_13">
    <path d="M 189.447365 268.228023 
L 188.906029 268.228023 
L 189.447365 267.747337 
L 190.860257 268.228023 
z
" clip-path="url(#p81d5178656)" style="fill: #3aba76"/>
    <path d="M 115.956552 202.805597 
L 110.899467 194.73721 
L 115.956552 188.058729 
L 125.329774 194.73721 
z
M 120.186934 194.73721 
L 115.956552 191.723036 
L 113.674156 194.73721 
L 115.956552 198.378686 
z
" clip-path="url(#p81d5178656)" style="fill: #3aba76"/>
    <path d="M 79.211145 171.191162 
L 79.211145 169.129425 
L 92.800196 157.991803 
L 79.211145 137.564918 
L 79.211145 133.783603 
L 95.315728 157.991803 
z
" clip-path="url(#p81d5178656)" style="fill: #3aba76"/>
   </g>
   <g id="PathCollection_14">
    <path d="M 115.956552 198.378686 
L 113.674156 194.73721 
L 115.956552 191.723036 
L 120.186934 194.73721 
z
" clip-path="url(#p81d5178656)" style="fill: #54c568"/>
    <path d="M 79.211145 169.129425 
L 79.211145 167.067689 
L 90.284664 157.991803 
L 79.211145 141.346232 
L 79.211145 137.564918 
L 92.800196 157.991803 
z
" clip-path="url(#p81d5178656)" style="fill: #54c568"/>
   </g>
   <g id="PathCollection_15">
    <path d="M 79.211145 167.067689 
L 79.211145 165.005952 
L 87.769132 157.991803 
L 79.211145 145.127547 
L 79.211145 141.346232 
L 90.284664 157.991803 
z
" clip-path="url(#p81d5178656)" style="fill: #73d056"/>
   </g>
   <g id="PathCollection_16">
    <path d="M 79.211145 165.005952 
L 79.211145 162.944216 
L 85.253601 157.991803 
L 79.211145 148.908862 
L 79.211145 145.127547 
L 87.769132 157.991803 
z
" clip-path="url(#p81d5178656)" style="fill: #95d840"/>
   </g>
   <g id="PathCollection_17">
    <path d="M 79.211145 162.944216 
L 79.211145 160.882479 
L 82.738069 157.991803 
L 79.211145 152.690176 
L 79.211145 148.908862 
L 85.253601 157.991803 
z
" clip-path="url(#p81d5178656)" style="fill: #bade28"/>
   </g>
   <g id="PathCollection_18">
    <path d="M 79.211145 160.882479 
L 79.211145 158.820743 
L 80.222537 157.991803 
L 79.211145 156.471491 
L 79.211145 152.690176 
L 82.738069 157.991803 
z
" clip-path="url(#p81d5178656)" style="fill: #dfe318"/>
   </g>
   <g id="PathCollection_19">
    <path d="M 79.211145 158.820743 
L 79.211145 157.991803 
L 79.211145 156.471491 
L 80.222537 157.991803 
z
" clip-path="url(#p81d5178656)" style="fill: #fde725"/>
   </g>
   <g id="patch_2">
    <path d="M 45.292308 307.8 
L 249.907692 307.8 
L 249.907692 127.594872 
L 178.112821 55.8 
L 45.292308 55.8 
z
" clip-path="url(#p81d5178656)" style="fill: #808080; opacity: 0.15; stroke: #808080; stroke-linejoin: miter"/>
   </g>
   <g id="patch_3">
    <path d="M 212.059923 304.97343 
C 215.807999 304.97343 219.403067 303.484304 222.053356 300.834015 
C 224.703646 298.183725 226.192772 294.588657 226.192772 290.840581 
C 226.192772 287.092506 224.703646 283.497438 222.053356 280.847148 
C 219.403067 278.196859 215.807999 276.707733 212.059923 276.707733 
C 208.311848 276.707733 204.71678 278.196859 202.06649 280.847148 
C 199.416201 283.497438 197.927075 287.092506 197.927075 290.840581 
C 197.927075 294.588657 199.416201 298.183725 202.06649 300.834015 
C 204.71678 303.484304 208.311848 304.97343 212.059923 304.97343 
L 212.059923 304.97343 
z
" clip-path="url(#p81d5178656)" style="fill: none; stroke-dasharray: 7.4,3.2; stroke-dashoffset: 0; stroke: #ff0000; stroke-width: 2; stroke-linejoin: miter"/>
   </g>
   <g id="PathCollection_20">
    <defs>
     <path id="mc938662bf0" d="M 0 0.866025 
C 0.229673 0.866025 0.449969 0.774776 0.612372 0.612372 
C 0.774776 0.449969 0.866025 0.229673 0.866025 0 
C 0.866025 -0.229673 0.774776 -0.449969 0.612372 -0.612372 
C 0.449969 -0.774776 0.229673 -0.866025 0 -0.866025 
C -0.229673 -0.866025 -0.449969 -0.774776 -0.612372 -0.612372 
C -0.774776 -0.449969 -0.866025 -0.229673 -0.866025 0 
C -0.866025 0.229673 -0.774776 0.449969 -0.612372 0.612372 
C -0.449969 0.774776 -0.229673 0.866025 0 0.866025 
z
" style="stroke: #000000"/>
    </defs>
    <g clip-path="url(#p81d5178656)">
     <use xlink:href="#mc938662bf0" x="226.192772" y="268.228023" style="stroke: #000000"/>
     <use xlink:href="#mc938662bf0" x="189.447365" y="268.228023" style="stroke: #000000"/>
     <use xlink:href="#mc938662bf0" x="152.701958" y="268.228023" style="stroke: #000000"/>
     <use xlink:href="#mc938662bf0" x="115.956552" y="268.228023" style="stroke: #000000"/>
     <use xlink:href="#mc938662bf0" x="79.211145" y="268.228023" style="stroke: #000000"/>
     <use xlink:href="#mc938662bf0" x="226.192772" y="231.482617" style="stroke: #000000"/>
     <use xlink:href="#mc938662bf0" x="189.447365" y="231.482617" style="stroke: #000000"/>
     <use xlink:href="#mc938662bf0" x="152.701958" y="231.482617" style="stroke: #000000"/>
     <use xlink:href="#mc938662bf0" x="115.956552" y="231.482617" style="stroke: #000000"/>
     <use xlink:href="#mc938662bf0" x="79.211145" y="231.482617" style="stroke: #000000"/>
     <use xlink:href="#mc938662bf0" x="226.192772" y="194.73721" style="stroke: #000000"/>
     <use xlink:href="#mc938662bf0" x="189.447365" y="194.73721" style="stroke: #000000"/>
     <use xlink:href="#mc938662bf0" x="152.701958" y="194.73721" style="stroke: #000000"/>
     <use xlink:href="#mc938662bf0" x="115.956552" y="194.73721" style="stroke: #000000"/>
     <use xlink:href="#mc938662bf0" x="79.211145" y="194.73721" style="stroke: #000000"/>
     <use xlink:href="#mc938662bf0" x="226.192772" y="157.991803" style="stroke: #000000"/>
     <use xlink:href="#mc938662bf0" x="189.447365" y="157.991803" style="stroke: #000000"/>
     <use xlink:href="#mc938662bf0" x="152.701958" y="157.991803" style="stroke: #000000"/>
     <use xlink:href="#mc938662bf0" x="115.956552" y="157.991803" style="stroke: #000000"/>
     <use xlink:href="#mc938662bf0" x="79.211145" y="157.991803" style="stroke: #000000"/>
     <use xlink:href="#mc938662bf0" x="189.447365" y="121.246396" style="stroke: #000000"/>
     <use xlink:href="#mc938662bf0" x="152.701958" y="121.246396" style="stroke: #000000"/>
     <use xlink:href="#mc938662bf0" x="115.956552" y="121.246396" style="stroke: #000000"/>
     <use xlink:href="#mc938662bf0" x="79.211145" y="121.246396" style="stroke: #000000"/>
     <use xlink:href="#mc938662bf0" x="152.701958" y="84.500989" style="stroke: #000000"/>
     <use xlink:href="#mc938662bf0" x="115.956552" y="84.500989" style="stroke: #000000"/>
     <use xlink:href="#mc938662bf0" x="79.211145" y="84.500989" style="stroke: #000000"/>
    </g>
   </g>
   <g id="text_1">
    <!-- SPIRIT -->
    <g transform="translate(119.399062 37.2) scale(0.18 -0.18)">
     <defs>
      <path id="DejaVuSans-53" d="M 3425 4513 
L 3425 3897 
Q 3066 4069 2747 4153 
Q 2428 4238 2131 4238 
Q 1616 4238 1336 4038 
Q 1056 3838 1056 3469 
Q 1056 3159 1242 3001 
Q 1428 2844 1947 2747 
L 2328 2669 
Q 3034 2534 3370 2195 
Q 3706 1856 3706 1288 
Q 3706 609 3251 259 
Q 2797 -91 1919 -91 
Q 1588 -91 1214 -16 
Q 841 59 441 206 
L 441 856 
Q 825 641 1194 531 
Q 1563 422 1919 422 
Q 2459 422 2753 634 
Q 3047 847 3047 1241 
Q 3047 1584 2836 1778 
Q 2625 1972 2144 2069 
L 1759 2144 
Q 1053 2284 737 2584 
Q 422 2884 422 3419 
Q 422 4038 858 4394 
Q 1294 4750 2059 4750 
Q 2388 4750 2728 4690 
Q 3069 4631 3425 4513 
z
" transform="scale(0.015625)"/>
      <path id="DejaVuSans-50" d="M 1259 4147 
L 1259 2394 
L 2053 2394 
Q 2494 2394 2734 2622 
Q 2975 2850 2975 3272 
Q 2975 3691 2734 3919 
Q 2494 4147 2053 4147 
L 1259 4147 
z
M 628 4666 
L 2053 4666 
Q 2838 4666 3239 4311 
Q 3641 3956 3641 3272 
Q 3641 2581 3239 2228 
Q 2838 1875 2053 1875 
L 1259 1875 
L 1259 0 
L 628 0 
L 628 4666 
z
" transform="scale(0.015625)"/>
      <path id="DejaVuSans-49" d="M 628 4666 
L 1259 4666 
L 1259 0 
L 628 0 
L 628 4666 
z
" transform="scale(0.015625)"/>
      <path id="DejaVuSans-52" d="M 2841 2188 
Q 3044 2119 3236 1894 
Q 3428 1669 3622 1275 
L 4263 0 
L 3584 0 
L 2988 1197 
Q 2756 1666 2539 1819 
Q 2322 1972 1947 1972 
L 1259 1972 
L 1259 0 
L 628 0 
L 628 4666 
L 2053 4666 
Q 2853 4666 3247 4331 
Q 3641 3997 3641 3322 
Q 3641 2881 3436 2590 
Q 3231 2300 2841 2188 
z
M 1259 4147 
L 1259 2491 
L 2053 2491 
Q 2509 2491 2742 2702 
Q 2975 2913 2975 3322 
Q 2975 3731 2742 3939 
Q 2509 4147 2053 4147 
L 1259 4147 
z
" transform="scale(0.015625)"/>
      <path id="DejaVuSans-54" d="M -19 4666 
L 3928 4666 
L 3928 4134 
L 2272 4134 
L 2272 0 
L 1638 0 
L 1638 4134 
L -19 4134 
L -19 4666 
z
" transform="scale(0.015625)"/>
     </defs>
     <use xlink:href="#DejaVuSans-53"/>
     <use xlink:href="#DejaVuSans-50" x="63.476562"/>
     <use xlink:href="#DejaVuSans-49" x="123.779297"/>
     <use xlink:href="#DejaVuSans-52" x="153.271484"/>
     <use xlink:href="#DejaVuSans-49" x="222.753906"/>
     <use xlink:href="#DejaVuSans-54" x="252.246094"/>
    </g>
   </g>
  </g>
 </g>
 <defs>
  <clipPath id="p81d5178656">
   <rect x="36" y="43.2" width="223.2" height="277.2"/>
  </clipPath>
 </defs>
</svg>
