<?xml version="1.0" encoding="utf-8" standalone="no"?>
<!DOCTYPE svg PUBLIC "-//W3C//DTD SVG 1.1//EN"
  "http://www.w3.org/Graphics/SVG/1.1/DTD/svg11.dtd">
<svg xmlns:xlink="http://www.w3.org/1999/xlink" width="174.6pt" height="224.64pt" viewBox="0 0 174.6 224.64" xmlns="http://www.w3.org/2000/svg" version="1.1">
 <metadata>
  <rdf:RDF xmlns:dc="http://purl.org/dc/elements/1.1/" xmlns:cc="http://creativecommons.org/ns#" xmlns:rdf="http://www.w3.org/1999/02/22-rdf-syntax-ns#">
   <cc:Work>
    <dc:type rdf:resource="http://purl.org/dc/dcmitype/StillImage"/>
    <dc:date>2024-08-19T03:11:36.825862</dc:date>
    <dc:format>image/svg+xml</dc:format>
    <dc:creator>
     <cc:Agent>
      <dc:title>Matplotlib v3.7.2, https://matplotlib.org/</dc:title>
     </cc:Agent>
    </dc:creator>
   </cc:Work>
  </rdf:RDF>
 </metadata>
 <defs>
  <style type="text/css">*{stroke-linejoin: round; stroke-linecap: butt}</style>
 </defs>
 <g id="figure_1">
  <g id="patch_1">
   <path d="M 0 224.64 
L 174.6 224.64 
L 174.6 0 
L 0 0 
L 0 224.64 
z
" style="fill: none"/>
  </g>
  <g id="axes_1">
   <g id="PathCollection_1">
    <path d="M 4.441206 214.367146 
L 5.282412 214.367146 
L 6.123618 214.367146 
L 6.964824 214.367146 
L 7.80603 214.367146 
L 8.647236 214.367146 
L 9.488442 214.367146 
L 10.329648 214.367146 
L 11.170854 214.367146 
L 12.01206 214.367146 
L 12.853266 214.367146 
L 13.694472 214.367146 
L 14.535678 214.367146 
L 15.376884 214.367146 
L 16.21809 214.367146 
L 17.059296 214.367146 
L 17.900503 214.367146 
L 18.741709 214.367146 
L 19.582915 214.367146 
L 20.424121 214.367146 
L 21.265327 214.367146 
L 22.106533 214.367146 
L 22.947739 214.367146 
L 23.788945 214.367146 
L 24.630151 214.367146 
L 25.471357 214.367146 
L 26.312563 214.367146 
L 27.153769 214.367146 
L 27.994975 214.367146 
L 28.836181 214.367146 
L 29.677387 214.367146 
L 30.518593 214.367146 
L 31.359799 214.367146 
L 32.201005 214.367146 
L 33.042211 214.367146 
L 33.883417 214.367146 
L 34.724623 214.367146 
L 35.565829 214.367146 
L 36.407035 214.367146 
L 37.248241 214.367146 
L 38.089447 214.367146 
L 38.930653 214.367146 
L 39.771859 214.367146 
L 40.613065 214.367146 
L 41.454271 214.367146 
L 42.295477 214.367146 
L 43.136683 214.367146 
L 43.977889 214.367146 
L 44.819095 214.367146 
L 45.660302 214.367146 
L 46.501508 214.367146 
L 47.342714 214.367146 
L 48.18392 214.367146 
L 49.025126 214.367146 
L 49.866332 214.367146 
L 50.707538 214.367146 
L 51.548744 214.367146 
L 52.38995 214.367146 
L 53.231156 214.367146 
L 54.072362 214.367146 
L 54.913568 214.367146 
L 55.754774 214.367146 
L 56.59598 214.367146 
L 57.437186 214.367146 
L 58.278392 214.367146 
L 59.119598 214.367146 
L 59.960804 214.367146 
L 60.80201 214.367146 
L 61.643216 214.367146 
L 62.484422 214.367146 
L 63.325628 214.367146 
L 64.166834 214.367146 
L 65.00804 214.367146 
L 65.849246 214.367146 
L 66.690452 214.367146 
L 67.531658 214.367146 
L 68.372864 214.367146 
L 69.21407 214.367146 
L 70.055276 214.367146 
L 70.896482 214.367146 
L 71.737688 214.367146 
L 72.578894 214.367146 
L 73.420101 214.367146 
L 74.261307 214.367146 
L 75.102513 214.367146 
L 75.943719 214.367146 
L 76.784925 214.367146 
L 77.626131 214.367146 
L 78.467337 214.367146 
L 79.308543 214.367146 
L 80.149749 214.367146 
L 80.990955 214.367146 
L 81.832161 214.367146 
L 82.673367 214.367146 
L 83.514573 214.367146 
L 84.355779 214.367146 
L 85.196985 214.367146 
L 86.038191 214.367146 
L 86.879397 214.367146 
L 87.720603 214.367146 
L 88.561809 214.367146 
L 89.403015 214.367146 
L 90.244221 214.367146 
L 91.085427 214.367146 
L 91.926633 214.367146 
L 92.767839 214.367146 
L 93.609045 214.367146 
L 94.450251 214.367146 
L 95.291457 214.367146 
L 96.132663 214.367146 
L 96.973869 214.367146 
L 97.815075 214.367146 
L 98.656281 214.367146 
L 99.497487 214.367146 
L 100.338693 214.367146 
L 101.179899 214.367146 
L 102.021106 214.367146 
L 102.862312 214.367146 
L 103.703518 214.367146 
L 104.544724 214.367146 
L 105.38593 214.367146 
L 106.227136 214.367146 
L 107.068342 214.367146 
L 107.909548 214.367146 
L 108.750754 214.367146 
L 109.59196 214.367146 
L 110.433166 214.367146 
L 111.274372 214.367146 
L 112.115578 214.367146 
L 112.956784 214.367146 
L 113.79799 214.367146 
L 114.639196 214.367146 
L 115.480402 214.367146 
L 116.321608 214.367146 
L 117.162814 214.367146 
L 118.00402 214.367146 
L 118.845226 214.367146 
L 119.686432 214.367146 
L 120.527638 214.367146 
L 121.368844 214.367146 
L 122.21005 214.367146 
L 123.051256 214.367146 
L 123.892462 214.367146 
L 124.733668 214.367146 
L 125.574874 214.367146 
L 126.41608 214.367146 
L 127.257286 214.367146 
L 128.098492 214.367146 
L 128.939698 214.367146 
L 129.780905 214.367146 
L 130.622111 214.367146 
L 131.463317 214.367146 
L 132.304523 214.367146 
L 133.145729 214.367146 
L 133.986935 214.367146 
L 134.828141 214.367146 
L 135.669347 214.367146 
L 136.510553 214.367146 
L 137.351759 214.367146 
L 138.192965 214.367146 
L 139.034171 214.367146 
L 139.875377 214.367146 
L 140.716583 214.367146 
L 141.557789 214.367146 
L 142.398995 214.367146 
L 143.240201 214.367146 
L 144.081407 214.367146 
L 144.922613 214.367146 
L 145.763819 214.367146 
L 146.605025 214.367146 
L 147.446231 214.367146 
L 148.287437 214.367146 
L 149.128643 214.367146 
L 149.969849 214.367146 
L 150.811055 214.367146 
L 151.652261 214.367146 
L 152.493467 214.367146 
L 153.334673 214.367146 
L 154.175879 214.367146 
L 155.017085 214.367146 
L 155.858291 214.367146 
L 156.699497 214.367146 
L 157.540704 214.367146 
L 158.38191 214.367146 
L 159.223116 214.367146 
L 160.064322 214.367146 
L 160.905528 214.367146 
L 161.746734 214.367146 
L 162.58794 214.367146 
L 163.429146 214.367146 
L 164.270352 214.367146 
L 165.111558 214.367146 
L 165.952764 214.367146 
L 166.79397 214.367146 
L 167.635176 214.367146 
L 168.476382 214.367146 
L 169.317588 214.367146 
L 170.158794 214.367146 
L 171 214.367146 
L 171 213.331135 
L 171 212.295123 
L 171 211.259111 
L 171 210.2231 
L 171 209.187088 
L 171 208.151076 
L 171 207.115065 
L 171 206.079053 
L 171 205.043042 
L 171 204.00703 
L 171 202.971018 
L 171 201.935007 
L 171 200.898995 
L 171 199.862983 
L 171 198.826972 
L 171 197.79096 
L 171 196.754948 
L 171 195.718937 
L 171 194.682925 
L 171 193.646914 
L 171 192.610902 
L 171 191.57489 
L 171 190.538879 
L 171 189.502867 
L 171 188.466855 
L 171 187.430844 
L 171 186.394832 
L 171 185.35882 
L 171 184.322809 
L 171 183.286797 
L 171 182.250786 
L 171 181.214774 
L 171 180.178762 
L 171 179.142751 
L 171 178.106739 
L 171 177.070727 
L 171 176.034716 
L 171 174.998704 
L 171 173.962692 
L 171 172.926681 
L 171 171.890669 
L 171 170.854657 
L 171 169.818646 
L 171 168.782634 
L 171 167.746623 
L 171 166.710611 
L 171 165.674599 
L 171 164.638588 
L 171 163.602576 
L 171 162.566564 
L 171 161.530553 
L 171 160.494541 
L 171 159.458529 
L 171 158.422518 
L 171 157.386506 
L 171 156.350495 
L 171 155.314483 
L 171 154.278471 
L 171 153.24246 
L 171 152.206448 
L 171 151.170436 
L 171 150.134425 
L 171 149.098413 
L 171 148.062401 
L 171 147.02639 
L 171 145.990378 
L 171 144.954367 
L 171 143.918355 
L 171 142.882343 
L 171 141.846332 
L 171 140.81032 
L 171 139.774308 
L 171 138.738297 
L 171 137.702285 
L 171 136.666273 
L 171 135.630262 
L 171 134.59425 
L 171 133.558239 
L 171 132.522227 
L 171 131.486215 
L 171 130.450204 
L 171 129.414192 
L 171 128.37818 
L 171 127.342169 
L 171 126.306157 
L 171 125.270145 
L 171 124.234134 
L 171 123.198122 
L 171 122.162111 
L 171 121.126099 
L 171 120.090087 
L 171 119.054076 
L 171 118.018064 
L 171 116.982052 
L 171 115.946041 
L 171 114.910029 
L 171 113.874017 
L 171 112.838006 
L 171 111.801994 
L 171 110.765983 
L 171 109.729971 
L 171 108.693959 
L 171 107.657948 
L 171 106.621936 
L 171 105.585924 
L 171 104.549913 
L 171 103.513901 
L 171 102.477889 
L 171 101.441878 
L 171 100.405866 
L 171 99.369855 
L 171 98.333843 
L 171 97.297831 
L 171 96.26182 
L 171 95.225808 
L 171 94.189796 
L 171 93.153785 
L 171 92.117773 
L 171 91.081761 
L 171 90.04575 
L 171 89.009738 
L 171 87.973727 
L 171 86.937715 
L 171 85.901703 
L 171 84.865692 
L 171 83.82968 
L 171 82.793668 
L 171 81.757657 
L 171 80.721645 
L 171 79.685633 
L 171 78.649622 
L 171 77.61361 
L 171 76.577599 
L 171 75.541587 
L 171 74.505575 
L 171 73.469564 
L 171 72.433552 
L 171 71.39754 
L 171 70.361529 
L 171 69.325517 
L 171 68.289505 
L 170.158794 67.253494 
L 169.317588 67.253494 
L 168.476382 66.217482 
L 167.635176 65.181471 
L 166.79397 64.145459 
L 165.952764 63.109447 
L 165.111558 63.109447 
L 164.270352 62.073436 
L 163.429146 61.037424 
L 162.58794 60.001412 
L 161.746734 58.965401 
L 160.905528 57.929389 
L 160.064322 57.929389 
L 159.223116 56.893377 
L 158.38191 55.857366 
L 157.540704 54.821354 
L 156.699497 53.785343 
L 155.858291 53.785343 
L 155.017085 52.749331 
L 154.175879 51.713319 
L 153.334673 50.677308 
L 152.493467 49.641296 
L 151.652261 49.641296 
L 150.811055 48.605284 
L 149.969849 47.569273 
L 149.128643 46.533261 
L 148.287437 45.497249 
L 147.446231 44.461238 
L 146.605025 44.461238 
L 145.763819 43.425226 
L 144.922613 42.389214 
L 144.081407 41.353203 
L 143.240201 40.317191 
L 142.398995 40.317191 
L 141.557789 39.28118 
L 140.716583 38.245168 
L 139.875377 37.209156 
L 139.034171 36.173145 
L 138.192965 36.173145 
L 137.351759 35.137133 
L 136.510553 34.101121 
L 135.669347 33.06511 
L 134.828141 32.029098 
L 133.986935 30.993086 
L 133.145729 30.993086 
L 132.304523 29.957075 
L 131.463317 28.921063 
L 130.622111 27.885052 
L 129.780905 26.84904 
L 128.939698 26.84904 
L 128.098492 25.813028 
L 127.257286 24.777017 
L 126.41608 23.741005 
L 125.574874 22.704993 
L 124.733668 22.704993 
L 123.892462 21.668982 
L 123.051256 20.63297 
L 122.21005 19.596958 
L 121.368844 18.560947 
L 120.527638 17.524935 
L 119.686432 17.524935 
L 118.845226 16.488924 
L 118.00402 15.452912 
L 117.162814 14.4169 
L 116.321608 13.380889 
L 115.480402 13.380889 
L 114.639196 12.344877 
L 113.79799 11.308865 
L 112.956784 10.272854 
L 112.115578 9.236842 
L 111.274372 9.236842 
L 110.433166 9.236842 
L 109.59196 9.236842 
L 108.750754 9.236842 
L 107.909548 9.236842 
L 107.068342 9.236842 
L 106.227136 9.236842 
L 105.38593 9.236842 
L 104.544724 9.236842 
L 103.703518 9.236842 
L 102.862312 9.236842 
L 102.021106 9.236842 
L 101.179899 9.236842 
L 100.338693 9.236842 
L 99.497487 9.236842 
L 98.656281 9.236842 
L 97.815075 9.236842 
L 96.973869 9.236842 
L 96.132663 9.236842 
L 95.291457 9.236842 
L 94.450251 9.236842 
L 93.609045 9.236842 
L 92.767839 9.236842 
L 91.926633 9.236842 
L 91.085427 9.236842 
L 90.244221 9.236842 
L 89.403015 9.236842 
L 88.561809 9.236842 
L 87.720603 9.236842 
L 86.879397 9.236842 
L 86.038191 9.236842 
L 85.196985 9.236842 
L 84.355779 9.236842 
L 83.514573 9.236842 
L 82.673367 9.236842 
L 81.832161 9.236842 
L 80.990955 9.236842 
L 80.149749 9.236842 
L 79.308543 9.236842 
L 78.467337 9.236842 
L 77.626131 9.236842 
L 76.784925 9.236842 
L 75.943719 9.236842 
L 75.102513 9.236842 
L 74.261307 9.236842 
L 73.420101 9.236842 
L 72.578894 9.236842 
L 71.737688 9.236842 
L 70.896482 9.236842 
L 70.055276 9.236842 
L 69.21407 9.236842 
L 68.372864 9.236842 
L 67.531658 9.236842 
L 66.690452 9.236842 
L 65.849246 9.236842 
L 65.00804 9.236842 
L 64.166834 9.236842 
L 63.325628 9.236842 
L 62.484422 9.236842 
L 61.643216 9.236842 
L 60.80201 9.236842 
L 59.960804 9.236842 
L 59.119598 9.236842 
L 58.278392 9.236842 
L 57.437186 9.236842 
L 56.59598 9.236842 
L 55.754774 9.236842 
L 54.913568 9.236842 
L 54.072362 9.236842 
L 53.231156 9.236842 
L 52.38995 9.236842 
L 51.548744 9.236842 
L 50.707538 9.236842 
L 49.866332 9.236842 
L 49.025126 9.236842 
L 48.18392 9.236842 
L 47.342714 9.236842 
L 46.501508 9.236842 
L 45.660302 9.236842 
L 44.819095 9.236842 
L 43.977889 9.236842 
L 43.136683 9.236842 
L 42.295477 9.236842 
L 41.454271 9.236842 
L 40.613065 9.236842 
L 39.771859 9.236842 
L 38.930653 9.236842 
L 38.089447 9.236842 
L 37.248241 9.236842 
L 36.407035 9.236842 
L 35.565829 9.236842 
L 34.724623 9.236842 
L 33.883417 9.236842 
L 33.042211 9.236842 
L 32.201005 9.236842 
L 31.359799 9.236842 
L 30.518593 9.236842 
L 29.677387 9.236842 
L 28.836181 9.236842 
L 27.994975 9.236842 
L 27.153769 9.236842 
L 26.312563 9.236842 
L 25.471357 9.236842 
L 24.630151 9.236842 
L 23.788945 9.236842 
L 22.947739 9.236842 
L 22.106533 9.236842 
L 21.265327 9.236842 
L 20.424121 9.236842 
L 19.582915 9.236842 
L 18.741709 9.236842 
L 17.900503 9.236842 
L 17.059296 9.236842 
L 16.21809 9.236842 
L 15.376884 9.236842 
L 14.535678 9.236842 
L 13.694472 9.236842 
L 12.853266 9.236842 
L 12.01206 9.236842 
L 11.170854 9.236842 
L 10.329648 9.236842 
L 9.488442 9.236842 
L 8.647236 9.236842 
L 7.80603 9.236842 
L 6.964824 9.236842 
L 6.123618 9.236842 
L 5.282412 9.236842 
L 4.441206 9.236842 
L 3.6 9.236842 
L 3.6 10.272854 
L 3.6 11.308865 
L 3.6 12.344877 
L 3.6 13.380889 
L 3.6 14.4169 
L 3.6 15.452912 
L 3.6 16.488924 
L 3.6 17.524935 
L 3.6 18.560947 
L 3.6 19.596958 
L 3.6 20.63297 
L 3.6 21.668982 
L 3.6 22.704993 
L 3.6 23.741005 
L 3.6 24.777017 
L 3.6 25.813028 
L 3.6 26.84904 
L 3.6 27.885052 
L 3.6 28.921063 
L 3.6 29.957075 
L 3.6 30.993086 
L 3.6 32.029098 
L 3.6 33.06511 
L 3.6 34.101121 
L 3.6 35.137133 
L 3.6 36.173145 
L 3.6 37.209156 
L 3.6 38.245168 
L 3.6 39.28118 
L 3.6 40.317191 
L 3.6 41.353203 
L 3.6 42.389214 
L 3.6 43.425226 
L 3.6 44.461238 
L 3.6 45.497249 
L 3.6 46.533261 
L 3.6 47.569273 
L 3.6 48.605284 
L 3.6 49.641296 
L 3.6 50.677308 
L 3.6 51.713319 
L 3.6 52.749331 
L 3.6 53.785343 
L 3.6 54.821354 
L 3.6 55.857366 
L 3.6 56.893377 
L 3.6 57.929389 
L 3.6 58.965401 
L 3.6 60.001412 
L 3.6 61.037424 
L 3.6 62.073436 
L 3.6 63.109447 
L 3.6 64.145459 
L 3.6 65.181471 
L 3.6 66.217482 
L 3.6 67.253494 
L 3.6 68.289505 
L 3.6 69.325517 
L 3.6 70.361529 
L 3.6 71.39754 
L 3.6 72.433552 
L 3.6 73.469564 
L 3.6 74.505575 
L 3.6 75.541587 
L 3.6 76.577599 
L 3.6 77.61361 
L 3.6 78.649622 
L 3.6 79.685633 
L 3.6 80.721645 
L 3.6 81.757657 
L 3.6 82.793668 
L 3.6 83.82968 
L 3.6 84.865692 
L 3.6 85.901703 
L 3.6 86.937715 
L 3.6 87.973727 
L 3.6 89.009738 
L 3.6 90.04575 
L 3.6 91.081761 
L 3.6 92.117773 
L 3.6 93.153785 
L 3.6 94.189796 
L 3.6 95.225808 
L 3.6 96.26182 
L 3.6 97.297831 
L 3.6 98.333843 
L 3.6 99.369855 
L 3.6 100.405866 
L 3.6 101.441878 
L 3.6 102.477889 
L 3.6 103.513901 
L 3.6 104.549913 
L 3.6 105.585924 
L 3.6 106.621936 
L 3.6 107.657948 
L 3.6 108.693959 
L 3.6 109.729971 
L 3.6 110.765983 
L 3.6 111.801994 
L 3.6 112.838006 
L 3.6 113.874017 
L 3.6 114.910029 
L 3.6 115.946041 
L 3.6 116.982052 
L 3.6 118.018064 
L 3.6 119.054076 
L 3.6 120.090087 
L 3.6 121.126099 
L 3.6 122.162111 
L 3.6 123.198122 
L 3.6 124.234134 
L 3.6 125.270145 
L 3.6 126.306157 
L 3.6 127.342169 
L 3.6 128.37818 
L 3.6 129.414192 
L 3.6 130.450204 
L 3.6 131.486215 
L 3.6 132.522227 
L 3.6 133.558239 
L 3.6 134.59425 
L 3.6 135.630262 
L 3.6 136.666273 
L 3.6 137.702285 
L 3.6 138.738297 
L 3.6 139.774308 
L 3.6 140.81032 
L 3.6 141.846332 
L 3.6 142.882343 
L 3.6 143.918355 
L 3.6 144.954367 
L 3.6 145.990378 
L 3.6 147.02639 
L 3.6 148.062401 
L 3.6 149.098413 
L 3.6 150.134425 
L 3.6 151.170436 
L 3.6 152.206448 
L 3.6 153.24246 
L 3.6 154.278471 
L 3.6 155.314483 
L 3.6 156.350495 
L 3.6 157.386506 
L 3.6 158.422518 
L 3.6 159.458529 
L 3.6 160.494541 
L 3.6 161.530553 
L 3.6 162.566564 
L 3.6 163.602576 
L 3.6 164.638588 
L 3.6 165.674599 
L 3.6 166.710611 
L 3.6 167.746623 
L 3.6 168.782634 
L 3.6 169.818646 
L 3.6 170.854657 
L 3.6 171.890669 
L 3.6 172.926681 
L 3.6 173.962692 
L 3.6 174.998704 
L 3.6 176.034716 
L 3.6 177.070727 
L 3.6 178.106739 
L 3.6 179.142751 
L 3.6 180.178762 
L 3.6 181.214774 
L 3.6 182.250786 
L 3.6 183.286797 
L 3.6 184.322809 
L 3.6 185.35882 
L 3.6 186.394832 
L 3.6 187.430844 
L 3.6 188.466855 
L 3.6 189.502867 
L 3.6 190.538879 
L 3.6 191.57489 
L 3.6 192.610902 
L 3.6 193.646914 
L 3.6 194.682925 
L 3.6 195.718937 
L 3.6 196.754948 
L 3.6 197.79096 
L 3.6 198.826972 
L 3.6 199.862983 
L 3.6 200.898995 
L 3.6 201.935007 
L 3.6 202.971018 
L 3.6 204.00703 
L 3.6 205.043042 
L 3.6 206.079053 
L 3.6 207.115065 
L 3.6 208.151076 
L 3.6 209.187088 
L 3.6 210.2231 
L 3.6 211.259111 
L 3.6 212.295123 
L 3.6 213.331135 
L 3.6 214.367146 
z
" clip-path="url(#p05a43c8796)" style="fill: #460a5d"/>
   </g>
   <g id="PathCollection_2"/>
   <g id="PathCollection_3"/>
   <g id="PathCollection_4"/>
   <g id="PathCollection_5"/>
   <g id="PathCollection_6"/>
   <g id="PathCollection_7"/>
   <g id="PathCollection_8"/>
   <g id="PathCollection_9"/>
   <g id="PathCollection_10"/>
   <g id="PathCollection_11"/>
   <g id="PathCollection_12"/>
   <g id="PathCollection_13"/>
   <g id="PathCollection_14"/>
   <g id="PathCollection_15"/>
   <g id="PathCollection_16"/>
   <g id="PathCollection_17"/>
   <g id="PathCollection_18"/>
   <g id="PathCollection_19"/>
   <g id="PathCollection_20"/>
   <g id="patch_2">
    <path d="M 140.035972 213.090684 
C 143.102348 213.090684 146.043547 211.8724 148.211802 209.704144 
C 150.380058 207.535888 151.598342 204.59469 151.598342 201.528313 
C 151.598342 198.461937 150.380058 195.520738 148.211802 193.352483 
C 146.043547 191.184227 143.102348 189.965943 140.035972 189.965943 
C 136.969595 189.965943 134.028397 191.184227 131.860141 193.352483 
C 129.691886 195.520738 128.473601 198.461937 128.473601 201.528313 
C 128.473601 204.59469 129.691886 207.535888 131.860141 209.704144 
C 134.028397 211.8724 136.969595 213.090684 140.035972 213.090684 
L 140.035972 213.090684 
z
" clip-path="url(#p05a43c8796)" style="fill: none; stroke-dasharray: 7.4,3.2; stroke-dashoffset: 0; stroke: #ff0000; stroke-width: 2; stroke-linejoin: miter"/>
   </g>
   <g id="PathCollection_21">
    <defs>
     <path id="m764c9397d8" d="M 0 0.866025 
C 0.229673 0.866025 0.449969 0.774776 0.612372 0.612372 
C 0.774776 0.449969 0.866025 0.229673 0.866025 0 
C 0.866025 -0.229673 0.774776 -0.449969 0.612372 -0.612372 
C 0.449969 -0.774776 0.229673 -0.866025 0 -0.866025 
C -0.229673 -0.866025 -0.449969 -0.774776 -0.612372 -0.612372 
C -0.774776 -0.449969 -0.866025 -0.229673 -0.866025 0 
C -0.866025 0.229673 -0.774776 0.449969 -0.612372 0.612372 
C -0.449969 0.774776 -0.229673 0.866025 0 0.866025 
z
" style="stroke: #000000"/>
    </defs>
    <g clip-path="url(#p05a43c8796)">
     <use xlink:href="#m764c9397d8" x="151.598342" y="183.028521" style="stroke: #000000"/>
     <use xlink:href="#m764c9397d8" x="121.536179" y="183.028521" style="stroke: #000000"/>
     <use xlink:href="#m764c9397d8" x="91.474016" y="183.028521" style="stroke: #000000"/>
     <use xlink:href="#m764c9397d8" x="61.411852" y="183.028521" style="stroke: #000000"/>
     <use xlink:href="#m764c9397d8" x="31.349689" y="183.028521" style="stroke: #000000"/>
     <use xlink:href="#m764c9397d8" x="151.598342" y="152.966357" style="stroke: #000000"/>
     <use xlink:href="#m764c9397d8" x="121.536179" y="152.966357" style="stroke: #000000"/>
     <use xlink:href="#m764c9397d8" x="91.474016" y="152.966357" style="stroke: #000000"/>
     <use xlink:href="#m764c9397d8" x="61.411852" y="152.966357" style="stroke: #000000"/>
     <use xlink:href="#m764c9397d8" x="31.349689" y="152.966357" style="stroke: #000000"/>
     <use xlink:href="#m764c9397d8" x="151.598342" y="122.904194" style="stroke: #000000"/>
     <use xlink:href="#m764c9397d8" x="121.536179" y="122.904194" style="stroke: #000000"/>
     <use xlink:href="#m764c9397d8" x="91.474016" y="122.904194" style="stroke: #000000"/>
     <use xlink:href="#m764c9397d8" x="61.411852" y="122.904194" style="stroke: #000000"/>
     <use xlink:href="#m764c9397d8" x="31.349689" y="122.904194" style="stroke: #000000"/>
     <use xlink:href="#m764c9397d8" x="151.598342" y="92.842031" style="stroke: #000000"/>
     <use xlink:href="#m764c9397d8" x="121.536179" y="92.842031" style="stroke: #000000"/>
     <use xlink:href="#m764c9397d8" x="91.474016" y="92.842031" style="stroke: #000000"/>
     <use xlink:href="#m764c9397d8" x="61.411852" y="92.842031" style="stroke: #000000"/>
     <use xlink:href="#m764c9397d8" x="31.349689" y="92.842031" style="stroke: #000000"/>
     <use xlink:href="#m764c9397d8" x="121.536179" y="62.779867" style="stroke: #000000"/>
     <use xlink:href="#m764c9397d8" x="91.474016" y="62.779867" style="stroke: #000000"/>
     <use xlink:href="#m764c9397d8" x="61.411852" y="62.779867" style="stroke: #000000"/>
     <use xlink:href="#m764c9397d8" x="31.349689" y="62.779867" style="stroke: #000000"/>
     <use xlink:href="#m764c9397d8" x="91.474016" y="32.717704" style="stroke: #000000"/>
     <use xlink:href="#m764c9397d8" x="61.411852" y="32.717704" style="stroke: #000000"/>
     <use xlink:href="#m764c9397d8" x="31.349689" y="32.717704" style="stroke: #000000"/>
    </g>
   </g>
   <g id="line2d_1">
    <path d="M 3.6 215.403158 
L 171 215.403158 
L 171 67.973684 
L 112.263158 9.236842 
L 3.6 9.236842 
L 3.6 215.403158 
" clip-path="url(#p05a43c8796)" style="fill: none; stroke: #000000; stroke-width: 2; stroke-linecap: square"/>
   </g>
  </g>
 </g>
 <defs>
  <clipPath id="p05a43c8796">
   <rect x="3.6" y="3.6" width="167.4" height="217.44"/>
  </clipPath>
 </defs>
</svg>
