<?xml version="1.0" encoding="utf-8" standalone="no"?>
<!DOCTYPE svg PUBLIC "-//W3C//DTD SVG 1.1//EN"
  "http://www.w3.org/Graphics/SVG/1.1/DTD/svg11.dtd">
<svg xmlns:xlink="http://www.w3.org/1999/xlink" width="288pt" height="360pt" viewBox="0 0 288 360" xmlns="http://www.w3.org/2000/svg" version="1.1">
 <metadata>
  <rdf:RDF xmlns:dc="http://purl.org/dc/elements/1.1/" xmlns:cc="http://creativecommons.org/ns#" xmlns:rdf="http://www.w3.org/1999/02/22-rdf-syntax-ns#">
   <cc:Work>
    <dc:type rdf:resource="http://purl.org/dc/dcmitype/StillImage"/>
    <dc:date>2024-03-11T22:44:25.682413</dc:date>
    <dc:format>image/svg+xml</dc:format>
    <dc:creator>
     <cc:Agent>
      <dc:title>Matplotlib v3.7.2, https://matplotlib.org/</dc:title>
     </cc:Agent>
    </dc:creator>
   </cc:Work>
  </rdf:RDF>
 </metadata>
 <defs>
  <style type="text/css">*{stroke-linejoin: round; stroke-linecap: butt}</style>
 </defs>
 <g id="figure_1">
  <g id="patch_1">
   <path d="M 0 360 
L 288 360 
L 288 0 
L 0 0 
L 0 360 
z
" style="fill: none"/>
  </g>
  <g id="axes_1">
   <g id="PathCollection_1">
    <path d="M 152.659413 264.807298 
L 151.905684 264.807298 
L 116.220427 229.708137 
L 80.234379 264.807298 
L 79.781441 264.807298 
L 79.781441 228.368312 
L 79.781441 191.929326 
L 79.781441 155.49034 
L 79.781441 119.051354 
L 79.781441 82.612369 
L 116.220427 82.612369 
L 152.659413 82.612369 
L 158.807483 88.760439 
L 152.659413 99.897125 
L 124.780717 119.051354 
L 121.445942 155.49034 
L 121.59386 191.929326 
L 152.659413 225.422621 
L 161.33971 228.368312 
L 155.202892 264.807298 
z
" clip-path="url(#p2f3097d4c5)" style="fill: #46085c"/>
   </g>
   <g id="PathCollection_2">
    <path d="M 161.33971 228.368312 
L 152.659413 225.422621 
L 121.59386 191.929326 
L 121.445942 155.49034 
L 124.780717 119.051354 
L 152.659413 99.897125 
L 158.807483 88.760439 
L 166.891423 96.844379 
L 154.631937 119.051354 
L 152.659413 120.560433 
L 128.174488 155.49034 
L 128.795053 191.929326 
L 152.659413 217.658661 
L 184.21837 228.368312 
L 161.059853 264.807298 
L 155.202892 264.807298 
z
" clip-path="url(#p2f3097d4c5)" style="fill: #481a6c"/>
    <path d="M 116.220427 231.41527 
L 81.984648 264.807298 
L 80.234379 264.807298 
L 116.220427 229.708137 
L 151.905684 264.807298 
L 150.170045 264.807298 
z
" clip-path="url(#p2f3097d4c5)" style="fill: #481a6c"/>
   </g>
   <g id="PathCollection_3">
    <path d="M 189.098399 234.635704 
L 166.916813 264.807298 
L 161.059853 264.807298 
L 184.21837 228.368312 
L 152.659413 217.658661 
L 128.795053 191.929326 
L 128.174488 155.49034 
L 152.659413 120.560433 
L 154.631937 119.051354 
L 166.891423 96.844379 
L 174.975363 104.928319 
L 167.178662 119.051354 
L 152.659413 130.159298 
L 134.903034 155.49034 
L 135.996247 191.929326 
L 152.659413 209.894701 
L 189.098399 225.175861 
L 198.129505 228.368312 
z
" clip-path="url(#p2f3097d4c5)" style="fill: #482979"/>
    <path d="M 116.220427 233.122403 
L 83.734916 264.807298 
L 81.984648 264.807298 
L 116.220427 231.41527 
L 150.170045 264.807298 
L 148.434405 264.807298 
z
" clip-path="url(#p2f3097d4c5)" style="fill: #482979"/>
   </g>
   <g id="PathCollection_4">
    <path d="M 189.098399 242.602394 
L 172.773773 264.807298 
L 166.916813 264.807298 
L 189.098399 234.635704 
L 198.129505 228.368312 
L 189.098399 225.175861 
L 152.659413 209.894701 
L 135.996247 191.929326 
L 134.903034 155.49034 
L 152.659413 130.159298 
L 167.178662 119.051354 
L 174.975363 104.928319 
L 183.059303 113.012258 
L 179.725386 119.051354 
L 152.659413 139.758163 
L 141.63158 155.49034 
L 143.197441 191.929326 
L 152.659413 202.130742 
L 189.098399 221.11783 
L 209.609245 228.368312 
z
" clip-path="url(#p2f3097d4c5)" style="fill: #453882"/>
    <path d="M 116.220427 234.829536 
L 85.485185 264.807298 
L 83.734916 264.807298 
L 116.220427 233.122403 
L 148.434405 264.807298 
L 146.698766 264.807298 
z
" clip-path="url(#p2f3097d4c5)" style="fill: #453882"/>
   </g>
   <g id="PathCollection_5">
    <path d="M 189.098399 250.569084 
L 178.630733 264.807298 
L 172.773773 264.807298 
L 189.098399 242.602394 
L 209.609245 228.368312 
L 189.098399 221.11783 
L 152.659413 202.130742 
L 143.197441 191.929326 
L 141.63158 155.49034 
L 152.659413 139.758163 
L 179.725386 119.051354 
L 183.059303 113.012258 
L 189.098399 119.051354 
L 190.401566 120.354522 
L 189.098399 121.122433 
L 152.659413 149.357029 
L 148.360127 155.49034 
L 150.398634 191.929326 
L 152.659413 194.366782 
L 189.098399 217.0598 
L 221.088985 228.368312 
z
" clip-path="url(#p2f3097d4c5)" style="fill: #404688"/>
    <path d="M 116.220427 236.536669 
L 87.235454 264.807298 
L 85.485185 264.807298 
L 116.220427 234.829536 
L 146.698766 264.807298 
L 144.963127 264.807298 
z
" clip-path="url(#p2f3097d4c5)" style="fill: #404688"/>
   </g>
   <g id="PathCollection_6">
    <path d="M 189.098399 258.535775 
L 184.487694 264.807298 
L 178.630733 264.807298 
L 189.098399 250.569084 
L 221.088985 228.368312 
L 189.098399 217.0598 
L 152.659413 194.366782 
L 150.398634 191.929326 
L 148.360127 155.49034 
L 152.659413 149.357029 
L 189.098399 121.122433 
L 190.401566 120.354522 
L 195.553414 125.50637 
L 189.098399 129.310089 
L 156.356367 155.49034 
L 156.911814 191.929326 
L 189.098399 213.001769 
L 225.537385 224.866713 
L 225.537385 228.368312 
L 225.537385 247.64345 
z
" clip-path="url(#p2f3097d4c5)" style="fill: #3a538b"/>
    <path d="M 116.220427 238.243802 
L 88.985723 264.807298 
L 87.235454 264.807298 
L 116.220427 236.536669 
L 144.963127 264.807298 
L 143.227488 264.807298 
z
" clip-path="url(#p2f3097d4c5)" style="fill: #3a538b"/>
   </g>
   <g id="PathCollection_7">
    <path d="M 189.098399 264.807298 
L 184.487694 264.807298 
L 189.098399 258.535775 
L 225.537385 247.64345 
L 225.537385 264.807298 
z
" clip-path="url(#p2f3097d4c5)" style="fill: #34608d"/>
    <path d="M 116.220427 239.950935 
L 90.735992 264.807298 
L 88.985723 264.807298 
L 116.220427 238.243802 
L 143.227488 264.807298 
L 141.491849 264.807298 
z
" clip-path="url(#p2f3097d4c5)" style="fill: #34608d"/>
    <path d="M 189.098399 213.001769 
L 156.911814 191.929326 
L 156.356367 155.49034 
L 189.098399 129.310089 
L 195.553414 125.50637 
L 200.705262 130.658218 
L 189.098399 137.497745 
L 166.596165 155.49034 
L 163.110153 191.929326 
L 189.098399 208.943739 
L 225.537385 219.149817 
L 225.537385 224.866713 
z
" clip-path="url(#p2f3097d4c5)" style="fill: #34608d"/>
   </g>
   <g id="PathCollection_8">
    <path d="M 116.220427 241.658068 
L 92.486261 264.807298 
L 90.735992 264.807298 
L 116.220427 239.950935 
L 141.491849 264.807298 
L 139.75621 264.807298 
z
" clip-path="url(#p2f3097d4c5)" style="fill: #2f6c8e"/>
    <path d="M 189.098399 208.943739 
L 163.110153 191.929326 
L 166.596165 155.49034 
L 189.098399 137.497745 
L 200.705262 130.658218 
L 205.85711 135.810066 
L 189.098399 145.685401 
L 176.835963 155.49034 
L 169.308492 191.929326 
L 189.098399 204.885708 
L 225.537385 213.432921 
L 225.537385 219.149817 
z
" clip-path="url(#p2f3097d4c5)" style="fill: #2f6c8e"/>
   </g>
   <g id="PathCollection_9">
    <path d="M 116.220427 243.365201 
L 94.23653 264.807298 
L 92.486261 264.807298 
L 116.220427 241.658068 
L 139.75621 264.807298 
L 138.02057 264.807298 
z
" clip-path="url(#p2f3097d4c5)" style="fill: #2a768e"/>
    <path d="M 189.098399 204.885708 
L 169.308492 191.929326 
L 176.835963 155.49034 
L 189.098399 145.685401 
L 205.85711 135.810066 
L 211.008958 140.961914 
L 189.098399 153.873056 
L 187.075761 155.49034 
L 175.50683 191.929326 
L 189.098399 200.827678 
L 225.537385 207.716025 
L 225.537385 213.432921 
z
" clip-path="url(#p2f3097d4c5)" style="fill: #2a768e"/>
   </g>
   <g id="PathCollection_10">
    <path d="M 116.220427 245.072334 
L 95.986799 264.807298 
L 94.23653 264.807298 
L 116.220427 243.365201 
L 138.02057 264.807298 
L 136.284931 264.807298 
z
" clip-path="url(#p2f3097d4c5)" style="fill: #26828e"/>
    <path d="M 189.098399 200.827678 
L 175.50683 191.929326 
L 187.075761 155.49034 
L 189.098399 153.873056 
L 211.008958 140.961914 
L 216.160806 146.113762 
L 200.248498 155.49034 
L 189.098399 170.145804 
L 181.705169 191.929326 
L 189.098399 196.769647 
L 225.537385 201.999129 
L 225.537385 207.716025 
z
" clip-path="url(#p2f3097d4c5)" style="fill: #26828e"/>
   </g>
   <g id="PathCollection_11">
    <path d="M 116.220427 246.779467 
L 97.737068 264.807298 
L 95.986799 264.807298 
L 116.220427 245.072334 
L 136.284931 264.807298 
L 134.549292 264.807298 
z
" clip-path="url(#p2f3097d4c5)" style="fill: #228d8d"/>
    <path d="M 189.098399 196.769647 
L 181.705169 191.929326 
L 189.098399 170.145804 
L 200.248498 155.49034 
L 216.160806 146.113762 
L 221.312655 151.26561 
L 214.143173 155.49034 
L 189.098399 188.408682 
L 187.903508 191.929326 
L 189.098399 192.711617 
L 225.537385 196.282233 
L 225.537385 201.999129 
z
" clip-path="url(#p2f3097d4c5)" style="fill: #228d8d"/>
   </g>
   <g id="PathCollection_12">
    <path d="M 116.220427 248.4866 
L 99.487337 264.807298 
L 97.737068 264.807298 
L 116.220427 246.779467 
L 134.549292 264.807298 
L 132.813653 264.807298 
z
" clip-path="url(#p2f3097d4c5)" style="fill: #1f988b"/>
    <path d="M 189.098399 192.711617 
L 187.903508 191.929326 
L 189.098399 188.408682 
L 214.143173 155.49034 
L 221.312655 151.26561 
L 225.537385 155.49034 
L 225.537385 191.929326 
L 225.537385 196.282233 
z
" clip-path="url(#p2f3097d4c5)" style="fill: #1f988b"/>
   </g>
   <g id="PathCollection_13">
    <path d="M 116.220427 250.193733 
L 101.237606 264.807298 
L 99.487337 264.807298 
L 116.220427 248.4866 
L 132.813653 264.807298 
L 131.078014 264.807298 
z
" clip-path="url(#p2f3097d4c5)" style="fill: #20a386"/>
   </g>
   <g id="PathCollection_14">
    <path d="M 116.220427 251.900866 
L 102.987875 264.807298 
L 101.237606 264.807298 
L 116.220427 250.193733 
L 131.078014 264.807298 
L 129.342374 264.807298 
z
" clip-path="url(#p2f3097d4c5)" style="fill: #28ae80"/>
   </g>
   <g id="PathCollection_15">
    <path d="M 116.220427 253.607999 
L 104.738144 264.807298 
L 102.987875 264.807298 
L 116.220427 251.900866 
L 129.342374 264.807298 
L 127.606735 264.807298 
z
" clip-path="url(#p2f3097d4c5)" style="fill: #38b977"/>
   </g>
   <g id="PathCollection_16">
    <path d="M 116.220427 255.315132 
L 106.488413 264.807298 
L 104.738144 264.807298 
L 116.220427 253.607999 
L 127.606735 264.807298 
L 125.871096 264.807298 
z
" clip-path="url(#p2f3097d4c5)" style="fill: #4ec36b"/>
   </g>
   <g id="PathCollection_17">
    <path d="M 116.220427 257.022265 
L 108.238682 264.807298 
L 106.488413 264.807298 
L 116.220427 255.315132 
L 125.871096 264.807298 
L 124.135457 264.807298 
z
" clip-path="url(#p2f3097d4c5)" style="fill: #65cb5e"/>
   </g>
   <g id="PathCollection_18">
    <path d="M 116.220427 258.729398 
L 109.988951 264.807298 
L 108.238682 264.807298 
L 116.220427 257.022265 
L 124.135457 264.807298 
L 122.399818 264.807298 
z
" clip-path="url(#p2f3097d4c5)" style="fill: #81d34d"/>
   </g>
   <g id="PathCollection_19">
    <path d="M 116.220427 260.436531 
L 111.739219 264.807298 
L 109.988951 264.807298 
L 116.220427 258.729398 
L 122.399818 264.807298 
L 120.664178 264.807298 
z
" clip-path="url(#p2f3097d4c5)" style="fill: #a0da39"/>
   </g>
   <g id="PathCollection_20">
    <path d="M 116.220427 262.143664 
L 113.489488 264.807298 
L 111.739219 264.807298 
L 116.220427 260.436531 
L 120.664178 264.807298 
L 118.928539 264.807298 
z
" clip-path="url(#p2f3097d4c5)" style="fill: #c0df25"/>
   </g>
   <g id="PathCollection_21">
    <path d="M 116.220427 263.850797 
L 115.239757 264.807298 
L 113.489488 264.807298 
L 116.220427 262.143664 
L 118.928539 264.807298 
L 117.1929 264.807298 
z
" clip-path="url(#p2f3097d4c5)" style="fill: #dfe318"/>
   </g>
   <g id="PathCollection_22">
    <path d="M 116.220427 264.807298 
L 115.239757 264.807298 
L 116.220427 263.850797 
L 117.1929 264.807298 
z
" clip-path="url(#p2f3097d4c5)" style="fill: #fde725"/>
   </g>
   <g id="patch_2">
    <path d="M 46.145455 304.049282 
L 249.054545 304.049282 
L 249.054545 125.34689 
L 177.858373 54.150718 
L 46.145455 54.150718 
z
" clip-path="url(#p2f3097d4c5)" style="fill: #808080; opacity: 0.15; stroke: #808080; stroke-linejoin: miter"/>
   </g>
   <g id="patch_3">
    <path d="M 164.964578 175.615872 
L 187.388569 175.615872 
L 187.388569 173.373473 
L 164.964578 173.373473 
z
" clip-path="url(#p2f3097d4c5)" style="fill: #ff0000; stroke: #ff0000; stroke-linejoin: miter"/>
   </g>
   <g id="PathCollection_23">
    <defs>
     <path id="m39de99b27f" d="M 0 0.866025 
C 0.229673 0.866025 0.449969 0.774776 0.612372 0.612372 
C 0.774776 0.449969 0.866025 0.229673 0.866025 0 
C 0.866025 -0.229673 0.774776 -0.449969 0.612372 -0.612372 
C 0.449969 -0.774776 0.229673 -0.866025 0 -0.866025 
C -0.229673 -0.866025 -0.449969 -0.774776 -0.612372 -0.612372 
C -0.774776 -0.449969 -0.866025 -0.229673 -0.866025 0 
C -0.866025 0.229673 -0.774776 0.449969 -0.612372 0.612372 
C -0.449969 0.774776 -0.229673 0.866025 0 0.866025 
z
" style="stroke: #000000"/>
    </defs>
    <g clip-path="url(#p2f3097d4c5)">
     <use xlink:href="#m39de99b27f" x="225.537385" y="264.807298" style="stroke: #000000"/>
     <use xlink:href="#m39de99b27f" x="189.098399" y="264.807298" style="stroke: #000000"/>
     <use xlink:href="#m39de99b27f" x="152.659413" y="264.807298" style="stroke: #000000"/>
     <use xlink:href="#m39de99b27f" x="116.220427" y="264.807298" style="stroke: #000000"/>
     <use xlink:href="#m39de99b27f" x="79.781441" y="264.807298" style="stroke: #000000"/>
     <use xlink:href="#m39de99b27f" x="225.537385" y="228.368312" style="stroke: #000000"/>
     <use xlink:href="#m39de99b27f" x="189.098399" y="228.368312" style="stroke: #000000"/>
     <use xlink:href="#m39de99b27f" x="152.659413" y="228.368312" style="stroke: #000000"/>
     <use xlink:href="#m39de99b27f" x="116.220427" y="228.368312" style="stroke: #000000"/>
     <use xlink:href="#m39de99b27f" x="79.781441" y="228.368312" style="stroke: #000000"/>
     <use xlink:href="#m39de99b27f" x="225.537385" y="191.929326" style="stroke: #000000"/>
     <use xlink:href="#m39de99b27f" x="189.098399" y="191.929326" style="stroke: #000000"/>
     <use xlink:href="#m39de99b27f" x="152.659413" y="191.929326" style="stroke: #000000"/>
     <use xlink:href="#m39de99b27f" x="116.220427" y="191.929326" style="stroke: #000000"/>
     <use xlink:href="#m39de99b27f" x="79.781441" y="191.929326" style="stroke: #000000"/>
     <use xlink:href="#m39de99b27f" x="225.537385" y="155.49034" style="stroke: #000000"/>
     <use xlink:href="#m39de99b27f" x="189.098399" y="155.49034" style="stroke: #000000"/>
     <use xlink:href="#m39de99b27f" x="152.659413" y="155.49034" style="stroke: #000000"/>
     <use xlink:href="#m39de99b27f" x="116.220427" y="155.49034" style="stroke: #000000"/>
     <use xlink:href="#m39de99b27f" x="79.781441" y="155.49034" style="stroke: #000000"/>
     <use xlink:href="#m39de99b27f" x="189.098399" y="119.051354" style="stroke: #000000"/>
     <use xlink:href="#m39de99b27f" x="152.659413" y="119.051354" style="stroke: #000000"/>
     <use xlink:href="#m39de99b27f" x="116.220427" y="119.051354" style="stroke: #000000"/>
     <use xlink:href="#m39de99b27f" x="79.781441" y="119.051354" style="stroke: #000000"/>
     <use xlink:href="#m39de99b27f" x="152.659413" y="82.612369" style="stroke: #000000"/>
     <use xlink:href="#m39de99b27f" x="116.220427" y="82.612369" style="stroke: #000000"/>
     <use xlink:href="#m39de99b27f" x="79.781441" y="82.612369" style="stroke: #000000"/>
    </g>
   </g>
   <g id="text_1">
    <!-- SPIRIT -->
    <g transform="translate(119.399062 37.2) scale(0.18 -0.18)">
     <defs>
      <path id="DejaVuSans-53" d="M 3425 4513 
L 3425 3897 
Q 3066 4069 2747 4153 
Q 2428 4238 2131 4238 
Q 1616 4238 1336 4038 
Q 1056 3838 1056 3469 
Q 1056 3159 1242 3001 
Q 1428 2844 1947 2747 
L 2328 2669 
Q 3034 2534 3370 2195 
Q 3706 1856 3706 1288 
Q 3706 609 3251 259 
Q 2797 -91 1919 -91 
Q 1588 -91 1214 -16 
Q 841 59 441 206 
L 441 856 
Q 825 641 1194 531 
Q 1563 422 1919 422 
Q 2459 422 2753 634 
Q 3047 847 3047 1241 
Q 3047 1584 2836 1778 
Q 2625 1972 2144 2069 
L 1759 2144 
Q 1053 2284 737 2584 
Q 422 2884 422 3419 
Q 422 4038 858 4394 
Q 1294 4750 2059 4750 
Q 2388 4750 2728 4690 
Q 3069 4631 3425 4513 
z
" transform="scale(0.015625)"/>
      <path id="DejaVuSans-50" d="M 1259 4147 
L 1259 2394 
L 2053 2394 
Q 2494 2394 2734 2622 
Q 2975 2850 2975 3272 
Q 2975 3691 2734 3919 
Q 2494 4147 2053 4147 
L 1259 4147 
z
M 628 4666 
L 2053 4666 
Q 2838 4666 3239 4311 
Q 3641 3956 3641 3272 
Q 3641 2581 3239 2228 
Q 2838 1875 2053 1875 
L 1259 1875 
L 1259 0 
L 628 0 
L 628 4666 
z
" transform="scale(0.015625)"/>
      <path id="DejaVuSans-49" d="M 628 4666 
L 1259 4666 
L 1259 0 
L 628 0 
L 628 4666 
z
" transform="scale(0.015625)"/>
      <path id="DejaVuSans-52" d="M 2841 2188 
Q 3044 2119 3236 1894 
Q 3428 1669 3622 1275 
L 4263 0 
L 3584 0 
L 2988 1197 
Q 2756 1666 2539 1819 
Q 2322 1972 1947 1972 
L 1259 1972 
L 1259 0 
L 628 0 
L 628 4666 
L 2053 4666 
Q 2853 4666 3247 4331 
Q 3641 3997 3641 3322 
Q 3641 2881 3436 2590 
Q 3231 2300 2841 2188 
z
M 1259 4147 
L 1259 2491 
L 2053 2491 
Q 2509 2491 2742 2702 
Q 2975 2913 2975 3322 
Q 2975 3731 2742 3939 
Q 2509 4147 2053 4147 
L 1259 4147 
z
" transform="scale(0.015625)"/>
      <path id="DejaVuSans-54" d="M -19 4666 
L 3928 4666 
L 3928 4134 
L 2272 4134 
L 2272 0 
L 1638 0 
L 1638 4134 
L -19 4134 
L -19 4666 
z
" transform="scale(0.015625)"/>
     </defs>
     <use xlink:href="#DejaVuSans-53"/>
     <use xlink:href="#DejaVuSans-50" x="63.476562"/>
     <use xlink:href="#DejaVuSans-49" x="123.779297"/>
     <use xlink:href="#DejaVuSans-52" x="153.271484"/>
     <use xlink:href="#DejaVuSans-49" x="222.753906"/>
     <use xlink:href="#DejaVuSans-54" x="252.246094"/>
    </g>
   </g>
  </g>
 </g>
 <defs>
  <clipPath id="p2f3097d4c5">
   <rect x="36" y="43.2" width="223.2" height="271.8"/>
  </clipPath>
 </defs>
</svg>
