<?xml version="1.0" encoding="utf-8" standalone="no"?>
<!DOCTYPE svg PUBLIC "-//W3C//DTD SVG 1.1//EN"
  "http://www.w3.org/Graphics/SVG/1.1/DTD/svg11.dtd">
<svg xmlns:xlink="http://www.w3.org/1999/xlink" width="286.2pt" height="279pt" viewBox="0 0 286.2 279" xmlns="http://www.w3.org/2000/svg" version="1.1">
 <metadata>
  <rdf:RDF xmlns:dc="http://purl.org/dc/elements/1.1/" xmlns:cc="http://creativecommons.org/ns#" xmlns:rdf="http://www.w3.org/1999/02/22-rdf-syntax-ns#">
   <cc:Work>
    <dc:type rdf:resource="http://purl.org/dc/dcmitype/StillImage"/>
    <dc:date>2024-08-19T02:00:35.438287</dc:date>
    <dc:format>image/svg+xml</dc:format>
    <dc:creator>
     <cc:Agent>
      <dc:title>Matplotlib v3.7.2, https://matplotlib.org/</dc:title>
     </cc:Agent>
    </dc:creator>
   </cc:Work>
  </rdf:RDF>
 </metadata>
 <defs>
  <style type="text/css">*{stroke-linejoin: round; stroke-linecap: butt}</style>
 </defs>
 <g id="figure_1">
  <g id="patch_1">
   <path d="M 0 279 
L 286.2 279 
L 286.2 0 
L 0 0 
L 0 279 
z
" style="fill: none"/>
  </g>
  <g id="axes_1">
   <g id="PathCollection_1">
    <path d="M 8.565829 274.034171 
L 9.931658 274.034171 
L 10.266501 274.034171 
L 9.931658 273.717707 
L 8.885247 272.668342 
L 8.565829 272.328192 
L 7.649778 271.302513 
L 7.2 270.762654 
L 7.2 271.302513 
L 7.2 272.668342 
L 7.2 274.034171 
z
" clip-path="url(#p3c2549fa4e)" style="fill: #460a5d"/>
    <path d="M 90.515578 274.034171 
L 91.881407 274.034171 
L 93.247236 274.034171 
L 94.613065 274.034171 
L 95.978894 274.034171 
L 97.344724 274.034171 
L 98.710553 274.034171 
L 100.076382 274.034171 
L 101.442211 274.034171 
L 102.80804 274.034171 
L 104.173869 274.034171 
L 105.539698 274.034171 
L 106.905528 274.034171 
L 108.271357 274.034171 
L 109.637186 274.034171 
L 111.003015 274.034171 
L 112.368844 274.034171 
L 113.734673 274.034171 
L 115.100503 274.034171 
L 116.466332 274.034171 
L 117.832161 274.034171 
L 119.19799 274.034171 
L 120.563819 274.034171 
L 121.929648 274.034171 
L 123.295477 274.034171 
L 124.661307 274.034171 
L 126.027136 274.034171 
L 127.392965 274.034171 
L 128.758794 274.034171 
L 130.124623 274.034171 
L 131.490452 274.034171 
L 132.856281 274.034171 
L 134.222111 274.034171 
L 135.58794 274.034171 
L 136.953769 274.034171 
L 138.319598 274.034171 
L 139.685427 274.034171 
L 141.051256 274.034171 
L 142.417085 274.034171 
L 143.782915 274.034171 
L 145.148744 274.034171 
L 146.514573 274.034171 
L 147.880402 274.034171 
L 149.246231 274.034171 
L 150.61206 274.034171 
L 151.977889 274.034171 
L 153.343719 274.034171 
L 154.709548 274.034171 
L 156.075377 274.034171 
L 157.441206 274.034171 
L 158.807035 274.034171 
L 160.172864 274.034171 
L 161.480718 274.034171 
L 160.172864 273.485675 
L 158.807035 272.872208 
L 158.373298 272.668342 
L 157.441206 272.218197 
L 156.075377 271.526496 
L 155.646195 271.302513 
L 154.709548 270.797009 
L 153.343719 270.035978 
L 153.167072 269.936683 
L 151.977889 269.241623 
L 150.846781 268.570854 
L 150.61206 268.425359 
L 149.246231 267.586577 
L 148.617373 267.205025 
L 147.880402 266.735871 
L 146.514573 265.885867 
L 146.436086 265.839196 
L 145.148744 265.033955 
L 144.207959 264.473367 
L 143.782915 264.205924 
L 142.417085 263.406843 
L 141.857974 263.107538 
L 141.051256 262.651022 
L 139.685427 261.959133 
L 139.191297 261.741709 
L 138.319598 261.336012 
L 136.953769 260.803155 
L 135.58794 260.377387 
L 135.581354 260.375879 
L 134.222111 260.047305 
L 132.856281 259.836806 
L 131.490452 259.745425 
L 130.124623 259.7703 
L 128.758794 259.906455 
L 127.392965 260.147079 
L 126.466937 260.375879 
L 126.027136 260.478712 
L 124.661307 260.881834 
L 123.295477 261.357482 
L 122.322842 261.741709 
L 121.929648 261.888878 
L 120.563819 262.453327 
L 119.19799 263.057426 
L 119.091446 263.107538 
L 117.832161 263.669741 
L 116.466332 264.300663 
L 116.104017 264.473367 
L 115.100503 264.929141 
L 113.734673 265.557707 
L 113.128634 265.839196 
L 112.368844 266.176905 
L 111.003015 266.783698 
L 110.046292 267.205025 
L 109.637186 267.378264 
L 108.271357 267.95224 
L 106.905528 268.513066 
L 106.763147 268.570854 
L 105.539698 269.050719 
L 104.173869 269.572008 
L 103.193347 269.936683 
L 102.80804 270.075937 
L 101.442211 270.559791 
L 100.076382 271.028497 
L 99.257572 271.302513 
L 98.710553 271.481396 
L 97.344724 271.918551 
L 95.978894 272.342967 
L 94.905649 272.668342 
L 94.613065 272.7555 
L 93.247236 273.156528 
L 91.881407 273.547876 
L 90.515578 273.930593 
L 90.142412 274.034171 
z
" clip-path="url(#p3c2549fa4e)" style="fill: #460a5d"/>
    <path d="M 268.073367 274.034171 
L 269.439196 274.034171 
L 270.805025 274.034171 
L 272.170854 274.034171 
L 273.536683 274.034171 
L 274.902513 274.034171 
L 276.268342 274.034171 
L 277.634171 274.034171 
L 279 274.034171 
L 279 272.668342 
L 279 271.302513 
L 279 269.936683 
L 279 268.570854 
L 279 267.205025 
L 279 265.839196 
L 279 264.473367 
L 279 263.107538 
L 279 261.741709 
L 279 260.375879 
L 279 259.01005 
L 279 257.644221 
L 279 256.278392 
L 279 254.912563 
L 279 253.546734 
L 279 252.180905 
L 279 250.815075 
L 279 249.449246 
L 279 248.083417 
L 279 246.717588 
L 279 245.351759 
L 279 243.98593 
L 279 242.620101 
L 279 241.254271 
L 279 239.888442 
L 279 238.522613 
L 279 237.156784 
L 279 235.790955 
L 279 234.425126 
L 279 233.059296 
L 279 231.693467 
L 279 230.327638 
L 279 228.961809 
L 279 227.59598 
L 279 226.230151 
L 279 224.864322 
L 279 223.498492 
L 279 222.132663 
L 279 220.766834 
L 279 219.401005 
L 279 218.035176 
L 279 216.669347 
L 279 215.303518 
L 279 213.937688 
L 279 212.571859 
L 279 211.20603 
L 279 209.840201 
L 279 208.474372 
L 279 207.108543 
L 279 205.742714 
L 279 204.376884 
L 279 203.011055 
L 279 201.645226 
L 279 200.279397 
L 279 198.913568 
L 279 197.547739 
L 279 196.18191 
L 279 194.81608 
L 279 193.450251 
L 279 192.084422 
L 279 190.718593 
L 279 189.352764 
L 279 187.986935 
L 279 186.621106 
L 279 185.255276 
L 279 183.889447 
L 279 182.523618 
L 279 181.157789 
L 279 179.79196 
L 279 178.426131 
L 279 177.060302 
L 279 175.694472 
L 279 174.328643 
L 279 172.962814 
L 279 171.596985 
L 279 170.231156 
L 279 168.865327 
L 279 167.499497 
L 279 166.133668 
L 279 164.767839 
L 279 163.40201 
L 279 162.036181 
L 279 160.670352 
L 279 159.304523 
L 279 157.938693 
L 279 156.572864 
L 279 155.207035 
L 279 153.841206 
L 279 152.475377 
L 279 151.109548 
L 279 149.743719 
L 279 148.377889 
L 279 147.01206 
L 279 145.646231 
L 279 144.280402 
L 279 142.914573 
L 279 141.548744 
L 279 140.182915 
L 279 138.817085 
L 279 137.451256 
L 279 136.085427 
L 279 134.719598 
L 279 133.353769 
L 279 131.98794 
L 279 130.622111 
L 279 129.256281 
L 279 127.890452 
L 279 126.524623 
L 279 125.158794 
L 279 123.792965 
L 279 122.427136 
L 279 121.061307 
L 279 119.695477 
L 279 118.329648 
L 279 116.963819 
L 279 115.59799 
L 279 114.232161 
L 279 112.866332 
L 279 111.500503 
L 279 110.134673 
L 279 108.768844 
L 279 107.403015 
L 279 106.037186 
L 279 104.671357 
L 279 103.305528 
L 279 101.939698 
L 279 100.573869 
L 279 99.20804 
L 279 97.842211 
L 279 96.476382 
L 279 95.110553 
L 277.634171 93.744724 
L 276.268342 92.378894 
L 274.902513 91.013065 
L 273.536683 89.647236 
L 272.170854 88.281407 
L 270.805025 86.915578 
L 269.439196 85.549749 
L 268.073367 84.18392 
L 266.707538 82.81809 
L 265.341709 81.452261 
L 264.281888 80.39244 
L 264.316322 81.452261 
L 264.322592 82.81809 
L 264.294023 84.18392 
L 264.233619 85.549749 
L 264.144364 86.915578 
L 264.029218 88.281407 
L 263.975879 88.81035 
L 263.889677 89.647236 
L 263.728871 91.013065 
L 263.550643 92.378894 
L 263.357868 93.744724 
L 263.153352 95.110553 
L 262.93982 96.476382 
L 262.719903 97.842211 
L 262.61005 98.514788 
L 262.493616 99.20804 
L 262.263535 100.573869 
L 262.034461 101.939698 
L 261.808602 103.305528 
L 261.588026 104.671357 
L 261.374661 106.037186 
L 261.244221 106.910485 
L 261.168325 107.403015 
L 260.969542 108.768844 
L 260.783388 110.134673 
L 260.611266 111.500503 
L 260.454444 112.866332 
L 260.314061 114.232161 
L 260.191118 115.59799 
L 260.086486 116.963819 
L 260.000896 118.329648 
L 259.934944 119.695477 
L 259.889083 121.061307 
L 259.878392 121.634744 
L 259.863177 122.427136 
L 259.858137 123.792965 
L 259.874297 125.158794 
L 259.878392 125.308771 
L 259.910574 126.524623 
L 259.966949 127.890452 
L 260.043162 129.256281 
L 260.138722 130.622111 
L 260.253033 131.98794 
L 260.385416 133.353769 
L 260.535115 134.719598 
L 260.701319 136.085427 
L 260.883172 137.451256 
L 261.079786 138.817085 
L 261.244221 139.882633 
L 261.289231 140.182915 
L 261.507674 141.548744 
L 261.737841 142.914573 
L 261.978802 144.280402 
L 262.22962 145.646231 
L 262.489343 147.01206 
L 262.61005 147.624986 
L 262.754592 148.377889 
L 263.024687 149.743719 
L 263.300603 151.109548 
L 263.581315 152.475377 
L 263.865765 153.841206 
L 263.975879 154.361758 
L 264.15095 155.207035 
L 264.436456 156.572864 
L 264.722364 157.938693 
L 265.007555 159.304523 
L 265.290918 160.670352 
L 265.341709 160.915585 
L 265.570108 162.036181 
L 265.845046 163.40201 
L 266.115012 164.767839 
L 266.379078 166.133668 
L 266.636408 167.499497 
L 266.707538 167.885568 
L 266.886239 168.865327 
L 267.127955 170.231156 
L 267.361086 171.596985 
L 267.585293 172.962814 
L 267.800393 174.328643 
L 268.00636 175.694472 
L 268.073367 176.156638 
L 268.203966 177.060302 
L 268.393132 178.426131 
L 268.57398 179.79196 
L 268.747118 181.157789 
L 268.9133 182.523618 
L 269.073414 183.889447 
L 269.228465 185.255276 
L 269.379565 186.621106 
L 269.439196 187.168104 
L 269.528768 187.986935 
L 269.677012 189.352764 
L 269.825022 190.718593 
L 269.974122 192.084422 
L 270.125627 193.450251 
L 270.280815 194.81608 
L 270.440902 196.18191 
L 270.607016 197.547739 
L 270.780176 198.913568 
L 270.805025 199.099691 
L 270.963481 200.279397 
L 271.155886 201.645226 
L 271.357606 203.011055 
L 271.569027 204.376884 
L 271.790344 205.742714 
L 272.021553 207.108543 
L 272.170854 207.95137 
L 272.264182 208.474372 
L 272.519055 209.840201 
L 272.78273 211.20603 
L 273.05441 212.571859 
L 273.33313 213.937688 
L 273.536683 214.910474 
L 273.619685 215.303518 
L 273.915783 216.669347 
L 274.215138 218.035176 
L 274.516213 219.401005 
L 274.817381 220.766834 
L 274.902513 221.15054 
L 275.123092 222.132663 
L 275.427768 223.498492 
L 275.727154 224.864322 
L 276.019435 226.230151 
L 276.268342 227.427539 
L 276.303967 227.59598 
L 276.585809 228.961809 
L 276.854769 230.327638 
L 277.109101 231.693467 
L 277.347109 233.059296 
L 277.567153 234.425126 
L 277.634171 234.8781 
L 277.772794 235.790955 
L 277.959097 237.156784 
L 278.121913 238.522613 
L 278.259707 239.888442 
L 278.370955 241.254271 
L 278.454119 242.620101 
L 278.507629 243.98593 
L 278.529858 245.351759 
L 278.51909 246.717588 
L 278.473496 248.083417 
L 278.391093 249.449246 
L 278.269714 250.815075 
L 278.106966 252.180905 
L 277.900184 253.546734 
L 277.646387 254.912563 
L 277.634171 254.968341 
L 277.352939 256.278392 
L 277.007758 257.644221 
L 276.606261 259.01005 
L 276.268342 260.014854 
L 276.147705 260.375879 
L 275.635608 261.741709 
L 275.053379 263.107538 
L 274.902513 263.428611 
L 274.407775 264.473367 
L 273.683901 265.839196 
L 273.536683 266.094364 
L 272.883352 267.205025 
L 272.170854 268.30093 
L 271.990354 268.570854 
L 271.000813 269.936683 
L 270.805025 270.187825 
L 269.900246 271.302513 
L 269.439196 271.83105 
L 268.671657 272.668342 
L 268.073367 273.2816 
L 267.294405 274.034171 
z
" clip-path="url(#p3c2549fa4e)" style="fill: #460a5d"/>
    <path d="M 7.413158 197.547739 
L 7.650947 196.18191 
L 7.872513 194.81608 
L 8.076556 193.450251 
L 8.261891 192.084422 
L 8.427476 190.718593 
L 8.565829 189.414618 
L 8.572413 189.352764 
L 8.695754 187.986935 
L 8.797251 186.621106 
L 8.876622 185.255276 
L 8.933807 183.889447 
L 8.968969 182.523618 
L 8.9825 181.157789 
L 8.975015 179.79196 
L 8.947351 178.426131 
L 8.900553 177.060302 
L 8.835864 175.694472 
L 8.754708 174.328643 
L 8.658675 172.962814 
L 8.565829 171.802334 
L 8.549416 171.596985 
L 8.428325 170.231156 
L 8.297797 168.865327 
L 8.159864 167.499497 
L 8.016608 166.133668 
L 7.870135 164.767839 
L 7.722551 163.40201 
L 7.575938 162.036181 
L 7.432331 160.670352 
L 7.293703 159.304523 
L 7.2 158.33503 
L 7.2 159.304523 
L 7.2 160.670352 
L 7.2 162.036181 
L 7.2 163.40201 
L 7.2 164.767839 
L 7.2 166.133668 
L 7.2 167.499497 
L 7.2 168.865327 
L 7.2 170.231156 
L 7.2 171.596985 
L 7.2 172.962814 
L 7.2 174.328643 
L 7.2 175.694472 
L 7.2 177.060302 
L 7.2 178.426131 
L 7.2 179.79196 
L 7.2 181.157789 
L 7.2 182.523618 
L 7.2 183.889447 
L 7.2 185.255276 
L 7.2 186.621106 
L 7.2 187.986935 
L 7.2 189.352764 
L 7.2 190.718593 
L 7.2 192.084422 
L 7.2 193.450251 
L 7.2 194.81608 
L 7.2 196.18191 
L 7.2 197.547739 
L 7.2 198.698285 
z
" clip-path="url(#p3c2549fa4e)" style="fill: #460a5d"/>
    <path d="M 7.274658 134.719598 
L 7.466891 133.353769 
L 7.682731 131.98794 
L 7.922547 130.622111 
L 8.186757 129.256281 
L 8.475849 127.890452 
L 8.565829 127.495777 
L 8.78927 126.524623 
L 9.128345 125.158794 
L 9.494377 123.792965 
L 9.888358 122.427136 
L 9.931658 122.285126 
L 10.311904 121.061307 
L 10.766106 119.695477 
L 11.252489 118.329648 
L 11.297487 118.209362 
L 11.776317 116.963819 
L 12.336725 115.59799 
L 12.663317 114.845921 
L 12.939254 114.232161 
L 13.587482 112.866332 
L 14.029146 111.987648 
L 14.284432 111.500503 
L 15.037097 110.134673 
L 15.394975 109.517673 
L 15.850663 108.768844 
L 16.726176 107.403015 
L 16.760804 107.351048 
L 17.683981 106.037186 
L 18.126633 105.434626 
L 18.72061 104.671357 
L 19.492462 103.716315 
L 19.845439 103.305528 
L 20.858291 102.162615 
L 21.068832 101.939698 
L 22.224121 100.745103 
L 22.400751 100.573869 
L 23.58995 99.439537 
L 23.848506 99.20804 
L 24.955779 98.225047 
L 25.413599 97.842211 
L 26.321608 97.083378 
L 27.088062 96.476382 
L 27.687437 95.998143 
L 28.851252 95.110553 
L 29.053266 94.954053 
L 30.419095 93.934472 
L 30.681634 93.744724 
L 31.784925 92.922928 
L 32.527028 92.378894 
L 33.150754 91.9037 
L 34.321591 91.013065 
L 34.516583 90.857668 
L 35.882412 89.760649 
L 36.021765 89.647236 
L 37.248241 88.585822 
L 37.589539 88.281407 
L 38.61407 87.303069 
L 39.004682 86.915578 
L 39.979899 85.874285 
L 40.271099 85.549749 
L 41.345729 84.256426 
L 41.403353 84.18392 
L 42.424765 82.81809 
L 42.711558 82.4083 
L 43.354103 81.452261 
L 44.077387 80.305305 
L 44.210457 80.086432 
L 45.016532 78.720603 
L 45.443216 77.972467 
L 45.786029 77.354774 
L 46.534158 75.988945 
L 46.809045 75.487914 
L 47.275621 74.623116 
L 48.018708 73.257286 
L 48.174874 72.978328 
L 48.779729 71.891457 
L 49.540704 70.560568 
L 49.560712 70.525628 
L 50.382115 69.159799 
L 50.906533 68.324759 
L 51.243796 67.79397 
L 52.15701 66.428141 
L 52.272362 66.264555 
L 53.137637 65.062312 
L 53.638191 64.402235 
L 54.187516 63.696482 
L 55.00402 62.700498 
L 55.316678 62.330653 
L 56.369849 61.144847 
L 56.535292 60.964824 
L 57.735678 59.716272 
L 57.852575 59.598995 
L 59.101508 58.394589 
L 59.275078 58.233166 
L 60.467337 57.160383 
L 60.804438 56.867337 
L 61.833166 55.995896 
L 62.434932 55.501508 
L 63.198995 54.885199 
L 64.151546 54.135678 
L 64.564824 53.813952 
L 65.929451 52.769849 
L 65.930653 52.768933 
L 67.296482 51.742438 
L 67.748293 51.40402 
L 68.662312 50.714469 
L 69.553023 50.038191 
L 70.028141 49.672458 
L 71.307345 48.672362 
L 71.39397 48.60331 
L 72.759799 47.494939 
L 72.98589 47.306533 
L 74.125628 46.331431 
L 74.567204 45.940704 
L 75.491457 45.099056 
L 76.046474 44.574874 
L 76.857286 43.786449 
L 77.429494 43.209045 
L 78.223116 42.385946 
L 78.728114 41.843216 
L 79.588945 40.896169 
L 79.957479 40.477387 
L 80.954774 39.324571 
L 81.13402 39.111558 
L 82.274486 37.745729 
L 82.320603 37.690521 
L 83.396464 36.379899 
L 83.686432 36.028842 
L 84.515904 35.01407 
L 85.052261 34.368535 
L 85.649082 33.648241 
L 86.41809 32.74402 
L 86.812816 32.282412 
L 87.78392 31.185479 
L 88.025341 30.916583 
L 89.149749 29.715334 
L 89.307382 29.550754 
L 90.515578 28.346927 
L 90.683477 28.184925 
L 91.881407 27.085246 
L 92.183617 26.819095 
L 93.247236 25.928924 
L 93.845301 25.453266 
L 94.613065 24.872636 
L 95.71621 24.087437 
L 95.978894 23.909278 
L 97.344724 23.04105 
L 97.885236 22.721608 
L 98.710553 22.255622 
L 100.076382 21.545193 
L 100.471821 21.355779 
L 101.442211 20.909653 
L 102.80804 20.338003 
L 103.725356 19.98995 
L 104.173869 19.825628 
L 105.539698 19.372433 
L 106.905528 18.967476 
L 108.207472 18.624121 
L 108.271357 18.60773 
L 109.637186 18.295098 
L 111.003015 18.020669 
L 112.368844 17.781527 
L 113.734673 17.574939 
L 115.100503 17.398354 
L 116.384504 17.258291 
L 116.466332 17.249518 
L 117.832161 17.127565 
L 119.19799 17.028827 
L 120.563819 16.951534 
L 121.929648 16.894112 
L 123.295477 16.855176 
L 124.661307 16.83352 
L 126.027136 16.828109 
L 127.392965 16.838058 
L 128.758794 16.862617 
L 130.124623 16.90115 
L 131.490452 16.953112 
L 132.856281 17.018023 
L 134.222111 17.095441 
L 135.58794 17.184939 
L 136.579396 17.258291 
L 136.953769 17.286386 
L 138.319598 17.399911 
L 139.685427 17.524126 
L 141.051256 17.658386 
L 142.417085 17.801944 
L 143.782915 17.953928 
L 145.148744 18.113339 
L 146.514573 18.279032 
L 147.880402 18.449722 
L 149.246231 18.623983 
L 149.247306 18.624121 
L 150.61206 18.803068 
L 151.977889 18.982435 
L 153.343719 19.160272 
L 154.709548 19.334693 
L 156.075377 19.503755 
L 157.441206 19.665496 
L 158.807035 19.817962 
L 160.172864 19.959247 
L 160.500749 19.98995 
L 161.538693 20.089627 
L 162.904523 20.205627 
L 164.270352 20.305012 
L 165.636181 20.386397 
L 167.00201 20.448623 
L 168.367839 20.490779 
L 169.733668 20.512226 
L 171.099497 20.512621 
L 172.465327 20.491926 
L 173.831156 20.450425 
L 175.196985 20.388725 
L 176.562814 20.307762 
L 177.928643 20.208795 
L 179.294472 20.093402 
L 180.381206 19.98995 
L 180.660302 19.964051 
L 182.026131 19.824933 
L 183.39196 19.676169 
L 184.757789 19.520391 
L 186.123618 19.360446 
L 187.489447 19.199359 
L 188.855276 19.040312 
L 190.221106 18.886607 
L 191.586935 18.74164 
L 192.795353 18.624121 
L 192.952764 18.609136 
L 194.318593 18.494093 
L 195.684422 18.397951 
L 197.050251 18.324156 
L 198.41608 18.276144 
L 199.78191 18.257331 
L 201.147739 18.271112 
L 202.199065 18.309617 
L 201.147739 17.258291 
L 199.78191 15.892462 
L 198.41608 14.526633 
L 197.050251 13.160804 
L 195.684422 11.794975 
L 194.318593 10.429146 
L 192.952764 9.063317 
L 191.586935 7.697487 
L 190.221106 6.331658 
L 188.855276 4.965829 
L 187.489447 3.6 
L 186.123618 3.6 
L 184.757789 3.6 
L 183.39196 3.6 
L 182.026131 3.6 
L 180.660302 3.6 
L 179.294472 3.6 
L 177.928643 3.6 
L 176.562814 3.6 
L 175.196985 3.6 
L 173.831156 3.6 
L 172.465327 3.6 
L 171.099497 3.6 
L 169.733668 3.6 
L 168.367839 3.6 
L 167.00201 3.6 
L 165.636181 3.6 
L 164.270352 3.6 
L 162.904523 3.6 
L 161.538693 3.6 
L 160.172864 3.6 
L 158.807035 3.6 
L 157.441206 3.6 
L 156.075377 3.6 
L 154.709548 3.6 
L 153.343719 3.6 
L 151.977889 3.6 
L 150.61206 3.6 
L 149.246231 3.6 
L 147.880402 3.6 
L 146.514573 3.6 
L 145.148744 3.6 
L 143.782915 3.6 
L 142.417085 3.6 
L 141.051256 3.6 
L 139.685427 3.6 
L 138.319598 3.6 
L 136.953769 3.6 
L 135.58794 3.6 
L 134.222111 3.6 
L 132.856281 3.6 
L 131.490452 3.6 
L 130.124623 3.6 
L 128.758794 3.6 
L 127.392965 3.6 
L 126.027136 3.6 
L 124.661307 3.6 
L 123.295477 3.6 
L 121.929648 3.6 
L 120.563819 3.6 
L 119.19799 3.6 
L 117.832161 3.6 
L 116.466332 3.6 
L 115.100503 3.6 
L 113.734673 3.6 
L 112.368844 3.6 
L 111.003015 3.6 
L 109.637186 3.6 
L 108.271357 3.6 
L 106.905528 3.6 
L 105.539698 3.6 
L 104.173869 3.6 
L 102.80804 3.6 
L 101.442211 3.6 
L 100.076382 3.6 
L 98.710553 3.6 
L 97.344724 4.965829 
L 95.978894 6.331658 
L 94.613065 7.697487 
L 93.247236 9.063317 
L 91.881407 10.429146 
L 90.515578 11.794975 
L 89.149749 13.160804 
L 87.78392 14.526633 
L 86.41809 15.892462 
L 85.052261 17.258291 
L 83.686432 18.624121 
L 82.320603 19.98995 
L 80.954774 21.355779 
L 79.588945 22.721608 
L 78.223116 24.087437 
L 76.857286 25.453266 
L 75.491457 26.819095 
L 74.125628 28.184925 
L 72.759799 29.550754 
L 71.39397 30.916583 
L 70.028141 32.282412 
L 68.662312 33.648241 
L 67.296482 35.01407 
L 65.930653 36.379899 
L 64.564824 37.745729 
L 63.198995 39.111558 
L 61.833166 40.477387 
L 60.467337 41.843216 
L 59.101508 43.209045 
L 57.735678 44.574874 
L 56.369849 45.940704 
L 55.00402 47.306533 
L 53.638191 48.672362 
L 52.272362 50.038191 
L 50.906533 51.40402 
L 49.540704 52.769849 
L 48.174874 54.135678 
L 46.809045 55.501508 
L 45.443216 56.867337 
L 44.077387 58.233166 
L 42.711558 59.598995 
L 41.345729 60.964824 
L 39.979899 62.330653 
L 38.61407 63.696482 
L 37.248241 65.062312 
L 35.882412 66.428141 
L 34.516583 67.79397 
L 33.150754 69.159799 
L 31.784925 70.525628 
L 30.419095 71.891457 
L 29.053266 73.257286 
L 27.687437 74.623116 
L 26.321608 75.988945 
L 24.955779 77.354774 
L 23.58995 78.720603 
L 22.224121 80.086432 
L 20.858291 81.452261 
L 19.492462 82.81809 
L 18.126633 84.18392 
L 16.760804 85.549749 
L 15.394975 86.915578 
L 14.029146 88.281407 
L 12.663317 89.647236 
L 11.297487 91.013065 
L 9.931658 92.378894 
L 8.565829 93.744724 
L 7.2 95.110553 
L 7.2 96.476382 
L 7.2 97.842211 
L 7.2 99.20804 
L 7.2 100.573869 
L 7.2 101.939698 
L 7.2 103.305528 
L 7.2 104.671357 
L 7.2 106.037186 
L 7.2 107.403015 
L 7.2 108.768844 
L 7.2 110.134673 
L 7.2 111.500503 
L 7.2 112.866332 
L 7.2 114.232161 
L 7.2 115.59799 
L 7.2 116.963819 
L 7.2 118.329648 
L 7.2 119.695477 
L 7.2 121.061307 
L 7.2 122.427136 
L 7.2 123.792965 
L 7.2 125.158794 
L 7.2 126.524623 
L 7.2 127.890452 
L 7.2 129.256281 
L 7.2 130.622111 
L 7.2 131.98794 
L 7.2 133.353769 
L 7.2 134.719598 
L 7.2 135.320249 
z
" clip-path="url(#p3c2549fa4e)" style="fill: #460a5d"/>
   </g>
   <g id="PathCollection_2">
    <path d="M 9.931658 273.717707 
L 10.266501 274.034171 
L 11.297487 274.034171 
L 12.663317 274.034171 
L 14.029146 274.034171 
L 15.394975 274.034171 
L 16.760804 274.034171 
L 18.126633 274.034171 
L 19.492462 274.034171 
L 20.858291 274.034171 
L 22.224121 274.034171 
L 23.58995 274.034171 
L 24.955779 274.034171 
L 26.321608 274.034171 
L 27.687437 274.034171 
L 29.053266 274.034171 
L 30.419095 274.034171 
L 31.784925 274.034171 
L 33.150754 274.034171 
L 34.516583 274.034171 
L 35.882412 274.034171 
L 37.248241 274.034171 
L 38.61407 274.034171 
L 39.979899 274.034171 
L 41.345729 274.034171 
L 42.711558 274.034171 
L 44.077387 274.034171 
L 45.443216 274.034171 
L 46.809045 274.034171 
L 48.174874 274.034171 
L 49.540704 274.034171 
L 50.906533 274.034171 
L 52.272362 274.034171 
L 53.638191 274.034171 
L 55.00402 274.034171 
L 56.369849 274.034171 
L 57.735678 274.034171 
L 59.101508 274.034171 
L 60.467337 274.034171 
L 61.833166 274.034171 
L 63.198995 274.034171 
L 64.564824 274.034171 
L 65.930653 274.034171 
L 67.296482 274.034171 
L 68.662312 274.034171 
L 70.028141 274.034171 
L 71.39397 274.034171 
L 72.759799 274.034171 
L 74.125628 274.034171 
L 75.491457 274.034171 
L 76.857286 274.034171 
L 78.223116 274.034171 
L 79.588945 274.034171 
L 80.954774 274.034171 
L 82.320603 274.034171 
L 83.686432 274.034171 
L 85.052261 274.034171 
L 86.41809 274.034171 
L 87.78392 274.034171 
L 89.149749 274.034171 
L 90.142412 274.034171 
L 90.515578 273.930593 
L 91.881407 273.547876 
L 93.247236 273.156528 
L 94.613065 272.7555 
L 94.905649 272.668342 
L 95.978894 272.342967 
L 97.344724 271.918551 
L 98.710553 271.481396 
L 99.257572 271.302513 
L 100.076382 271.028497 
L 101.442211 270.559791 
L 102.80804 270.075937 
L 103.193347 269.936683 
L 104.173869 269.572008 
L 105.539698 269.050719 
L 106.763147 268.570854 
L 106.905528 268.513066 
L 108.271357 267.95224 
L 109.637186 267.378264 
L 110.046292 267.205025 
L 111.003015 266.783698 
L 112.368844 266.176905 
L 113.128634 265.839196 
L 113.734673 265.557707 
L 115.100503 264.929141 
L 116.104017 264.473367 
L 116.466332 264.300663 
L 117.832161 263.669741 
L 119.091446 263.107538 
L 119.19799 263.057426 
L 120.563819 262.453327 
L 121.929648 261.888878 
L 122.322842 261.741709 
L 123.295477 261.357482 
L 124.661307 260.881834 
L 126.027136 260.478712 
L 126.466937 260.375879 
L 127.392965 260.147079 
L 128.758794 259.906455 
L 130.124623 259.7703 
L 131.490452 259.745425 
L 132.856281 259.836806 
L 134.222111 260.047305 
L 135.581354 260.375879 
L 135.58794 260.377387 
L 136.953769 260.803155 
L 138.319598 261.336012 
L 139.191297 261.741709 
L 139.685427 261.959133 
L 141.051256 262.651022 
L 141.857974 263.107538 
L 142.417085 263.406843 
L 143.782915 264.205924 
L 144.207959 264.473367 
L 145.148744 265.033955 
L 146.436086 265.839196 
L 146.514573 265.885867 
L 147.880402 266.735871 
L 148.617373 267.205025 
L 149.246231 267.586577 
L 150.61206 268.425359 
L 150.846781 268.570854 
L 151.977889 269.241623 
L 153.167072 269.936683 
L 153.343719 270.035978 
L 154.709548 270.797009 
L 155.646195 271.302513 
L 156.075377 271.526496 
L 157.441206 272.218197 
L 158.373298 272.668342 
L 158.807035 272.872208 
L 160.172864 273.485675 
L 161.480718 274.034171 
L 161.538693 274.034171 
L 162.904523 274.034171 
L 164.270352 274.034171 
L 165.636181 274.034171 
L 167.00201 274.034171 
L 168.367839 274.034171 
L 169.733668 274.034171 
L 171.099497 274.034171 
L 172.465327 274.034171 
L 173.831156 274.034171 
L 175.196985 274.034171 
L 176.562814 274.034171 
L 177.928643 274.034171 
L 179.294472 274.034171 
L 180.660302 274.034171 
L 182.026131 274.034171 
L 183.39196 274.034171 
L 184.757789 274.034171 
L 186.123618 274.034171 
L 187.489447 274.034171 
L 188.855276 274.034171 
L 190.221106 274.034171 
L 191.586935 274.034171 
L 192.952764 274.034171 
L 194.318593 274.034171 
L 195.684422 274.034171 
L 197.050251 274.034171 
L 198.41608 274.034171 
L 199.78191 274.034171 
L 201.147739 274.034171 
L 202.513568 274.034171 
L 203.879397 274.034171 
L 205.245226 274.034171 
L 206.611055 274.034171 
L 207.976884 274.034171 
L 209.342714 274.034171 
L 210.708543 274.034171 
L 212.074372 274.034171 
L 213.440201 274.034171 
L 214.80603 274.034171 
L 216.171859 274.034171 
L 217.537688 274.034171 
L 218.903518 274.034171 
L 220.269347 274.034171 
L 221.635176 274.034171 
L 223.001005 274.034171 
L 224.366834 274.034171 
L 225.732663 274.034171 
L 227.098492 274.034171 
L 228.464322 274.034171 
L 229.830151 274.034171 
L 231.19598 274.034171 
L 232.561809 274.034171 
L 233.927638 274.034171 
L 235.293467 274.034171 
L 236.659296 274.034171 
L 238.025126 274.034171 
L 239.390955 274.034171 
L 240.756784 274.034171 
L 242.122613 274.034171 
L 243.488442 274.034171 
L 244.854271 274.034171 
L 246.220101 274.034171 
L 247.58593 274.034171 
L 248.951759 274.034171 
L 250.317588 274.034171 
L 251.683417 274.034171 
L 253.049246 274.034171 
L 254.415075 274.034171 
L 255.780905 274.034171 
L 257.146734 274.034171 
L 258.512563 274.034171 
L 259.878392 274.034171 
L 261.244221 274.034171 
L 262.61005 274.034171 
L 263.975879 274.034171 
L 265.341709 274.034171 
L 266.707538 274.034171 
L 267.294405 274.034171 
L 268.073367 273.2816 
L 268.671657 272.668342 
L 269.439196 271.83105 
L 269.900246 271.302513 
L 270.805025 270.187825 
L 271.000813 269.936683 
L 271.990354 268.570854 
L 272.170854 268.30093 
L 272.883352 267.205025 
L 273.536683 266.094364 
L 273.683901 265.839196 
L 274.407775 264.473367 
L 274.902513 263.428611 
L 275.053379 263.107538 
L 275.635608 261.741709 
L 276.147705 260.375879 
L 276.268342 260.014854 
L 276.606261 259.01005 
L 277.007758 257.644221 
L 277.352939 256.278392 
L 277.634171 254.968341 
L 277.646387 254.912563 
L 277.900184 253.546734 
L 278.106966 252.180905 
L 278.269714 250.815075 
L 278.391093 249.449246 
L 278.473496 248.083417 
L 278.51909 246.717588 
L 278.529858 245.351759 
L 278.507629 243.98593 
L 278.454119 242.620101 
L 278.370955 241.254271 
L 278.259707 239.888442 
L 278.121913 238.522613 
L 277.959097 237.156784 
L 277.772794 235.790955 
L 277.634171 234.8781 
L 277.567153 234.425126 
L 277.347109 233.059296 
L 277.109101 231.693467 
L 276.854769 230.327638 
L 276.585809 228.961809 
L 276.303967 227.59598 
L 276.268342 227.427539 
L 276.019435 226.230151 
L 275.727154 224.864322 
L 275.427768 223.498492 
L 275.123092 222.132663 
L 274.902513 221.15054 
L 274.817381 220.766834 
L 274.516213 219.401005 
L 274.215138 218.035176 
L 273.915783 216.669347 
L 273.619685 215.303518 
L 273.536683 214.910474 
L 273.33313 213.937688 
L 273.05441 212.571859 
L 272.78273 211.20603 
L 272.519055 209.840201 
L 272.264182 208.474372 
L 272.170854 207.95137 
L 272.021553 207.108543 
L 271.790344 205.742714 
L 271.569027 204.376884 
L 271.357606 203.011055 
L 271.155886 201.645226 
L 270.963481 200.279397 
L 270.805025 199.099691 
L 270.780176 198.913568 
L 270.607016 197.547739 
L 270.440902 196.18191 
L 270.280815 194.81608 
L 270.125627 193.450251 
L 269.974122 192.084422 
L 269.825022 190.718593 
L 269.677012 189.352764 
L 269.528768 187.986935 
L 269.439196 187.168104 
L 269.379565 186.621106 
L 269.228465 185.255276 
L 269.073414 183.889447 
L 268.9133 182.523618 
L 268.747118 181.157789 
L 268.57398 179.79196 
L 268.393132 178.426131 
L 268.203966 177.060302 
L 268.073367 176.156638 
L 268.00636 175.694472 
L 267.800393 174.328643 
L 267.585293 172.962814 
L 267.361086 171.596985 
L 267.127955 170.231156 
L 266.886239 168.865327 
L 266.707538 167.885568 
L 266.636408 167.499497 
L 266.379078 166.133668 
L 266.115012 164.767839 
L 265.845046 163.40201 
L 265.570108 162.036181 
L 265.341709 160.915585 
L 265.290918 160.670352 
L 265.007555 159.304523 
L 264.722364 157.938693 
L 264.436456 156.572864 
L 264.15095 155.207035 
L 263.975879 154.361758 
L 263.865765 153.841206 
L 263.581315 152.475377 
L 263.300603 151.109548 
L 263.024687 149.743719 
L 262.754592 148.377889 
L 262.61005 147.624986 
L 262.489343 147.01206 
L 262.22962 145.646231 
L 261.978802 144.280402 
L 261.737841 142.914573 
L 261.507674 141.548744 
L 261.289231 140.182915 
L 261.244221 139.882633 
L 261.079786 138.817085 
L 260.883172 137.451256 
L 260.701319 136.085427 
L 260.535115 134.719598 
L 260.385416 133.353769 
L 260.253033 131.98794 
L 260.138722 130.622111 
L 260.043162 129.256281 
L 259.966949 127.890452 
L 259.910574 126.524623 
L 259.878392 125.308771 
L 259.874297 125.158794 
L 259.858137 123.792965 
L 259.863177 122.427136 
L 259.878392 121.634744 
L 259.889083 121.061307 
L 259.934944 119.695477 
L 260.000896 118.329648 
L 260.086486 116.963819 
L 260.191118 115.59799 
L 260.314061 114.232161 
L 260.454444 112.866332 
L 260.611266 111.500503 
L 260.783388 110.134673 
L 260.969542 108.768844 
L 261.168325 107.403015 
L 261.244221 106.910485 
L 261.374661 106.037186 
L 261.588026 104.671357 
L 261.808602 103.305528 
L 262.034461 101.939698 
L 262.263535 100.573869 
L 262.493616 99.20804 
L 262.61005 98.514788 
L 262.719903 97.842211 
L 262.93982 96.476382 
L 263.153352 95.110553 
L 263.357868 93.744724 
L 263.550643 92.378894 
L 263.728871 91.013065 
L 263.889677 89.647236 
L 263.975879 88.81035 
L 264.029218 88.281407 
L 264.144364 86.915578 
L 264.233619 85.549749 
L 264.294023 84.18392 
L 264.322592 82.81809 
L 264.316322 81.452261 
L 264.281888 80.39244 
L 263.975879 80.086432 
L 262.61005 78.720603 
L 261.244221 77.354774 
L 259.878392 75.988945 
L 258.512563 74.623116 
L 257.146734 73.257286 
L 255.780905 71.891457 
L 254.415075 70.525628 
L 253.049246 69.159799 
L 251.683417 67.79397 
L 250.317588 66.428141 
L 248.951759 65.062312 
L 247.58593 63.696482 
L 246.220101 62.330653 
L 244.854271 60.964824 
L 243.488442 59.598995 
L 242.122613 58.233166 
L 240.756784 56.867337 
L 239.390955 55.501508 
L 238.025126 54.135678 
L 236.659296 52.769849 
L 235.293467 51.40402 
L 233.927638 50.038191 
L 232.561809 48.672362 
L 231.19598 47.306533 
L 229.830151 45.940704 
L 228.464322 44.574874 
L 227.098492 43.209045 
L 225.732663 41.843216 
L 224.366834 40.477387 
L 223.001005 39.111558 
L 221.635176 37.745729 
L 220.269347 36.379899 
L 218.903518 35.01407 
L 217.537688 33.648241 
L 216.171859 32.282412 
L 214.80603 30.916583 
L 213.440201 29.550754 
L 212.074372 28.184925 
L 210.708543 26.819095 
L 209.342714 25.453266 
L 207.976884 24.087437 
L 206.611055 22.721608 
L 205.245226 21.355779 
L 203.879397 19.98995 
L 202.513568 18.624121 
L 202.199065 18.309617 
L 201.147739 18.271112 
L 199.78191 18.257331 
L 198.41608 18.276144 
L 197.050251 18.324156 
L 195.684422 18.397951 
L 194.318593 18.494093 
L 192.952764 18.609136 
L 192.795353 18.624121 
L 191.586935 18.74164 
L 190.221106 18.886607 
L 188.855276 19.040312 
L 187.489447 19.199359 
L 186.123618 19.360446 
L 184.757789 19.520391 
L 183.39196 19.676169 
L 182.026131 19.824933 
L 180.660302 19.964051 
L 180.381206 19.98995 
L 179.294472 20.093402 
L 177.928643 20.208795 
L 176.562814 20.307762 
L 175.196985 20.388725 
L 173.831156 20.450425 
L 172.465327 20.491926 
L 171.099497 20.512621 
L 169.733668 20.512226 
L 168.367839 20.490779 
L 167.00201 20.448623 
L 165.636181 20.386397 
L 164.270352 20.305012 
L 162.904523 20.205627 
L 161.538693 20.089627 
L 160.500749 19.98995 
L 160.172864 19.959247 
L 158.807035 19.817962 
L 157.441206 19.665496 
L 156.075377 19.503755 
L 154.709548 19.334693 
L 153.343719 19.160272 
L 151.977889 18.982435 
L 150.61206 18.803068 
L 149.247306 18.624121 
L 149.246231 18.623983 
L 147.880402 18.449722 
L 146.514573 18.279032 
L 145.148744 18.113339 
L 143.782915 17.953928 
L 142.417085 17.801944 
L 141.051256 17.658386 
L 139.685427 17.524126 
L 138.319598 17.399911 
L 136.953769 17.286386 
L 136.579396 17.258291 
L 135.58794 17.184939 
L 134.222111 17.095441 
L 132.856281 17.018023 
L 131.490452 16.953112 
L 130.124623 16.90115 
L 128.758794 16.862617 
L 127.392965 16.838058 
L 126.027136 16.828109 
L 124.661307 16.83352 
L 123.295477 16.855176 
L 121.929648 16.894112 
L 120.563819 16.951534 
L 119.19799 17.028827 
L 117.832161 17.127565 
L 116.466332 17.249518 
L 116.384504 17.258291 
L 115.100503 17.398354 
L 113.734673 17.574939 
L 112.368844 17.781527 
L 111.003015 18.020669 
L 109.637186 18.295098 
L 108.271357 18.60773 
L 108.207472 18.624121 
L 106.905528 18.967476 
L 105.539698 19.372433 
L 104.173869 19.825628 
L 103.725356 19.98995 
L 102.80804 20.338003 
L 101.442211 20.909653 
L 100.471821 21.355779 
L 100.076382 21.545193 
L 98.710553 22.255622 
L 97.885236 22.721608 
L 97.344724 23.04105 
L 95.978894 23.909278 
L 95.71621 24.087437 
L 94.613065 24.872636 
L 93.845301 25.453266 
L 93.247236 25.928924 
L 92.183617 26.819095 
L 91.881407 27.085246 
L 90.683477 28.184925 
L 90.515578 28.346927 
L 89.307382 29.550754 
L 89.149749 29.715334 
L 88.025341 30.916583 
L 87.78392 31.185479 
L 86.812816 32.282412 
L 86.41809 32.74402 
L 85.649082 33.648241 
L 85.052261 34.368535 
L 84.515904 35.01407 
L 83.686432 36.028842 
L 83.396464 36.379899 
L 82.320603 37.690521 
L 82.274486 37.745729 
L 81.13402 39.111558 
L 80.954774 39.324571 
L 79.957479 40.477387 
L 79.588945 40.896169 
L 78.728114 41.843216 
L 78.223116 42.385946 
L 77.429494 43.209045 
L 76.857286 43.786449 
L 76.046474 44.574874 
L 75.491457 45.099056 
L 74.567204 45.940704 
L 74.125628 46.331431 
L 72.98589 47.306533 
L 72.759799 47.494939 
L 71.39397 48.60331 
L 71.307345 48.672362 
L 70.028141 49.672458 
L 69.553023 50.038191 
L 68.662312 50.714469 
L 67.748293 51.40402 
L 67.296482 51.742438 
L 65.930653 52.768933 
L 65.929451 52.769849 
L 64.564824 53.813952 
L 64.151546 54.135678 
L 63.198995 54.885199 
L 62.434932 55.501508 
L 61.833166 55.995896 
L 60.804438 56.867337 
L 60.467337 57.160383 
L 59.275078 58.233166 
L 59.101508 58.394589 
L 57.852575 59.598995 
L 57.735678 59.716272 
L 56.535292 60.964824 
L 56.369849 61.144847 
L 55.316678 62.330653 
L 55.00402 62.700498 
L 54.187516 63.696482 
L 53.638191 64.402235 
L 53.137637 65.062312 
L 52.272362 66.264555 
L 52.15701 66.428141 
L 51.243796 67.79397 
L 50.906533 68.324759 
L 50.382115 69.159799 
L 49.560712 70.525628 
L 49.540704 70.560568 
L 48.779729 71.891457 
L 48.174874 72.978328 
L 48.018708 73.257286 
L 47.275621 74.623116 
L 46.809045 75.487914 
L 46.534158 75.988945 
L 45.786029 77.354774 
L 45.443216 77.972467 
L 45.016532 78.720603 
L 44.210457 80.086432 
L 44.077387 80.305305 
L 43.354103 81.452261 
L 42.711558 82.4083 
L 42.424765 82.81809 
L 41.403353 84.18392 
L 41.345729 84.256426 
L 40.271099 85.549749 
L 39.979899 85.874285 
L 39.004682 86.915578 
L 38.61407 87.303069 
L 37.589539 88.281407 
L 37.248241 88.585822 
L 36.021765 89.647236 
L 35.882412 89.760649 
L 34.516583 90.857668 
L 34.321591 91.013065 
L 33.150754 91.9037 
L 32.527028 92.378894 
L 31.784925 92.922928 
L 30.681634 93.744724 
L 30.419095 93.934472 
L 29.053266 94.954053 
L 28.851252 95.110553 
L 27.687437 95.998143 
L 27.088062 96.476382 
L 26.321608 97.083378 
L 25.413599 97.842211 
L 24.955779 98.225047 
L 23.848506 99.20804 
L 23.58995 99.439537 
L 22.400751 100.573869 
L 22.224121 100.745103 
L 21.068832 101.939698 
L 20.858291 102.162615 
L 19.845439 103.305528 
L 19.492462 103.716315 
L 18.72061 104.671357 
L 18.126633 105.434626 
L 17.683981 106.037186 
L 16.760804 107.351048 
L 16.726176 107.403015 
L 15.850663 108.768844 
L 15.394975 109.517673 
L 15.037097 110.134673 
L 14.284432 111.500503 
L 14.029146 111.987648 
L 13.587482 112.866332 
L 12.939254 114.232161 
L 12.663317 114.845921 
L 12.336725 115.59799 
L 11.776317 116.963819 
L 11.297487 118.209362 
L 11.252489 118.329648 
L 10.766106 119.695477 
L 10.311904 121.061307 
L 9.931658 122.285126 
L 9.888358 122.427136 
L 9.494377 123.792965 
L 9.128345 125.158794 
L 8.78927 126.524623 
L 8.565829 127.495777 
L 8.475849 127.890452 
L 8.186757 129.256281 
L 7.922547 130.622111 
L 7.682731 131.98794 
L 7.466891 133.353769 
L 7.274658 134.719598 
L 7.2 135.320249 
L 7.2 136.085427 
L 7.2 137.451256 
L 7.2 138.817085 
L 7.2 140.182915 
L 7.2 141.548744 
L 7.2 142.914573 
L 7.2 144.280402 
L 7.2 145.646231 
L 7.2 147.01206 
L 7.2 148.377889 
L 7.2 149.743719 
L 7.2 151.109548 
L 7.2 152.475377 
L 7.2 153.841206 
L 7.2 155.207035 
L 7.2 156.572864 
L 7.2 157.938693 
L 7.2 158.33503 
L 7.293703 159.304523 
L 7.432331 160.670352 
L 7.575938 162.036181 
L 7.722551 163.40201 
L 7.870135 164.767839 
L 8.016608 166.133668 
L 8.159864 167.499497 
L 8.297797 168.865327 
L 8.428325 170.231156 
L 8.549416 171.596985 
L 8.565829 171.802334 
L 8.658675 172.962814 
L 8.754708 174.328643 
L 8.835864 175.694472 
L 8.900553 177.060302 
L 8.947351 178.426131 
L 8.975015 179.79196 
L 8.9825 181.157789 
L 8.968969 182.523618 
L 8.933807 183.889447 
L 8.876622 185.255276 
L 8.797251 186.621106 
L 8.695754 187.986935 
L 8.572413 189.352764 
L 8.565829 189.414618 
L 8.427476 190.718593 
L 8.261891 192.084422 
L 8.076556 193.450251 
L 7.872513 194.81608 
L 7.650947 196.18191 
L 7.413158 197.547739 
L 7.2 198.698285 
L 7.2 198.913568 
L 7.2 200.279397 
L 7.2 201.645226 
L 7.2 203.011055 
L 7.2 204.376884 
L 7.2 205.742714 
L 7.2 207.108543 
L 7.2 208.474372 
L 7.2 209.840201 
L 7.2 211.20603 
L 7.2 212.571859 
L 7.2 213.937688 
L 7.2 215.303518 
L 7.2 216.669347 
L 7.2 218.035176 
L 7.2 219.401005 
L 7.2 220.766834 
L 7.2 222.132663 
L 7.2 223.498492 
L 7.2 224.864322 
L 7.2 226.230151 
L 7.2 227.59598 
L 7.2 228.961809 
L 7.2 230.327638 
L 7.2 231.693467 
L 7.2 233.059296 
L 7.2 234.425126 
L 7.2 235.790955 
L 7.2 237.156784 
L 7.2 238.522613 
L 7.2 239.888442 
L 7.2 241.254271 
L 7.2 242.620101 
L 7.2 243.98593 
L 7.2 245.351759 
L 7.2 246.717588 
L 7.2 248.083417 
L 7.2 249.449246 
L 7.2 250.815075 
L 7.2 252.180905 
L 7.2 253.546734 
L 7.2 254.912563 
L 7.2 256.278392 
L 7.2 257.644221 
L 7.2 259.01005 
L 7.2 260.375879 
L 7.2 261.741709 
L 7.2 263.107538 
L 7.2 264.473367 
L 7.2 265.839196 
L 7.2 267.205025 
L 7.2 268.570854 
L 7.2 269.936683 
L 7.2 270.762654 
L 7.649778 271.302513 
L 8.565829 272.328192 
L 8.885247 272.668342 
z
M 31.039599 268.570854 
L 30.419095 268.416219 
L 29.053266 268.000354 
L 27.687437 267.501492 
L 26.992779 267.205025 
L 26.321608 266.904257 
L 24.955779 266.198535 
L 24.344308 265.839196 
L 23.58995 265.36768 
L 22.323066 264.473367 
L 22.224121 264.398259 
L 20.858291 263.248053 
L 20.706574 263.107538 
L 19.492462 261.880768 
L 19.36603 261.741709 
L 18.238756 260.375879 
L 18.126633 260.224649 
L 17.287524 259.01005 
L 16.760804 258.145791 
L 16.472899 257.644221 
L 15.784867 256.278392 
L 15.394975 255.379012 
L 15.202078 254.912563 
L 14.720413 253.546734 
L 14.322383 252.180905 
L 14.029146 250.92961 
L 14.003169 250.815075 
L 13.762352 249.449246 
L 13.589097 248.083417 
L 13.479599 246.717588 
L 13.430414 245.351759 
L 13.4384 243.98593 
L 13.50067 242.620101 
L 13.61454 241.254271 
L 13.777493 239.888442 
L 13.987133 238.522613 
L 14.029146 238.294941 
L 14.246428 237.156784 
L 14.550076 235.790955 
L 14.894827 234.425126 
L 15.278483 233.059296 
L 15.394975 232.676892 
L 15.709068 231.693467 
L 16.179439 230.327638 
L 16.683436 228.961809 
L 16.760804 228.761568 
L 17.238485 227.59598 
L 17.827387 226.230151 
L 18.126633 225.56155 
L 18.461276 224.864322 
L 19.138291 223.498492 
L 19.492462 222.802535 
L 19.862304 222.132663 
L 20.632668 220.766834 
L 20.858291 220.371765 
L 21.467359 219.401005 
L 22.224121 218.211392 
L 22.348977 218.035176 
L 23.31746 216.669347 
L 23.58995 216.284791 
L 24.376734 215.303518 
L 24.955779 214.577207 
L 25.543603 213.937688 
L 26.321608 213.079959 
L 26.865326 212.571859 
L 27.687437 211.787294 
L 28.427518 211.20603 
L 29.053266 210.700087 
L 30.398352 209.840201 
L 30.419095 209.826434 
L 31.784925 209.146743 
L 33.150754 208.689977 
L 34.356751 208.474372 
L 34.516583 208.444197 
L 35.882412 208.401189 
L 36.493167 208.474372 
L 37.248241 208.560225 
L 38.61407 208.903728 
L 39.979899 209.429351 
L 40.783092 209.840201 
L 41.345729 210.114647 
L 42.711558 210.935527 
L 43.094898 211.20603 
L 44.077387 211.869455 
L 44.991914 212.571859 
L 45.443216 212.904595 
L 46.70838 213.937688 
L 46.809045 214.016845 
L 48.174874 215.18009 
L 48.310831 215.303518 
L 49.540704 216.382052 
L 49.85226 216.669347 
L 50.906533 217.611731 
L 51.362672 218.035176 
L 52.272362 218.856915 
L 52.85861 219.401005 
L 53.638191 220.108001 
L 54.351961 220.766834 
L 55.00402 221.357703 
L 55.851246 222.132663 
L 56.369849 222.600774 
L 57.362265 223.498492 
L 57.735678 223.83374 
L 58.88836 224.864322 
L 59.101508 225.054674 
L 60.430415 226.230151 
L 60.467337 226.263005 
L 61.833166 227.45928 
L 61.992272 227.59598 
L 63.198995 228.64804 
L 63.566865 228.961809 
L 64.564824 229.833407 
L 65.144577 230.327638 
L 65.930653 231.020859 
L 66.713247 231.693467 
L 67.296482 232.218063 
L 68.256917 233.059296 
L 68.662312 233.435901 
L 69.755975 234.425126 
L 70.028141 234.690348 
L 71.187605 235.790955 
L 71.39397 236.006012 
L 72.526534 237.156784 
L 72.759799 237.423141 
L 73.746037 238.522613 
L 74.125628 239.012778 
L 74.819096 239.888442 
L 75.491457 240.913547 
L 75.719589 241.254271 
L 76.441293 242.620101 
L 76.857286 243.719978 
L 76.959882 243.98593 
L 77.28148 245.351759 
L 77.390229 246.717588 
L 77.28616 248.083417 
L 76.967261 249.449246 
L 76.857286 249.727332 
L 76.442842 250.815075 
L 75.702389 252.180905 
L 75.491457 252.478882 
L 74.7556 253.546734 
L 74.125628 254.281429 
L 73.59577 254.912563 
L 72.759799 255.740547 
L 72.225011 256.278392 
L 71.39397 256.991671 
L 70.640791 257.644221 
L 70.028141 258.106747 
L 68.835706 259.01005 
L 68.662312 259.126505 
L 67.296482 260.046643 
L 66.80616 260.375879 
L 65.930653 260.904595 
L 64.564824 261.720077 
L 64.528437 261.741709 
L 63.198995 262.461837 
L 61.980185 263.107538 
L 61.833166 263.179356 
L 60.467337 263.837909 
L 59.105939 264.473367 
L 59.101508 264.475295 
L 57.735678 265.057766 
L 56.369849 265.61622 
L 55.802945 265.839196 
L 55.00402 266.135404 
L 53.638191 266.61815 
L 52.272362 267.071792 
L 51.845621 267.205025 
L 50.906533 267.484499 
L 49.540704 267.860566 
L 48.174874 268.202323 
L 46.809045 268.507581 
L 46.487205 268.570854 
L 45.443216 268.769008 
L 44.077387 268.988948 
L 42.711558 269.16669 
L 41.345729 269.299836 
L 39.979899 269.385877 
L 38.61407 269.422166 
L 37.248241 269.405884 
L 35.882412 269.334004 
L 34.516583 269.203238 
L 33.150754 269.009997 
L 31.784925 268.750327 
z
M 233.125287 267.205025 
L 232.561809 267.050663 
L 231.19598 266.631786 
L 229.830151 266.17005 
L 228.922267 265.839196 
L 228.464322 265.663727 
L 227.098492 265.11069 
L 225.732663 264.528779 
L 225.60575 264.473367 
L 224.366834 263.899609 
L 223.001005 263.251091 
L 222.699516 263.107538 
L 221.635176 262.56573 
L 220.269347 261.870656 
L 220.010682 261.741709 
L 218.903518 261.147021 
L 217.537688 260.430576 
L 217.428496 260.375879 
L 216.171859 259.692238 
L 214.855353 259.01005 
L 214.80603 258.98203 
L 213.440201 258.261472 
L 212.175073 257.644221 
L 212.074372 257.589829 
L 210.708543 256.925781 
L 209.342714 256.33358 
L 209.195492 256.278392 
L 207.976884 255.767114 
L 206.611055 255.28179 
L 205.340451 254.912563 
L 205.245226 254.881125 
L 203.879397 254.531727 
L 202.513568 254.277593 
L 201.147739 254.113941 
L 199.78191 254.034169 
L 198.41608 254.02999 
L 197.050251 254.091593 
L 195.684422 254.20784 
L 194.318593 254.366476 
L 192.952764 254.554365 
L 191.586935 254.75772 
L 190.552546 254.912563 
L 190.221106 254.956198 
L 188.855276 255.12381 
L 187.489447 255.267044 
L 186.123618 255.373696 
L 184.757789 255.431972 
L 183.39196 255.430606 
L 182.026131 255.358964 
L 180.660302 255.20712 
L 179.294472 254.965928 
L 179.078428 254.912563 
L 177.928643 254.584558 
L 176.562814 254.074447 
L 175.432054 253.546734 
L 175.196985 253.416684 
L 173.831156 252.507809 
L 173.412051 252.180905 
L 172.465327 251.277501 
L 172.041579 250.815075 
L 171.099497 249.503818 
L 171.064458 249.449246 
L 170.417349 248.083417 
L 169.990105 246.717588 
L 169.772308 245.351759 
L 169.754671 243.98593 
L 169.928823 242.620101 
L 170.287109 241.254271 
L 170.822384 239.888442 
L 171.099497 239.346402 
L 171.573655 238.522613 
L 172.465327 237.252347 
L 172.541913 237.156784 
L 173.807441 235.790955 
L 173.831156 235.768062 
L 175.196985 234.625723 
L 175.478757 234.425126 
L 176.562814 233.711528 
L 177.743928 233.059296 
L 177.928643 232.962723 
L 179.294472 232.370435 
L 180.660302 231.889666 
L 181.363578 231.693467 
L 182.026131 231.513834 
L 183.39196 231.228375 
L 184.757789 231.01515 
L 186.123618 230.862243 
L 187.489447 230.757255 
L 188.855276 230.687053 
L 190.221106 230.637551 
L 191.586935 230.593554 
L 192.952764 230.538676 
L 194.318593 230.455388 
L 195.659413 230.327638 
L 195.684422 230.325265 
L 197.050251 230.134127 
L 198.41608 229.860615 
L 199.78191 229.487319 
L 201.147739 228.998735 
L 201.230426 228.961809 
L 202.513568 228.390767 
L 203.879397 227.650212 
L 203.964175 227.59598 
L 205.245226 226.776027 
L 205.986272 226.230151 
L 206.611055 225.766607 
L 207.694063 224.864322 
L 207.976884 224.625717 
L 209.191526 223.498492 
L 209.342714 223.355785 
L 210.541847 222.132663 
L 210.708543 221.959099 
L 211.784987 220.766834 
L 212.074372 220.438683 
L 212.946917 219.401005 
L 213.440201 218.798929 
L 214.044733 218.035176 
L 214.80603 217.046032 
L 215.089607 216.669347 
L 216.085329 215.303518 
L 216.171859 215.179512 
L 217.031372 213.937688 
L 217.537688 213.178766 
L 217.944024 212.571859 
L 218.822324 211.20603 
L 218.903518 211.072378 
L 219.665061 209.840201 
L 220.269347 208.821088 
L 220.481139 208.474372 
L 221.269505 207.108543 
L 221.635176 206.441257 
L 222.035684 205.742714 
L 222.780368 204.376884 
L 223.001005 203.947764 
L 223.513902 203.011055 
L 224.232709 201.645226 
L 224.366834 201.375771 
L 224.960606 200.279397 
L 225.685576 198.913568 
L 225.732663 198.821036 
L 226.457435 197.547739 
L 227.098492 196.428101 
L 227.261538 196.18191 
L 228.166733 194.81608 
L 228.464322 194.378005 
L 229.235226 193.450251 
L 229.830151 192.765453 
L 230.616174 192.084422 
L 231.19598 191.607885 
L 232.561809 190.879782 
L 233.221386 190.718593 
L 233.927638 190.554588 
L 235.293467 190.610168 
L 235.631695 190.718593 
L 236.659296 191.034507 
L 238.025126 191.821583 
L 238.329715 192.084422 
L 239.390955 192.955393 
L 239.836499 193.450251 
L 240.756784 194.413409 
L 241.056803 194.81608 
L 242.122613 196.154613 
L 242.140202 196.18191 
L 243.079886 197.547739 
L 243.488442 198.097095 
L 243.991467 198.913568 
L 244.854271 200.208329 
L 244.894397 200.279397 
L 245.724619 201.645226 
L 246.220101 202.398821 
L 246.566402 203.011055 
L 247.398414 204.376884 
L 247.58593 204.663029 
L 248.202624 205.742714 
L 248.951759 206.967768 
L 249.027832 207.108543 
L 249.814561 208.474372 
L 250.317588 209.29716 
L 250.613911 209.840201 
L 251.40073 211.20603 
L 251.683417 211.672412 
L 252.17447 212.571859 
L 252.952314 213.937688 
L 253.049246 214.100873 
L 253.698189 215.303518 
L 254.415075 216.593692 
L 254.453623 216.669347 
L 255.171195 218.035176 
L 255.780905 219.176145 
L 255.891931 219.401005 
L 256.578654 220.766834 
L 257.146734 221.891814 
L 257.259957 222.132663 
L 257.905707 223.498492 
L 258.512563 224.796172 
L 258.542457 224.864322 
L 259.137914 226.230151 
L 259.717801 227.59598 
L 259.878392 227.983707 
L 260.261299 228.961809 
L 260.775245 230.327638 
L 261.244221 231.641055 
L 261.262056 231.693467 
L 261.703386 233.059296 
L 262.112114 234.425126 
L 262.485002 235.790955 
L 262.61005 236.299465 
L 262.813007 237.156784 
L 263.096488 238.522613 
L 263.336012 239.888442 
L 263.528666 241.254271 
L 263.671519 242.620101 
L 263.761587 243.98593 
L 263.795782 245.351759 
L 263.770872 246.717588 
L 263.683417 248.083417 
L 263.529715 249.449246 
L 263.305734 250.815075 
L 263.007038 252.180905 
L 262.628709 253.546734 
L 262.61005 253.602533 
L 262.15156 254.912563 
L 261.57966 256.278392 
L 261.244221 256.965935 
L 260.89307 257.644221 
L 260.079366 259.01005 
L 259.878392 259.30903 
L 259.10612 260.375879 
L 258.512563 261.106968 
L 257.950427 261.741709 
L 257.146734 262.562778 
L 256.556864 263.107538 
L 255.780905 263.764645 
L 254.840634 264.473367 
L 254.415075 264.771159 
L 253.049246 265.612575 
L 252.625021 265.839196 
L 251.683417 266.313031 
L 250.317588 266.895849 
L 249.444822 267.205025 
L 248.951759 267.371834 
L 247.58593 267.746249 
L 246.220101 268.034078 
L 244.854271 268.240256 
L 243.488442 268.369207 
L 242.122613 268.424939 
L 240.756784 268.411136 
L 239.390955 268.331248 
L 238.025126 268.18857 
L 236.659296 267.98633 
L 235.293467 267.727765 
L 233.927638 267.416201 
z
M 39.016949 159.304523 
L 38.61407 159.138068 
L 37.248241 158.272775 
L 36.865271 157.938693 
L 35.882412 156.997974 
L 35.537067 156.572864 
L 34.546345 155.207035 
L 34.516583 155.160109 
L 33.832391 153.841206 
L 33.236152 152.475377 
L 33.150754 152.233535 
L 32.814681 151.109548 
L 32.508429 149.743719 
L 32.308856 148.377889 
L 32.220259 147.01206 
L 32.24718 145.646231 
L 32.394478 144.280402 
L 32.667396 142.914573 
L 33.071617 141.548744 
L 33.150754 141.34707 
L 33.697728 140.182915 
L 34.511957 138.817085 
L 34.516583 138.810633 
L 35.735587 137.451256 
L 35.882412 137.312156 
L 37.248241 136.328993 
L 37.73105 136.085427 
L 38.61407 135.696014 
L 39.979899 135.329826 
L 41.345729 135.177613 
L 42.711558 135.214964 
L 44.077387 135.419696 
L 45.443216 135.771862 
L 46.328253 136.085427 
L 46.809045 136.272556 
L 48.174874 136.934407 
L 49.085716 137.451256 
L 49.540704 137.740996 
L 50.906533 138.726268 
L 51.020332 138.817085 
L 52.272362 139.968878 
L 52.486576 140.182915 
L 53.632413 141.548744 
L 53.638191 141.557373 
L 54.483776 142.914573 
L 55.00402 144.040068 
L 55.108489 144.280402 
L 55.48977 145.646231 
L 55.659211 147.01206 
L 55.617503 148.377889 
L 55.367505 149.743719 
L 55.00402 150.840433 
L 54.90802 151.109548 
L 54.213934 152.475377 
L 53.638191 153.359142 
L 53.296488 153.841206 
L 52.272362 155.046411 
L 52.121717 155.207035 
L 50.906533 156.338495 
L 50.623581 156.572864 
L 49.540704 157.383204 
L 48.685394 157.938693 
L 48.174874 158.246421 
L 46.809045 158.932786 
L 45.860274 159.304523 
L 45.443216 159.460062 
L 44.077387 159.807331 
L 42.711558 159.975334 
L 41.345729 159.939817 
L 39.979899 159.673678 
z
" clip-path="url(#p3c2549fa4e)" style="fill: #481c6e"/>
   </g>
   <g id="PathCollection_3">
    <path d="M 31.784925 268.750327 
L 33.150754 269.009997 
L 34.516583 269.203238 
L 35.882412 269.334004 
L 37.248241 269.405884 
L 38.61407 269.422166 
L 39.979899 269.385877 
L 41.345729 269.299836 
L 42.711558 269.16669 
L 44.077387 268.988948 
L 45.443216 268.769008 
L 46.487205 268.570854 
L 46.809045 268.507581 
L 48.174874 268.202323 
L 49.540704 267.860566 
L 50.906533 267.484499 
L 51.845621 267.205025 
L 52.272362 267.071792 
L 53.638191 266.61815 
L 55.00402 266.135404 
L 55.802945 265.839196 
L 56.369849 265.61622 
L 57.735678 265.057766 
L 59.101508 264.475295 
L 59.105939 264.473367 
L 60.467337 263.837909 
L 61.833166 263.179356 
L 61.980185 263.107538 
L 63.198995 262.461837 
L 64.528437 261.741709 
L 64.564824 261.720077 
L 65.930653 260.904595 
L 66.80616 260.375879 
L 67.296482 260.046643 
L 68.662312 259.126505 
L 68.835706 259.01005 
L 70.028141 258.106747 
L 70.640791 257.644221 
L 71.39397 256.991671 
L 72.225011 256.278392 
L 72.759799 255.740547 
L 73.59577 254.912563 
L 74.125628 254.281429 
L 74.7556 253.546734 
L 75.491457 252.478882 
L 75.702389 252.180905 
L 76.442842 250.815075 
L 76.857286 249.727332 
L 76.967261 249.449246 
L 77.28616 248.083417 
L 77.390229 246.717588 
L 77.28148 245.351759 
L 76.959882 243.98593 
L 76.857286 243.719978 
L 76.441293 242.620101 
L 75.719589 241.254271 
L 75.491457 240.913547 
L 74.819096 239.888442 
L 74.125628 239.012778 
L 73.746037 238.522613 
L 72.759799 237.423141 
L 72.526534 237.156784 
L 71.39397 236.006012 
L 71.187605 235.790955 
L 70.028141 234.690348 
L 69.755975 234.425126 
L 68.662312 233.435901 
L 68.256917 233.059296 
L 67.296482 232.218063 
L 66.713247 231.693467 
L 65.930653 231.020859 
L 65.144577 230.327638 
L 64.564824 229.833407 
L 63.566865 228.961809 
L 63.198995 228.64804 
L 61.992272 227.59598 
L 61.833166 227.45928 
L 60.467337 226.263005 
L 60.430415 226.230151 
L 59.101508 225.054674 
L 58.88836 224.864322 
L 57.735678 223.83374 
L 57.362265 223.498492 
L 56.369849 222.600774 
L 55.851246 222.132663 
L 55.00402 221.357703 
L 54.351961 220.766834 
L 53.638191 220.108001 
L 52.85861 219.401005 
L 52.272362 218.856915 
L 51.362672 218.035176 
L 50.906533 217.611731 
L 49.85226 216.669347 
L 49.540704 216.382052 
L 48.310831 215.303518 
L 48.174874 215.18009 
L 46.809045 214.016845 
L 46.70838 213.937688 
L 45.443216 212.904595 
L 44.991914 212.571859 
L 44.077387 211.869455 
L 43.094898 211.20603 
L 42.711558 210.935527 
L 41.345729 210.114647 
L 40.783092 209.840201 
L 39.979899 209.429351 
L 38.61407 208.903728 
L 37.248241 208.560225 
L 36.493167 208.474372 
L 35.882412 208.401189 
L 34.516583 208.444197 
L 34.356751 208.474372 
L 33.150754 208.689977 
L 31.784925 209.146743 
L 30.419095 209.826434 
L 30.398352 209.840201 
L 29.053266 210.700087 
L 28.427518 211.20603 
L 27.687437 211.787294 
L 26.865326 212.571859 
L 26.321608 213.079959 
L 25.543603 213.937688 
L 24.955779 214.577207 
L 24.376734 215.303518 
L 23.58995 216.284791 
L 23.31746 216.669347 
L 22.348977 218.035176 
L 22.224121 218.211392 
L 21.467359 219.401005 
L 20.858291 220.371765 
L 20.632668 220.766834 
L 19.862304 222.132663 
L 19.492462 222.802535 
L 19.138291 223.498492 
L 18.461276 224.864322 
L 18.126633 225.56155 
L 17.827387 226.230151 
L 17.238485 227.59598 
L 16.760804 228.761568 
L 16.683436 228.961809 
L 16.179439 230.327638 
L 15.709068 231.693467 
L 15.394975 232.676892 
L 15.278483 233.059296 
L 14.894827 234.425126 
L 14.550076 235.790955 
L 14.246428 237.156784 
L 14.029146 238.294941 
L 13.987133 238.522613 
L 13.777493 239.888442 
L 13.61454 241.254271 
L 13.50067 242.620101 
L 13.4384 243.98593 
L 13.430414 245.351759 
L 13.479599 246.717588 
L 13.589097 248.083417 
L 13.762352 249.449246 
L 14.003169 250.815075 
L 14.029146 250.92961 
L 14.322383 252.180905 
L 14.720413 253.546734 
L 15.202078 254.912563 
L 15.394975 255.379012 
L 15.784867 256.278392 
L 16.472899 257.644221 
L 16.760804 258.145791 
L 17.287524 259.01005 
L 18.126633 260.224649 
L 18.238756 260.375879 
L 19.36603 261.741709 
L 19.492462 261.880768 
L 20.706574 263.107538 
L 20.858291 263.248053 
L 22.224121 264.398259 
L 22.323066 264.473367 
L 23.58995 265.36768 
L 24.344308 265.839196 
L 24.955779 266.198535 
L 26.321608 266.904257 
L 26.992779 267.205025 
L 27.687437 267.501492 
L 29.053266 268.000354 
L 30.419095 268.416219 
L 31.039599 268.570854 
z
" clip-path="url(#p3c2549fa4e)" style="fill: #472d7b"/>
    <path d="M 233.927638 267.416201 
L 235.293467 267.727765 
L 236.659296 267.98633 
L 238.025126 268.18857 
L 239.390955 268.331248 
L 240.756784 268.411136 
L 242.122613 268.424939 
L 243.488442 268.369207 
L 244.854271 268.240256 
L 246.220101 268.034078 
L 247.58593 267.746249 
L 248.951759 267.371834 
L 249.444822 267.205025 
L 250.317588 266.895849 
L 251.683417 266.313031 
L 252.625021 265.839196 
L 253.049246 265.612575 
L 254.415075 264.771159 
L 254.840634 264.473367 
L 255.780905 263.764645 
L 256.556864 263.107538 
L 257.146734 262.562778 
L 257.950427 261.741709 
L 258.512563 261.106968 
L 259.10612 260.375879 
L 259.878392 259.30903 
L 260.079366 259.01005 
L 260.89307 257.644221 
L 261.244221 256.965935 
L 261.57966 256.278392 
L 262.15156 254.912563 
L 262.61005 253.602533 
L 262.628709 253.546734 
L 263.007038 252.180905 
L 263.305734 250.815075 
L 263.529715 249.449246 
L 263.683417 248.083417 
L 263.770872 246.717588 
L 263.795782 245.351759 
L 263.761587 243.98593 
L 263.671519 242.620101 
L 263.528666 241.254271 
L 263.336012 239.888442 
L 263.096488 238.522613 
L 262.813007 237.156784 
L 262.61005 236.299465 
L 262.485002 235.790955 
L 262.112114 234.425126 
L 261.703386 233.059296 
L 261.262056 231.693467 
L 261.244221 231.641055 
L 260.775245 230.327638 
L 260.261299 228.961809 
L 259.878392 227.983707 
L 259.717801 227.59598 
L 259.137914 226.230151 
L 258.542457 224.864322 
L 258.512563 224.796172 
L 257.905707 223.498492 
L 257.259957 222.132663 
L 257.146734 221.891814 
L 256.578654 220.766834 
L 255.891931 219.401005 
L 255.780905 219.176145 
L 255.171195 218.035176 
L 254.453623 216.669347 
L 254.415075 216.593692 
L 253.698189 215.303518 
L 253.049246 214.100873 
L 252.952314 213.937688 
L 252.17447 212.571859 
L 251.683417 211.672412 
L 251.40073 211.20603 
L 250.613911 209.840201 
L 250.317588 209.29716 
L 249.814561 208.474372 
L 249.027832 207.108543 
L 248.951759 206.967768 
L 248.202624 205.742714 
L 247.58593 204.663029 
L 247.398414 204.376884 
L 246.566402 203.011055 
L 246.220101 202.398821 
L 245.724619 201.645226 
L 244.894397 200.279397 
L 244.854271 200.208329 
L 243.991467 198.913568 
L 243.488442 198.097095 
L 243.079886 197.547739 
L 242.140202 196.18191 
L 242.122613 196.154613 
L 241.056803 194.81608 
L 240.756784 194.413409 
L 239.836499 193.450251 
L 239.390955 192.955393 
L 238.329715 192.084422 
L 238.025126 191.821583 
L 236.659296 191.034507 
L 235.631695 190.718593 
L 235.293467 190.610168 
L 233.927638 190.554588 
L 233.221386 190.718593 
L 232.561809 190.879782 
L 231.19598 191.607885 
L 230.616174 192.084422 
L 229.830151 192.765453 
L 229.235226 193.450251 
L 228.464322 194.378005 
L 228.166733 194.81608 
L 227.261538 196.18191 
L 227.098492 196.428101 
L 226.457435 197.547739 
L 225.732663 198.821036 
L 225.685576 198.913568 
L 224.960606 200.279397 
L 224.366834 201.375771 
L 224.232709 201.645226 
L 223.513902 203.011055 
L 223.001005 203.947764 
L 222.780368 204.376884 
L 222.035684 205.742714 
L 221.635176 206.441257 
L 221.269505 207.108543 
L 220.481139 208.474372 
L 220.269347 208.821088 
L 219.665061 209.840201 
L 218.903518 211.072378 
L 218.822324 211.20603 
L 217.944024 212.571859 
L 217.537688 213.178766 
L 217.031372 213.937688 
L 216.171859 215.179512 
L 216.085329 215.303518 
L 215.089607 216.669347 
L 214.80603 217.046032 
L 214.044733 218.035176 
L 213.440201 218.798929 
L 212.946917 219.401005 
L 212.074372 220.438683 
L 211.784987 220.766834 
L 210.708543 221.959099 
L 210.541847 222.132663 
L 209.342714 223.355785 
L 209.191526 223.498492 
L 207.976884 224.625717 
L 207.694063 224.864322 
L 206.611055 225.766607 
L 205.986272 226.230151 
L 205.245226 226.776027 
L 203.964175 227.59598 
L 203.879397 227.650212 
L 202.513568 228.390767 
L 201.230426 228.961809 
L 201.147739 228.998735 
L 199.78191 229.487319 
L 198.41608 229.860615 
L 197.050251 230.134127 
L 195.684422 230.325265 
L 195.659413 230.327638 
L 194.318593 230.455388 
L 192.952764 230.538676 
L 191.586935 230.593554 
L 190.221106 230.637551 
L 188.855276 230.687053 
L 187.489447 230.757255 
L 186.123618 230.862243 
L 184.757789 231.01515 
L 183.39196 231.228375 
L 182.026131 231.513834 
L 181.363578 231.693467 
L 180.660302 231.889666 
L 179.294472 232.370435 
L 177.928643 232.962723 
L 177.743928 233.059296 
L 176.562814 233.711528 
L 175.478757 234.425126 
L 175.196985 234.625723 
L 173.831156 235.768062 
L 173.807441 235.790955 
L 172.541913 237.156784 
L 172.465327 237.252347 
L 171.573655 238.522613 
L 171.099497 239.346402 
L 170.822384 239.888442 
L 170.287109 241.254271 
L 169.928823 242.620101 
L 169.754671 243.98593 
L 169.772308 245.351759 
L 169.990105 246.717588 
L 170.417349 248.083417 
L 171.064458 249.449246 
L 171.099497 249.503818 
L 172.041579 250.815075 
L 172.465327 251.277501 
L 173.412051 252.180905 
L 173.831156 252.507809 
L 175.196985 253.416684 
L 175.432054 253.546734 
L 176.562814 254.074447 
L 177.928643 254.584558 
L 179.078428 254.912563 
L 179.294472 254.965928 
L 180.660302 255.20712 
L 182.026131 255.358964 
L 183.39196 255.430606 
L 184.757789 255.431972 
L 186.123618 255.373696 
L 187.489447 255.267044 
L 188.855276 255.12381 
L 190.221106 254.956198 
L 190.552546 254.912563 
L 191.586935 254.75772 
L 192.952764 254.554365 
L 194.318593 254.366476 
L 195.684422 254.20784 
L 197.050251 254.091593 
L 198.41608 254.02999 
L 199.78191 254.034169 
L 201.147739 254.113941 
L 202.513568 254.277593 
L 203.879397 254.531727 
L 205.245226 254.881125 
L 205.340451 254.912563 
L 206.611055 255.28179 
L 207.976884 255.767114 
L 209.195492 256.278392 
L 209.342714 256.33358 
L 210.708543 256.925781 
L 212.074372 257.589829 
L 212.175073 257.644221 
L 213.440201 258.261472 
L 214.80603 258.98203 
L 214.855353 259.01005 
L 216.171859 259.692238 
L 217.428496 260.375879 
L 217.537688 260.430576 
L 218.903518 261.147021 
L 220.010682 261.741709 
L 220.269347 261.870656 
L 221.635176 262.56573 
L 222.699516 263.107538 
L 223.001005 263.251091 
L 224.366834 263.899609 
L 225.60575 264.473367 
L 225.732663 264.528779 
L 227.098492 265.11069 
L 228.464322 265.663727 
L 228.922267 265.839196 
L 229.830151 266.17005 
L 231.19598 266.631786 
L 232.561809 267.050663 
L 233.125287 267.205025 
z
" clip-path="url(#p3c2549fa4e)" style="fill: #472d7b"/>
    <path d="M 39.979899 159.673678 
L 41.345729 159.939817 
L 42.711558 159.975334 
L 44.077387 159.807331 
L 45.443216 159.460062 
L 45.860274 159.304523 
L 46.809045 158.932786 
L 48.174874 158.246421 
L 48.685394 157.938693 
L 49.540704 157.383204 
L 50.623581 156.572864 
L 50.906533 156.338495 
L 52.121717 155.207035 
L 52.272362 155.046411 
L 53.296488 153.841206 
L 53.638191 153.359142 
L 54.213934 152.475377 
L 54.90802 151.109548 
L 55.00402 150.840433 
L 55.367505 149.743719 
L 55.617503 148.377889 
L 55.659211 147.01206 
L 55.48977 145.646231 
L 55.108489 144.280402 
L 55.00402 144.040068 
L 54.483776 142.914573 
L 53.638191 141.557373 
L 53.632413 141.548744 
L 52.486576 140.182915 
L 52.272362 139.968878 
L 51.020332 138.817085 
L 50.906533 138.726268 
L 49.540704 137.740996 
L 49.085716 137.451256 
L 48.174874 136.934407 
L 46.809045 136.272556 
L 46.328253 136.085427 
L 45.443216 135.771862 
L 44.077387 135.419696 
L 42.711558 135.214964 
L 41.345729 135.177613 
L 39.979899 135.329826 
L 38.61407 135.696014 
L 37.73105 136.085427 
L 37.248241 136.328993 
L 35.882412 137.312156 
L 35.735587 137.451256 
L 34.516583 138.810633 
L 34.511957 138.817085 
L 33.697728 140.182915 
L 33.150754 141.34707 
L 33.071617 141.548744 
L 32.667396 142.914573 
L 32.394478 144.280402 
L 32.24718 145.646231 
L 32.220259 147.01206 
L 32.308856 148.377889 
L 32.508429 149.743719 
L 32.814681 151.109548 
L 33.150754 152.233535 
L 33.236152 152.475377 
L 33.832391 153.841206 
L 34.516583 155.160109 
L 34.546345 155.207035 
L 35.537067 156.572864 
L 35.882412 156.997974 
L 36.865271 157.938693 
L 37.248241 158.272775 
L 38.61407 159.138068 
L 39.016949 159.304523 
z
" clip-path="url(#p3c2549fa4e)" style="fill: #472d7b"/>
   </g>
   <g id="PathCollection_4"/>
   <g id="PathCollection_5"/>
   <g id="PathCollection_6"/>
   <g id="PathCollection_7"/>
   <g id="PathCollection_8"/>
   <g id="PathCollection_9"/>
   <g id="PathCollection_10"/>
   <g id="PathCollection_11"/>
   <g id="PathCollection_12"/>
   <g id="PathCollection_13"/>
   <g id="PathCollection_14"/>
   <g id="PathCollection_15"/>
   <g id="PathCollection_16"/>
   <g id="PathCollection_17"/>
   <g id="PathCollection_18"/>
   <g id="PathCollection_19"/>
   <g id="PathCollection_20"/>
   <g id="patch_2">
    <path d="M 64.397346 126.321377 
L 65.678623 127.602654 
L 49.662654 143.618623 
L 48.381377 142.337346 
z
" clip-path="url(#p3c2549fa4e)" style="fill: #ff0000; stroke: #ff0000; stroke-linejoin: miter"/>
   </g>
   <g id="PathCollection_21">
    <defs>
     <path id="ma4d46b7a1b" d="M 0 0.866025 
C 0.229673 0.866025 0.449969 0.774776 0.612372 0.612372 
C 0.774776 0.449969 0.866025 0.229673 0.866025 0 
C 0.866025 -0.229673 0.774776 -0.449969 0.612372 -0.612372 
C 0.449969 -0.774776 0.229673 -0.866025 0 -0.866025 
C -0.229673 -0.866025 -0.449969 -0.774776 -0.612372 -0.612372 
C -0.774776 -0.449969 -0.866025 -0.229673 -0.866025 0 
C -0.866025 0.229673 -0.774776 0.449969 -0.612372 0.612372 
C -0.449969 0.774776 -0.229673 0.866025 0 0.866025 
z
" style="stroke: #000000"/>
    </defs>
    <g clip-path="url(#p3c2549fa4e)">
     <use xlink:href="#ma4d46b7a1b" x="29.85" y="252.75" style="stroke: #000000"/>
     <use xlink:href="#ma4d46b7a1b" x="66.09" y="252.75" style="stroke: #000000"/>
     <use xlink:href="#ma4d46b7a1b" x="102.33" y="252.75" style="stroke: #000000"/>
     <use xlink:href="#ma4d46b7a1b" x="138.57" y="252.75" style="stroke: #000000"/>
     <use xlink:href="#ma4d46b7a1b" x="174.81" y="252.75" style="stroke: #000000"/>
     <use xlink:href="#ma4d46b7a1b" x="211.05" y="252.75" style="stroke: #000000"/>
     <use xlink:href="#ma4d46b7a1b" x="247.29" y="252.75" style="stroke: #000000"/>
     <use xlink:href="#ma4d46b7a1b" x="29.85" y="216.51" style="stroke: #000000"/>
     <use xlink:href="#ma4d46b7a1b" x="66.09" y="216.51" style="stroke: #000000"/>
     <use xlink:href="#ma4d46b7a1b" x="102.33" y="216.51" style="stroke: #000000"/>
     <use xlink:href="#ma4d46b7a1b" x="138.57" y="216.51" style="stroke: #000000"/>
     <use xlink:href="#ma4d46b7a1b" x="174.81" y="216.51" style="stroke: #000000"/>
     <use xlink:href="#ma4d46b7a1b" x="211.05" y="216.51" style="stroke: #000000"/>
     <use xlink:href="#ma4d46b7a1b" x="247.29" y="216.51" style="stroke: #000000"/>
     <use xlink:href="#ma4d46b7a1b" x="29.85" y="180.27" style="stroke: #000000"/>
     <use xlink:href="#ma4d46b7a1b" x="66.09" y="180.27" style="stroke: #000000"/>
     <use xlink:href="#ma4d46b7a1b" x="102.33" y="180.27" style="stroke: #000000"/>
     <use xlink:href="#ma4d46b7a1b" x="138.57" y="180.27" style="stroke: #000000"/>
     <use xlink:href="#ma4d46b7a1b" x="174.81" y="180.27" style="stroke: #000000"/>
     <use xlink:href="#ma4d46b7a1b" x="211.05" y="180.27" style="stroke: #000000"/>
     <use xlink:href="#ma4d46b7a1b" x="247.29" y="180.27" style="stroke: #000000"/>
     <use xlink:href="#ma4d46b7a1b" x="29.85" y="144.03" style="stroke: #000000"/>
     <use xlink:href="#ma4d46b7a1b" x="66.09" y="144.03" style="stroke: #000000"/>
     <use xlink:href="#ma4d46b7a1b" x="102.33" y="144.03" style="stroke: #000000"/>
     <use xlink:href="#ma4d46b7a1b" x="138.57" y="144.03" style="stroke: #000000"/>
     <use xlink:href="#ma4d46b7a1b" x="174.81" y="144.03" style="stroke: #000000"/>
     <use xlink:href="#ma4d46b7a1b" x="211.05" y="144.03" style="stroke: #000000"/>
     <use xlink:href="#ma4d46b7a1b" x="247.29" y="144.03" style="stroke: #000000"/>
     <use xlink:href="#ma4d46b7a1b" x="29.85" y="107.79" style="stroke: #000000"/>
     <use xlink:href="#ma4d46b7a1b" x="66.09" y="107.79" style="stroke: #000000"/>
     <use xlink:href="#ma4d46b7a1b" x="102.33" y="107.79" style="stroke: #000000"/>
     <use xlink:href="#ma4d46b7a1b" x="138.57" y="107.79" style="stroke: #000000"/>
     <use xlink:href="#ma4d46b7a1b" x="174.81" y="107.79" style="stroke: #000000"/>
     <use xlink:href="#ma4d46b7a1b" x="211.05" y="107.79" style="stroke: #000000"/>
     <use xlink:href="#ma4d46b7a1b" x="247.29" y="107.79" style="stroke: #000000"/>
     <use xlink:href="#ma4d46b7a1b" x="66.09" y="71.55" style="stroke: #000000"/>
     <use xlink:href="#ma4d46b7a1b" x="102.33" y="71.55" style="stroke: #000000"/>
     <use xlink:href="#ma4d46b7a1b" x="138.57" y="71.55" style="stroke: #000000"/>
     <use xlink:href="#ma4d46b7a1b" x="174.81" y="71.55" style="stroke: #000000"/>
     <use xlink:href="#ma4d46b7a1b" x="211.05" y="71.55" style="stroke: #000000"/>
     <use xlink:href="#ma4d46b7a1b" x="247.29" y="71.55" style="stroke: #000000"/>
     <use xlink:href="#ma4d46b7a1b" x="102.33" y="35.31" style="stroke: #000000"/>
     <use xlink:href="#ma4d46b7a1b" x="138.57" y="35.31" style="stroke: #000000"/>
     <use xlink:href="#ma4d46b7a1b" x="174.81" y="35.31" style="stroke: #000000"/>
     <use xlink:href="#ma4d46b7a1b" x="211.05" y="35.31" style="stroke: #000000"/>
    </g>
   </g>
   <g id="line2d_1">
    <path d="M 7.2 275.4 
L 279 275.4 
L 279 94.2 
L 188.4 3.6 
L 97.8 3.6 
L 7.2 94.2 
L 7.2 275.4 
" clip-path="url(#p3c2549fa4e)" style="fill: none; stroke: #000000; stroke-width: 2; stroke-linecap: square"/>
   </g>
  </g>
 </g>
 <defs>
  <clipPath id="p3c2549fa4e">
   <rect x="3.6" y="3.6" width="279" height="271.8"/>
  </clipPath>
 </defs>
</svg>
